<svg width="296" height="294" viewBox="0 0 296 294" fill="none" xmlns="http://www.w3.org/2000/svg">
<g clip-path="url(#clip0_493_48)">
<path d="M1.00439 286.087C1.00439 285.763 1.27468 285.492 1.59845 285.492C1.92221 285.492 2.1925 285.763 2.1925 286.087C2.1925 286.411 1.92221 286.682 1.59845 286.682C1.27468 286.682 1.00439 286.411 1.00439 286.087Z" fill="#F15025"/>
<path d="M103.486 168.662C103.486 168.491 103.629 168.348 103.8 168.348C103.971 168.348 104.114 168.491 104.114 168.662C104.114 168.834 103.971 168.977 103.8 168.977C103.629 168.977 103.486 168.834 103.486 168.662Z" fill="#F15025"/>
<path d="M1.90566 286.345C1.63611 286.228 1.54601 285.905 1.68445 285.654C1.77455 285.49 1.91006 285.348 2.02799 285.204C2.23162 284.953 2.44331 284.709 2.65207 284.463C3.01319 284.036 3.37577 283.611 3.73909 283.187C4.58292 282.2 5.42895 281.216 6.27498 280.231C7.84251 278.407 9.41005 276.583 10.9798 274.761C14.2306 270.988 17.4814 267.215 20.7373 263.446C27.4089 255.726 34.0965 248.02 40.7893 240.318C47.3766 232.738 53.9639 225.157 60.5607 217.585C67.0814 210.1 73.6028 202.617 80.1256 195.134C86.4192 187.915 92.715 180.697 99.0151 173.484C105.463 166.102 111.913 158.721 118.365 151.342C125.001 143.753 131.637 136.165 138.276 128.578C144.793 121.129 151.311 113.681 157.827 106.231C164.427 98.6832 171.032 91.1393 177.634 83.5933C184.204 76.0831 190.775 68.5737 197.346 61.0635C200.821 57.0928 204.295 53.1222 207.768 49.1515C207.965 48.9257 208.209 48.7687 208.511 48.7313C208.808 48.6939 209.113 48.7783 209.348 48.9645C209.811 49.3297 209.94 50.0842 209.535 50.5462C203.654 57.2578 197.779 63.976 191.903 70.6943C185.337 78.203 178.765 85.7073 172.196 93.2138C165.555 100.804 158.913 108.391 152.272 115.98C145.698 123.495 139.121 131.007 132.545 138.52C126.032 145.961 119.518 153.4 113.004 160.837C106.685 168.051 100.363 175.264 94.0364 182.472C87.5216 189.895 81.0061 197.317 74.4891 204.738C67.849 212.298 61.2061 219.857 54.558 227.41C48.0146 234.844 41.4654 242.274 34.9154 249.703C28.2058 257.313 21.483 264.914 14.7404 272.495C12.6044 274.896 10.4678 277.299 8.33109 279.7C7.28948 280.87 6.24788 282.038 5.20481 283.207C4.73968 283.729 4.27235 284.249 3.80502 284.768C3.54571 285.057 3.28641 285.345 3.02491 285.631C2.87988 285.791 2.73338 285.949 2.58615 286.107C2.52535 286.172 2.46089 286.234 2.38911 286.287C2.38864 286.286 2.38819 286.286 2.38772 286.285C2.30334 286.348 2.20008 286.384 2.09397 286.384C2.03109 286.384 1.96723 286.372 1.90566 286.345Z" fill="#F15025"/>
<path d="M5.19447 293.175C2.8515 293.114 1.00822 291.176 0.181307 289.111C-0.0999012 288.425 0.0162446 287.662 0.302128 286.998C0.590067 286.546 0.946676 285.532 1.63385 285.889C1.87758 286.094 1.77162 286.459 1.71583 286.724C1.61021 287.17 1.53389 287.623 1.49547 288.079C1.59388 289.794 2.9521 291.254 4.39438 292.053C5.76213 292.815 6.83402 292.834 8.14054 291.928C8.27972 291.844 8.41523 292.055 8.28555 292.152C7.40221 292.848 6.32244 293.266 5.19093 293.175L5.19447 293.175Z" fill="#F15025"/>
<path d="M8.56846 291.089C8.15533 290.761 8.09527 290.083 8.49961 289.718C8.5604 289.664 8.61534 289.605 8.67467 289.549C8.75012 289.477 8.82703 289.409 8.90028 289.334C9.08047 289.15 9.26506 288.97 9.44525 288.785C9.63204 288.592 9.82542 288.408 10.0166 288.221C10.1316 288.109 10.2459 287.997 10.3631 287.888C10.4569 287.801 10.5573 287.725 10.6567 287.646C10.8285 287.487 10.993 287.321 11.1651 287.163C11.3234 287.017 11.4787 286.869 11.6317 286.718C12.154 286.201 12.6733 285.679 13.1978 285.165C14.5068 283.88 15.7799 282.559 17.0654 281.25C20.062 278.199 23.0396 275.129 26.0113 272.053C32.7224 265.104 39.4467 258.166 46.1673 251.227C52.8367 244.34 59.5038 237.451 66.1768 230.567C72.9421 223.587 79.7125 216.613 86.4859 209.64C93.3618 202.562 100.238 195.484 107.114 188.406C114.015 181.303 120.913 174.196 127.811 167.089C134.46 160.239 141.103 153.386 147.75 146.536C154.669 139.407 161.591 132.279 168.516 125.155C175.202 118.279 181.893 111.407 188.592 104.544C195.31 97.6607 202.032 90.7819 208.765 83.9126C212.134 80.4743 215.506 77.0382 218.891 73.616C220.457 72.0321 222.028 70.4526 223.608 68.882C224.384 68.1106 225.159 67.3362 225.952 66.5817C226.178 66.3669 226.409 66.1571 226.644 65.9526C226.783 65.8308 226.918 65.6996 227.063 65.5845C227.1 65.5551 227.135 65.5251 227.178 65.506C227.245 65.4752 227.326 65.5199 227.343 65.5889C227.351 65.6167 227.348 65.6444 227.337 65.6686L227.338 65.6688C227.29 65.7817 227.187 65.8756 227.109 65.968C226.97 66.1344 226.834 66.3038 226.695 66.4703C226.052 67.2321 225.36 67.9537 224.681 68.6825C223.171 70.3016 221.65 71.9104 220.125 73.5155C216.883 76.9274 213.625 80.3254 210.363 83.7197C203.724 90.6279 197.079 97.5301 190.427 104.425C183.632 111.469 176.837 118.513 170.022 125.537C163.187 132.579 156.363 139.632 149.53 146.675C142.834 153.578 136.134 160.478 129.436 167.379C122.652 174.369 115.871 181.364 109.091 188.357C102.232 195.433 95.3754 202.51 88.5164 209.585C81.732 216.583 74.9469 223.582 68.1553 230.573C61.2999 237.631 54.4401 244.685 47.5796 251.739C40.9278 258.578 34.2775 265.421 27.6199 272.256C24.791 275.161 21.9643 278.067 19.1522 280.988C17.7935 282.4 16.4318 283.811 15.0811 285.231C14.613 285.723 14.1552 286.225 13.693 286.723C13.2908 287.155 12.8798 287.58 12.4818 288.017C12.2653 288.262 12.0505 288.508 11.9006 288.673C11.8515 288.728 11.8053 288.783 11.8038 288.783C11.6002 289.072 11.3536 289.324 11.1155 289.583C10.9456 289.77 10.7737 289.955 10.5975 290.136C10.424 290.315 10.2563 290.498 10.0842 290.677C10.0056 290.767 9.92691 290.857 9.84615 290.945C9.69271 291.125 9.48963 291.248 9.25188 291.279C9.2139 291.284 9.17566 291.287 9.13752 291.287C8.93286 291.287 8.72961 291.217 8.56846 291.089Z" fill="#F15025"/>
<path d="M12.4548 280.389C12.3414 280.117 12.5305 279.847 12.654 279.614C13.0119 279.013 13.4002 278.431 13.796 277.855C15.0865 275.96 16.6336 274.459 18.1352 272.775C18.7257 272.201 19.6016 273.073 19.0245 273.673C18.6246 274.081 18.218 274.484 17.8269 274.902C16.4135 276.462 15.0588 277.949 13.7 279.489C13.4626 279.76 13.2362 280.041 13.0019 280.305C12.8743 280.503 12.6003 280.667 12.4548 280.389Z" fill="#F15025"/>
<path d="M25.8472 266.028C25.6916 265.426 27.7741 263.056 28.2183 262.437C29.8113 260.348 31.5267 258.362 33.3472 256.468C33.7173 256.067 34.4503 256.373 34.4342 256.916C34.4357 257.092 34.3632 257.248 34.246 257.375C33.8524 257.801 33.4613 258.231 33.0755 258.665C31.3204 260.689 29.4042 262.609 27.6411 264.619C27.6478 264.612 27.6544 264.604 27.6608 264.597C27.6623 264.595 27.6638 264.594 27.6653 264.592C27.44 264.849 27.2168 265.109 26.9943 265.369C26.7936 265.603 26.5892 265.835 26.4061 266.083C26.4273 266.055 26.4407 266.022 26.4507 265.988C26.4503 265.987 26.4499 265.985 26.4495 265.984C26.3857 266.271 25.9566 266.31 25.8472 266.028Z" fill="#F15025"/>
<path d="M41.7154 246.984C41.5215 246.834 41.5014 246.522 41.6731 246.355C41.9832 245.891 42.3425 245.461 42.6698 245.01C44.7844 242.154 47.226 239.341 49.5428 236.707C50.8854 235.12 52.3838 233.717 53.8095 232.212C54.3862 231.661 55.2277 232.49 54.6732 233.083C53.5571 234.266 52.5866 235.577 51.4817 236.769C49.6857 238.751 47.8189 240.757 46.0561 242.75C45.0374 243.912 44.121 244.985 43.1027 246.08C42.8408 246.355 42.5848 246.637 42.311 246.9C42.1764 247.086 41.897 247.127 41.7154 246.984ZM42.2691 246.358C42.2069 246.322 42.1446 246.286 42.0816 246.249C42.0223 246.269 41.9631 246.289 41.9039 246.309C42.0255 246.326 42.1473 246.342 42.2691 246.358Z" fill="#F15025"/>
<path d="M64.3809 223.461C64.3147 223.373 64.363 223.273 64.4384 223.22C64.8367 222.763 65.2129 222.287 65.6115 221.83C65.8616 221.515 66.3251 221.928 66.0422 222.212C65.6681 222.541 65.2942 222.874 64.9281 223.213C64.7762 223.316 64.5707 223.651 64.3809 223.461Z" fill="#F15025"/>
<path d="M76.2387 208.35C75.8367 208.202 76.6753 207.242 76.7825 207.022C79.2086 203.519 82.2616 200.535 85.0472 197.33C87.6223 194.411 90.0333 191.356 92.4569 188.312C95.3286 184.776 98.3308 181.565 101.452 178.291C103.049 176.684 104.568 175.004 105.953 173.209C106.097 173.026 106.368 172.989 106.554 173.134C106.737 173.276 106.773 173.551 106.629 173.734C106.015 174.518 105.39 175.293 104.764 176.068C102.153 179.381 99.1877 182.381 96.5617 185.678C93.0234 189.912 89.6604 194.302 85.9047 198.349C83.881 200.541 81.7671 202.646 79.6837 204.781C78.8066 205.68 77.9582 206.605 77.1178 207.538C76.8663 207.795 76.6487 208.092 76.3711 208.32C76.335 208.35 76.2845 208.363 76.2387 208.35Z" fill="#F15025"/>
<path d="M117.635 163.463C117.483 163.272 117.707 163.051 117.819 162.906C117.964 162.716 118.102 162.524 118.237 162.328C119.349 160.563 120.411 158.759 121.711 157.122C122.711 155.777 123.872 154.603 125.069 153.44C129.652 149.082 133.99 144.482 138.396 139.95C139.962 138.333 141.532 136.69 142.975 134.978C143.441 134.415 144.334 135.058 143.878 135.681C139.71 140.585 135.317 145.299 130.789 149.872C128.126 152.605 125.13 155.003 122.602 157.867C121.903 158.686 121.201 159.502 120.552 160.362C120.167 160.764 118.011 164.112 117.635 163.463Z" fill="#F15025"/>
<path d="M151.009 126.683C150.947 126.537 151.018 126.359 151.166 126.299C151.954 125.639 152.671 124.895 153.378 124.148C154.747 122.666 156.129 121.164 157.478 119.673C158.775 118.166 160.096 116.68 161.435 115.21C161.652 114.967 162.061 114.991 162.281 115.213C162.514 115.442 162.506 115.832 162.278 116.06C160.968 117.531 159.652 118.996 158.275 120.405C157.559 121.016 151.36 127.965 151.009 126.683Z" fill="#F15025"/>
<path d="M172.067 104.496C172.085 104.144 172.366 103.858 172.532 103.563C173.07 102.744 173.649 101.95 174.264 101.189C176.572 98.3762 179.251 95.9117 181.452 93.0442C183.928 89.9271 186.534 86.9018 189.499 84.2368C190.353 83.4684 191.242 82.7411 192.113 81.9924C193.429 80.8686 194.592 79.5868 195.743 78.2986C196.599 77.3183 197.456 76.3364 198.286 75.3335C199.102 74.3465 199.888 73.3368 200.67 72.3227C200.931 71.9652 201.259 71.4508 201.753 71.8042C201.986 71.9861 202.028 72.3293 201.849 72.5632C199.36 75.7025 197.193 79.1042 194.368 81.963C192.529 83.7849 190.482 85.386 188.707 87.2756C185.896 90.0606 183.528 93.2358 180.932 96.2126C179.19 98.1964 177.221 99.9656 175.42 101.895C174.591 102.777 173.742 103.727 172.879 104.56C172.776 104.661 172.757 104.803 172.6 104.86C172.352 104.971 172.063 104.765 172.067 104.496Z" fill="#F15025"/>
<path d="M208.54 65.3211C208.392 64.9997 208.663 64.6583 208.807 64.3809C208.951 64.1293 209.094 63.8771 209.243 63.6293C210.209 62.0279 211.246 60.4387 212.611 59.1468C213.393 58.4031 214.515 59.5358 213.767 60.3134C213.258 60.8051 212.751 61.3018 212.283 61.8341C211.383 62.8664 210.499 63.9192 209.521 64.8802C209.376 65.0338 209.188 65.1559 209.071 65.3312C208.956 65.5299 208.645 65.5284 208.54 65.3211Z" fill="#F15025"/>
<path d="M228.813 71.8388C228.352 71.8212 227.899 71.7332 227.453 71.6188C226.716 71.4296 225.999 71.1715 225.366 70.9192C224.891 70.7308 224.428 70.5196 223.967 70.3011C223.806 70.2241 223.648 70.142 223.493 70.054C223.297 69.9425 223.077 69.8193 222.968 69.6118C222.762 69.2151 223.028 68.715 223.477 68.6776C223.711 68.6586 223.927 68.7752 224.131 68.8763C224.299 68.9614 224.463 69.0545 224.627 69.1462L224.627 69.146C225.38 69.5631 226.151 69.9562 226.95 70.2782C227.275 70.4046 227.606 70.5138 227.944 70.6019C228.18 70.6591 228.418 70.706 228.659 70.7377C228.771 70.7497 228.883 70.7575 228.995 70.7585C229.087 70.7544 229.179 70.7449 229.271 70.7324C229.343 70.7204 229.415 70.7063 229.486 70.6876C229.52 70.6758 229.555 70.6631 229.589 70.6494C229.615 70.6365 229.641 70.623 229.666 70.6087C229.689 70.5937 229.711 70.5783 229.733 70.5621C229.748 70.5486 229.763 70.5347 229.777 70.5206C229.784 70.5126 229.79 70.5047 229.797 70.4966C229.798 70.4956 229.798 70.4947 229.799 70.4937C229.801 70.4902 229.802 70.4867 229.804 70.4832C229.808 70.4692 229.813 70.4551 229.817 70.441C229.829 70.3852 229.839 70.3293 229.847 70.2729C229.853 70.2049 229.857 70.1365 229.858 70.0682C229.853 69.9806 229.845 69.894 229.834 69.8073C229.805 69.6423 229.766 69.4789 229.721 69.3175C229.623 69.0029 229.502 68.6909 229.37 68.3885C229.225 68.0654 229.067 67.7509 228.888 67.4457C228.706 67.1347 228.523 66.8245 228.335 66.5167C227.588 65.3114 226.746 64.1635 225.857 63.0594C225.261 62.3244 224.649 61.605 224.01 60.9072C223.406 60.2479 222.805 59.5858 222.181 58.9464C221.634 58.3884 221.087 57.8326 220.567 57.3347C220.223 57.0061 219.882 56.6747 219.6 56.4049C219.557 56.3638 219.515 56.3227 219.487 56.2954L219.442 56.2531C219.4 56.2135 219.359 56.1739 219.351 56.1651C218.974 55.8051 218.594 55.448 218.21 55.0945C217.842 54.7557 217.475 54.4126 217.089 54.0936C216.407 53.5283 215.708 52.9842 215.011 52.4379C214.522 52.0551 214.038 51.6657 213.546 51.2866C213.027 50.8862 212.506 50.4892 211.98 50.0976C211.972 50.0917 211.964 50.0858 211.961 50.0841C211.957 50.0811 211.953 50.0781 211.949 50.075L211.917 50.0503C211.904 50.0408 211.89 50.0312 211.877 50.0216L211.857 50.007C210.33 48.8887 208.778 47.802 207.193 46.7682C206.578 46.3671 205.945 45.9939 205.38 45.6786C204.889 45.4065 204.39 45.1477 203.884 44.9028C203.432 44.6835 202.978 44.4642 202.512 44.2751C202.153 44.1347 201.79 44.0117 201.418 43.9131C201.204 43.8596 200.988 43.8129 200.77 43.7834C200.661 43.7729 200.552 43.7681 200.442 43.7677C200.333 43.7704 200.225 43.7776 200.118 43.7919C200.073 43.7999 200.029 43.8095 199.986 43.8209C199.961 43.8291 199.936 43.8381 199.911 43.848C199.89 43.8586 199.869 43.8697 199.849 43.8814C199.833 43.8924 199.817 43.9038 199.801 43.9155C199.794 43.9215 199.787 43.9276 199.781 43.9338C199.767 43.9488 199.754 43.9642 199.742 43.9799C199.728 44.0008 199.714 44.0221 199.701 44.0438C199.69 44.0654 199.679 44.087 199.67 44.1091C199.658 44.141 199.648 44.1732 199.639 44.2057C199.629 44.251 199.621 44.2962 199.615 44.3419C199.61 44.402 199.607 44.4621 199.606 44.5226C199.611 44.6196 199.62 44.7158 199.633 44.812C199.666 45.0018 199.71 45.1878 199.763 45.3727C199.846 45.6391 199.944 45.8996 200.056 46.1555C200.271 46.6346 200.489 47.1168 200.753 47.5712C201.028 48.0441 201.318 48.5097 201.583 48.9442C201.813 49.3163 202.047 49.6838 202.242 50.0012C202.319 50.1251 202.396 50.2491 202.464 50.361C202.568 50.5294 202.675 50.6985 202.755 50.8797C202.801 50.9822 202.845 51.0931 202.849 51.2055C202.853 51.2115 202.857 51.2173 202.861 51.2231C202.87 51.2335 202.88 51.2439 202.889 51.254C202.923 51.2845 202.956 51.3147 202.984 51.3504C203.072 51.4619 203.033 51.6357 202.922 51.7141C202.801 51.7999 202.647 51.7633 202.558 51.6518C202.537 51.6249 202.521 51.5926 202.504 51.5623C202.494 51.547 202.483 51.5319 202.472 51.5172C202.47 51.5146 202.467 51.512 202.465 51.5095C202.385 51.4868 202.315 51.4417 202.242 51.393C202.127 51.3167 202.029 51.2236 201.933 51.1261C201.666 50.8584 201.413 50.5724 201.175 50.2791C200.876 49.9132 200.586 49.5407 200.312 49.155C200.048 48.7818 199.816 48.388 199.584 47.9943C199.348 47.5983 199.118 47.2016 198.932 46.7785C198.764 46.3943 198.617 45.9939 198.515 45.5862C198.4 45.1257 198.342 44.6329 198.431 44.1629C198.499 43.8095 198.672 43.4912 198.932 43.2434C199.123 43.0623 199.374 42.9325 199.622 42.8482C199.923 42.7448 200.229 42.7074 200.546 42.7052C201.48 42.6993 202.394 42.9691 203.272 43.2632C204.209 43.577 205.104 44.0016 205.979 44.4599C206.865 44.9248 207.737 45.4183 208.596 45.9308C210.28 46.9354 211.873 48.0918 213.425 49.287C214.201 49.8839 214.964 50.4984 215.713 51.1275C216.054 51.4142 216.381 51.7171 216.716 52.0126C217.062 52.3184 217.403 52.6285 217.741 52.9431C218.084 53.2635 218.438 53.57 218.791 53.8795C219.178 54.2175 219.56 54.5592 219.941 54.9039C220.676 55.5689 221.391 56.2538 222.094 56.9541C222.732 57.5891 223.365 58.2293 223.99 58.8782C224.654 59.566 225.285 60.2839 225.912 61.0047C226.578 61.7688 227.227 62.5453 227.852 63.3438C228.437 64.0918 228.999 64.8551 229.511 65.6551C229.766 66.0547 230.008 66.4602 230.219 66.8848C230.401 67.2536 230.587 67.6217 230.739 68.0045C231.003 68.6696 231.207 69.3955 231.128 70.1185C231.104 70.337 231.055 70.5467 230.963 70.7469C230.897 70.8906 230.802 71.019 230.703 71.1414C230.47 71.4296 230.171 71.6298 229.817 71.7383C229.656 71.7882 229.494 71.8234 229.325 71.8373C229.249 71.8436 229.172 71.8458 229.095 71.8458C229.001 71.8458 228.907 71.8424 228.813 71.8388Z" fill="#F15025"/>
<path d="M199.838 44.8288C198.834 44.5978 199.903 41.154 199.995 40.3658C200.143 39.615 200.306 38.8663 200.503 38.1264C201.134 35.8414 201.824 33.5572 202.917 31.4456C203.743 29.8704 204.744 28.3954 205.803 26.969C207.129 25.0877 208.57 23.2912 210.092 21.5655C210.798 20.7578 211.586 20.0303 212.388 19.3202C212.544 19.1616 212.817 19.1531 212.975 19.3144C213.133 19.4698 213.144 19.7455 212.98 19.9017C212.086 20.7914 211.172 21.7213 210.348 22.6647C208.203 25.2447 206.133 27.9114 204.399 30.7893C203.288 32.6217 202.493 34.7192 201.871 36.741C201.179 39.1203 200.496 41.557 200.134 44.0036C200.065 44.2738 200.221 44.8139 199.838 44.8288Z" fill="#F15025"/>
<path d="M215.958 17.3635C215.944 17.0498 216.191 16.7882 216.374 16.5577C216.637 16.2563 216.922 15.9798 217.217 15.7107C218.432 14.638 219.801 13.7512 221.161 12.8744C223.21 11.5954 225.345 10.443 227.585 9.53437C230.64 8.33884 233.785 7.38628 236.946 6.51767C240.895 5.4467 244.726 3.96765 248.712 3.04192C255 1.70821 261.429 0.899325 267.859 0.809935C270.213 0.791213 272.489 0.971667 274.822 1.15459C276.421 1.24997 278.01 1.46055 279.584 1.75368C281.498 2.08679 283.386 2.57412 285.195 3.28546C286.545 3.79082 287.939 4.27739 289.095 5.16332C290.488 6.30848 291.569 7.79086 292.623 9.24182C293.221 10.0967 293.515 11.1048 293.933 12.0458C293.996 12.2616 293.988 12.5004 293.892 12.7043C293.739 12.9741 293.325 12.9577 293.204 12.6691C292.181 11.0434 290.804 9.6557 289.289 8.48281C287.459 7.12686 285.251 6.15853 283.109 5.4816C282.264 5.24666 281.38 5.30049 280.517 5.37533C279.094 5.43181 277.695 5.64856 276.307 5.95676C276.096 5.99856 275.882 5.84824 275.824 5.64806C275.765 5.44274 275.87 5.21249 276.068 5.12963C276.832 4.80846 277.648 4.62808 278.462 4.48646C280.02 4.31822 281.616 3.89852 283.179 4.18882C284.401 4.51708 285.54 5.09913 286.694 5.61066C288.011 6.20401 289.294 6.89375 290.41 7.82092C289.716 7.08323 289.063 6.28252 288.22 5.70802C287.12 4.98037 285.9 4.46701 284.673 3.99749C282.128 2.9688 279.427 2.39935 276.713 2.06823C273.225 1.71859 269.719 1.35485 266.22 1.54974C259.751 1.87822 253.295 2.82515 247.007 4.38096C243.819 5.23193 240.705 6.32805 237.595 7.42477C234.031 8.63087 230.352 9.61883 226.903 11.1168C223.983 12.4232 221.136 14.0718 218.497 15.8332C217.871 16.2682 217.259 16.7199 216.659 17.1898C216.486 17.3066 216.332 17.4734 216.118 17.4976C216.041 17.4976 215.968 17.4435 215.958 17.3635Z" fill="#F15025"/>
<path d="M270.022 7.57084C269.668 7.49742 269.654 6.951 270.007 6.86323C270.111 6.83683 270.215 6.81704 270.321 6.8097C270.821 6.72813 270.975 7.22778 270.497 7.41832C270.323 7.51321 270.211 7.61101 270.022 7.57084Z" fill="#F15025"/>
<path d="M251.229 30.6429C250.801 30.5373 250.516 30.0834 250.629 29.6508C250.962 28.3011 251.315 26.9547 251.87 25.6764C254.283 20.0727 258.04 14.7139 263.262 11.4274C263.78 11.133 264.982 10.2463 265.495 10.7609C265.704 11.0792 265.394 11.2445 265.155 11.3842C264.25 12.0534 263.422 12.8221 262.574 13.5607C259.199 16.6192 256.515 20.4061 254.514 24.4885C253.865 25.8253 253.296 27.1971 252.758 28.5816C252.58 29.026 252.405 29.4704 252.256 29.9252C252.173 30.3998 251.716 30.7733 251.229 30.6429Z" fill="#F15025"/>
<path d="M249.416 35.8971C249.437 35.1206 249.555 32.916 250.361 32.6062C250.864 32.4965 251.009 33.038 250.934 33.4318C250.852 34.2718 250.888 35.1183 250.749 35.9535C250.646 36.7696 249.44 36.7201 249.416 35.8971Z" fill="#F15025"/>
<path d="M231.406 69.3635C231.08 68.5481 231.95 68.2609 232.511 67.9793C232.868 67.7955 233.231 67.599 233.568 67.4269C235.294 66.5796 236.935 65.5801 238.509 64.4769C241.919 62.1496 244.401 59.5106 246.336 55.8515C247.96 53.0407 249.204 49.9999 249.759 46.7905C249.932 45.7862 250.078 44.777 250.149 43.7598C250.222 43.2158 250.172 42.0542 250.764 41.8724C251.348 41.8335 251.212 42.6758 251.281 43.0574C251.404 44.55 251.131 46.0237 250.841 47.4717C250.19 50.5555 249.172 53.5324 247.686 56.3039C246.81 58.0078 245.865 59.6923 244.603 61.1442C242.638 63.4844 240.199 65.3089 237.635 66.9291C236.089 67.8946 234.491 68.7904 232.852 69.5871C232.357 69.8732 231.699 69.9986 231.406 69.3635Z" fill="#F15025"/>
<path d="M229.797 71.7562C229.279 71.755 229.53 70.9849 229.947 71.2906C230.548 71.1732 231.148 71.0053 231.709 70.7766C231.769 70.7524 231.841 70.7788 231.872 70.8352C231.994 71.0623 231.309 71.272 231.162 71.3581C230.731 71.54 230.28 71.7937 229.797 71.7562Z" fill="#F15025"/>
<path d="M233.263 70.2076C233.239 70.1827 233.238 70.1379 233.265 70.1145C233.469 69.8682 233.726 69.6282 234.032 69.5316C234.513 69.2827 234.915 68.9624 235.388 68.7073C235.694 68.5275 236 68.3501 236.307 68.1721C236.376 68.1332 236.465 68.1537 236.513 68.2168C236.67 68.4611 236.086 68.6973 235.939 68.8305C235.416 69.1916 234.785 69.3741 234.257 69.7171C233.974 69.9102 233.654 70.0454 233.355 70.2105C233.328 70.2333 233.288 70.2344 233.263 70.2076Z" fill="#F15025"/>
<path d="M236.946 67.8496C236.905 67.7782 236.94 67.6801 237.018 67.6524C237.217 67.5128 237.435 67.3917 237.639 67.2602C237.764 67.1834 237.862 67.0728 237.973 66.977C238.008 66.9447 238.063 66.9447 238.097 66.9799C238.225 67.1546 237.452 67.6431 237.314 67.7777C237.21 67.8528 237.047 68.0122 236.946 67.8496Z" fill="#F15025"/>
<path d="M238.698 66.4513C238.675 66.4212 238.683 66.3809 238.712 66.3574C238.712 66.3574 238.712 66.3567 238.706 66.3625C238.947 66.136 239.216 65.9472 239.47 65.745C239.654 65.5818 239.825 65.4034 240.015 65.248C240.054 65.215 240.109 65.2128 240.146 65.2502C240.18 65.2854 240.181 65.3477 240.143 65.3807C239.881 65.6152 239.621 65.8449 239.337 66.0509C239.163 66.1973 238.96 66.3164 238.791 66.4652C238.763 66.4885 238.718 66.4801 238.698 66.4513Z" fill="#F15025"/>
<path d="M206.522 46.0668C206.28 45.6771 206.346 45.1927 206.356 44.7549C206.375 44.3238 206.437 43.8926 206.498 43.4658C206.654 42.6017 206.742 41.6692 207.272 40.9412C207.749 40.2022 208.959 40.6209 208.886 41.4977C208.868 41.9542 208.786 42.403 208.601 42.822C208.326 43.5454 208.077 44.2773 207.873 45.0248C207.725 45.4938 207.629 46.2952 207.013 46.3248C206.823 46.3248 206.631 46.2332 206.522 46.0668Z" fill="#F15025"/>
<path d="M210.211 36.1452C209.468 35.9907 209.77 34.5913 209.826 34.0443C210.428 31.2323 212.383 28.3776 214.41 26.3765C214.947 25.8802 215.517 25.4163 216.039 24.9027C216.788 24.2516 217.841 25.3233 217.17 26.0634C216.381 26.877 215.761 27.8316 215.026 28.6927C213.686 30.3875 212.485 32.2036 211.566 34.1631C211.33 34.6753 211.097 35.1887 210.841 35.6905C210.732 35.9441 210.519 36.2088 210.211 36.1452Z" fill="#F15025"/>
<path d="M220.826 22.194C219.639 21.9437 222.19 19.9213 222.545 19.6125C224.241 18.2587 226.11 17.1204 228.028 16.1119C228.904 15.6249 229.864 15.3373 230.836 15.1162C231.295 14.9757 231.915 14.7516 232.134 15.3588C232.31 16.0082 231.705 16.1539 231.232 16.3255C229.854 17.0172 228.399 17.5304 227.007 18.1936C225.552 18.8982 224.127 19.6803 222.822 20.6394C222.293 21.0327 221.796 21.467 221.307 21.9091C221.163 22.0347 221.01 22.2045 220.808 22.1965L220.826 22.194Z" fill="#F15025"/>
<path d="M234.026 14.7222C233.846 14.6091 233.854 14.3091 234.034 14.2081C234.148 14.1477 234.272 14.1047 234.389 14.0512C235.346 13.6455 236.351 13.3819 237.365 13.1698C237.508 13.1383 237.652 13.2402 237.68 13.381C237.731 13.7727 237.175 13.7285 236.942 13.8276C236.086 14.0737 235.229 14.3439 234.409 14.6945C234.304 14.7911 234.143 14.802 234.026 14.7222Z" fill="#F15025"/>
<path d="M244.749 47.6197C244.387 47.5478 244.123 47.1746 244.204 46.8072C244.365 46.1086 244.593 45.4291 244.779 44.7373C245.031 43.7353 245.204 42.7161 245.36 41.6956C245.442 41.3319 245.419 40.9173 245.602 40.5861C245.701 40.4358 245.907 40.3852 246.066 40.4659C246.538 40.7546 246.478 41.5146 246.526 42.0036C246.541 43.4819 246.218 44.9302 245.802 46.3401C245.642 46.8751 245.498 47.7603 244.749 47.6197Z" fill="#F15025"/>
<path d="M238.608 58.1838C238.237 57.9308 238.134 57.4021 238.391 57.0311C238.89 56.3117 239.495 55.6745 239.972 55.0739C241.037 53.7982 241.801 52.3092 242.785 50.9809C242.902 50.8184 243.14 50.7775 243.281 50.9361C243.561 51.2743 242.81 52.9164 242.675 53.306C242.116 54.5858 241.483 55.8522 240.623 56.9585C240.113 57.5206 239.513 58.7458 238.608 58.1838Z" fill="#F15025"/>
<path d="M229.337 65.235C229.095 64.8797 229.2 64.3315 229.574 64.1101C230.162 63.7689 230.753 63.4292 231.36 63.1224C232.464 62.5816 233.491 61.8894 234.627 61.4166C234.743 61.2075 235.047 61.1735 235.221 61.3296C235.422 61.5121 235.371 61.8405 235.138 61.9702C234.972 62.1469 234.846 62.356 234.669 62.5241C233.434 63.7777 231.926 64.7192 230.371 65.5232C230.016 65.7081 229.553 65.5677 229.337 65.235Z" fill="#F15025"/>
<path d="M217.422 53.813C217.25 53.4912 217.332 53.0858 217.346 52.7322C217.421 51.8033 217.533 50.877 217.683 49.9582C217.705 49.8203 217.851 49.7301 217.984 49.7565C218.124 49.7844 218.209 49.9201 218.186 50.0572C218.114 50.4898 218.042 50.9224 217.968 51.3543C217.846 52.121 217.67 52.8868 217.617 53.6619C217.659 53.7866 217.526 53.8973 217.422 53.813Z" fill="#F15025"/>
<path d="M218.449 46.1451C218.087 45.9827 218.349 45.5111 218.383 45.2234C218.478 44.8374 218.58 44.4631 218.677 44.101C219.208 42.0321 219.68 39.9499 220.543 37.9904C221.483 35.8525 222.891 33.9724 224.155 32.0216C224.294 31.8215 224.612 32.0233 224.471 32.2379C223.722 33.4279 222.963 34.6123 222.231 35.8134C222.234 35.8088 222.235 35.8059 222.237 35.802C220.42 38.8549 219.664 42.3899 218.793 45.7874C218.881 45.9939 218.659 46.225 218.449 46.1451Z" fill="#F15025"/>
<path d="M226.494 29.3289C226.212 29.1493 226.452 28.9061 226.624 28.7724C227.945 27.3934 229.209 25.9497 230.734 24.787C232.876 23.1116 235.227 21.7336 237.502 20.2532C237.609 20.1825 237.73 20.3523 237.614 20.4255C234.916 22.2083 232.054 23.7998 229.668 26.0064C228.705 26.9002 227.834 27.8782 227.029 28.9131C226.867 29.0702 226.78 29.4525 226.494 29.3289Z" fill="#F15025"/>
<path d="M239.486 18.9862C239.492 18.9019 239.532 18.8212 239.596 18.7669C239.661 18.7112 239.738 18.6914 239.82 18.6914C239.993 18.6914 240.125 18.863 240.115 19.0258C240.109 19.1101 240.069 19.1908 240.005 19.245C239.941 19.3008 239.864 19.3206 239.781 19.3206C239.609 19.3206 239.476 19.149 239.486 18.9862Z" fill="#F15025"/>
<path d="M242.817 17.1072C242.675 16.8245 243.2 16.715 243.369 16.5896C243.911 16.3129 244.456 16.045 245.007 15.7866C246.347 15.1605 247.701 14.5632 249.042 13.9395C249.103 13.9109 249.178 13.9359 249.208 13.9975C249.237 14.0576 249.212 14.1353 249.15 14.1639C248.025 14.6863 246.895 15.1966 245.768 15.7163C244.847 16.1617 243.91 16.5903 243.055 17.1579C242.978 17.2105 242.868 17.1853 242.817 17.1072Z" fill="#F15025"/>
<path d="M204.886 54.2493C204.568 54.0494 204.315 53.7698 204.058 53.4987C203.323 53.0583 202.967 52.1755 202.352 51.5905C201.76 50.7934 199.35 48.3429 199.992 47.4239C199.688 46.6213 198.878 45.0699 199.328 44.2749C198.893 43.4735 199.675 42.3024 200.603 42.6658C201.224 43.044 201.957 43.2021 202.631 43.4856C204.58 44.2392 206.422 45.2603 208.102 46.5037C208.685 46.9444 209.532 47.4977 209.319 48.3442C209.225 48.6935 208.973 48.9761 208.637 49.0926C208.433 49.715 207.706 50.3547 207.025 50.3023C207.056 50.5572 206.995 50.8194 206.838 51.0368C206.625 51.3305 206.279 51.4842 205.927 51.4654C206.117 51.8492 206.074 52.3202 205.787 52.6434C206.14 53.0772 206.349 53.753 205.839 54.1539C205.585 54.3648 205.177 54.4292 204.886 54.2493Z" fill="#F15025"/>
<path d="M229.732 71.38C228.121 71.0792 226.516 70.6627 225.003 70.0256C224.948 70.0018 224.893 69.9769 224.838 69.9512C224.464 69.941 224.141 69.7456 223.937 69.4453C223.688 69.2512 223.54 68.874 223.763 68.6114C223.864 68.0111 224.45 67.7283 224.911 67.4272C225.299 67.2082 225.457 66.7767 225.839 66.5558C226.038 66.4431 226.251 66.3851 226.468 66.3765C226.208 65.3121 227.389 64.5268 228.277 65.1654C228.741 65.5734 229.282 66.2224 229.164 66.8795C229.444 67.4466 230.029 67.9486 229.979 68.6204C230.227 68.9786 230.55 69.3395 230.481 69.8123C231.207 70.3991 230.643 71.5512 229.732 71.38Z" fill="#F15025"/>
<path d="M294.113 286.136C294.113 285.812 293.843 285.541 293.519 285.541C293.195 285.541 292.925 285.812 292.925 286.136C292.925 286.46 293.195 286.73 293.519 286.73C293.843 286.73 294.113 286.46 294.113 286.136Z" fill="#F15025"/>
<path d="M191.632 168.711C191.632 168.539 191.489 168.396 191.318 168.396C191.146 168.396 191.003 168.539 191.003 168.711C191.003 168.883 191.146 169.026 191.318 169.026C191.489 169.026 191.632 168.883 191.632 168.711Z" fill="#F15025"/>
<path d="M142.846 116.029C136.206 108.44 129.563 100.853 122.922 93.2626C116.354 85.7561 109.781 78.2518 103.215 70.7431C97.3396 64.0249 91.4642 57.3067 85.5831 50.595C85.178 50.1331 85.3069 49.3785 85.7698 49.0134C86.005 48.8271 86.3097 48.7428 86.6071 48.7802C86.9089 48.8176 87.1528 48.9745 87.3498 49.2003C90.8233 53.171 94.2975 57.1417 97.7717 61.1123C104.343 68.6225 110.914 76.1319 117.485 83.6421C124.087 91.1882 130.691 98.7321 137.291 106.28C141.153 110.695 145.016 115.11 148.879 119.525C148.679 119.721 148.479 119.918 148.282 120.117C148.114 120.287 147.95 120.464 147.777 120.629C147.616 120.783 147.455 120.927 147.344 121.125C147.339 121.134 147.334 121.143 147.329 121.152C145.834 119.445 144.34 117.737 142.846 116.029Z" fill="#F15025"/>
<path d="M292.73 286.334C292.73 286.334 292.729 286.335 292.729 286.336C292.657 286.283 292.593 286.221 292.532 286.155C292.385 285.998 292.238 285.84 292.093 285.68C291.832 285.394 291.572 285.105 291.313 284.817C290.846 284.298 290.378 283.777 289.913 283.256C288.87 282.087 287.828 280.918 286.787 279.749C284.65 277.347 282.514 274.945 280.378 272.544C273.635 264.962 266.912 257.362 260.203 249.751C253.653 242.323 247.103 234.893 240.56 227.459C233.912 219.906 227.269 212.347 220.629 204.786C214.112 197.366 207.596 189.944 201.082 182.521C194.755 175.313 188.433 168.1 182.114 160.886C175.6 153.449 169.086 146.01 162.573 138.569C161.534 137.381 160.494 136.193 159.454 135.006C159.94 134.522 160.427 134.039 160.912 133.554C160.955 133.511 160.998 133.469 161.041 133.426C166.279 139.414 171.516 145.402 176.753 151.391C183.205 158.77 189.655 166.151 196.103 173.533C202.403 180.746 208.699 187.964 214.992 195.183C221.515 202.666 228.037 210.149 234.557 217.634C241.154 225.206 247.741 232.786 254.329 240.367C261.021 248.068 267.709 255.774 274.381 263.495C277.637 267.264 280.887 271.037 284.138 274.81C285.708 276.632 287.275 278.456 288.843 280.28C289.689 281.264 290.535 282.249 291.379 283.235C291.742 283.66 292.105 284.085 292.466 284.511C292.675 284.758 292.886 285.002 293.09 285.253C293.208 285.396 293.343 285.539 293.434 285.703C293.572 285.954 293.482 286.276 293.212 286.394C293.151 286.421 293.087 286.433 293.024 286.433C292.918 286.433 292.815 286.397 292.73 286.334Z" fill="#F15025"/>
<path d="M289.923 293.224C292.266 293.163 294.109 291.225 294.936 289.159C295.218 288.474 295.101 287.711 294.815 287.047C294.528 286.595 294.171 285.581 293.484 285.938C293.24 286.143 293.346 286.508 293.402 286.773C293.507 287.219 293.584 287.671 293.622 288.128C293.524 289.843 292.166 291.303 290.723 292.102C289.356 292.864 288.284 292.883 286.977 291.977C286.838 291.893 286.702 292.104 286.832 292.201C287.715 292.897 288.795 293.315 289.927 293.224L289.923 293.224Z" fill="#F15025"/>
<path d="M125.096 125.586C118.281 118.562 111.486 111.518 104.691 104.474C98.0389 97.579 91.3938 90.6767 84.7552 83.7685C81.4934 80.3742 78.2353 76.9763 74.9933 73.5643C73.4682 71.9592 71.9468 70.3504 70.4371 68.7314C69.7581 68.0025 69.0659 67.2809 68.4235 66.5191C68.2836 66.3526 68.1481 66.1832 68.0089 66.0168C67.9313 65.9244 67.828 65.8305 67.7804 65.7176C67.7804 65.7176 67.7804 65.7176 67.7811 65.7176C67.7701 65.6934 67.7672 65.6656 67.7745 65.6377C67.7921 65.5688 67.8727 65.524 67.9401 65.5548C67.9826 65.5739 68.0185 65.604 68.0551 65.6333C68.2001 65.7484 68.3349 65.8797 68.4741 66.0014C68.7092 66.206 68.9399 66.4157 69.1655 66.6305C69.9588 67.3851 70.7338 68.1594 71.5103 68.9308C73.0902 70.5015 74.6607 72.0809 76.2275 73.6648C79.6124 77.087 82.984 80.5231 86.3535 83.9614C93.0858 90.8307 99.8079 97.7095 106.526 104.593C113.225 111.456 119.916 118.328 126.602 125.204C129.655 128.344 132.706 131.485 135.758 134.627C135.611 134.777 135.466 134.928 135.321 135.079C135.354 135.044 135.387 135.01 135.42 134.975C135.217 135.185 135.011 135.392 134.809 135.603C131.572 132.263 128.335 128.923 125.096 125.586Z" fill="#F15025"/>
<path d="M138.068 138.969C138.244 138.828 138.416 138.684 138.582 138.533C138.635 138.485 138.689 138.437 138.742 138.389C138.557 138.623 138.373 138.858 138.191 139.095C138.15 139.053 138.109 139.011 138.068 138.969Z" fill="#F15025"/>
<path d="M285.866 291.328C285.628 291.297 285.425 291.174 285.271 290.994C285.19 290.906 285.112 290.816 285.033 290.726C284.862 290.547 284.693 290.364 284.52 290.185C284.344 290.004 284.172 289.819 284.002 289.632C283.764 289.373 283.517 289.12 283.314 288.832C283.312 288.831 283.266 288.776 283.217 288.722C283.067 288.557 282.852 288.311 282.635 288.066C282.238 287.629 281.827 287.204 281.425 286.771C280.962 286.274 280.505 285.771 280.037 285.279C278.686 283.86 277.324 282.449 275.965 281.036C273.153 278.115 270.327 275.209 267.498 272.305C260.84 265.47 254.19 258.627 247.538 251.787C240.678 244.734 233.818 237.68 226.962 230.622C220.171 223.63 213.386 216.632 206.601 209.633C199.742 202.559 192.885 195.481 186.027 188.406C179.246 181.412 172.466 174.417 165.681 167.427C159.38 160.935 153.079 154.445 146.779 147.952C147.098 147.623 147.417 147.293 147.735 146.963C154.259 153.687 160.78 160.414 167.307 167.137C174.205 174.244 181.103 181.351 188.004 188.454C194.88 195.533 201.756 202.61 208.632 209.688C215.405 216.661 222.176 223.635 228.941 230.615C235.614 237.5 242.281 244.388 248.95 251.275C255.671 258.215 262.395 265.152 269.106 272.102C272.078 275.178 275.056 278.247 278.052 281.299C279.338 282.608 280.611 283.928 281.92 285.213C282.444 285.728 282.964 286.249 283.486 286.767C283.639 286.918 283.794 287.065 283.953 287.211C284.125 287.37 284.289 287.535 284.461 287.695C284.56 287.774 284.661 287.85 284.755 287.937C284.872 288.045 284.986 288.157 285.101 288.269C285.292 288.456 285.486 288.641 285.672 288.833C285.853 289.018 286.037 289.199 286.217 289.383C286.291 289.457 286.368 289.526 286.443 289.597C286.502 289.653 286.557 289.713 286.618 289.767C287.022 290.131 286.962 290.81 286.549 291.137C286.388 291.266 286.184 291.335 285.98 291.335C285.942 291.335 285.904 291.333 285.866 291.328Z" fill="#F15025"/>
<path d="M282.663 280.438C282.777 280.166 282.588 279.896 282.464 279.663C282.106 279.062 281.718 278.48 281.322 277.904C280.032 276.009 278.484 274.508 276.983 272.824C276.392 272.25 275.516 273.122 276.094 273.722C276.493 274.13 276.9 274.533 277.291 274.951C278.705 276.511 280.059 277.998 281.418 279.538C281.655 279.809 281.882 280.09 282.116 280.354C282.244 280.552 282.518 280.715 282.663 280.438Z" fill="#F15025"/>
<path d="M269.27 266.077C269.426 265.475 267.344 263.105 266.899 262.486C265.306 260.397 263.591 258.411 261.77 256.517C261.4 256.116 260.667 256.422 260.683 256.965C260.682 257.141 260.754 257.297 260.872 257.424C261.265 257.85 261.656 258.28 262.042 258.713C263.797 260.738 265.713 262.657 267.477 264.668C267.47 264.661 267.463 264.653 267.457 264.646C267.455 264.644 267.454 264.643 267.452 264.641C267.678 264.898 267.901 265.158 268.123 265.418C268.324 265.652 268.528 265.884 268.711 266.132C268.69 266.103 268.677 266.071 268.667 266.037C268.667 266.035 268.668 266.034 268.668 266.032C268.732 266.319 269.161 266.358 269.27 266.077Z" fill="#F15025"/>
<path d="M253.403 247.033C253.597 246.882 253.617 246.571 253.445 246.403C253.135 245.939 252.776 245.51 252.448 245.058C250.334 242.202 247.892 239.39 245.575 236.756C244.233 235.169 242.734 233.766 241.309 232.261C240.732 231.71 239.89 232.539 240.445 233.132C241.561 234.315 242.532 235.625 243.636 236.818C245.432 238.8 247.299 240.806 249.062 242.798C250.081 243.961 250.997 245.033 252.015 246.129C252.277 246.404 252.533 246.686 252.807 246.949C252.942 247.135 253.221 247.175 253.403 247.033ZM252.849 246.407C252.911 246.371 252.974 246.334 253.037 246.298C253.096 246.318 253.155 246.338 253.214 246.358C253.093 246.374 252.971 246.39 252.849 246.407Z" fill="#F15025"/>
<path d="M230.737 223.512C230.803 223.424 230.755 223.324 230.679 223.271C230.281 222.814 229.905 222.338 229.506 221.88C229.256 221.566 228.792 221.979 229.075 222.262C229.449 222.592 229.823 222.925 230.189 223.264C230.341 223.367 230.547 223.701 230.737 223.512Z" fill="#F15025"/>
<path d="M218.879 208.401C219.281 208.253 218.442 207.293 218.335 207.073C215.909 203.57 212.856 200.585 210.07 197.381C207.495 194.462 205.084 191.406 202.661 188.362C199.789 184.826 196.787 181.616 193.666 178.342C192.069 176.735 190.55 175.055 189.165 173.26C189.02 173.077 188.749 173.04 188.564 173.184C188.381 173.327 188.344 173.602 188.489 173.785C189.103 174.569 189.728 175.344 190.353 176.119C192.964 179.431 195.93 182.431 198.556 185.728C202.094 189.962 205.457 194.353 209.213 198.399C211.237 200.592 213.351 202.696 215.434 204.832C216.311 205.731 217.16 206.656 218 207.589C218.251 207.846 218.469 208.142 218.747 208.371C218.783 208.401 218.833 208.414 218.879 208.401Z" fill="#F15025"/>
<path d="M174.566 160.411C173.917 159.551 173.215 158.735 172.516 157.916C169.988 155.051 166.992 152.654 164.328 149.921C161.05 146.609 157.841 143.224 154.738 139.745C155.031 139.448 155.324 139.151 155.618 138.854C155.985 139.237 156.353 139.619 156.721 139.999C161.128 144.531 165.467 149.132 170.048 153.489C171.246 154.652 172.407 155.826 173.407 157.171C174.707 158.808 175.769 160.612 176.881 162.377C177.016 162.573 177.154 162.766 177.299 162.955C177.411 163.1 177.635 163.321 177.482 163.512C177.449 163.569 177.403 163.595 177.344 163.595C176.741 163.595 174.916 160.778 174.566 160.411Z" fill="#F15025"/>
<path d="M136.843 120.454C135.466 119.045 134.15 117.579 132.84 116.109C132.612 115.88 132.604 115.49 132.837 115.262C133.057 115.04 133.466 115.016 133.683 115.259C135.022 116.729 136.343 118.214 137.64 119.721C138.989 121.212 140.372 122.714 141.74 124.197C142.268 124.755 142.803 125.312 143.368 125.833C143.238 125.982 143.107 126.131 142.977 126.28C142.953 126.307 142.929 126.334 142.905 126.362C140.975 124.906 137.378 120.91 136.843 120.454Z" fill="#F15025"/>
<path d="M123.051 104.545C123.033 104.193 122.752 103.907 122.586 103.612C122.048 102.793 121.469 101.999 120.854 101.237C118.546 98.4251 115.867 95.9606 113.666 93.093C111.19 89.9759 108.584 86.9506 105.619 84.2857C104.765 83.5172 103.876 82.79 103.005 82.0412C101.689 80.9175 100.526 79.6356 99.3753 78.3474C98.5186 77.3671 97.662 76.3853 96.8323 75.3823C96.0163 74.3953 95.2296 73.3856 94.4481 72.3715C94.1873 72.014 93.8586 71.4996 93.3647 71.8531C93.1318 72.0349 93.09 72.3781 93.2695 72.612C95.758 75.7514 97.9248 79.153 100.75 82.0118C102.589 83.8337 104.636 85.4349 106.411 87.3244C109.222 90.1095 111.59 93.2846 114.186 96.2615C115.928 98.2452 117.897 100.014 119.698 101.944C120.527 102.826 121.376 103.776 122.239 104.609C122.342 104.71 122.361 104.852 122.518 104.909C122.766 105.02 123.055 104.813 123.051 104.545Z" fill="#F15025"/>
<path d="M86.5774 65.368C86.7256 65.0466 86.4539 64.7052 86.3099 64.4277C86.1663 64.1762 86.0235 63.924 85.8741 63.6761C84.9083 62.0747 83.8714 60.4856 82.5061 59.1937C81.7248 58.45 80.6022 59.5827 81.3502 60.3603C81.8597 60.852 82.3659 61.3487 82.834 61.881C83.7348 62.9133 84.6181 63.966 85.5965 64.9271C85.7409 65.0807 85.9298 65.2028 86.0462 65.3781C86.1618 65.5768 86.4722 65.5752 86.5774 65.368Z" fill="#F15025"/>
<path d="M66.3048 71.8856C66.7655 71.868 67.2189 71.78 67.6643 71.6657C68.4019 71.4765 69.119 71.2184 69.7519 70.9661C70.2266 70.7777 70.6895 70.5665 71.151 70.348C71.3121 70.271 71.4696 70.1888 71.6249 70.1009C71.8212 69.9894 72.0409 69.8662 72.1494 69.6587C72.3559 69.262 72.0893 68.7619 71.6403 68.7245C71.4066 68.7054 71.1905 68.822 70.9869 68.9232C70.8184 69.0083 70.6543 69.1014 70.4903 69.1931L70.4907 69.1928C69.7373 69.61 68.9671 70.0031 68.1675 70.3251C67.8428 70.4515 67.5112 70.5607 67.1734 70.6488C66.9372 70.706 66.6993 70.7529 66.4586 70.7846C66.3469 70.7965 66.2352 70.8043 66.1229 70.8054C66.0307 70.8013 65.9387 70.7917 65.8469 70.7793C65.7745 70.7673 65.703 70.7532 65.632 70.7344C65.5973 70.7227 65.563 70.71 65.529 70.6963C65.5028 70.6833 65.4769 70.6698 65.4514 70.6556C65.4287 70.6406 65.4066 70.6251 65.3848 70.609C65.3697 70.5954 65.355 70.5816 65.3406 70.5674C65.3339 70.5595 65.3273 70.5515 65.3208 70.5435C65.3202 70.5425 65.3195 70.5415 65.3189 70.5405C65.3172 70.5371 65.3156 70.5336 65.3139 70.53C65.3092 70.5161 65.3048 70.502 65.3006 70.4879C65.2887 70.4321 65.2787 70.3762 65.2709 70.3197C65.2644 70.2517 65.2608 70.1834 65.2602 70.115C65.2644 70.0274 65.2726 69.9408 65.284 69.8542C65.3128 69.6891 65.3515 69.5257 65.3969 69.3644C65.4949 69.0498 65.6156 68.7378 65.748 68.4354C65.8931 68.1123 66.0505 67.7978 66.2294 67.4926C66.4116 67.1816 66.5951 66.8713 66.7825 66.5636C67.5299 65.3583 68.3716 64.2104 69.2608 63.1063C69.8564 62.3712 70.4685 61.6519 71.1078 60.954C71.7113 60.2948 72.3127 59.6327 72.9368 58.9933C73.4832 58.4352 74.0304 57.8794 74.5505 57.3816C74.8944 57.0529 75.2356 56.7216 75.5174 56.4517C75.5606 56.4107 75.6031 56.3696 75.6312 56.3423L75.6756 56.3C75.7173 56.2604 75.7583 56.2208 75.7671 56.212C76.1436 55.8519 76.5238 55.4948 76.9076 55.1414C77.2761 54.8026 77.6423 54.4595 78.0283 54.1405C78.711 53.5751 79.4098 53.031 80.1072 52.4848C80.5957 52.102 81.0799 51.7126 81.5714 51.3335C82.0906 50.9331 82.6119 50.5361 83.1379 50.1445C83.1459 50.1386 83.154 50.1327 83.1565 50.131C83.1605 50.1279 83.1646 50.1249 83.1686 50.1219L83.2012 50.0972C83.2142 50.0877 83.2274 50.0781 83.2404 50.0685L83.2604 50.0539C84.7876 48.9355 86.3399 47.8489 87.925 46.8151C88.5396 46.414 89.1732 46.0408 89.7372 45.7255C90.2287 45.4534 90.7276 45.1946 91.2337 44.9497C91.6861 44.7304 92.1398 44.5111 92.6056 44.322C92.9644 44.1816 93.3276 44.0586 93.6998 43.96C93.9139 43.9064 94.1293 43.8598 94.348 43.8303C94.4569 43.8197 94.5662 43.815 94.676 43.8146C94.7842 43.8173 94.8924 43.8245 95.0002 43.8388C95.0445 43.8468 95.0883 43.8564 95.1318 43.8678C95.1571 43.876 95.1819 43.885 95.2065 43.8949C95.2276 43.9055 95.2485 43.9165 95.269 43.9283C95.2852 43.9393 95.301 43.9506 95.3166 43.9624C95.3235 43.9684 95.3302 43.9745 95.3369 43.9807C95.3503 43.9957 95.3633 44.0111 95.3759 44.0268C95.3902 44.0477 95.4038 44.069 95.417 44.0907C95.4279 44.1122 95.4383 44.1339 95.448 44.1559C95.4594 44.1878 95.4696 44.22 95.4788 44.2526C95.4884 44.2979 95.4963 44.3431 95.5028 44.3888C95.5081 44.4488 95.5106 44.509 95.5113 44.5695C95.5071 44.6665 95.4979 44.7627 95.4852 44.8589C95.452 45.0487 95.4074 45.2347 95.3547 45.4195C95.272 45.686 95.1735 45.9465 95.0621 46.2024C94.847 46.6814 94.6286 47.1637 94.3644 47.618C94.0897 48.091 93.7996 48.5566 93.5343 48.9911C93.3052 49.3632 93.0703 49.7307 92.8752 50.0481C92.7991 50.172 92.7221 50.2959 92.6536 50.4079C92.5496 50.5762 92.4428 50.7454 92.3625 50.9266C92.3169 51.029 92.2728 51.14 92.2692 51.2524C92.2651 51.2584 92.2609 51.2642 92.2565 51.27C92.2473 51.2804 92.2378 51.2908 92.2284 51.3009C92.1951 51.3313 92.162 51.3615 92.134 51.3973C92.0453 51.5088 92.0849 51.6826 92.1962 51.761C92.3171 51.8468 92.4709 51.8101 92.5595 51.6987C92.5808 51.6718 92.5967 51.6395 92.6137 51.6092C92.6242 51.5939 92.6348 51.5788 92.6458 51.564C92.6482 51.5615 92.6506 51.5589 92.6529 51.5563C92.7326 51.5337 92.8025 51.4885 92.876 51.4398C92.9902 51.3636 93.0884 51.2705 93.1851 51.1729C93.4517 50.9053 93.7044 50.6193 93.9432 50.326C94.2413 49.9601 94.5321 49.5876 94.8054 49.2019C95.0698 48.8287 95.3012 48.4349 95.5342 48.0411C95.7693 47.6452 95.9993 47.2485 96.1854 46.8254C96.3538 46.4411 96.5011 46.0408 96.6029 45.6331C96.7179 45.1726 96.7758 44.6798 96.6864 44.2098C96.619 43.8564 96.4461 43.5381 96.1861 43.2903C95.9949 43.1091 95.7437 42.9794 95.4961 42.895C95.195 42.7916 94.8889 42.7542 94.5717 42.752C93.6378 42.7462 92.7236 43.016 91.8461 43.3101C90.9085 43.6239 90.0141 44.0485 89.1388 44.5068C88.2532 44.9717 87.3808 45.4651 86.5216 45.9777C84.8376 46.9823 83.2452 48.1387 81.6923 49.3339C80.9166 49.9308 80.154 50.5452 79.4047 51.1744C79.0634 51.4611 78.7367 51.7639 78.4019 52.0595C78.0562 52.3652 77.7148 52.6754 77.3772 52.99C77.0336 53.3104 76.6798 53.6169 76.3268 53.9264C75.94 54.2644 75.5576 54.6061 75.1767 54.9507C74.4413 55.6158 73.7264 56.3007 73.024 57.001C72.3852 57.636 71.7523 58.2761 71.1275 58.9251C70.4639 59.6129 69.8332 60.3308 69.2055 61.0516C68.5396 61.8156 67.8906 62.5922 67.2658 63.3907C66.6806 64.1386 66.1187 64.902 65.6067 65.702C65.3518 66.1016 65.1094 66.5071 64.8991 66.9317C64.7168 67.3005 64.5307 67.6686 64.3791 68.0514C64.1146 68.7164 63.9103 69.4424 63.9894 70.1654C64.0136 70.3839 64.0626 70.5936 64.1549 70.7938C64.2209 70.9375 64.3161 71.0658 64.415 71.1883C64.6479 71.4765 64.9468 71.6767 65.3006 71.7852C65.4617 71.835 65.6236 71.8702 65.7928 71.8842C65.8687 71.8904 65.9454 71.8927 66.0222 71.8927C66.1166 71.8927 66.2111 71.8893 66.3048 71.8856Z" fill="#F15025"/>
<path d="M95.28 44.8796C96.2838 44.6486 95.2153 41.2047 95.1235 40.4166C94.9748 39.6658 94.8122 38.9171 94.6151 38.1772C93.9843 35.8922 93.2943 33.608 92.2016 31.4964C91.3754 29.9211 90.3743 28.4462 89.3155 27.0198C87.9892 25.1385 86.5481 23.342 85.026 21.6163C84.3202 20.8085 83.5319 20.0811 82.7297 19.371C82.5739 19.2124 82.301 19.2039 82.143 19.3652C81.9855 19.5206 81.9745 19.7963 82.1378 19.9525C83.0326 20.8422 83.9461 21.7721 84.7705 22.7154C86.9153 25.2955 88.9855 27.9621 90.719 30.8401C91.8302 32.6724 92.6251 34.77 93.247 36.7918C93.9391 39.1711 94.6225 41.6078 94.9843 44.0544C95.0531 44.3246 94.8974 44.8647 95.28 44.8796Z" fill="#F15025"/>
<path d="M79.1599 17.4124C79.1739 17.0986 78.927 16.837 78.7431 16.6065C78.4801 16.3051 78.1959 16.0287 77.9008 15.7595C76.6856 14.6868 75.3166 13.8001 73.957 12.9233C71.9079 11.6442 69.772 10.4919 67.5323 9.5832C64.4779 8.38767 61.3324 7.4351 58.1711 6.5665C54.2229 5.49553 50.3918 4.01648 46.405 3.09075C40.1171 1.75704 33.6887 0.948153 27.2584 0.858763C24.9043 0.840041 22.6284 1.02049 20.2953 1.20342C18.6963 1.29879 17.1078 1.50938 15.5334 1.80251C13.62 2.13562 11.7319 2.62294 9.9225 3.33429C8.57222 3.83965 7.17852 4.32622 6.02267 5.21215C4.62985 6.35731 3.54808 7.83969 2.49427 9.29065C1.89658 10.1455 1.60212 11.1536 1.1846 12.0947C1.12147 12.3105 1.12975 12.5492 1.22562 12.7531C1.37839 13.0229 1.79261 13.0065 1.91343 12.718C2.93619 11.0922 4.31344 9.70453 5.82855 8.53164C7.65823 7.17569 9.86605 6.20736 12.0086 5.53043C12.8535 5.29549 13.7373 5.34931 14.6009 5.42415C16.0234 5.48064 17.4225 5.69739 18.8106 6.00559C19.0215 6.04739 19.2354 5.89707 19.2933 5.69688C19.3526 5.49157 19.2471 5.26132 19.0494 5.17846C18.2854 4.85729 17.4694 4.6769 16.6556 4.53529C15.0976 4.36705 13.5011 3.94735 11.9383 4.23765C10.7165 4.56591 9.57713 5.14796 8.42382 5.65949C7.10678 6.25284 5.82345 6.94257 4.70766 7.86975C5.4019 7.13206 6.05416 6.33135 6.89744 5.75685C7.99763 5.0292 9.21734 4.51584 10.4448 4.04631C12.9893 3.01763 15.691 2.44817 18.404 2.11706C21.8923 1.76742 25.3985 1.40367 28.8977 1.59856C35.367 1.92705 41.823 2.87397 48.111 4.42979C51.2988 5.28075 54.4123 6.37688 57.5221 7.4736C61.0864 8.67969 64.7657 9.66766 68.2143 11.1656C71.1347 12.472 73.9812 14.1206 76.6203 15.882C77.2465 16.317 77.8588 16.7688 78.4589 17.2386C78.6316 17.3554 78.7853 17.5222 78.9999 17.5465C79.0764 17.5465 79.1498 17.4923 79.1599 17.4124Z" fill="#F15025"/>
<path d="M25.0961 7.61771C25.4504 7.5443 25.4644 6.99787 25.1108 6.91011C25.0068 6.88371 24.9035 6.86391 24.7966 6.85658C24.2972 6.775 24.1429 7.27466 24.6215 7.46519C24.7952 7.56008 24.9071 7.65788 25.0961 7.61771Z" fill="#F15025"/>
<path d="M43.8887 30.6897C44.3172 30.5842 44.6021 30.1303 44.4893 29.6976C44.156 28.348 43.8035 27.0016 43.2485 25.7233C40.8351 20.1196 37.0781 14.7608 31.856 11.4743C31.3376 11.1799 30.1362 10.2932 29.6234 10.8078C29.414 11.126 29.7242 11.2913 29.9631 11.4311C30.8685 12.1003 31.6964 12.869 32.5445 13.6076C35.9193 16.6661 38.6035 20.453 40.6042 24.5354C41.2529 25.8721 41.8221 27.2439 42.36 28.6285C42.5385 29.0729 42.7129 29.5172 42.8623 29.9721C42.9455 30.4467 43.4016 30.8202 43.8887 30.6897Z" fill="#F15025"/>
<path d="M45.7025 35.9459C45.6814 35.1695 45.563 32.9648 44.7569 32.655C44.254 32.5453 44.1091 33.0868 44.1841 33.4807C44.2664 34.3206 44.2303 35.1671 44.3694 36.0024C44.4718 36.8184 45.6778 36.7689 45.7025 35.9459Z" fill="#F15025"/>
<path d="M63.7118 69.4123C64.0375 68.5969 63.168 68.3097 62.6067 68.0281C62.2498 67.8443 61.8865 67.6479 61.5495 67.4757C59.8237 66.6285 58.1828 65.629 56.609 64.5257C53.1987 62.1984 50.7164 59.5594 48.7822 55.9003C47.1573 53.0895 45.9138 50.0488 45.3591 46.8393C45.1853 45.835 45.0394 44.8259 44.9688 43.8087C44.8955 43.2646 44.9458 42.1031 44.3535 41.9212C43.7695 41.8823 43.9055 42.7246 43.8371 43.1062C43.7136 44.5989 43.9869 46.0725 44.2766 47.5205C44.9278 50.6043 45.946 53.5812 47.4315 56.3528C48.3077 58.0566 49.2531 59.7411 50.5145 61.1931C52.4792 63.5332 54.9192 65.3577 57.4827 66.9779C59.0287 67.9434 60.6266 68.8392 62.2659 69.6359C62.7606 69.922 63.4182 70.0474 63.7118 69.4123Z" fill="#F15025"/>
<path d="M65.3204 71.805C65.8387 71.8038 65.5881 71.0337 65.1711 71.3394C64.5695 71.222 63.9699 71.0542 63.4086 70.8254C63.3486 70.8012 63.2768 70.8276 63.2453 70.8841C63.1241 71.1111 63.8087 71.3209 63.956 71.407C64.3865 71.5889 64.8381 71.8425 65.3204 71.805Z" fill="#F15025"/>
<path d="M61.8549 70.2564C61.8791 70.2315 61.8798 70.1868 61.8527 70.1633C61.6488 69.917 61.3921 69.677 61.0857 69.5804C60.6046 69.3316 60.2022 69.0112 59.7299 68.7562C59.4238 68.5764 59.1179 68.3989 58.8106 68.2209C58.7418 68.182 58.6524 68.2025 58.6048 68.2656C58.4475 68.5099 59.0314 68.7461 59.1791 68.8794C59.7016 69.2404 60.3328 69.423 60.8602 69.7659C61.1439 69.959 61.4637 70.0942 61.7627 70.2593C61.7898 70.2822 61.8296 70.2832 61.8549 70.2564Z" fill="#F15025"/>
<path d="M58.1725 67.8984C58.2128 67.827 58.1779 67.7289 58.1006 67.7013C57.9008 67.5617 57.6828 67.4406 57.4788 67.309C57.354 67.2322 57.2558 67.1217 57.1456 67.0258C57.1104 66.9935 57.0547 66.9935 57.021 67.0287C56.8935 67.2035 57.6659 67.692 57.8041 67.8265C57.9079 67.9016 58.071 68.061 58.1725 67.8984Z" fill="#F15025"/>
<path d="M56.4204 66.5001C56.4431 66.47 56.435 66.4297 56.4065 66.4062C56.4057 66.4062 56.4057 66.4055 56.4116 66.4114C56.1712 66.1849 55.9017 65.996 55.6477 65.7938C55.4639 65.6307 55.2935 65.4522 55.1026 65.2968C55.0645 65.2638 55.0089 65.2616 54.9722 65.299C54.9385 65.3342 54.9371 65.3965 54.9752 65.4295C55.2368 65.664 55.4971 65.8938 55.7809 66.0997C55.9552 66.2461 56.1577 66.3653 56.3266 66.514C56.3548 66.5373 56.3997 66.5289 56.4204 66.5001Z" fill="#F15025"/>
<path d="M88.596 46.1156C88.8374 45.726 88.7722 45.2415 88.7615 44.8038C88.7432 44.3726 88.6809 43.9414 88.6194 43.5147C88.4637 42.6505 88.3756 41.718 87.8459 40.9901C87.3685 40.251 86.1585 40.6698 86.2322 41.5466C86.2501 42.003 86.3321 42.4518 86.5171 42.8709C86.792 43.5942 87.0409 44.3262 87.2452 45.0736C87.3932 45.5427 87.489 46.344 88.1045 46.3736C88.2948 46.3736 88.4869 46.282 88.596 46.1156Z" fill="#F15025"/>
<path d="M84.9069 36.194C85.6505 36.0395 85.3482 34.6401 85.2922 34.0931C84.6895 31.2811 82.735 28.4265 80.7083 26.4253C80.1706 25.929 79.6013 25.4651 79.0792 24.9515C78.3299 24.3004 77.2766 25.3721 77.9475 26.1122C78.7365 26.9259 79.3568 27.8804 80.0915 28.7415C81.4315 30.4364 82.6333 32.2524 83.5518 34.2119C83.7877 34.7242 84.0207 35.2375 84.277 35.7393C84.3855 35.9929 84.5993 36.2577 84.9069 36.194Z" fill="#F15025"/>
<path d="M74.2908 22.2428C75.4777 21.9925 72.9273 19.9701 72.5718 19.6613C70.8757 18.3076 69.0071 17.1693 67.089 16.1607C66.2129 15.6737 65.2533 15.3862 64.2811 15.165C63.8217 15.0245 63.2021 14.8004 62.9834 15.4076C62.8072 16.0571 63.4116 16.2027 63.8849 16.3743C65.263 17.066 66.7185 17.5792 68.1101 18.2424C69.5653 18.947 70.9904 19.7291 72.2955 20.6882C72.8243 21.0815 73.3208 21.5159 73.8097 21.9579C73.9542 22.0835 74.1068 22.2533 74.3092 22.2454L74.2908 22.2428Z" fill="#F15025"/>
<path d="M61.0916 14.771C61.2719 14.658 61.2634 14.3579 61.0843 14.257C60.9702 14.1965 60.8461 14.1535 60.7283 14.1C59.7722 13.6943 58.7672 13.4307 57.7529 13.2186C57.6101 13.1871 57.4658 13.289 57.4379 13.4298C57.3864 13.8215 57.9428 13.7773 58.1756 13.8764C59.0318 14.1225 59.8891 14.3927 60.7092 14.7433C60.8135 14.8399 60.9748 14.8508 61.0916 14.771Z" fill="#F15025"/>
<path d="M50.3681 47.6685C50.7307 47.5966 50.9944 47.2234 50.9131 46.856C50.7524 46.1575 50.524 45.4779 50.3387 44.7862C50.0864 43.7841 49.9129 42.765 49.7573 41.7444C49.6751 41.3808 49.698 40.9662 49.5155 40.635C49.4166 40.4847 49.2101 40.4341 49.0511 40.5147C48.5793 40.8034 48.6392 41.5634 48.5919 42.0524C48.576 43.5307 48.8992 44.979 49.3156 46.3889C49.4757 46.9239 49.6191 47.8091 50.3681 47.6685Z" fill="#F15025"/>
<path d="M56.5097 58.2306C56.881 57.9776 56.9836 57.449 56.7265 57.0779C56.2277 56.3586 55.6226 55.7214 55.1458 55.1208C54.0812 53.845 53.317 52.3561 52.333 51.0277C52.2157 50.8652 51.9781 50.8243 51.837 50.983C51.5568 51.3212 52.3077 52.9633 52.4428 53.3529C53.002 54.6327 53.6348 55.899 54.4946 57.0054C55.0047 57.5675 55.6051 58.7927 56.5097 58.2306Z" fill="#F15025"/>
<path d="M65.7808 65.2838C66.0229 64.9286 65.9185 64.3803 65.5442 64.159C64.9557 63.8177 64.3655 63.478 63.7584 63.1712C62.654 62.6304 61.6267 61.9382 60.4908 61.4655C60.3755 61.2564 60.0709 61.2224 59.8974 61.3784C59.6961 61.5609 59.7467 61.8893 59.9806 62.019C60.1462 62.1957 60.2724 62.4048 60.449 62.5729C61.6845 63.8265 63.1921 64.768 64.7473 65.572C65.102 65.7569 65.5651 65.6165 65.7808 65.2838Z" fill="#F15025"/>
<path d="M77.6959 53.8618C77.8681 53.54 77.7858 53.1347 77.772 52.781C77.6965 51.8521 77.5845 50.9259 77.4344 50.007C77.4131 49.8692 77.2666 49.779 77.134 49.8054C76.9941 49.8332 76.9092 49.9689 76.9319 50.106C77.0037 50.5386 77.0754 50.9713 77.1502 51.4032C77.2721 52.1698 77.4481 52.9356 77.501 53.7108C77.4587 53.8355 77.5921 53.9461 77.6959 53.8618Z" fill="#F15025"/>
<path d="M76.6684 46.194C77.0301 46.0315 76.7688 45.5599 76.7343 45.2723C76.6399 44.8863 76.5374 44.5119 76.4405 44.1498C75.9094 42.081 75.4373 39.9987 74.5741 38.0393C73.6344 35.9013 72.2266 34.0212 70.963 32.0705C70.8237 31.8704 70.5057 32.0722 70.6465 32.2868C71.3956 33.4767 72.1547 34.6611 72.8865 35.8622C72.884 35.8577 72.8825 35.8547 72.8802 35.8508C74.6974 38.9037 75.4535 42.4387 76.3244 45.8362C76.2365 46.0427 76.4582 46.2738 76.6684 46.194Z" fill="#F15025"/>
<path d="M68.6238 29.3777C68.9055 29.1981 68.6653 28.9549 68.4934 28.8212C67.1722 27.4422 65.9084 25.9985 64.3834 24.8358C62.2419 23.1605 59.8909 21.7825 57.6152 20.302C57.5088 20.2313 57.3872 20.4011 57.5031 20.4743C60.2014 22.2571 63.0637 23.8486 65.4499 26.0553C66.413 26.949 67.2836 27.927 68.0884 28.962C68.2506 29.119 68.3378 29.5013 68.6238 29.3777Z" fill="#F15025"/>
<path d="M55.6315 19.0331C55.6256 18.9487 55.5861 18.8681 55.5216 18.8138C55.4571 18.7581 55.3802 18.7383 55.2975 18.7383C55.1253 18.7383 54.9927 18.9099 55.003 19.0727C55.0089 19.157 55.0484 19.2376 55.1129 19.2919C55.1773 19.3476 55.2542 19.3674 55.337 19.3674C55.5092 19.3674 55.6417 19.1958 55.6315 19.0331Z" fill="#F15025"/>
<path d="M52.3011 17.1561C52.4433 16.8734 51.9178 16.7638 51.7488 16.6384C51.2072 16.3618 50.6618 16.0938 50.1109 15.8355C48.771 15.2093 47.4172 14.612 46.0763 13.9884C46.0148 13.9598 45.9401 13.9847 45.9101 14.0463C45.8808 14.1064 45.9064 14.1841 45.9679 14.2127C47.0934 14.7351 48.2236 15.2455 49.3498 15.7651C50.2715 16.2105 51.2084 16.6392 52.063 17.2067C52.14 17.2593 52.2503 17.2342 52.3011 17.1561Z" fill="#F15025"/>
<path d="M90.2313 54.3C90.55 54.1002 90.8022 53.8206 91.0598 53.5495C91.7941 53.1091 92.1505 52.2263 92.7651 51.6412C93.3572 50.8442 95.7671 48.3937 95.1259 47.4746C95.4291 46.6721 96.2392 45.1207 95.79 44.3257C96.2247 43.5243 95.4423 42.3532 94.5149 42.7165C93.8934 43.0948 93.1605 43.2529 92.4866 43.5364C90.5372 44.29 88.6961 45.3111 87.0156 46.5545C86.4326 46.9951 85.5851 47.5485 85.7983 48.395C85.8924 48.7443 86.145 49.0269 86.4804 49.1434C86.6845 49.7658 87.412 50.4055 88.0923 50.3531C88.062 50.608 88.1229 50.8702 88.2799 51.0876C88.4924 51.3813 88.8389 51.535 89.1906 51.5162C89.0008 51.9 89.0436 52.3709 89.3305 52.6942C88.978 53.128 88.7684 53.8038 89.2791 54.2047C89.5324 54.4156 89.9405 54.48 90.2313 54.3Z" fill="#F15025"/>
<path d="M65.386 71.4288C66.9969 71.128 68.6016 70.7116 70.1143 70.0744C70.1699 70.0506 70.2252 70.0257 70.2802 70.0001C70.6533 69.9899 70.9767 69.7944 71.1808 69.4941C71.4298 69.3 71.5774 68.9228 71.3544 68.6602C71.2533 68.0599 70.6677 67.7772 70.207 67.4761C69.819 67.257 69.6609 66.8255 69.2785 66.6046C69.0798 66.492 68.8666 66.434 68.6502 66.4254C68.9093 65.3609 67.7287 64.5756 66.8407 65.2143C66.3764 65.6223 65.836 66.2712 65.9533 66.9284C65.6742 67.4954 65.0883 67.9974 65.1384 68.6693C64.8912 69.0274 64.5674 69.3884 64.6371 69.8612C63.9107 70.4479 64.4743 71.6 65.386 71.4288Z" fill="#F15025"/>
</g>
<defs>
<clipPath id="clip0_493_48">
<rect width="295.078" height="292.427" fill="white" transform="translate(0.0200195 0.808594)"/>
</clipPath>
</defs>
</svg>
