<svg width="496" height="863" viewBox="0 0 496 863" fill="none" xmlns="http://www.w3.org/2000/svg">
<g clip-path="url(#clip0_501_1096)">
<path d="M113.096 348.822H1.52071L75.54 0.782129H155.913C195.419 0.782129 226.189 13.5829 247.084 36.5414C267.984 59.5042 279.042 92.6676 279.042 133.457C279.042 150.876 277.044 170.275 272.572 190.676L272.572 190.679C261.375 244.187 242.107 283.72 215.351 309.874C188.602 336.02 154.341 348.822 113.096 348.822ZM136.481 63.2244L136.191 63.1625L88.3967 287.308L88.3139 287.697H88.7108H112.596C132.352 287.697 150.982 279.557 166.349 262.245C181.709 244.941 193.8 218.482 200.522 181.842C204.002 162.905 205.505 146.443 205.505 131.979C205.505 109.034 201.017 91.7586 191.552 80.2162C182.075 68.6608 167.658 62.9083 147.935 62.9083H136.902H136.505H136.481V63.2244Z" fill="#191919" stroke="#191919" stroke-width="0.642383"/>
<path d="M302.169 348.822L376.212 0.782129H449.235L375.191 348.822H302.169Z" fill="#191919" stroke="#191919" stroke-width="0.642383"/>
<path d="M75.5996 700.261L131.847 567.265L131.848 567.265L188.012 434.966H262.956L103.96 783.005H12.3892L0.955939 434.966H73.9848L74.9826 567.14L74.9826 567.142L74.9826 700.136L75.5996 700.261Z" fill="#191919" stroke="#191919" stroke-width="0.642383"/>
<path d="M205.579 783.005L216.929 728.721L392.639 496.105L393.028 495.591H392.383H267.329L280.124 434.966H495.502L483.648 489.292L307.469 721.866L307.079 722.381H307.725H433.256L420.461 783.005H205.579Z" fill="#191919" stroke="#191919" stroke-width="0.642383"/>
<path d="M203.184 845.144C203.184 844.048 203.255 842.88 203.422 841.641H214.281C214.114 842.737 214.043 843.833 214.043 844.834C214.043 849.6 215.614 853.032 220.282 853.032C223.949 853.032 226.283 850.148 226.283 846.621C226.283 842.713 222.449 840.211 218.401 837.399C213.495 834.039 208.089 830.202 208.089 822.863C208.089 813.331 214.257 806.062 224.568 806.062C235.808 806.062 241.357 813.807 241.357 823.959C241.357 824.579 241.357 825.293 241.286 825.985H230.76C230.831 825.27 230.831 824.65 230.831 824.03C230.831 819.193 229.188 815.595 224.83 815.595C221.401 815.595 219.448 818.24 219.448 821.361C219.448 825.103 223.187 827.533 227.331 830.345C232.236 833.705 237.642 837.614 237.642 845.025C237.642 855.105 230.236 862.445 219.925 862.445C208.756 862.445 203.231 855.486 203.231 845.096L203.184 845.144Z" fill="#191919"/>
<path d="M255.836 816.618H242.81L244.834 806.943H282.459L280.34 816.618H267.457L257.86 861.61H246.239L255.836 816.618Z" fill="#191919"/>
<path d="M277.078 847.787C277.078 846.142 277.316 844.427 277.697 842.544L285.198 806.918H296.819L288.699 844.808C288.532 845.594 288.46 846.285 288.46 847C288.46 850.503 290.556 852.457 294.009 852.457C297.462 852.457 300.248 850.265 301.177 846.142L309.44 806.942H320.752L312.489 846.142C310.298 856.675 303.13 862.466 293.438 862.466C283.745 862.466 277.054 857.08 277.054 847.787H277.078Z" fill="#191919"/>
<path d="M324.919 806.943H337.564C349.971 806.943 356.925 814.998 356.925 827.795C356.925 830.535 356.615 833.585 355.901 836.779C352.4 853.579 343.804 861.61 330.849 861.61H313.274L324.896 806.943H324.919ZM334.54 816.785L327.039 851.935H330.777C336.945 851.935 342.399 846.859 344.518 835.373C345.066 832.394 345.304 829.82 345.304 827.556C345.304 820.36 342.494 816.785 336.326 816.785H334.54Z" fill="#191919"/>
<path d="M365.831 806.943H377.381L365.76 861.61H354.21L365.831 806.943Z" fill="#191919"/>
<path d="M374.261 843.498C374.261 840.21 374.642 836.469 375.5 832.417C379.167 814.926 387.597 806.014 398.527 806.014C409.458 806.014 415.149 812.734 415.149 825.078C415.149 828.366 414.768 832.108 413.911 836.159C410.172 853.65 401.814 862.562 390.883 862.562C379.953 862.562 374.261 855.842 374.261 843.498ZM402.433 834.967C403.29 830.916 403.766 827.461 403.766 824.744C403.766 818.81 401.742 815.927 397.908 815.927C393.217 815.927 389.55 821.313 386.978 833.585C386.12 837.636 385.644 841.092 385.644 843.808C385.644 849.742 387.668 852.625 391.502 852.625C396.098 852.625 399.861 847.24 402.433 834.967Z" fill="#191919"/>
</g>
<defs>
<clipPath id="clip0_501_1096">
<rect width="495.277" height="862.078" fill="white" transform="translate(0.624023 0.460938)"/>
</clipPath>
</defs>
</svg>
