<?xml version="1.0" encoding="UTF-8"?>
<svg xmlns="http://www.w3.org/2000/svg" version="1.1" viewBox="0 0 396.1 189.5">
  <!-- Generator: Adobe Illustrator 29.1.0, SVG Export Plug-In . SVG Version: 2.1.0 Build 142)  -->
  <defs>
    <style>
      .st0 {
        fill: #f15a29;
      }

      .st1 {
        fill: #fff;
      }
    </style>
  </defs>
  <g id="Layer_5">
    <g>
      <path class="st1" d="M47.1,0h35.2C114.5,0,135.2,22.4,135.2,63.5s-21.3,62.7-54.1,62.7h-34.1V0h0ZM74.5,22.7v81.1h6.5c16.9,0,26.7-12.3,26.7-40.4s-9.7-40.7-26.7-40.7h-6.5Z"/>
      <path class="st1" d="M142.8,0h27.2v126.2h-27.2V0Z"/>
      <path class="st1" d="M239.8,126.2h-34.2L174.2,0h28.5l10.5,48,10.4,48.1,10.5-48.1L244.5,0h26.7l-31.4,126.2h0Z"/>
      <path class="st1" d="M273,106.3l48.5-84.2h-48.1V0h79.9v19.8l-48.5,84.2h48.1v22.2h-79.9v-19.8Z"/>
    </g>
  </g>
  <g id="Layer_4">
    <g>
      <path class="st0" d="M69.9,189.5c-6.6,0-12.9-.9-19-2.8s-11.4-4.7-16-8.5c-2.7.5-5.5.9-8.4,1.1-2.9.2-6,.4-9.1.4s-5.7-.4-9.1-1.1c-3.4-.7-6-1.9-7.8-3.6C.1,174.6,0,174.4,0,174.2c0-.5.2-.8.6-1,.4-.2.8,0,1.2.3,1.5,1.2,3.7,2.1,6.8,2.6,3,.6,6,.8,8.8.8,5.4,0,10.3-.4,14.8-1.1-4-3.9-7.2-8.6-9.5-14-2.3-5.5-3.4-11.7-3.1-18.8-6.3-2.4-11-6-14-10.6-3-4.6-4.6-9.5-4.6-14.8s1.4-10,4.3-14.7,7-8.5,12.6-11.6,12.3-4.6,20.3-4.6,7.1.4,11.1,1.1c7.2-5.5,14.4-9.5,21.7-12,7.3-2.6,13.2-3.8,17.9-3.8,7.5,0,13.1,1.9,16.6,5.6,3.5,3.7,5.3,8.4,5.3,13.9s-2.1,13.2-6.4,20.6c-4.3,7.4-10.5,14-18.6,19.7-.5,6.3-2.5,12.6-6.1,18.7-3.6,6.1-8.7,11.6-15.2,16.3s-14.8,8.2-24.6,10.4c6.8,4.6,14.7,6.9,23.5,6.9s13.4-1.5,20.2-4.4c6.8-2.9,12.9-7.4,18.6-13.4s10.2-13.7,13.6-23c3.4-9.3,5.1-20.3,5.1-33.1s0-5.2-.2-7.9c-.1-2.7-.4-5.6-.7-8.5-.4-3.7-1.1-7.5-2.3-11.7-1.2-4.1-2.2-8.4-3.2-12.8-1-4.4-1.5-8.7-1.5-13s.6-7.9,1.9-11.8c1.3-3.8,3.6-7.5,7-10.8,2.8-2.9,6.1-5.1,9.9-6.5,3.8-1.4,7.6-2.1,11.2-2.1,6.1,0,10.7,1.6,13.9,4.7,1.2,1.2,2.1,2.4,2.6,3.6s.7,2.2.7,3.2c0,2-.7,2.9-2.2,2.9s-1.9-.5-2.9-1.6c-1.8-2.1-4.3-3.7-7.4-4.8s-6.2-1.7-9.4-1.7-4.8.4-7,1.1-4.2,2-5.9,3.7c-2.7,2.7-4.6,5.6-5.8,8.8-1.2,3.2-1.7,6.6-1.7,10.1s.7,9.1,2.1,13.9,3,9.3,4.8,13.8,3.3,8.6,4.4,12.5c3.3,11.1,4.9,21.2,4.9,30.3s-1.9,20.1-5.6,28.1c-3.7,8-8.7,14.7-15,20-6.3,5.3-13.2,9.2-20.8,11.9-7.6,2.6-15.2,3.9-22.9,3.9h0ZM19.7,139.5c.4-2.9.9-6.1,1.6-9.5,2.1-9,5.4-16.8,10.1-23.4,4.7-6.6,9.8-12.2,15.4-16.9-1.5-.2-2.9-.4-4.2-.6-1.3-.1-2.7-.2-4-.2-7.3,0-13.5,1.4-18.5,4.2-5.1,2.8-8.9,6.4-11.5,10.8-2.6,4.4-3.9,8.9-3.9,13.5s1.2,8.6,3.6,12.6c2.4,4,6.2,7.2,11.3,9.5h0ZM36.8,175.1c9.6-1.9,17.7-5,24.4-9.3,6.6-4.2,11.8-9.2,15.4-14.9s5.9-11.5,6.8-17.4c-5.8,3.8-12.5,6.8-20.1,9.2-7.5,2.4-15.8,3.6-24.8,3.6s-5.3-.2-7.8-.6c-2.5-.4-4.8-.8-6.8-1.3-.1,6.7,1,12.6,3.4,17.8,2.4,5.2,5.6,9.4,9.6,12.9h0ZM38.5,143.1c9,0,17.3-1.4,24.9-4.2s14.4-6.3,20.3-10.6c.1-5.7-1.1-11.2-3.6-16.3s-6.2-9.7-11-13.5c-4.9-3.8-10.9-6.5-18.1-8.1-5.6,4.5-10.7,10.1-15.3,16.9s-8,14.6-10,23.6c-.9,3.4-1.4,6.8-1.6,10.2,4.2,1.3,9.1,2,14.4,2h0ZM85.9,126.7c7.1-5.6,12.5-11.7,16.4-18.3,3.9-6.6,5.8-12.7,5.8-18.2s-1.6-8.4-4.7-11.5-8-4.6-14.7-4.6-9.6,1.2-16.1,3.5c-6.5,2.3-13,6-19.4,10.9,10.5,2.7,18.4,7.6,23.9,14.7s8.4,14.9,8.8,23.4h0Z"/>
      <path class="st0" d="M149.9,171.8c-2.8,0-4.8-1-6-3.1-1.2-2.1-1.8-4.5-1.8-7.3s.8-7.5,2.4-11.3c2.6-6.7,4.9-12.5,7.2-17.3,2.2-4.9,4.5-9.5,6.8-14h-4.9c-.5,0-.7-.2-.7-.7s.2-.8.6-1.3c.4-.5.8-.7,1.3-.7h5.3l13.1-26.3c2.1-.5,4.3-1.1,6.7-1.7,2.4-.7,4.5-1.4,6.5-2.3-1.9,3.3-4.6,7.6-8,12.9s-6.9,11.1-10.4,17.4h12.9c.5,0,.7.2.7.7s-.2.8-.6,1.3c-.4.5-.8.7-1.3.7h-13.5c-3.8,6.7-7.1,13.6-10.1,20.8-3,7.2-5,13.9-5.9,20.2-.1.5-.2,1-.2,1.6v1.4c0,3.3,1.1,4.9,3.3,4.9s2.9-.6,4.6-1.7,3.3-2.5,4.9-4.1c3.9-3.9,7.3-8.2,10.1-12.9,2.9-4.7,5.5-9.5,7.9-14.4.2-.2.4-.4.6-.4.9,0,1.3.5,1.3,1.5-.1,0-.5.6-1,1.6s-.9,1.7-1,1.8c-2.2,4.3-4.4,8.3-6.8,12.2s-5.1,7.6-8.4,11.1c-1.8,1.9-4.1,4-6.9,6.2-2.8,2.2-5.6,3.3-8.6,3.3h0Z"/>
      <path class="st0" d="M189.1,172c-4.7,0-7.1-2.6-7.1-7.7s1.9-10.5,5.6-18.6c1.1-2.2,2.3-4.8,3.7-7.8,1.4-3,2.6-6,3.6-8.9,1-2.9,1.6-5.2,1.6-7s-.6-2.6-1.8-2.6-2.9.9-4.4,2.7-2.8,3.9-3.9,6.1c-1.2,2.2-2.1,4-2.8,5.4-1.8,3.5-3.9,7.4-6.2,11.5-2.3,4.1-4.6,7.8-6.9,10.9h-.2c-.2,0-.6-.1-1-.5-.4-.3-.6-.5-.5-.6,2.3-3.2,4.6-6.8,6.8-10.9s4.2-7.9,5.8-11.3c1.3-2.6,2.8-5.2,4.3-7.9,1.5-2.7,3.3-5,5.4-6.9,2.1-1.9,4.4-2.8,7.1-2.8,4.5,0,6.8,1.8,6.8,5.3s-.7,5.4-2.2,9.3-3.4,8.8-5.8,14.8c-2.2,5.1-3.8,9.4-4.8,12.9s-1.6,6.2-1.6,8.1.8,3.5,2.4,3.5,4.4-1.6,8.2-4.7c3.3-2.9,6.4-6.5,9.5-10.9,3-4.3,6.3-10.2,9.9-17.6,1-1.9,2-4.4,3-7.4,1-3,2.3-6.8,3.9-11.4,2.1-.5,4.4-1.1,6.9-1.9,2.6-.8,4.8-1.6,6.8-2.5-1.2,1.2-2.9,3.9-5.2,8.2s-4.6,9.1-6.9,14.5-4.4,10.7-6.1,15.8c-2.1,5.8-3.1,10.5-3.1,14s.9,4.4,2.7,4.4,1.9-.4,3.2-1.1c1.3-.7,2.8-1.9,4.6-3.5,1.6-1.3,3.1-2.9,4.5-4.7s2.8-3.7,4.1-5.6c1.8-2.7,3.7-5.8,5.8-9.3s4.2-7.7,6.7-12.4c.2-.4.4-.6.6-.6.4,0,.7.1,1,.5.3.3.4.6.3.8-6.6,12.9-12.3,22.5-17.3,28.9s-10.4,9.6-16.2,9.6-4-.8-5-2.4c-1-1.6-1.6-3.7-1.6-6.4s.2-4.4.7-6.9c.5-2.6,1.1-5.2,2-7.8-4.5,7.8-8.8,13.6-12.9,17.6-4.1,3.9-8.7,5.9-13.7,5.9h0Z"/>
      <path class="st0" d="M252.4,172c-4,0-6.8-1.1-8.3-3.5-1.5-2.3-2.3-5.1-2.3-8.4s.6-7.2,1.7-11.1c1.1-3.9,2.3-7.1,3.6-9.5,4.2-8.9,10.2-15.4,18-19.7,7.7-4.2,15.6-6.1,23.8-5.5,2.8-5.7,5.8-11.7,8.9-18,3.1-6.3,6-12.2,8.8-17.9,2.7-5.7,5.1-10.5,7.1-14.6,2-4.1,3.3-6.8,3.9-8.1,2.1-.5,4.3-1.1,6.8-1.7,2.4-.7,4.6-1.4,6.6-2.3-1.2,2.1-3.1,5.3-5.8,9.7-2.6,4.4-5.6,9.5-8.9,15.4-3.4,5.9-6.8,12.2-10.5,18.9-3.6,6.7-7.2,13.4-10.6,20.2v.4c0,.5-.3.9-.9,1.3-3,6.2-5.8,12.2-8.3,17.9-2.5,5.7-4.5,10.9-6,15.6-1.5,4.7-2.3,8.5-2.3,11.6s1.1,5.1,3.5,5.1,2.9-.6,4.6-1.6,3.3-2.4,4.9-4c3.9-3.9,7.3-8.3,10.1-13.1s5.6-9.7,8.1-14.6c0-.2.1-.4.4-.4.9,0,1.3.5,1.3,1.5-1.2,2.2-1.9,3.4-2,3.5-2.2,4.3-4.4,8.3-6.8,12.2s-5.1,7.6-8.4,11.1c-1.8,1.9-4.2,4-7,6.2-2.9,2.2-5.7,3.3-8.5,3.3s-4.7-1.1-5.8-3.3c-1-2.2-1.5-4.6-1.5-7.3s.1-3.3.4-4.9.5-3,.9-4.2c-.9,2.2-2.3,4.9-4.5,8-2.1,3.2-4.5,5.9-7.1,8.3-2.6,2.4-5.2,3.6-7.8,3.6h0ZM254.6,169.2c1.7,0,3.6-1.1,5.7-3.5,2.1-2.3,4.2-5.1,6.4-8.5s4-6.6,5.8-9.9c1.7-3.2,3-5.7,3.8-7.4l11.5-23.3c-6,.1-11.3,1.8-16,4.9-4.7,3.2-8.7,7.2-12,12-3.3,4.8-5.8,9.7-7.5,14.7-1.7,5-2.6,9.3-2.6,12.9s.4,4.4,1.2,5.8c.8,1.5,2,2.2,3.6,2.2h0Z"/>
      <path class="st0" d="M317,172c-2.2,0-3.9-.8-5.2-2.5s-1.9-3.8-1.9-6.5.7-7.1,2.1-10.9,3-7.8,4.9-11.8,3.6-7.7,5-11.2c.6-1.7,1.1-3.2,1.6-4.6.5-1.3.7-2.4.7-3.3,0-1.2-.5-1.8-1.6-1.8s-2.9.9-4.4,2.7-2.8,3.9-3.9,6.1c-1.2,2.2-2.1,4-2.8,5.4-1.8,3.5-3.8,7.2-5.9,10.9-2.1,3.8-4.3,7.2-6.5,10.4,0,.1-.1.2-.4.2s-.5-.2-.9-.6c-.4-.4-.5-.6-.4-.7,2.3-3.3,4.5-6.8,6.5-10.5,2-3.7,3.9-7.3,5.6-10.7,1.2-2.6,2.6-5.2,4.1-7.9,1.5-2.7,3.3-5,5.4-6.9,2.1-1.9,4.4-2.8,7.1-2.8s2.6.3,4.2.9c1.8.7,2.7,2.3,2.7,4.7s-.2,2.6-.6,4.3c-.4,1.6-1,3.5-1.7,5.6-1.6,4.1-3.3,8.3-5.2,12.5s-3.6,8.4-5.2,12.7c-1.2,3.3-1.8,6.2-1.8,8.8s.9,4.2,2.7,4.2,4.3-1.5,7.8-4.6c3.5-3.2,6.8-7.1,9.9-11.9,3-4.8,6.7-11.3,10.9-19.4.1-.2.4-.4.7-.4s.5.1.8.5c.3.3.4.6.3.8-6.5,12.5-12.2,22-17.3,28.5-5.1,6.5-10.9,9.8-17.3,9.8h0ZM337,103.6c-1.7,0-3.1-.6-4.3-1.7s-1.7-2.5-1.7-4.1.7-3.8,2.1-5.3,3.1-2.2,5-2.2,3.2.6,4.4,1.8c1.2,1.2,1.8,2.7,1.8,4.6s-.7,3.6-2.2,4.9c-1.5,1.3-3.2,2-5.1,2Z"/>
      <path class="st0" d="M351.6,172c-4,0-6.8-1.1-8.3-3.4s-2.3-5-2.3-8.3.6-7.3,1.8-11.2c1.2-3.9,2.4-7.1,3.5-9.6,3.3-7.7,7.4-13.7,12.4-18,5-4.3,9.5-6.5,13.7-6.5s5.9,1,7.2,3.1c1.3,2.1,1.9,4.6,1.9,7.7s-.5,6.5-1.5,9.9-2.2,6.4-3.4,8.9c-1.5,3-3,5.9-4.6,8.6-1.6,2.7-3.2,5.1-4.9,7.3,1.1,1,2.4,1.5,4,1.5,2.4,0,4.8-1.1,7.2-3.5,2.4-2.3,4.6-5.2,6.8-8.6,2.1-3.4,4-6.7,5.6-9.9,1.6-3.2,2.9-5.5,3.7-7.1.2-.4.5-.6.7-.6s.5.2.7.6c.2.4.2.9,0,1.4-2,4.1-4.4,8.8-7.2,13.9s-6,9.3-9.6,12.6c-1.5,1.3-2.9,2.3-4.2,2.9-1.3.6-2.5.9-3.6.9-2.1,0-3.9-.8-5.5-2.4-2.3,3-4.7,5.4-7.1,7.1s-4.8,2.6-7.1,2.6h0ZM353.8,169.2c1.3,0,2.9-.8,4.7-2.5s3.7-3.8,5.6-6.5c-1.3-2.4-2-4.9-2-7.3s0-2,.2-3.2c.1-1.1.4-2.3.9-3.6.9-2.4,1.9-4.2,3.1-5.4,1.2-1.1,2.4-1.7,3.6-1.7s2,.5,2.6,1.6.8,2.5.5,4.5c1.7-3.8,3.1-7.4,4.2-11,1.1-3.6,1.6-6.7,1.6-9.4s-.4-3.7-1.2-5-2.2-1.9-4.1-1.9-3.6,1.1-5.8,3.2c-2.2,2.1-4.4,4.9-6.7,8.4-2.2,3.5-4.3,7.2-6.2,11.2-1.9,4-3.4,7.9-4.6,11.8-1.2,3.8-1.7,7.1-1.7,9.9s.4,3.7,1.2,5c.8,1.3,2.1,1.9,3.9,1.9h0Z"/>
    </g>
  </g>
</svg>