<svg width="1440" height="3057" viewBox="0 0 1440 3057" fill="none" xmlns="http://www.w3.org/2000/svg">
<g style="mix-blend-mode:lighten" opacity="0.5">
<g clip-path="url(#clip0_302_515)">
<path d="M-5.69931 989.854C-8.69285 987.633 -3.98873 978.214 -0.923919 981.146C1.64197 983.368 -0.496327 986.833 -2.20692 988.699C-3.06222 989.943 -4.48764 990.832 -5.69931 989.854Z" fill="#3D3D3D"/>
<path d="M3.78028 971.727C3.28135 969.061 4.99191 966.573 5.63338 964.174C9.90987 950.224 15.6831 937.163 20.5298 923.48C26.303 908.464 30.2231 892.47 33.0029 876.299C33.6443 872.656 34.2145 868.924 34.856 865.281C35.1411 863.504 36.4241 862.171 37.9208 862.26C39.3463 862.349 40.7006 863.859 40.7006 865.636C41.5558 878.076 38.491 890.071 35.9252 901.888C29.7955 923.035 23.7372 946.226 12.1906 963.641C10.4801 965.774 5.91849 976.969 3.6377 971.727H3.78028Z" fill="#3D3D3D"/>
<path d="M8.12857 926.589C7.20199 926.056 6.84565 924.723 7.2733 923.568C8.6988 919.836 9.91045 916.015 11.2647 912.195C12.6189 909.262 14.8997 897.712 18.6773 901.532C19.3901 902.51 19.3188 904.02 18.6773 904.998C17.8933 907.041 17.2518 909.174 16.539 911.306C14.8997 916.371 12.904 921.258 10.4806 925.878C9.98172 926.855 8.98393 927.122 8.19991 926.678L8.12857 926.589Z" fill="#3D3D3D"/>
<path d="M-73.9091 1075.33C-75.4771 1075.06 -76.2611 1072.75 -75.5484 1071.06C-74.7644 1069.38 -73.4101 1068.22 -72.1985 1067.07C-66.0688 1061.29 -59.4403 1056.23 -52.6692 1051.61C-25.5848 1032.68 4.77826 1022.55 34.3573 1011.89C49.5388 1006.38 65.7894 1003.09 80.1869 995.006C84.1783 992.785 88.1697 990.563 92.1611 988.253C92.9451 987.809 93.8717 988.075 94.2994 989.053C94.6558 990.03 94.3706 991.185 93.5866 991.718C91.2345 993.229 88.8112 994.651 86.4591 996.161C70.6361 1006.73 53.2451 1012.42 36.2104 1018.91C21.314 1024.59 6.41762 1030.01 -8.47881 1035.61C-19.2413 1039.61 -29.9326 1044.41 -40.1962 1050.18C-50.9586 1057.03 -61.3648 1064.93 -71.272 1073.55C-71.5571 1074.97 -72.9112 1075.86 -73.9803 1075.33H-73.9091Z" fill="#3D3D3D"/>
<path d="M222.665 1056.14C219.957 1056.14 219.743 1050.89 222.665 1050.81C227.155 1050.89 231.36 1049.92 235.708 1049.12C257.875 1044.41 279.328 1036.06 301.709 1033.39C324.802 1030.64 348.037 1030.46 371.202 1030.64C390.303 1031.17 409.334 1029.93 428.435 1030.64C430.003 1030.64 432.07 1032.06 431.215 1034.37C430.859 1035.26 430.075 1035.61 429.362 1035.88C426.582 1036.77 423.589 1036.77 420.738 1036.94C366.996 1039.52 312.4 1033.03 259.657 1048.67C259.799 1048.67 259.942 1048.67 260.013 1048.58C247.682 1051.61 235.209 1055.96 222.665 1056.14Z" fill="#3D3D3D"/>
<path d="M-84.743 1085.37C-90.8013 1077.64 -31.7858 1050.81 -25.7275 1047.78C-13.0406 1041.74 -0.211052 1035.97 13.1886 1032.59C26.8734 1029.13 41.4847 1027.44 55.1694 1026.1C82.1826 1023.35 109.338 1022.73 136.209 1027.61C152.174 1030.55 168.211 1034.46 184.034 1037.92C199.216 1041.03 214.184 1046.27 229.009 1051.25C232.073 1052.23 237.134 1051.43 237.348 1056.76C236.777 1066.71 220.313 1057.91 215.68 1056.76C206.771 1053.56 197.719 1051.16 188.596 1049.03C160.514 1042.72 132.716 1036.32 104.278 1034.28C68.2128 1032.32 31.72 1033.92 -3.20462 1046.45C-26.654 1054.98 -49.8182 1064.93 -71.8421 1078.26C-75.0495 1080.22 -77.9719 1082.08 -80.9654 1084.39C-82.0345 1085.28 -83.5313 1086.97 -84.743 1085.28V1085.37Z" fill="#3D3D3D"/>
<path d="M427.153 1038.37C427.153 1037.57 427.652 1036.86 428.293 1036.86C428.935 1036.86 429.505 1037.48 429.505 1038.28C429.505 1039.08 429.006 1039.79 428.365 1039.79C427.723 1039.79 427.153 1039.17 427.153 1038.37Z" fill="#3D3D3D"/>
<path d="M428.72 1039.26C428.15 1038.72 428.008 1037.57 427.936 1036.86C427.794 1033.75 429.006 1030.99 429.576 1028.06C430.93 1017.75 428.72 1007.89 421.949 1001.49C411.686 992.608 400.068 986.477 388.236 981.768C388.236 981.768 388.236 981.768 388.308 981.768C388.308 981.768 388.308 981.768 388.379 981.768C365.856 972.171 342.407 967.196 318.886 962.931C293.298 957.866 267.426 955.823 241.482 955.289C234.14 954.934 226.87 954.49 219.529 954.134C218.816 954.134 218.246 953.423 218.246 952.535C218.246 951.646 218.816 950.936 219.529 950.936C228.723 950.936 237.989 951.38 247.184 951.469C275.551 950.936 303.918 954.223 331.858 960.265C347.467 963.286 362.934 966.751 378.115 972.26C395.293 978.835 429.718 989.942 433.567 1014.91C434.779 1022.11 433.923 1029.66 431.571 1036.32C431.215 1037.39 430.716 1038.46 429.932 1038.99C429.789 1039.61 429.005 1039.79 428.649 1039.26H428.72Z" fill="#3D3D3D"/>
<path d="M426.297 1025.66C418.172 1021.75 409.191 1021.93 400.638 1021.4C389.377 1021.31 378.115 1021.31 366.783 1021.04C366.426 1021.04 366.07 1020.6 366.07 1020.15C366.07 1019.62 366.355 1019.26 366.783 1019.26C368.422 1019.18 370.061 1019 371.772 1018.91C383.318 1018.29 394.865 1017.93 406.483 1018.55C412.612 1019 418.671 1018.91 424.515 1021.13C425.798 1021.66 427.794 1022.46 427.651 1024.51C427.651 1025.31 426.939 1025.84 426.297 1025.66Z" fill="#3D3D3D"/>
<path d="M353.668 1025.04C351.886 1022.73 355.45 1019.97 357.16 1020.86C358.087 1021.48 357.588 1022.91 357.018 1023.53C356.162 1024.68 354.951 1026.46 353.668 1025.04Z" fill="#3D3D3D"/>
<path d="M354.595 1025.48C354.595 1024.68 355.094 1023.97 355.736 1023.97C356.377 1023.97 356.947 1024.59 356.947 1025.39C356.947 1026.19 356.448 1026.9 355.807 1026.9C355.165 1026.9 354.595 1026.28 354.595 1025.48Z" fill="#3D3D3D"/>
<path d="M326.798 967.995C325.942 967.195 325.8 965.685 326.37 964.618C326.584 964.263 326.726 963.996 326.94 963.641C327.083 961.509 328.936 960.709 330.361 960.531C331.787 960.531 332.642 962.753 331.644 964.085C331.644 965.329 330.931 966.484 329.934 966.84C329.934 966.84 329.934 966.84 329.862 966.84C329.292 968.261 327.867 968.972 326.798 967.995Z" fill="#3D3D3D"/>
<path d="M301.21 968.885C299.642 966.308 302.137 964.176 303.705 962.843C305.558 961.421 311.117 955.646 311.973 960.799C311.901 963.021 309.122 963.731 308.053 965.42C306.057 967.019 303.705 972.084 301.21 968.885Z" fill="#3D3D3D"/>
<path d="M280.184 963.374C278.402 962.13 279.828 959.731 280.469 958.132C280.825 956.621 282.536 956.088 283.391 957.154C284.175 958.043 284.104 959.731 283.32 960.531C282.679 962.041 281.895 964.529 280.184 963.374Z" fill="#3D3D3D"/>
<path d="M415.963 1004.25C412.256 1000.43 408.835 996.25 405.129 992.607C397.93 986.92 389.805 984.344 381.679 981.767C359.727 972.704 336.277 972.26 313.469 969.239C304.204 967.195 294.51 966.573 285.387 963.552C280.897 964.441 276.264 964.352 271.702 964.618C263.934 964.618 256.165 963.374 248.396 963.108C238.845 962.752 229.08 963.819 220.028 959.909C199.501 946.848 189.024 903.843 182.395 877.987C179.188 864.215 177.121 849.998 175.981 835.693C175.268 825.741 174.983 815.79 175.196 805.838C175.41 803.084 175.268 799.974 176.479 797.575C178.047 795.087 181.469 796.331 181.611 799.53C181.326 819.166 182.823 839.069 186.244 858.261C189.451 875.677 194.726 892.47 200.285 908.908C204.918 922.147 210.05 935.386 217.462 946.581C218.389 948.003 219.316 949.425 220.242 950.935C222.594 952.623 226.229 953.156 228.724 953.512C233.856 954.045 239.059 953.956 244.262 953.867C254.026 953.512 263.791 955.2 273.556 956C280.398 956.533 287.169 957.244 294.011 957.155C300.925 958.132 307.696 959.998 314.61 960.887C328.58 962.13 342.763 964.974 356.448 968.35C368.779 972.26 380.967 977.235 392.798 983.011C399.926 986.743 406.982 991.008 413.112 996.872C414.68 998.382 416.105 999.982 417.602 1001.58C418.172 1002.2 418.243 1003.18 417.816 1003.89C417.388 1004.6 416.461 1004.78 415.963 1004.16V1004.25Z" fill="#3D3D3D"/>
<path d="M366.142 1024.77C363.932 1023.35 366.569 1019.53 368.209 1021.4C368.779 1022.91 367.71 1025.57 366.142 1024.77Z" fill="#3D3D3D"/>
<path d="M363.932 1030.28C363.22 1029.3 363.505 1027.79 363.719 1026.55C364.36 1024.6 364.36 1022.55 365.073 1020.6C365.429 1019.62 366.356 1019.18 367.069 1019.62C368.637 1020.51 367.71 1022.55 367.211 1023.97C368.423 1026.11 366.213 1032.59 363.932 1030.19V1030.28Z" fill="#3D3D3D"/>
<path d="M191.091 905.975C188.596 899.667 190.093 892.292 190.948 885.717C193.086 868.657 199.715 852.486 206.771 838.003C212.829 826.008 219.458 814.368 227.227 803.972C234.355 794.731 243.192 787.268 251.532 780.071C253.385 778.383 255.167 776.605 257.02 774.917C257.733 774.206 258.802 774.295 259.443 775.184C260.013 776.072 259.942 777.405 259.229 778.205C257.447 780.071 255.737 781.937 254.098 783.803C235.352 808.059 214.754 832.316 204.134 863.948C200.998 872.922 198.432 882.163 197.505 891.936C196.935 896.379 196.864 901.177 196.65 905.531C196.08 908.996 192.231 908.818 191.091 905.886V905.975Z" fill="#3D3D3D"/>
<path d="M279.471 765.855C277.903 765.766 276.977 763.278 277.974 761.768C281.895 755.193 288.951 752.616 294.938 750.217C296.078 749.861 297.29 750.394 297.789 751.727C299.357 756.081 291.445 758.924 289.093 760.701C286.456 762.123 283.748 763.456 281.111 764.966C280.754 765.499 280.113 765.855 279.471 765.855Z" fill="#3D3D3D"/>
<path d="M298.787 715.031C295.366 708.545 311.688 707.123 314.753 705.79C317.675 705.08 320.669 704.635 323.662 704.191C325.23 704.013 326.656 705.524 326.941 707.39C327.226 709.433 326.085 711.655 324.446 711.921C317.604 713.432 310.69 714.32 303.777 715.209C302.137 715.209 300.07 716.719 298.787 714.853V715.031Z" fill="#3D3D3D"/>
<path d="M348.323 709.167C347.397 708.9 347.397 708.012 346.542 707.567C346.185 706.945 346.684 706.146 347.254 706.412C349.82 703.213 354.738 703.924 358.159 703.125C369.492 701.614 380.967 701.436 392.3 700.015C395.436 699.837 395.721 705.701 392.585 705.968C377.831 707.478 363.077 708.367 348.323 709.255V709.167Z" fill="#3D3D3D"/>
<path d="M423.66 714.409C421.094 712.099 424.801 708.367 425.299 705.879C426.939 701.348 428.364 696.728 429.79 692.107C429.79 689.975 432.356 688.997 433.425 690.774C434.565 692.64 433.924 695.661 433.354 697.616C431.643 703.303 428.792 708.367 426.226 713.521C425.656 714.587 424.587 715.031 423.731 714.409H423.66Z" fill="#3D3D3D"/>
<path d="M414.323 728.448C413.325 727.204 414.394 725.96 415.178 725.071C415.677 724.183 416.604 723.65 417.388 724.361C417.958 724.894 418.172 726.049 417.673 726.76C416.889 727.826 415.534 729.781 414.394 728.448H414.323Z" fill="#3D3D3D"/>
<path d="M394.438 746.219C394.082 745.508 394.295 744.531 394.866 744.175C396.647 743.02 398.358 741.776 400.069 740.532C403.276 737.956 406.555 735.379 409.334 732.18C410.403 731.292 411.116 733.247 410.118 733.957C408.051 736.001 396.22 749.684 394.438 746.308V746.219Z" fill="#3D3D3D"/>
<path d="M225.231 836.938C221.881 832.673 227.298 830.895 230.007 830.362C241.482 827.341 252.316 821.744 263.577 817.834C273.199 814.369 282.892 811.081 292.301 806.55C329.292 788.957 366.854 769.498 406.198 762.212C412.613 761.057 419.17 760.702 425.585 759.724C428.863 759.458 433.71 755.371 435.492 760.702C437.915 770.831 412.328 769.409 407.196 771.186C393.511 773.585 380.04 777.85 366.854 783.27C351.958 788.868 337.204 794.999 322.592 801.752C303.633 810.993 284.888 820.855 265.216 827.341C255.666 830.896 246.115 835.072 236.136 836.316C232.573 836.582 228.581 838.715 225.16 836.938H225.231Z" fill="#3D3D3D"/>
<path d="M507.622 813.658C487.523 805.306 468.278 794.021 448.82 783.626C440.196 778.65 430.93 775.096 422.52 770.031C421.308 768.432 422.306 765.944 423.945 765.855C435.563 766.299 446.326 771.808 456.875 777.228C468.92 783.004 480.324 790.467 492.155 796.865C501.35 801.218 510.331 807.349 520.309 807.971C529.432 807.349 542.475 800.508 542.475 787.535C542.475 758.214 507.194 738.844 490.516 723.117C483.531 717.164 476.618 711.211 469.704 705.08C468.563 704.102 468.207 702.148 468.991 700.637C469.775 699.215 471.414 698.682 472.555 699.748C477.972 704.546 483.46 709.167 489.019 713.876C506.125 729.425 526.439 741.065 539.838 762.034C548.035 774.296 552.026 795.887 539.553 806.105C535.063 810.37 529.789 813.747 524.514 816.235C518.883 818.012 513.039 815.968 507.693 813.924L507.622 813.658Z" fill="#3D3D3D"/>
<path d="M-139.125 824.498C-141.833 820.677 -128.79 811.792 -126.865 809.304C-123.016 805.483 -118.954 801.307 -115.034 797.664C-106.695 789.934 -99.0682 781.937 -90.6577 774.474C-81.8909 766.655 -72.1264 761.057 -63.3596 753.593C-47.1802 738.932 -29.4328 727.915 -12.897 714.409C-2.20584 705.879 8.77046 697.971 19.6042 689.708C27.5157 683.666 35.5699 677.624 44.1941 673.359C55.8119 667.939 67.7147 663.496 79.9027 660.92C89.2397 659.32 98.7192 659.498 108.127 659.054C133.786 658.165 159.517 657.988 185.176 658.698C246.686 658.965 308.267 660.475 369.706 662.075C389.663 662.519 409.762 660.475 429.577 663.852C436.562 666.251 443.262 670.16 449.961 673.537C455.521 676.647 459.94 682.067 464.644 686.865C469.419 691.485 473.411 697.083 477.972 701.97C479.968 704.102 482.035 706.146 484.173 708.101C485.029 708.9 485.171 710.677 484.601 711.744C483.959 712.988 482.463 713.432 481.465 712.543C478.899 710.233 476.333 707.923 473.767 705.702C464.644 698.593 457.018 689.175 448.108 681.8C442.192 677.891 436.134 674.781 429.862 672.115C421.095 669.983 411.117 670.516 402.421 670.427C380.041 670.516 357.803 671.138 335.494 669.983C277.548 669.272 219.459 667.317 161.512 668.561C142.767 668.916 124.022 669.361 105.277 670.072C97.5789 670.427 89.4535 670.427 81.8984 671.315C72.9891 672.826 64.2223 675.314 55.598 678.335C39.4899 682.866 25.4488 693.973 11.5502 704.635C-3.13235 715.564 -17.815 727.737 -32.7114 738.044C-43.6877 745.774 -54.1651 754.66 -64.8563 762.834C-75.1199 770.742 -85.7399 777.939 -95.6471 786.558C-104.841 794.11 -113.252 802.551 -121.947 810.903C-126.58 815.702 -132.068 819.167 -136.487 824.142C-136.986 825.298 -138.412 825.475 -139.053 824.498H-139.125Z" fill="#3D3D3D"/>
<path d="M521.164 776.073C505.697 763.9 491.229 749.506 474.764 739.466C461.507 731.202 447.323 726.76 433.282 721.606C432.783 721.606 432.498 720.807 432.855 720.362C433.353 719.829 433.924 719.563 434.565 719.474C437.915 719.296 441.336 719.829 444.615 720.629C455.235 723.65 465.784 727.471 475.548 733.424C484.244 738.844 492.084 745.952 499.995 752.971C507.408 760.079 514.678 767.099 522.376 773.674C523.587 774.651 522.376 777.05 521.164 775.984V776.073Z" fill="#3D3D3D"/>
<path d="M203.921 849.998C203.921 849.998 203.707 849.465 203.707 849.199C203.707 848.754 203.351 848.488 203.279 848.043C203.065 845.644 206.13 846.355 205.204 848.488C204.847 848.843 204.99 849.376 204.847 849.82C204.634 850.265 204.206 850.442 203.921 850.087V849.998Z" fill="#3D3D3D"/>
<path d="M446.325 979.903C425.513 978.925 409.262 966.753 393.297 951.203C383.104 940.008 372.556 929.434 362.363 918.239C352.171 906.777 341.195 896.559 330.789 885.363C326.584 880.654 321.167 875.678 316.534 872.568C298.002 859.063 276.691 851.688 255.594 847.956C238.987 845.291 222.237 846.179 205.701 848.489C202.637 849.378 200.783 844.136 203.207 841.737C205.345 839.782 208.196 839.782 210.691 838.982C214.112 838.094 217.462 837.205 220.954 836.494C256.164 832.674 292.799 841.648 323.376 864.039C329.506 868.392 334.994 873.99 340.411 879.588C356.733 895.137 371.487 912.908 386.739 929.968C405.912 952.98 430.573 974.572 458.371 970.484C459.939 970.484 461.293 972.084 461.578 973.95C462.362 982.124 450.388 979.903 446.325 979.814V979.903Z" fill="#3D3D3D"/>
<path d="M454.38 978.302C452.313 976.348 451.315 973.238 449.676 970.75C445.328 962.753 440.695 954.579 436.063 947.026C422.663 925.79 408.479 904.821 392.87 886.162C369.706 859.151 343.477 836.671 316.392 816.235C313.114 813.569 309.336 811.881 306.129 809.393C303.99 805.395 308.766 802.996 311.332 804.24C316.392 805.75 320.883 809.482 325.373 812.592C336.848 821.299 347.967 830.807 358.943 840.581C376.192 855.952 393.013 872.212 407.766 891.315C423.732 912.462 438.486 934.942 453.026 957.6C455.663 962.131 458.942 966.13 461.65 970.572C463.931 975.815 458.443 981.857 454.523 978.302H454.38Z" fill="#3D3D3D"/>
<path d="M376.833 793.755C375.051 792.156 373.483 790.379 371.772 788.779C370.845 788.335 370.204 787.269 370.346 785.936C370.346 784.07 371.629 782.382 373.197 782.56C376.12 783.004 378.472 785.847 380.539 788.246C381.608 789.49 381.751 791.534 380.895 793.044C379.969 794.644 378.115 794.999 376.833 793.844V793.755Z" fill="#3D3D3D"/>
<path d="M441.835 886.34C430.36 864.749 417.103 844.757 402.492 826.542C401.993 825.742 401.922 824.587 402.421 823.699C403.49 821.744 405.628 822.81 406.84 823.876C412.185 828.585 416.462 834.006 420.738 840.048C429.861 853.997 437.773 868.481 445.043 883.941C446.255 886.518 443.261 888.917 441.907 886.34H441.835Z" fill="#3D3D3D"/>
<path d="M462.719 932.721C461.079 928.989 459.654 925.08 458.157 921.259C457.73 919.482 455.876 918.061 456.732 916.106C457.373 914.506 459.44 914.506 460.081 916.106C462.576 920.46 464.358 925.435 466.354 930.233C466.781 931.388 466.354 932.81 465.57 933.521C464.643 934.232 463.289 933.876 462.719 932.721Z" fill="#3D3D3D"/>
<path d="M458.086 971.994C457.587 970.306 458.87 968.884 459.868 967.996C468.849 960.71 474.123 946.493 471.415 933.343C468.706 921.437 463.218 910.952 458.3 900.379C450.959 885.363 442.905 870.791 434.708 856.397C434.708 856.485 434.851 856.574 434.851 856.663C421.451 833.384 406.127 812.237 392.87 788.957C390.803 785.314 388.736 781.494 386.669 777.851C385.814 776.251 386.17 773.941 387.382 772.786C388.665 771.453 390.732 771.72 391.801 773.319C393.583 776.162 395.365 778.917 397.146 781.76C402.136 789.668 407.054 797.576 411.971 805.573C428.08 830.54 443.332 856.308 456.732 883.586C461.151 892.382 465.214 901.356 468.92 910.597C472.27 919.127 475.762 928.012 476.047 937.697C476.618 949.337 472.056 961.154 465.428 969.151C463.788 970.75 459.726 975.104 458.015 972.083L458.086 971.994Z" fill="#3D3D3D"/>
<path d="M888.514 675.58C887.017 671.671 899.419 658.965 901.771 655.588C912.889 642.26 925.576 631.509 937.836 620.136C962.497 598.278 987.657 577.131 1014.88 560.427C1023.01 554.385 1032.06 551.719 1041.33 549.942C1056.37 546.477 1071.48 543.189 1086.37 539.102C1118.73 531.461 1150.52 520.799 1181.88 508.181C1199.49 500.274 1216.88 491.211 1234.05 482.236C1237.47 480.37 1240.97 478.682 1244.25 476.55C1245.39 475.572 1247.1 474.24 1248.17 476.106C1249.16 478.238 1247.38 479.66 1245.96 480.37C1242.46 482.503 1238.97 484.458 1235.48 486.501C1218.94 495.742 1202.19 504.094 1185.3 512.091C1148.88 528.084 1111.18 538.747 1073.4 548.343C1062.35 551.009 1051.23 553.319 1040.11 555.895C1035.2 556.962 1030.21 558.206 1025.29 559.183C1021.58 560.605 1018.45 562.826 1014.95 564.781C976.324 589.038 940.402 620.047 907.687 655.233C903.481 659.942 899.347 664.829 895.427 669.894C894.002 671.76 892.505 673.626 891.151 675.669C890.652 676.913 888.941 676.913 888.514 675.58Z" fill="#3D3D3D"/>
<path d="M889.726 678.957C888.372 678.779 886.59 676.558 888.229 675.225C889.227 674.603 890.225 675.67 891.223 675.67C895.713 676.203 899.918 673.537 903.767 670.96C918.379 661.364 931.137 648.125 943.824 634.975C948.243 629.111 961.428 620.758 955.441 611.607C954.657 610.185 952.733 609.03 953.588 607.075C954.443 605.032 956.582 606.187 957.508 607.608C968.984 622.536 943.396 640.661 935.556 649.369C925.15 659.143 902.841 681.178 889.797 678.868L889.726 678.957Z" fill="#3D3D3D"/>
<path d="M909.968 695.306C906.475 694.862 902.983 693.884 899.704 692.374C895.713 689.708 892.79 684.91 889.013 681.978C887.73 682.156 886.803 680.023 887.801 678.779C888.585 677.802 889.797 678.069 890.724 678.69C894.145 680.912 896.568 684.555 899.775 686.865C904.266 688.642 909.041 691.041 913.817 690.241C926.218 687.309 937.052 679.135 948.67 673.626C968.841 662.875 989.225 652.212 1009.32 641.55C1024.86 633.909 1040.54 626.09 1057.15 622.891C1076.68 618.626 1096.92 621.114 1116.24 615.072C1127 611.607 1137.19 605.92 1147.6 601.122C1148.74 600.589 1150.02 601.477 1150.38 602.81C1151.16 605.831 1148.1 606.72 1146.6 607.519C1140.11 610.896 1134.2 614.094 1127.78 617.115C1109.54 626.445 1089.79 626.356 1070.41 627.778C1055.65 628.755 1041.18 632.931 1027.36 639.418C1000.84 650.88 975.398 666.518 949.311 679.046C943.895 681.711 938.62 684.466 933.346 687.131C925.791 690.774 918.236 695.395 909.968 695.217V695.306Z" fill="#3D3D3D"/>
<path d="M1107.83 626.445C1105.97 625.201 1106.9 622.269 1107.33 620.314C1107.97 617.382 1108.61 614.361 1109.25 611.429C1112.32 600.856 1111.25 589.482 1106.04 580.33C1104.05 579.087 1105.47 574.911 1107.54 575.799C1110.39 573.933 1114.17 581.575 1115.6 584.151C1120.8 594.192 1122.87 606.986 1120.3 618.626C1130.28 614.45 1139.19 604.676 1150.16 606.098C1152.09 604.676 1164.35 606.631 1163.42 610.363C1163.14 612.229 1161.5 612.051 1160.36 611.696C1156.58 611.074 1152.73 610.985 1149.09 609.652C1142.97 613.117 1136.69 616.582 1130.28 619.07C1126.79 619.959 1114.24 629.288 1112.53 624.668C1112.32 624.668 1112.1 624.579 1111.89 624.402C1111.82 624.402 1111.75 624.224 1111.68 624.135C1110.75 625.468 1109.39 627.334 1107.9 626.445H1107.83ZM1117.88 610.985C1117.66 612.584 1117.23 614.184 1116.88 615.694C1116.59 616.76 1116.24 617.915 1115.88 618.982C1118.02 616.316 1118.02 612.14 1118.23 608.586C1118.16 609.385 1118.02 610.185 1117.95 610.985H1117.88Z" fill="#3D3D3D"/>
<path d="M1103.41 626C1103.19 624.49 1103.98 622.891 1105.19 622.624C1109.11 621.735 1113.03 620.847 1116.95 620.047C1131.2 618.092 1144.53 611.606 1158 606.097C1158.86 605.92 1159.86 606.542 1159.86 607.697C1160.14 611.695 1152.44 612.139 1150.16 613.65C1139.26 618.359 1128.43 623.157 1117.02 625.556C1113.39 626.534 1109.68 627.333 1106.04 628.222C1104.83 628.488 1103.62 627.511 1103.34 626H1103.41Z" fill="#3D3D3D"/>
<path d="M1183.02 635.597C1174.25 633.82 1165.77 630.444 1157.22 627.778C1147.24 625.645 1136.98 624.668 1127.07 627.778C1125 630.888 1120.73 627.511 1122.15 623.868C1124.79 616.849 1139.69 615.072 1145.46 614.805C1158.57 614.006 1171.33 618.537 1183.81 622.802C1186.94 623.335 1191.08 622.802 1192.07 627.689C1193.43 634.175 1187.23 636.841 1183.09 635.686L1183.02 635.597Z" fill="#3D3D3D"/>
<path d="M1051.38 722.94C1048.88 719.652 1046.03 713.877 1048.24 709.523C1054.3 703.037 1062.5 701.97 1069.84 698.861C1077.75 695.395 1085.37 691.041 1092.93 686.421C1110.61 674.248 1128.14 661.365 1145.96 649.725C1155.94 642.439 1167.91 641.017 1177.25 632.31C1190.01 618.893 1203.69 606.453 1216.02 592.415C1230.28 575.088 1247.24 561.938 1264.7 550.565C1273.47 545.234 1283.59 538.481 1293.5 542.213C1296.13 542.924 1295.35 547.811 1292.57 546.744C1287.51 546.034 1282.45 548.166 1277.6 550.032C1254.65 560.517 1234.84 578.998 1216.45 598.635C1204.47 610.719 1194.5 626.357 1180.74 635.064C1172.26 640.573 1164.06 646.97 1155.44 652.035C1145.25 656.744 1135.91 662.609 1127 669.983C1110.68 682.689 1094.14 695.306 1076.68 705.347C1069.77 709.079 1062.35 711.389 1054.87 712.189C1053.66 712.366 1052.45 712.455 1051.38 713.166C1051.23 716.809 1056.72 719.297 1054.44 723.029C1053.66 724.006 1052.3 724.095 1051.52 723.029L1051.38 722.94Z" fill="#3D3D3D"/>
<path d="M1077.96 734.579C1072.47 732.979 1050.95 723.561 1050.38 716.364C1049.74 711.388 1055.8 710.944 1055.65 715.92C1061.36 723.472 1069.84 726.582 1077.68 728.892C1087.09 729.692 1095.5 722.672 1103.98 718.408C1115.03 711.832 1127.28 706.501 1136.69 696.905C1131.28 688.375 1121.37 687.931 1114.17 682.511C1110.46 680.023 1113.17 672.826 1117.09 674.781C1123.65 678.601 1131.35 680.645 1136.91 686.509C1140.33 689.708 1144.32 696.461 1140.54 701.259C1133.77 708.722 1125 712.988 1117.31 718.585C1104.98 725.871 1092.07 735.823 1077.96 734.668V734.579Z" fill="#3D3D3D"/>
<path d="M1085.59 761.502C1076.25 759.813 1066.56 758.481 1058.15 752.883C1052.37 747.552 1049.17 738.755 1047.1 730.403C1045.6 723.828 1045.96 716.898 1046.46 710.234C1047.39 707.213 1050.38 709.434 1048.81 712.099C1045.25 721.607 1051.88 731.203 1055.51 739.2C1064.28 754.305 1081.1 756.082 1094.78 754.838C1110.54 754.216 1125.15 748.263 1139.54 741.332C1157.01 734.224 1173.68 725.783 1190.08 715.476C1209.89 703.214 1227 684.733 1248.1 675.759C1259.93 669.272 1272.11 663.852 1284.52 659.499C1285.23 659.232 1286.01 659.765 1286.16 660.654C1286.37 661.542 1285.94 662.431 1285.23 662.697C1264.99 670.694 1244.67 678.957 1226.86 693.618C1205.33 709.789 1185.09 729.959 1161 739.999C1144.53 746.663 1128.35 754.216 1111.25 757.592C1102.77 759.636 1094.07 762.39 1085.52 761.502H1085.59Z" fill="#3D3D3D"/>
<path d="M1271.76 669.449C1268.27 661.541 1298.2 653.989 1302.76 651.412C1313.1 647.058 1323.79 643.771 1333.84 638.351C1336.9 636.662 1340.18 635.507 1342.89 633.108C1345.96 630.532 1348.09 626.711 1350.16 622.979C1351.87 619.425 1352.66 615.338 1352.73 611.251C1352.94 603.254 1352.94 595.168 1352.58 587.171C1352.16 584.417 1352.66 580.952 1355.36 580.508C1357.15 580.241 1359 581.84 1359.21 584.151C1359.93 597.923 1362.56 611.606 1358.07 624.49C1353.3 637.462 1343.46 643.86 1332.84 647.147C1324.07 650.168 1315.45 653.9 1306.76 657.365C1296.42 661.63 1285.59 664.296 1275.47 669.36C1274.75 671.137 1272.54 671.226 1271.76 669.36V669.449Z" fill="#3D3D3D"/>
<path d="M1221.94 580.064C1221.3 579.087 1221.37 577.488 1222.22 576.688C1227.92 571.357 1233.56 566.114 1239.54 561.405C1254.08 551.098 1269.19 536.437 1286.87 539.814C1283.02 538.925 1279.1 537.859 1275.25 537.859C1274.47 538.215 1273.54 537.593 1273.47 536.526C1273.33 535.371 1274.18 534.483 1275.04 534.66C1277.82 534.572 1280.31 534.927 1283.09 535.282C1298.91 538.037 1313.53 548.344 1326.36 559.45C1327.07 563.182 1320.23 556.607 1318.8 555.985C1314.02 552.698 1308.89 549.765 1303.83 547.455C1299.48 545.589 1294.92 544.701 1290.36 544.523C1285.44 544.345 1280.38 543.457 1275.54 544.523C1263.28 547.899 1253.01 557.496 1242.39 565.226C1238.05 568.691 1233.7 572.334 1229.64 575.799C1227.5 577.043 1224.15 582.73 1222.01 579.887L1221.94 580.064Z" fill="#3D3D3D"/>
<path d="M1181.67 624.756C1178.6 621.113 1184.09 617.47 1185.66 614.982C1192.14 607.074 1198.49 598.989 1205.62 592.058C1212.81 584.772 1219.8 577.22 1226.57 569.401C1227.71 568.334 1228.92 567.002 1230.42 566.735C1232.2 566.202 1233.84 568.779 1232.91 570.822C1232.99 572.599 1231.42 573.932 1230.13 573.399C1220.73 584.417 1209.75 593.569 1200.13 604.231C1196.14 608.851 1192.43 613.738 1188.87 618.803C1187.08 621.202 1184.8 626.888 1181.67 624.756Z" fill="#3D3D3D"/>
<path d="M1184.73 654.878C1182.38 650.969 1180.46 647.504 1176.61 645.638C1175.04 645.105 1173.9 644.927 1172.4 644.66C1171.69 644.749 1170.98 644.483 1170.55 643.772C1169.55 642.261 1170.41 639.773 1171.97 639.685C1176.39 640.307 1180.74 642.706 1184.23 646.171C1185.73 648.214 1189.58 652.213 1187.3 654.967C1186.59 655.678 1185.45 655.678 1184.73 654.79V654.878Z" fill="#3D3D3D"/>
<path d="M1063.28 874.61C1064.35 860.305 1065.77 845.822 1068.62 831.872C1073.19 812.502 1080.88 794.287 1088.8 776.783C1090.15 773.762 1091.5 770.741 1092.86 767.72C1094.21 764.966 1095.21 761.678 1097.28 759.635C1099.34 758.213 1100.48 763.278 1097.99 763.1C1090.43 777.494 1084.09 792.688 1078.32 808.326C1074.26 818.811 1070.62 829.651 1068.55 841.024C1067.06 849.11 1066.13 857.373 1065.35 865.547C1065.06 868.48 1064.85 871.501 1064.78 874.433C1064.78 875.499 1063.35 875.588 1063.28 874.433V874.61Z" fill="#3D3D3D"/>
<path d="M1062.71 883.408C1062.71 882.608 1063.28 881.986 1063.92 881.986C1064.56 881.986 1065.06 882.786 1065.06 883.497C1065.06 884.296 1064.49 884.918 1063.85 884.918C1063.21 884.918 1062.71 884.119 1062.71 883.408Z" fill="#3D3D3D"/>
<path d="M1067.56 893.003C1065.77 892.826 1065.35 890.249 1064.71 888.65C1064.56 887.85 1065.49 887.406 1065.85 888.117C1066.27 888.827 1066.49 889.716 1067.2 890.071C1069.98 884.562 1070.26 877.454 1070.98 871.235C1072.83 854.619 1075.9 837.915 1075.68 821.21C1070.98 835.782 1069.55 851.687 1068.41 867.147C1068.41 868.569 1066.56 868.48 1066.63 867.058C1067.06 856.663 1067.7 846.445 1069.55 836.315C1070.41 830.807 1071.9 825.564 1073.54 820.322C1074.04 817.923 1075.9 813.836 1078.1 816.501C1079.67 818.989 1079.25 822.899 1079.32 825.653C1079.32 828.674 1079.32 831.606 1079.03 834.627C1078.1 844.312 1076.96 853.375 1075.47 862.794C1073.83 869.102 1073.47 892.737 1067.63 893.181L1067.56 893.003Z" fill="#3D3D3D"/>
<path d="M1065.42 884.918C1065.42 884.473 1065.77 884.207 1066.13 884.207C1066.49 884.207 1066.77 884.651 1066.7 885.095C1066.7 885.54 1066.34 885.806 1065.99 885.806C1065.63 885.806 1065.35 885.362 1065.42 884.918Z" fill="#3D3D3D"/>
<path d="M1067.91 899.046C1066.42 898.868 1063.64 897.091 1064.85 894.87C1065.06 894.248 1065.85 894.07 1066.13 894.781C1066.84 895.225 1067.56 895.136 1068.34 895.225C1070.19 895.58 1069.77 899.223 1067.98 898.957L1067.91 899.046Z" fill="#3D3D3D"/>
<path d="M1073.61 899.58C1071.19 898.78 1067.48 898.958 1066.34 895.67C1065.63 893.715 1067.91 891.938 1068.98 893.627C1076.47 894.959 1081.67 894.871 1087.51 888.207C1095.5 879.055 1101.34 867.237 1106.54 855.42C1107.11 853.554 1107.61 851.688 1108.25 849.822C1108.47 849.111 1109.04 848.667 1109.68 848.934C1110.25 849.2 1110.61 850 1110.39 850.711C1108.11 861.373 1104.12 871.147 1098.49 879.677C1092.5 889.362 1084.88 902.245 1073.69 899.58H1073.61Z" fill="#3D3D3D"/>
<path d="M1095.21 881.898C1095.28 879.854 1096.71 878.521 1098.28 878.521C1099.84 878.521 1101.06 880.476 1100.98 882.342C1100.91 884.386 1099.49 885.719 1097.92 885.719C1096.35 885.719 1095.14 883.764 1095.21 881.898Z" fill="#3D3D3D"/>
<path d="M1100.13 879.764C1099.63 879.586 1099.13 879.142 1098.85 878.52C1098.56 877.898 1098.56 877.098 1098.63 876.654C1098.63 876.032 1098.85 875.41 1098.99 874.877C1099.2 874.166 1099.35 873.367 1099.56 872.656C1100.13 870.701 1100.91 868.924 1101.7 867.147C1103.27 863.149 1104.83 859.15 1106.4 855.152C1107.61 852.042 1108.75 848.932 1109.75 845.911C1109.97 845.2 1110.18 844.489 1110.39 844.045C1111.75 839.869 1112.96 835.693 1114.17 831.428C1114.74 829.473 1115.38 827.519 1115.95 825.564C1116.24 824.498 1116.59 823.52 1116.88 822.543C1117.02 822.099 1117.16 821.565 1117.38 821.121C1117.59 820.677 1117.81 820.144 1118.23 819.877C1118.8 819.433 1119.66 819.877 1119.73 820.677C1119.94 821.654 1119.73 822.632 1119.59 823.609C1119.44 824.764 1119.16 825.83 1118.87 826.985C1118.3 829.118 1117.66 831.25 1117.02 833.294C1115.6 837.737 1114.1 842.179 1112.53 846.622C1111.03 850.709 1109.47 854.619 1107.9 858.706C1106.33 862.793 1104.83 866.703 1103.27 870.701C1102.62 872.3 1101.98 873.9 1101.27 875.41C1100.98 876.032 1100.77 876.654 1100.56 877.099C1100.56 877.187 1100.49 877.276 1100.41 877.365H1100.63C1100.63 877.365 1100.91 877.365 1100.98 877.365C1101.06 877.365 1101.2 877.365 1101.2 877.365C1101.2 877.365 1101.2 877.365 1101.27 877.365C1101.91 877.098 1102.55 876.832 1103.12 876.565C1103.34 876.477 1103.55 876.299 1103.69 876.21C1104.12 875.855 1104.55 875.499 1104.98 875.055C1105.4 874.611 1105.83 874.255 1106.33 873.811C1107.19 873.011 1107.97 872.212 1108.75 871.412C1108.75 871.412 1108.82 871.412 1108.9 871.323C1109.61 870.612 1110.18 869.901 1110.75 869.191C1111.53 868.213 1112.25 867.147 1112.96 866.081C1113.67 865.103 1114.38 864.126 1115.03 863.149C1115.24 862.793 1115.67 862.793 1115.95 863.06C1116.24 863.326 1116.24 863.859 1116.02 864.215C1115.1 865.725 1114.1 867.147 1113.1 868.48C1112.1 869.901 1111.11 871.323 1109.97 872.567C1109.04 873.633 1108.04 874.611 1107.11 875.677C1106.54 876.299 1106.05 876.921 1105.47 877.454C1104.98 877.987 1104.41 878.431 1103.84 878.787C1103.19 879.231 1102.55 879.675 1101.84 879.942C1101.48 880.119 1101.13 880.208 1100.7 880.208C1100.49 880.208 1100.2 880.208 1099.99 880.119L1100.13 879.764Z" fill="#3D3D3D"/>
<path d="M1118.95 857.641C1118.95 857.641 1118.59 856.841 1118.8 856.486C1121.23 848.4 1123.58 840.226 1125.93 832.14C1127.64 826.187 1129.57 820.323 1131.28 814.37C1132.35 810.549 1133.77 806.462 1133.34 802.375C1128.92 802.108 1126.29 808.328 1124.29 812.415C1123.51 814.281 1122.65 816.058 1121.94 817.924C1121.65 818.635 1121.01 818.901 1120.44 818.546C1119.87 818.191 1119.66 817.391 1119.87 816.68C1120.94 813.392 1122.01 810.105 1123.51 807.084C1125.43 802.641 1134.7 793.223 1136.62 801.93C1136.55 815.791 1130.06 828.053 1126 840.581C1124.08 846.268 1122.22 852.132 1119.8 857.463C1119.59 857.641 1119.3 857.73 1119.02 857.463L1118.95 857.641Z" fill="#3D3D3D"/>
<path d="M1114.17 834.805C1118.02 797.398 1139.76 767.543 1155.58 736.711C1156.72 734.49 1159.57 736.711 1158.36 738.932C1146.32 762.656 1132.63 785.403 1123.22 810.992C1120.8 818.545 1118.95 826.275 1117.02 834.005C1117.02 835.871 1114.74 836.493 1114.1 834.805H1114.17Z" fill="#3D3D3D"/>
<path d="M1100.77 889.272C1099.34 889.272 1097.63 887.495 1099.06 885.896C1099.56 885.274 1100.2 885.896 1100.77 885.541C1101.77 884.919 1103.48 885.985 1102.48 887.407C1102.48 888.562 1101.63 889.45 1100.77 889.184V889.272Z" fill="#3D3D3D"/>
<path d="M1099.13 892.915C1097.56 892.826 1095.35 892.738 1094.71 890.605C1094.36 889.361 1095 887.94 1095.99 887.673C1105.33 887.051 1115.95 887.051 1123.51 879.232C1136.62 865.993 1147.6 849.822 1156.79 832.229C1168.55 813.392 1176.04 791.268 1185.73 770.92C1188.51 765.234 1191.5 759.814 1194.64 754.394C1195.35 753.15 1196.63 752.794 1197.7 753.594C1200.7 756.26 1195.64 761.413 1194.71 764.345C1191 771.453 1187.16 778.562 1183.95 786.114C1183.95 786.114 1183.95 786.025 1184.02 785.936C1179.31 796.51 1174.33 806.639 1169.48 817.035C1163.06 831.429 1156.22 845.557 1147.31 857.73C1134.84 876.122 1119.3 892.382 1099.13 893.004V892.915Z" fill="#3D3D3D"/>
<path d="M1179.6 796.865C1178.1 796.332 1177.82 793.489 1179.17 792.512C1180.95 790.024 1182.59 787.269 1184.38 784.781C1194 770.387 1205.47 757.859 1218.23 748.085C1224.29 743.021 1231.77 740.533 1238.26 736.801C1242.82 734.046 1247.24 731.025 1251.52 727.738C1254.65 724.273 1256.43 719.474 1258.5 715.032C1258.93 714.054 1259.86 713.61 1260.64 714.054C1261.42 714.499 1261.85 715.743 1261.42 716.72C1260.28 719.386 1259.21 722.14 1258 724.717C1254.15 733.424 1245.67 736.712 1238.9 740.799C1229.71 746.219 1221.37 753.505 1212.53 759.814H1212.6C1205.19 765.056 1198.56 771.809 1192.86 779.717C1192.86 779.717 1192.86 779.717 1192.93 779.628C1189.15 784.604 1185.44 789.757 1181.95 795.088C1181.81 796.599 1180.53 797.576 1179.39 797.043L1179.6 796.865Z" fill="#3D3D3D"/>
<path d="M1274.11 721.428C1264.42 721.073 1254.44 717.697 1246.17 711.655C1240.04 707.212 1233.63 702.414 1229.63 694.861C1227.92 691.752 1232.06 689.264 1232.77 693.084C1245.6 711.21 1266.63 715.298 1284.94 713.698C1297.06 712.188 1309.11 705.879 1320.44 701.97C1333.84 696.55 1347.1 690.863 1360.5 685.799C1387.08 674.425 1412.95 660.564 1438.9 647.236C1462.35 634.353 1485.8 621.647 1510.96 614.805C1519.37 610.984 1528.06 608.319 1537.04 607.786C1545.24 606.364 1553.51 605.298 1561.78 604.854C1562.42 604.854 1563.06 605.298 1563.2 606.186C1563.98 609.474 1555 609.385 1553.29 610.096C1549.44 610.807 1545.74 612.051 1542.03 613.472C1536.33 615.249 1530.98 615.871 1525.57 617.026C1519.01 618.626 1513.24 623.246 1506.75 625.467C1493.07 630.71 1479.81 637.462 1465.98 642.261C1450.16 647.503 1435.76 656.477 1420.79 664.474C1401.26 674.958 1381.45 684.199 1361.42 693.173C1345.81 699.926 1330.56 708.722 1314.59 713.521C1301.41 718.052 1287.94 722.761 1274.18 721.695L1274.11 721.428Z" fill="#3D3D3D"/>
<path d="M1249.31 734.313C1248.81 733.424 1248.95 732.269 1249.52 731.469C1249.59 731.381 1249.73 731.203 1249.81 731.114C1249.59 729.87 1249.31 727.382 1250.88 727.293C1251.52 727.293 1252.02 728.093 1251.94 728.893C1251.94 728.893 1252.02 728.893 1252.09 728.804C1252.37 728.537 1252.66 728.182 1252.87 727.826C1252.59 726.405 1253.65 724.717 1254.51 724.095C1255.58 722.94 1256.79 721.962 1257.93 720.985C1259.43 719.652 1261.64 716.364 1263.35 719.119C1264.35 719.297 1265.42 719.474 1266.27 720.363C1273.68 719.563 1280.95 717.431 1288.08 716.098C1289.58 715.92 1291.93 714.587 1292.5 717.164C1292.93 720.274 1288.79 720.007 1287.15 721.074C1280.81 723.384 1274.32 725.25 1267.98 727.56C1264.35 728.893 1260.71 731.025 1257.36 732.891C1255.51 733.78 1253.58 735.468 1251.59 735.024C1250.8 735.557 1249.81 735.379 1249.31 734.402V734.313Z" fill="#3D3D3D"/>
<path d="M1236.76 482.681C1236.26 481.614 1236.55 480.015 1237.48 479.482C1239.9 477.971 1242.25 476.372 1244.67 474.861C1251.52 470.863 1258.79 466.865 1265.34 462.6C1283.23 451.582 1300.91 440.298 1318.66 429.013C1345.81 412.665 1371.54 393.65 1399.91 380.677C1415.52 373.036 1431.98 366.194 1447.66 359.442C1471.04 349.046 1494.64 338.828 1518.87 332.164C1520.86 331.897 1523.64 331.186 1524.64 333.941C1525 335.096 1524.64 336.518 1523.72 337.051C1520.51 338.383 1517.02 339.361 1513.74 340.871C1492.07 349.224 1470.62 358.731 1449.09 367.705C1426 376.679 1403.05 385.564 1381.17 398.181C1370.05 404.845 1359 412.043 1348.17 418.795C1327.42 431.412 1305.83 442.608 1285.09 455.225C1274.25 461.889 1263.7 469.086 1253.16 475.839C1248.59 478.771 1243.89 481.437 1239.12 483.747C1238.26 484.191 1237.19 483.747 1236.76 482.769V482.681Z" fill="#3D3D3D"/>
<path d="M1214.17 699.926C1212.03 695.306 1223.43 685.799 1226.07 682.778C1246.03 664.741 1267.62 648.836 1290.65 637.641C1296.13 635.153 1301.77 633.376 1307.32 631.332C1310.03 630.532 1312.96 629.377 1315.74 630.088C1317.73 630.799 1318.02 634.264 1316.23 635.508C1309.75 637.552 1302.98 642.083 1297.27 645.637C1279.03 656.122 1261.71 668.917 1243.89 680.556C1234.98 686.51 1226.36 692.907 1217.73 699.393C1216.73 700.104 1215.17 701.526 1214.17 699.926Z" fill="#3D3D3D"/>
<path d="M1152.37 738.578C1152.09 737.778 1152.45 736.801 1153.09 736.445C1156.15 734.757 1159.22 732.98 1162.07 731.292C1170.05 726.583 1177.96 720.985 1185.45 715.298C1194.5 706.768 1204.97 699.927 1214.45 692.285C1219.73 687.932 1225.43 684.022 1230.92 680.379C1231.42 679.935 1232.2 680.024 1232.63 680.646C1233.2 681.623 1232.63 682.778 1231.77 683.134C1227.64 685.799 1224.22 689.62 1220.51 692.996C1214.31 698.949 1207.61 704.103 1200.98 709.167C1189.29 718.852 1177.25 727.915 1164.13 734.313C1160.78 736.001 1157.43 737.689 1154.01 739.466C1153.37 739.822 1152.59 739.466 1152.3 738.578H1152.37Z" fill="#3D3D3D"/>
<path d="M1264.27 569.49C1263.06 567.18 1265.63 565.759 1266.77 564.426C1267.98 563.36 1269.41 561.316 1271.05 562.204C1273.33 563.36 1272.33 567.802 1269.98 567.447C1268.27 568.246 1266.06 571.801 1264.35 569.49H1264.27Z" fill="#3D3D3D"/>
<path d="M1066.91 894.068C1064.99 892.291 1065.06 888.915 1064.28 886.338C1061.93 876.12 1063.21 865.813 1064.92 855.684C1065.7 849.82 1066.99 844.133 1068.7 838.624C1068.84 838.091 1069.34 837.736 1069.84 837.913C1071.4 838.624 1069.98 840.934 1069.84 842.178C1067.84 850.708 1066.13 859.505 1065.2 868.301C1064.06 876.031 1064.63 884.295 1068.13 891.047C1069.98 891.581 1068.62 895.401 1066.99 894.157L1066.91 894.068Z" fill="#3D3D3D"/>
<path d="M1094.28 886.607C1092.72 882.964 1094.57 877.721 1098.2 879.943C1099.77 880.742 1100.34 883.408 1099.42 885.096C1099.91 889.006 1095.35 890.427 1094.36 886.518L1094.28 886.607Z" fill="#3D3D3D"/>
<path d="M1094 887.673C1093.07 886.607 1092.86 884.918 1093.29 883.497C1094.14 880.831 1097.42 882.253 1096.71 884.918C1097.71 886.962 1095.35 889.272 1094 887.584V887.673Z" fill="#3D3D3D"/>
<path d="M1098.06 888.117C1096.07 888.117 1093.71 885.896 1095 883.319C1095.71 881.987 1097.35 881.898 1098.13 883.142C1100.91 883.142 1100.77 888.384 1097.99 888.117H1098.06Z" fill="#3D3D3D"/>
<path d="M1098.63 885.451C1097.42 884.384 1095.71 882.074 1097.42 880.564C1098.2 879.942 1099.27 880.386 1099.7 881.452C1099.84 881.896 1100.2 882.074 1100.41 882.341C1102.05 883.762 1100.2 886.872 1098.63 885.451Z" fill="#3D3D3D"/>
<path d="M1101.98 889.627C1100.34 888.294 1098.35 887.317 1097.21 885.273C1094.71 881.097 1100.27 877.276 1101.84 881.986C1103.55 883.496 1106.76 884.918 1105.47 888.294C1104.83 889.805 1103.27 890.427 1102.05 889.627H1101.98Z" fill="#3D3D3D"/>
<path d="M1159.71 825.653C1158 824.854 1153.8 825.12 1154.51 821.655C1154.87 820.589 1155.87 820.233 1156.65 820.766C1158.22 821.922 1159.79 822.543 1161.35 822.988C1162.92 822.188 1163.78 825.12 1162.21 825.92C1161.42 826.275 1160.5 825.92 1159.71 825.653Z" fill="#3D3D3D"/>
<path d="M1150.59 817.657C1150.16 817.657 1149.74 817.213 1149.38 816.858C1148.17 815.791 1149.66 813.392 1150.8 814.636C1152.09 815.436 1152.3 817.657 1150.59 817.657Z" fill="#3D3D3D"/>
<path d="M1167.27 816.768C1167.27 816.768 1166.77 816.412 1166.49 816.235C1164.92 815.346 1166.06 812.414 1167.63 813.48C1168.62 813.925 1169.62 814.546 1169.19 816.057C1168.91 816.946 1167.98 817.301 1167.34 816.857L1167.27 816.768Z" fill="#3D3D3D"/>
<path d="M1155.01 727.115C1153.01 726.671 1154.08 722.85 1155.3 722.051C1155.65 721.784 1156.08 721.251 1156.51 721.695C1156.94 722.05 1156.65 722.584 1156.65 723.028C1156.79 724.538 1156.65 727.293 1154.94 727.026L1155.01 727.115Z" fill="#3D3D3D"/>
<path d="M1165.91 727.026C1165.49 723.383 1165.06 719.651 1164.28 716.364C1163.63 715.12 1163.63 713.343 1164.7 712.454C1169.48 709.433 1169.26 723.028 1169.76 726.493C1169.98 729.603 1166.27 730.047 1165.99 727.026H1165.91Z" fill="#3D3D3D"/>
<path d="M1178.67 715.742C1178.32 713.254 1178.1 711.122 1177.6 708.723C1176.75 706.59 1179.32 704.724 1180.31 706.679C1180.67 707.212 1180.88 707.834 1181.03 708.456C1181.38 711.033 1183.81 716.631 1180.88 717.875C1179.81 718.23 1178.75 717.253 1178.6 715.92L1178.67 715.742Z" fill="#3D3D3D"/>
<path d="M1190.86 708.812C1190.22 704.636 1189.65 700.46 1189.08 696.283C1188.8 694.062 1190.29 691.93 1192 691.752C1193.93 691.485 1195.5 693.351 1195.64 695.484C1195.92 699.216 1196.64 703.481 1197.06 706.946C1197.99 712.01 1191.79 713.876 1190.86 708.812Z" fill="#3D3D3D"/>
<path d="M1320.51 642.35C1318.87 642.35 1317.59 640.572 1317.59 638.529C1317.8 627.778 1317.94 616.938 1318.02 606.186C1318.02 604.054 1319.51 602.366 1321.15 602.455C1322.79 602.455 1324.22 604.32 1324.15 606.364C1323.86 617.115 1323.72 627.955 1323.5 638.707C1323.5 640.75 1322.08 642.35 1320.44 642.35H1320.51Z" fill="#3D3D3D"/>
<path d="M1306.83 639.95C1305.76 639.95 1304.83 638.795 1304.9 637.462C1305.26 631.332 1305.61 625.201 1305.97 619.07C1306.04 615.871 1309.96 615.96 1309.96 619.159C1309.61 625.29 1309.25 631.42 1308.89 637.551C1308.89 638.884 1307.97 640.039 1306.9 639.95H1306.83Z" fill="#3D3D3D"/>
<path d="M1634.83 559.006C1624.35 544.523 1614.23 528.351 1607.75 510.581C1603.61 500.452 1600.62 489.256 1598.13 478.416C1593.92 462.956 1589 447.762 1584.3 432.479C1576.46 402.98 1565.84 382.721 1540.96 373.214C1514.45 359.531 1486.37 364.951 1458.85 369.394C1446.31 371.704 1434.34 373.747 1422.58 378.99C1421.29 379.878 1420.01 378.012 1420.37 376.502C1424.64 368.238 1448.31 363.885 1456.43 361.663C1479.38 357.132 1502.97 350.734 1526.14 356.243C1551.8 363.352 1575.46 384.232 1586.94 414.087C1598.34 445.452 1601.12 482.148 1617.01 510.936C1626.21 528.351 1636.9 544.523 1648.52 559.539C1654.43 567.269 1660.78 574.377 1666.98 581.752C1664.55 582.196 1662.13 582.552 1659.78 583.262C1658.85 583.529 1657.85 583.884 1657 584.506C1648.87 577.309 1641.6 568.513 1634.97 559.183L1634.83 559.006Z" fill="#3D3D3D"/>
<path d="M1417.52 443.496C1403.9 430.702 1449.3 416.574 1455.51 414.797C1476.25 408.044 1496.84 400.492 1517.8 394.45C1567.98 380.677 1615.02 354.288 1662.49 330.475C1692.21 314.482 1722.79 300.887 1752.58 285.072C1784.65 267.745 1816.16 248.82 1848.3 231.582C1871.46 219.676 1893.49 205.637 1915.51 191.51C1954.86 167.075 1994.06 142.463 2033.12 117.406C2079.94 87.7294 2127.77 60.807 2174.53 31.1301C2243.09 -14.0072 2312.66 -54.524 2383.08 -94.3301C2400.47 -104.282 2418 -113.878 2434.89 -125.162C2436.67 -126.317 2438.88 -125.695 2439.88 -123.474C2440.88 -121.341 2440.31 -118.409 2438.53 -117.254C2410.09 -97.9731 2381.15 -79.7583 2351.71 -62.7874C2288.56 -26.0911 2226.91 12.7376 2165.4 53.0768C2121.57 80.0881 2077.52 106.211 2034.11 134.022C1981.66 167.608 1928.98 200.75 1876.17 233.27C1831.76 256.905 1788.57 284.094 1744.1 307.463C1683.94 336.34 1624.43 367.616 1563.27 393.294C1528.63 407.422 1492.92 417.374 1457.5 428.214C1445.53 431.323 1433.62 435.055 1422.51 441.453C1422.51 441.719 1422.36 441.986 1422.29 442.252C1421.79 443.319 1420.94 443.585 1420.15 443.407C1419.23 443.852 1418.3 443.852 1417.37 443.407L1417.52 443.496Z" fill="#3D3D3D"/>
<path d="M787.161 1040.59C784.381 1037.57 783.668 1032.68 782.457 1028.5C778.251 1012.6 775.686 996.161 772.692 979.812C767.917 955.911 764.495 931.565 760.575 907.486C751.88 920.192 746.962 935.12 739.977 949.158C737.126 955.111 731.852 955.378 730.355 948.092C727.005 935.83 726.435 922.769 724.582 910.063C716.813 938.407 708.26 966.307 699.136 993.94C696.642 1001.67 694.504 1009.67 692.223 1017.49C690.583 1021.66 690.013 1029.48 685.238 1029.04C680.462 1027.7 681.532 1020.15 681.246 1015.53C681.033 1005.05 680.32 994.562 679.964 983.989C679.607 962.842 679.037 941.695 679.678 920.548C680.462 905.443 682.458 890.515 681.817 875.322C681.389 858.528 682.173 841.735 681.603 824.942C680.534 799.441 679.322 773.852 680.676 748.44C672.48 772.874 666.635 798.464 657.084 822.187C653.877 829.118 645.965 858.084 637.983 853.464C636.842 852.575 636.058 851.153 635.631 849.554C634.205 844.223 632.78 839.78 631.568 834.449C629.572 827.874 627.006 822.454 624.726 816.145C618.81 828.229 613.749 841.202 606.764 852.397C605.196 855.152 602.559 858.973 599.708 856.307C597 853.197 597.57 847.866 597 843.69C594.719 834.449 593.436 824.853 591.939 815.612C590.229 805.305 587.948 795.087 586.95 784.603C585.239 764.167 584.028 743.553 580.25 723.561C576.9 744.086 570.699 763.456 564.997 783.092C562.36 792.155 560.151 801.485 556.943 810.281C556.872 811.792 556.302 813.124 556.088 814.546C555.874 816.501 553.522 815.879 553.878 814.013C556.231 794.021 564.712 775.717 569.915 756.703C573.622 744.619 574.691 731.735 576.9 719.207C577.185 717.785 577.399 716.275 577.898 714.942C578.753 712.099 581.747 712.188 582.602 714.942C585.738 724.894 587.306 735.556 589.231 745.952C594.434 779.36 597.855 813.302 603.771 846.533C610.827 833.827 615.246 819.166 621.661 805.927C632.637 792.066 638.196 836.759 641.119 844.401C646.963 832.672 650.313 819.344 654.875 806.727C664.497 779.538 672.907 751.549 683.313 724.805C684.383 723.383 686.521 723.739 687.233 725.516C688.303 729.869 687.376 734.667 687.519 739.11C687.162 753.593 687.661 768.076 688.374 782.559C689.087 796.509 690.227 809.926 690.869 823.876C691.866 849.91 690.726 876.388 688.73 902.244C687.519 924.813 688.873 947.47 688.944 970.039C689.087 983.811 688.659 997.494 688.944 1011.27C699.208 977.502 707.618 942.672 720.661 910.329C722.301 907.486 722.229 901.622 725.865 901.8C733.42 902.688 737.554 935.297 737.269 943.383C744.325 929.255 749.314 913.617 757.582 900.467C758.651 898.068 760.575 895.935 762.927 896.824C765.921 898.068 766.705 902.422 767.774 905.709C773.262 924.191 775.685 943.827 779.677 962.842C783.312 980.523 786.947 998.205 791.295 1015.62C793.932 993.673 797.282 971.993 801.772 950.491C805.55 931.21 808.472 911.307 813.461 892.559C819.306 870.257 827.502 849.11 835.628 828.052C842.684 809.393 849.597 792.066 858.578 774.918C866.917 757.236 879.39 786.557 882.384 795.976C887.729 784.692 892.647 773.141 896.282 760.879C898.349 754.126 900.274 747.284 903.267 740.976C905.976 735.112 913.531 738.932 912.034 745.507C910.537 751.638 908.328 757.325 906.332 762.212C902.127 772.608 898.278 783.181 894.643 793.932C891.436 801.751 889.369 815.524 881.956 818.367C870.695 821.566 867.773 797.575 863.567 788.779C856.939 808.504 847.887 826.63 841.686 846.533C828.714 890.249 816.882 934.409 806.262 979.102C803.483 991.719 801.558 1004.51 799.919 1017.4C798.85 1023.97 798.28 1030.73 796.426 1037.03C795.001 1041.39 790.368 1043.34 787.303 1040.23L787.161 1040.59Z" fill="#3D3D3D"/>
<path d="M880.246 667.405C859.791 653.544 840.974 635.951 821.445 620.224C816.17 615.249 822.371 605.03 827.646 610.184C845.892 625.378 863.14 642.437 881.957 656.565C889.084 657.542 887.089 670.337 880.246 667.494V667.405Z" fill="#3D3D3D"/>
<path d="M842.327 691.396C842.327 689.708 843.468 688.464 844.822 688.375C849.668 688.108 854.586 687.842 859.433 687.575C864.28 687.309 869.126 687.042 873.973 687.22C875.327 687.22 876.468 688.641 876.468 690.33C876.468 692.018 875.327 693.439 873.973 693.351C864.209 693.262 854.515 694.061 844.822 694.417C843.468 694.417 842.398 692.906 842.398 691.307L842.327 691.396Z" fill="#3D3D3D"/>
<path d="M920.802 893.447C919.59 893.447 918.449 892.115 918.521 890.604C919.376 867.858 920.089 845.023 920.873 822.276C921.728 803.351 921.799 784.336 923.154 765.41C923.795 760.612 929.497 761.59 929.069 766.477C926.717 799.175 925.862 831.784 924.223 864.481C923.866 873.189 923.439 881.897 923.082 890.604C923.082 892.115 922.085 893.447 920.802 893.447Z" fill="#3D3D3D"/>
<path d="M947.743 763.545C946.104 758.303 944.393 753.149 942.825 747.818C939.618 740.355 949.24 736.445 950.309 744.708C951.806 749.773 953.445 754.749 955.013 759.725C955.797 762.212 954.942 765.056 952.875 766.122C950.951 767.099 948.527 765.944 947.743 763.545Z" fill="#3D3D3D"/>
<path d="M503.844 688.286C496.931 682.511 489.874 676.824 482.89 671.138C481.25 669.272 476.902 668.206 477.758 664.74C479.041 661.63 481.678 664.385 483.246 665.54C490.944 671.404 498.427 677.624 505.911 683.844C508.263 685.532 506.125 689.975 503.844 688.286Z" fill="#3D3D3D"/>
<path d="M547.25 1021.49C532.211 959.555 520.166 896.114 500.138 836.228C498.783 832.318 497.287 828.409 496.075 824.41C495.647 823.255 497.215 822.367 497.643 823.61C515.034 869.014 526.224 917.439 537.628 965.509C540.693 978.659 543.829 991.809 546.894 1004.87C548.106 1010.02 549.317 1015.18 550.529 1020.33C550.814 1021.4 550.244 1022.55 549.389 1022.91C548.533 1023.17 547.607 1022.55 547.393 1021.49H547.25Z" fill="#3D3D3D"/>
<path d="M544.827 886.873C539.054 872.568 533.423 858.441 527.863 844.224C526.581 840.937 525.012 837.649 523.943 834.273C523.729 832.14 526.01 830.896 527.079 832.673C532.924 845.646 538.483 859.151 543.758 872.391V872.568H543.829C545.468 876.744 547.036 880.654 548.676 884.652C549.745 887.495 546.11 889.806 544.898 886.962L544.827 886.873Z" fill="#3D3D3D"/>
<path d="M522.091 709.7C520.309 708.012 520.522 704.546 522.447 703.214C525.298 700.904 528.078 698.505 530.929 696.194C537.272 690.774 543.687 685.354 549.888 679.668C598.64 633.908 645.895 585.573 694.575 539.636C699.208 535.371 704.696 543.812 700.064 548.521C673.122 574.555 646.18 600.589 619.167 626.356C598.782 645.726 578.469 665.362 557.443 683.666C547.536 692.374 537.343 700.637 526.866 708.367C525.939 710.5 523.658 711.122 522.162 709.611L522.091 709.7Z" fill="#3D3D3D"/>
<path d="M526.652 666.695C523.943 665.807 523.658 661.187 526.01 659.498C530.501 652.834 534.706 645.993 539.125 639.329C543.401 632.754 547.821 626.179 552.168 619.604C554.877 616.671 557.371 607.964 561.719 611.429C563.073 612.762 563.43 615.427 562.289 617.116C553.166 630.977 544.114 644.927 534.848 658.61C532.496 661.276 530.358 667.495 526.723 666.695H526.652Z" fill="#3D3D3D"/>
<path d="M499.924 642.794C493.937 640.839 499.354 631.865 500.209 627.333C503.559 616.493 506.909 605.653 510.33 594.813C511.043 592.592 513.181 591.615 514.891 592.503C516.673 593.48 517.457 595.968 516.745 598.19C514.464 605.387 512.183 612.584 509.831 619.781C507.764 626.267 505.554 632.753 503.701 639.328C503.345 641.461 501.706 643.06 499.924 642.705V642.794Z" fill="#3D3D3D"/>
<path d="M955.298 658.965C955.37 657.366 954.942 655.766 955.512 654.256C957.08 650.346 961.856 653.189 960.43 657.188C961.428 662.075 956.011 663.941 955.298 658.965Z" fill="#3D3D3D"/>
<path d="M977.322 610.718C975.398 608.496 978.748 606.63 980.102 605.653C980.601 605.298 981.314 605.564 981.599 606.097C982.454 607.963 980.245 608.852 979.46 609.918C978.962 610.629 978.106 611.251 977.394 610.629L977.322 610.718Z" fill="#3D3D3D"/>
<path d="M996.852 595.168C995.284 592.414 998.777 591.348 1000.27 590.282C1003.34 588.416 1006.12 586.017 1009.04 583.884C1016.1 578.908 1023.01 573.666 1030.78 570.734C1032.49 569.934 1033.49 573.311 1031.71 574.11C1020.87 579.797 1009.9 585.306 1000.42 594.013C999.418 594.991 998.135 596.945 996.924 595.257L996.852 595.168Z" fill="#3D3D3D"/>
<path d="M940.402 660.565C938.264 659.143 941.4 654.701 942.968 656.833C944.322 658.521 941.614 661.364 940.402 660.565Z" fill="#3D3D3D"/>
<path d="M973.046 634.264C971.05 629.377 977.251 628.489 979.532 626.445C985.162 622.98 990.864 619.604 996.424 615.872C1011.25 605.12 1027.71 598.634 1043.96 591.881C1056.22 586.639 1068.7 581.841 1081.67 580.242C1082.81 580.064 1083.81 581.219 1083.95 582.641C1084.09 585.751 1081.17 585.484 1079.46 585.928C1055.37 590.815 1031.85 600.5 1009.47 612.406C998.491 618.448 987.728 625.557 977.821 633.909C976.61 635.597 974.4 636.663 973.117 634.442L973.046 634.264Z" fill="#3D3D3D"/>
<path d="M1110.61 577.843C1110.18 575.621 1113.53 574.91 1113.88 577.043C1114.24 579.264 1110.96 579.975 1110.61 577.843Z" fill="#3D3D3D"/>
<path d="M1146.6 572.689C1146.32 571.445 1148.67 570.912 1148.81 572.156C1149.09 573.489 1146.74 573.933 1146.6 572.689Z" fill="#3D3D3D"/>
<path d="M1178.6 515.378C1173.11 516.445 1173.11 505.96 1178.53 506.848C1179.53 507.026 1180.46 507.47 1181.38 508.181C1184.52 510.669 1182.09 516.8 1178.6 515.378Z" fill="#3D3D3D"/>
<path d="M1181.52 796.598C1176.18 794.11 1185.52 780.338 1187.51 777.14C1199.06 759.636 1215.17 748.351 1230.99 737.955C1253.16 723.561 1276.46 711.566 1300.84 704.547C1313.17 701.348 1325.29 697.35 1337.4 693.174C1364.77 684.821 1392.14 675.758 1418.01 661.809C1433.62 652.746 1448.73 642.527 1463.99 632.754C1465.2 631.954 1466.69 632.576 1467.26 634.086C1467.91 635.597 1467.34 637.374 1466.2 638.174C1450.87 648.569 1436.12 660.209 1420.44 669.716C1364.99 701.703 1303.12 711.566 1247.17 741.687C1224.5 754.571 1198.63 766.211 1185.02 793.844C1185.09 796.154 1183.09 797.576 1181.6 796.598H1181.52Z" fill="#3D3D3D"/>
<path d="M1243.53 773.052C1242.18 771.186 1244.74 768.431 1246.03 770.297C1246.74 771.275 1246.31 772.696 1245.53 773.318C1245.53 773.318 1245.53 773.318 1245.6 773.318C1244.96 773.94 1244.1 773.94 1243.53 773.141V773.052Z" fill="#3D3D3D"/>
<path d="M1292.93 746.396C1291.93 743.553 1297.99 742.576 1299.48 741.687C1310.18 738.044 1321.29 735.201 1331.84 731.291C1370.83 715.831 1409.82 699.482 1447.52 679.757C1447.52 679.757 1447.52 679.757 1447.45 679.757C1457.57 674.248 1467.69 668.828 1477.6 662.608C1483.52 658.876 1489.43 655.144 1495.28 651.235C1495.77 650.88 1496.42 651.235 1496.7 651.857C1496.99 652.479 1496.7 653.278 1496.2 653.634C1492.14 656.388 1488.01 659.143 1483.87 661.986C1475.39 667.939 1466.77 673.537 1457.93 678.602C1430.49 695.039 1401.76 707.656 1372.75 718.763C1349.88 727.915 1326.85 736.534 1303.62 743.82C1300.7 744.886 1297.77 746.041 1294.99 747.463C1294.21 747.907 1293.28 747.463 1293 746.485L1292.93 746.396Z" fill="#3D3D3D"/>
<path d="M1365.77 740.887C1363.7 737.422 1374.32 734.756 1376.1 733.423C1383.3 730.313 1390.5 727.203 1397.7 723.916C1422.36 712.365 1447.17 700.103 1469.4 682.333C1473.11 679.49 1476.82 676.557 1480.45 673.536C1481.73 672.381 1483.23 674.958 1481.88 676.113C1473.54 682.866 1465.48 690.152 1456.86 696.46C1449.66 701.614 1442.03 705.79 1434.48 710.055C1434.48 710.055 1434.48 710.055 1434.55 710.055C1414.45 721.161 1393.92 730.669 1372.97 739.021C1371.19 739.821 1369.41 740.443 1367.77 741.42C1367.12 742.042 1366.2 741.864 1365.7 740.976L1365.77 740.887Z" fill="#3D3D3D"/>
</g>
</g>
<defs>
<clipPath id="clip0_302_515">
<rect width="5240.76" height="3055.83" fill="white" transform="translate(-1726.91 0.935547)"/>
</clipPath>
</defs>
</svg>
