<svg width="1123" height="1123" viewBox="0 0 1123 1123" fill="none" xmlns="http://www.w3.org/2000/svg">
<g filter="url(#filter0_d_510_2383)">
<g opacity="0.44">
<path d="M68.987 814.997C48.1559 775.506 32.0151 733.178 21.249 688.747L22.985 688.33C36.8724 695.941 43.7326 711.681 49.6748 726.352C51.828 731.693 53.9979 737.001 56.1511 742.358C58.2209 747.449 60.2573 752.49 61.9932 757.681C68.2359 776.024 70.6228 795.669 69.0037 814.98L68.987 814.997Z" stroke="#1E1E1E" stroke-width="9.24873" stroke-miterlimit="10"/>
<path d="M64.4625 324.303L60.3898 324.537C84.7094 353.245 26.8397 405.137 26.8731 405.755C35.1521 376.83 45.7346 348.906 58.3868 322.167C106.809 219.669 185.877 134.512 283.757 78.4473C259.687 120.542 231.712 160.383 200.315 197.353C175.161 226.912 147.253 255.036 113.152 273.53C103.404 278.804 93.0385 283.394 85.0933 291.122" stroke="#1E1E1E" stroke-width="9.24873" stroke-miterlimit="10"/>
<path d="M106.709 571.529C119.362 593.477 127.574 617.962 130.612 643.099C124.669 624.655 114.488 607.547 101.134 593.51C96.277 588.386 90.8857 583.529 87.8812 577.137C84.1923 569.275 84.5595 560.162 85.0603 551.449C86.0451 533.907 87.0132 516.315 87.998 498.773C88.7825 484.352 102.036 429.122 121.214 451.071C137.222 469.33 137.589 518.502 129.994 539.749C125.521 552.284 117.308 563.467 106.726 571.529H106.709Z" stroke="#1E1E1E" stroke-width="9.24873" stroke-miterlimit="10"/>
<path d="M421.513 22.666C420.044 23.5339 418.609 24.5521 417.29 25.6036C409.578 31.7792 403.92 40.1079 397.377 47.5187C390.149 55.6471 381.82 62.7741 372.64 68.5992C365.446 73.1558 357.35 77.0281 348.838 76.6609C344.665 76.4773 340.475 75.2255 336.302 75.576C332.013 75.8764 328.057 77.7959 323.984 79.2313C312.166 83.3039 296.61 82.4693 284.592 77.9962C327.022 53.7444 372.974 35.0006 421.496 22.6827L421.513 22.666Z" stroke="#1E1E1E" stroke-width="9.24873" stroke-miterlimit="10"/>
<path d="M806.788 913.54C807.272 915.91 808.257 918.28 807.807 920.7C807.356 923.154 805.553 925.073 803.784 926.842C798.626 932.083 793.468 937.307 788.277 942.498C777.061 953.865 765.76 965.281 752.574 974.311C743.243 980.704 732.728 985.945 721.478 987.08C711.947 988.064 702.349 986.095 692.968 984.142C688.645 983.241 683.521 981.622 682.319 977.366C681.334 973.944 682.887 969.955 685.491 967.501C700.663 953.381 725.751 946.521 739.788 925.557C747.35 914.224 749.586 894.712 762.723 891.074C776.209 887.302 790.13 894.612 801.764 902.374C803.083 903.241 806.955 901.656 809.526 899.77C806.855 903.759 805.837 908.85 806.822 913.556L806.788 913.54Z" stroke="#1E1E1E" stroke-width="9.24873" stroke-miterlimit="10"/>
<path d="M811.83 896.967C811.796 897.751 810.845 898.819 809.526 899.721C810.211 898.736 810.962 897.801 811.83 896.967Z" stroke="#1E1E1E" stroke-width="9.24873" stroke-miterlimit="10"/>
<path d="M906.955 444.679C899.694 466.71 887.559 488.959 868.164 500.827C865.493 502.446 862.705 503.881 859.768 505.083C850.804 508.771 840.072 509.973 831.709 505.049C830.057 504.065 828.621 502.946 827.303 501.661C817.137 491.613 817.822 473.27 818.156 458.014C819.441 396.792 788.595 335.787 738.553 300.52C718.29 286.282 719.658 261.28 726.686 238.513C730.041 227.564 734.03 232.371 746.899 228.081C754.961 225.378 755.929 213.51 762.706 216.214C772.654 220.237 781.951 220.838 792.384 222.84C813.215 226.863 830.975 237.295 847.917 249.729C872.921 268.073 896.756 290.171 908.24 318.98C912.413 329.528 914.867 340.745 916.302 351.994C920.258 383.056 916.719 414.952 906.922 444.695L906.955 444.679Z" stroke="#1E1E1E" stroke-width="9.24873" stroke-miterlimit="10"/>
<path d="M1092.31 417.489C1068.15 414.702 1045.24 401.633 1030.76 382.021C1022.66 370.989 1017.2 358.304 1011.81 345.719C1000.93 320.265 989.828 293.91 989.928 266.237C989.962 255.471 991.731 244.706 990.796 234.007C989.661 220.671 984.32 207.769 975.69 197.554L976.141 197.137C1030.36 259.828 1070.65 334.87 1092.3 417.489H1092.31Z" stroke="#1E1E1E" stroke-width="9.24873" stroke-miterlimit="10"/>
<path d="M1110.36 557.974C1110.36 632.983 1095.4 704.486 1068.33 769.664C1064.41 727.72 1063.05 685.542 1064.16 643.415C1064.49 629.678 1065.17 615.741 1069.25 602.639C1073.57 588.702 1081.52 576.284 1087.39 562.915C1101.93 529.967 1103.01 493.264 1101.13 456.928C1107.19 489.692 1110.36 523.457 1110.36 557.991V557.974Z" stroke="#1E1E1E" stroke-width="9.24873" stroke-miterlimit="10"/>
<path d="M60.3907 324.538C59.7898 323.754 59.1054 322.952 58.3877 322.168" stroke="#1E1E1E" stroke-width="9.24873" stroke-miterlimit="10"/>
<path d="M90.4854 312.218C93.7903 304.924 100.15 299.533 106.493 294.643C147.687 262.73 197.145 239.012 226.839 196.184" stroke="#1E1E1E" stroke-width="9.24873" stroke-miterlimit="10"/>
<path d="M240.894 177.842C247.72 166.609 255.131 155.744 263.06 145.262" stroke="#1E1E1E" stroke-width="9.24873" stroke-miterlimit="10"/>
<path d="M277.865 128.805C277.231 126.585 277.181 124.248 277.431 122.062C277.665 119.842 278.233 117.739 278.934 115.686C280.402 111.63 282.572 107.925 285.243 104.653C287.914 101.382 291.118 98.5277 294.774 96.2911C298.446 94.1046 302.536 92.3855 307.176 92.252C305.106 96.3746 302.97 99.6293 300.783 102.834C298.596 105.989 296.343 108.943 293.973 111.814C291.603 114.684 289.132 117.455 286.528 120.226C283.874 123.013 281.187 125.634 277.865 128.805Z" fill="#1E1E1E"/>
<path d="M106.709 571.529C119.362 593.477 127.574 617.962 130.612 643.099C124.669 624.655 114.488 607.547 101.134 593.51C96.277 588.386 90.8857 583.529 87.8812 577.137C84.1923 569.275 84.5595 560.162 85.0603 551.449C86.0451 533.907 87.0132 516.315 87.998 498.773C88.7825 484.352 102.036 429.122 121.214 451.071C137.222 469.33 137.589 518.502 129.994 539.749C125.521 552.284 117.308 563.467 106.726 571.529H106.709Z" stroke="#1E1E1E" stroke-width="9.24873" stroke-miterlimit="10"/>
<path d="M129.644 574.615C137.355 565.535 141.979 553.885 142.58 541.984" stroke="#1E1E1E" stroke-width="9.24873" stroke-miterlimit="10"/>
<path d="M106.409 445.561C124.186 438.902 137.506 421.61 139.408 402.732" stroke="#1E1E1E" stroke-width="9.24873" stroke-miterlimit="10"/>
<path d="M145.901 522.741V515.33" stroke="#1E1E1E" stroke-width="9.24873" stroke-miterlimit="10"/>
<path d="M68.9865 814.998C68.8696 816.317 68.7528 817.635 68.6025 818.92" stroke="#1E1E1E" stroke-width="9.24873" stroke-miterlimit="10"/>
<path d="M28.8096 667.934L38.4406 680.702" stroke="#1E1E1E" stroke-width="9.24873" stroke-miterlimit="10"/>
<path d="M53.1289 702.734C57.6857 706.39 60.1227 712.532 59.2881 718.324" stroke="#1E1E1E" stroke-width="9.24873" stroke-miterlimit="10"/>
<path d="M71.0898 738.471C79.5525 751.072 83.2914 766.745 81.4386 781.8" stroke="#1E1E1E" stroke-width="9.24873" stroke-miterlimit="10"/>
<path d="M83.6416 799.691C87.0133 804.348 88.6491 810.223 88.1483 815.948" stroke="#1E1E1E" stroke-width="9.24873" stroke-miterlimit="10"/>
<path d="M1101.13 456.912C1098.67 443.576 1095.7 430.44 1092.31 417.488C1068.15 414.701 1045.24 401.632 1030.76 382.02C1022.66 370.988 1017.2 358.303 1011.81 345.718C1000.93 320.264 989.828 293.909 989.929 266.236C989.962 255.47 991.731 244.705 990.796 234.006C989.661 220.67 984.32 207.768 975.691 197.553L976.141 197.136C901.096 110.193 799.361 46.9348 683.671 20.0125C643.311 10.5989 601.215 5.625 557.983 5.625C517.873 5.625 478.765 9.91455 441.059 18.043C434.466 19.4283 427.956 20.9806 421.479 22.633C420.011 23.5009 418.575 24.519 417.257 25.5706C409.545 31.7462 403.887 40.0749 397.343 47.4856C390.116 55.6141 381.787 62.7411 372.606 68.5662C365.412 73.1228 357.317 76.9951 348.804 76.6279C344.631 76.4443 340.442 75.1924 336.269 75.543C331.979 75.8434 328.023 77.7628 323.951 79.1983C312.133 83.2708 296.576 82.4363 284.558 77.9631C284.291 78.08 283.991 78.2636 283.724 78.4138C259.654 120.508 231.679 160.349 200.282 197.319C175.128 226.879 147.22 255.003 113.119 273.496C103.371 278.771 93.0056 283.361 85.0604 291.089C77.1486 298.85 70.6389 304.174 66.7163 305.226L58.3538 322.15C82.9072 354.163 26.8401 405.738 26.8401 405.738C13.0195 454.091 5.6084 505.182 5.6084 557.975C5.6084 603.04 10.9998 646.837 21.1983 688.748L22.9343 688.331C36.8217 695.942 43.6819 711.681 49.6241 726.352C51.7773 731.694 53.9473 737.001 56.1005 742.359C58.1702 747.45 60.2066 752.49 61.9425 757.681C68.1852 776.024 70.5721 795.67 68.953 814.981C99.8992 873.799 141.144 926.325 190.284 970.156C190.918 968.653 192.087 967.335 193.906 966.233C197.595 963.98 212.701 971.424 216.874 972.225C228.091 974.328 238.857 973.694 249.556 978.668C260.623 983.825 269.319 992.822 277.765 1001.63C288.314 1012.67 299.497 1025.05 300.282 1040.31C300.399 1042.26 300.198 1044.41 299.681 1046.33C298.896 1049.19 297.311 1051.72 294.64 1052.89C292.337 1053.91 289.699 1053.73 287.179 1053.43C286.611 1053.34 286.044 1053.28 285.593 1053.19C293.689 1055.65 301.817 1058.05 309.913 1060.45C313.001 1061.39 316.089 1062.31 319.21 1063.24C330.928 1066.71 342.662 1070.2 354.646 1072.72L354.98 1071.82C417.824 1096.67 486.326 1110.34 557.983 1110.34C788.06 1110.34 985.255 969.672 1068.31 769.665C1064.39 727.721 1063.04 685.543 1064.14 643.416C1064.47 629.679 1065.16 615.742 1069.23 602.64C1073.55 588.703 1081.5 576.285 1087.37 562.916C1101.91 529.968 1103 493.265 1101.11 456.929L1101.13 456.912ZM130.628 643.115C124.686 624.672 114.504 607.564 101.151 593.527C96.2938 588.403 90.9024 583.546 87.898 577.153C84.2091 569.292 84.5763 560.178 85.0771 551.466C86.0619 533.924 87.03 516.332 88.0148 498.789C88.7993 484.369 102.052 429.139 121.231 451.087C137.238 469.347 137.606 518.518 130.011 539.766C125.538 552.3 117.325 563.483 106.743 571.545C119.395 593.493 127.607 617.979 130.645 643.115H130.628ZM806.788 913.54C807.272 915.91 808.257 918.28 807.806 920.701C807.356 923.154 805.553 925.074 803.784 926.843C798.626 932.084 793.468 937.308 788.277 942.499C777.061 953.865 765.76 965.282 752.574 974.312C743.243 980.704 732.728 985.945 721.478 987.08C711.947 988.065 702.349 986.095 692.968 984.143C688.645 983.241 683.521 981.622 682.319 977.366C681.334 973.944 682.887 969.955 685.49 967.502C700.663 953.381 725.751 946.521 739.788 925.558C747.35 914.225 749.586 894.713 762.723 891.074C776.209 887.302 790.13 894.613 801.764 902.374C803.083 903.242 806.955 901.656 809.526 899.77C806.855 903.759 805.837 908.85 806.822 913.557L806.788 913.54ZM809.542 899.72C810.227 898.736 810.978 897.801 811.846 896.966C811.812 897.751 810.861 898.819 809.542 899.72ZM906.955 444.678C899.694 466.71 887.559 488.959 868.163 500.826C865.493 502.445 862.705 503.88 859.767 505.082C850.804 508.771 840.071 509.972 831.709 505.049C830.056 504.064 828.621 502.945 827.302 501.66C817.137 491.612 817.821 473.269 818.155 458.014C819.441 396.792 788.594 335.787 738.553 300.519C718.289 286.282 719.658 261.279 726.685 238.512C730.04 227.563 734.03 232.37 746.899 228.081C754.961 225.377 755.929 213.509 762.706 216.213C772.654 220.236 781.951 220.837 792.383 222.84C813.215 226.862 830.974 237.294 847.916 249.729C872.92 268.072 896.756 290.171 908.24 318.979C912.413 329.528 914.866 340.744 916.302 351.993C920.258 383.055 916.719 414.951 906.921 444.694L906.955 444.678Z" stroke="#1E1E1E" stroke-width="9.24873" stroke-miterlimit="10"/>
<path d="M313.418 795.219C313.251 800.209 317.157 805.016 322.081 805.884" stroke="#1E1E1E" stroke-width="9.24873" stroke-miterlimit="10"/>
<path d="M345.8 824.861L358.168 832.94" stroke="#1E1E1E" stroke-width="9.24873" stroke-miterlimit="10"/>
<path d="M380.335 850.732C386.594 854.471 392.837 858.193 399.096 861.932" stroke="#1E1E1E" stroke-width="9.24873" stroke-miterlimit="10"/>
<path d="M424.367 865.57C431.311 865.871 439.206 870.544 440.725 877.321C443.579 890.022 468.266 899.269 474.676 910.969" stroke="#1E1E1E" stroke-width="9.24873" stroke-miterlimit="10"/>
<path d="M806.788 913.54C807.272 915.91 808.257 918.28 807.807 920.7C807.356 923.154 805.553 925.073 803.784 926.842C798.626 932.083 793.468 937.307 788.277 942.498C777.061 953.865 765.76 965.281 752.574 974.311C743.243 980.704 732.728 985.945 721.478 987.08C711.947 988.064 702.349 986.095 692.968 984.142C688.645 983.241 683.521 981.622 682.319 977.366C681.334 973.944 682.887 969.955 685.491 967.501C700.663 953.381 725.751 946.521 739.788 925.557C747.35 914.224 749.586 894.712 762.723 891.074C776.209 887.302 790.13 894.612 801.764 902.374C803.083 903.241 806.955 901.656 809.526 899.77C806.855 903.759 805.837 908.85 806.822 913.556L806.788 913.54Z" stroke="#1E1E1E" stroke-width="9.24873" stroke-miterlimit="10"/>
<path d="M811.83 896.967C811.796 897.751 810.845 898.819 809.526 899.721C810.211 898.736 810.962 897.801 811.83 896.967Z" stroke="#1E1E1E" stroke-width="9.24873" stroke-miterlimit="10"/>
<path d="M130.261 370.42C134.016 363.143 142.045 359.17 149.873 356.783C157.702 354.397 165.997 353.061 173.041 348.889C187.53 340.293 195.792 320.464 212.584 319.012C214.921 318.812 217.341 319.012 219.577 318.244C227.372 315.607 228.491 303.423 236.319 300.869" stroke="#1E1E1E" stroke-width="9.24873" stroke-miterlimit="10"/>
<path d="M261.407 284.262C266.148 279.022 273.075 275.834 280.135 275.617C285.927 275.45 293.455 276.284 295.775 270.977" stroke="#1E1E1E" stroke-width="9.24873" stroke-miterlimit="10"/>
<path d="M287.513 250.662C311.181 238.527 327.456 215.477 338.639 191.342C349.822 167.207 356.833 141.336 367.582 117.018C370.82 109.691 375.244 101.762 382.972 99.6094" stroke="#1E1E1E" stroke-width="9.24873" stroke-miterlimit="10"/>
<path d="M430.193 72.4883C418.141 79.7154 408.994 91.6327 405.139 105.152" stroke="#1E1E1E" stroke-width="9.24873" stroke-miterlimit="10"/>
<path d="M906.955 444.679C899.694 466.71 887.559 488.959 868.164 500.827C865.493 502.446 862.705 503.881 859.768 505.083C850.804 508.771 840.072 509.973 831.709 505.049C830.057 504.065 828.621 502.946 827.303 501.661C817.137 491.613 817.822 473.27 818.156 458.014C819.441 396.792 788.595 335.787 738.553 300.52C718.29 286.282 719.658 261.28 726.686 238.513C730.041 227.564 734.03 232.371 746.899 228.081C754.961 225.378 755.929 213.51 762.706 216.214C772.654 220.237 781.951 220.838 792.384 222.84C813.215 226.863 830.975 237.295 847.917 249.729C872.921 268.073 896.756 290.171 908.24 318.98C912.413 329.528 914.867 340.745 916.302 351.994C920.258 383.056 916.719 414.952 906.922 444.695L906.955 444.679Z" stroke="#1E1E1E" stroke-width="9.24873" stroke-miterlimit="10"/>
<path d="M721.678 257.506C717.905 265.184 713.382 273.345 705.52 276.684C701.381 278.436 696.59 278.62 692.334 277.184" stroke="#1E1E1E" stroke-width="9.24873" stroke-miterlimit="10"/>
<path d="M834.58 494.684C821.193 504.598 814.55 522.791 818.406 538.981" stroke="#1E1E1E" stroke-width="9.24873" stroke-miterlimit="10"/>
<path d="M873.004 491.611C865.359 501.559 864.258 516.063 870.266 527.063" stroke="#1E1E1E" stroke-width="9.24873" stroke-miterlimit="10"/>
<path d="M677.562 169.746C671.569 169.246 665.811 166.425 661.705 162.035C659.885 160.082 658.35 157.796 656.096 156.377C653.926 155.025 651.323 154.608 648.785 154.291C639.071 153.122 629.223 153.222 619.525 154.558C612.248 155.559 603.935 157.011 598.277 152.321C591.3 146.529 593.136 135.213 597.626 127.352" stroke="#1E1E1E" stroke-width="9.24873" stroke-miterlimit="10"/>
<path d="M606.256 113.915C608.559 109.525 611.731 105.586 615.536 102.398" stroke="#1E1E1E" stroke-width="9.24873" stroke-miterlimit="10"/>
<path d="M636.083 86.0252L652.257 76.1776C659.668 71.6711 667.179 67.0811 673.022 60.6551C683.587 49.0383 687.46 31.6965 682.836 16.6914" stroke="#1E1E1E" stroke-width="9.24873" stroke-miterlimit="10"/>
<path d="M417.49 146.195C422.13 135.697 428.774 126.099 436.969 118.088C445.115 110.126 454.662 103.767 464.227 97.5914C482.487 85.791 501.315 74.291 522.247 68.4492" stroke="#1E1E1E" stroke-width="9.24873" stroke-miterlimit="10"/>
<path d="M554.412 47.1348C548.686 52.1086 541.425 55.2799 533.881 56.1311" stroke="#1E1E1E" stroke-width="9.24873" stroke-miterlimit="10"/>
<path d="M416.989 688.398C427.538 704.188 442.093 720.111 461.055 721.062C466.747 721.346 472.556 720.228 478.114 721.53C481.636 722.364 484.841 724.134 488.146 725.586C496.892 729.441 506.556 731.16 516.087 730.543" stroke="#1E1E1E" stroke-width="9.24873" stroke-miterlimit="10"/>
<path d="M546.065 735.199L563.441 733.93C566.346 733.713 570.168 732.562 570.035 729.641" stroke="#1E1E1E" stroke-width="9.24873" stroke-miterlimit="10"/>
<path d="M705.253 721.547C709.242 725.335 715.835 726.003 720.492 723.082C721.644 724.701 722.779 726.304 723.931 727.923C733.295 731.978 743.677 726.27 752.907 721.914C760.185 718.476 767.796 715.788 775.391 713.118C778.796 711.916 782.201 710.714 785.606 709.529" stroke="#1E1E1E" stroke-width="9.24873" stroke-miterlimit="10"/>
<path d="M846.197 838.147C846.748 840.284 849.986 839.533 851.789 838.264C867.796 827.015 880.382 810.941 887.476 792.715" stroke="#1E1E1E" stroke-width="9.24873" stroke-miterlimit="10"/>
<path d="M914.583 741.908C915.635 726.553 923.43 711.798 935.514 702.268" stroke="#1E1E1E" stroke-width="9.24873" stroke-miterlimit="10"/>
<path d="M1006.02 568.074C1001.03 572.33 1001.73 580.042 1002.21 586.584C1003.57 605.028 999.526 623.822 990.713 640.078" stroke="#1E1E1E" stroke-width="9.24873" stroke-miterlimit="10"/>
<path d="M1062.69 461.986C1059.97 463.305 1059.22 466.943 1059.87 469.881C1060.52 472.819 1062.2 475.456 1063.09 478.343C1064.37 482.549 1063.87 487.273 1061.74 491.112" stroke="#1E1E1E" stroke-width="9.24873" stroke-miterlimit="10"/>
<path d="M1065.88 508.035C1063.92 515.212 1061.97 522.389 1060.02 529.566C1059.67 530.852 1059.33 532.254 1059.87 533.455C1060.45 534.74 1061.85 535.408 1063.04 536.176C1067.68 539.18 1069.9 544.955 1070.03 550.48C1070.17 556.005 1068.51 561.396 1066.88 566.67" stroke="#1E1E1E" stroke-width="9.24873" stroke-miterlimit="10"/>
<path d="M1001.8 487.289C1006.59 491.829 1009.41 498.372 1009.42 504.981" stroke="#1E1E1E" stroke-width="9.24873" stroke-miterlimit="10"/>
<path d="M1006.32 724.134C1006.34 722.331 1006.35 720.528 1006.39 718.709C1001.28 729.291 997.874 740.674 996.305 752.308" stroke="#1E1E1E" stroke-width="9.24873" stroke-miterlimit="10"/>
<path d="M973.888 786.674C967.529 791.714 967.328 801.045 964.741 808.722C960.601 820.94 949.835 829.553 942.892 840.418C935.714 851.651 932.827 864.987 927.986 877.405C923.146 889.823 915.334 902.275 902.849 906.915" stroke="#1E1E1E" stroke-width="9.24873" stroke-miterlimit="10"/>
<path d="M979.83 869.059C978.762 876.102 971.951 881.777 964.841 881.56" stroke="#1E1E1E" stroke-width="9.24873" stroke-miterlimit="10"/>
<path d="M581.201 1029.56C590.148 1031.78 599.095 1034 608.041 1036.23" stroke="#1E1E1E" stroke-width="9.24873" stroke-miterlimit="10"/>
<path d="M685.141 1033.3C694.421 1031.74 703.702 1030.19 712.999 1028.62" stroke="#1E1E1E" stroke-width="9.24873" stroke-miterlimit="10"/>
<path d="M778.43 1011.8C782.336 1010 785.807 1007.26 788.461 1003.89" stroke="#1E1E1E" stroke-width="9.24873" stroke-miterlimit="10"/>
<path d="M843.627 975.264C853.742 971.375 863.857 967.469 873.972 963.58C885.389 959.19 896.94 954.717 906.821 947.507C914.6 941.849 921.176 934.571 926.05 926.259C926.868 924.874 927.703 923.372 929.138 922.621C930.573 921.87 932.743 922.32 933.161 923.873" stroke="#1E1E1E" stroke-width="9.24873" stroke-miterlimit="10"/>
<path d="M380.818 255.186C386.226 252.215 392.269 250.396 398.428 249.895C400.147 251.397 403.002 251.364 404.704 249.828" stroke="#1E1E1E" stroke-width="9.24873" stroke-miterlimit="10"/>
<path d="M479.183 236.043C491.418 235.443 503.653 234.825 515.887 234.224C519.059 234.074 522.214 233.907 525.368 233.54C528.957 233.122 533.23 232.655 535.55 235.443C540.224 234.925 544.897 234.391 549.571 233.874C553.026 233.49 556.481 233.106 559.953 233.256C566.146 233.54 572.105 235.543 577.964 237.546C585.909 240.249 593.871 242.937 601.816 245.641C606.106 245.123 610.545 246.025 614.284 248.178" stroke="#1E1E1E" stroke-width="9.24873" stroke-miterlimit="10"/>
<path d="M664.442 251.582C667.831 256.322 675.375 253.401 680.934 255.104C683.404 255.855 685.524 257.624 686.709 259.927" stroke="#1E1E1E" stroke-width="9.24873" stroke-miterlimit="10"/>
<path d="M246.668 439.786C245.516 440.521 243.897 439.419 243.613 438.084C243.33 436.749 243.964 435.397 244.632 434.195C249.756 424.948 258.636 416.202 256.883 405.787" stroke="#1E1E1E" stroke-width="9.24873" stroke-miterlimit="10"/>
<path d="M695.839 164.172L692.935 158.798C702.916 143.976 714.967 130.557 728.638 119.057" stroke="#1E1E1E" stroke-width="9.24873" stroke-miterlimit="10"/>
<path d="M741.875 102.782C755.479 89.6799 774.173 82.0188 793.068 81.7852" stroke="#1E1E1E" stroke-width="9.24873" stroke-miterlimit="10"/>
<path d="M821.293 84.4883L818.422 87.5427" stroke="#1E1E1E" stroke-width="9.24873" stroke-miterlimit="10"/>
<path d="M751.122 129.955C761.387 116.669 777.795 108.324 794.57 107.873" stroke="#1E1E1E" stroke-width="9.24873" stroke-miterlimit="10"/>
<path d="M857.698 160.315C856.596 159.998 855.745 161.583 856.229 162.618C856.713 163.653 857.881 164.154 858.966 164.554C866.411 167.275 874.105 169.261 881.934 170.479" stroke="#1E1E1E" stroke-width="9.24873" stroke-miterlimit="10"/>
<path d="M905.619 191.026L905.686 185.535C908.49 191.46 914.499 195.283 917.754 200.974C919.473 203.979 920.341 207.367 921.676 210.555C926.033 220.987 935.647 229.065 946.68 231.585" stroke="#1E1E1E" stroke-width="9.24873" stroke-miterlimit="10"/>
<path d="M981.199 232.42L985.656 236.843" stroke="#1E1E1E" stroke-width="9.24873" stroke-miterlimit="10"/>
<path d="M1099.63 418.022C1097.17 417.939 1094.77 417.789 1092.31 417.488" stroke="#1E1E1E" stroke-width="9.24873" stroke-miterlimit="10"/>
<path d="M1069.05 777.342C1068.78 774.788 1068.56 772.218 1068.33 769.664" stroke="#1E1E1E" stroke-width="9.24873" stroke-miterlimit="10"/>
<path d="M1101.13 456.911C1100.64 448.182 1099.99 439.436 1099.36 430.773" stroke="#1E1E1E" stroke-width="9.24873" stroke-miterlimit="10"/>
<path d="M300.299 1040.31C300.416 1042.26 300.216 1044.41 299.698 1046.33C298.914 1049.19 297.328 1051.72 294.657 1052.89C292.354 1053.91 289.717 1053.73 287.196 1053.43C286.629 1053.34 286.061 1053.28 285.61 1053.19C285.527 1053.19 285.46 1053.16 285.377 1053.16C277.432 1051.84 285.293 1049.8 275.963 1045.48C259.738 1037.99 247.754 1022.4 218.46 1007.86C218.46 1007.86 184.91 983.007 190.301 970.172C190.936 968.669 192.104 967.351 193.923 966.249C197.612 963.996 212.718 971.44 216.891 972.241C228.108 974.344 238.874 973.71 249.573 978.684C260.64 983.841 269.336 992.838 277.782 1001.65C288.331 1012.68 299.514 1025.07 300.299 1040.32V1040.31Z" stroke="#1E1E1E" stroke-width="9.24873" stroke-miterlimit="10"/>
<path d="M285.376 1053.16C284.926 1053.01 284.508 1052.89 284.058 1052.74" stroke="#1E1E1E" stroke-width="9.24873" stroke-miterlimit="10"/>
<path d="M222.031 895.68C226.521 906.913 233.432 917.161 242.178 925.523" stroke="#1E1E1E" stroke-width="9.24873" stroke-miterlimit="10"/>
<path d="M177.031 789.293C180.503 801.277 184.609 813.094 189.333 824.644" stroke="#1E1E1E" stroke-width="9.24873" stroke-miterlimit="10"/>
<path d="M21.666 581.993C22.4672 571.011 26.0392 560.228 31.9647 550.932" stroke="#1E1E1E" stroke-width="9.24873" stroke-miterlimit="10"/>
<path d="M287.729 987.631C301.984 1007.86 325.252 1019.39 347.552 1030.13" stroke="#1E1E1E" stroke-width="9.24873" stroke-miterlimit="10"/>
<path d="M539.473 676.163L542.944 674.043" stroke="#1E1E1E" stroke-width="9.24873" stroke-miterlimit="10"/>
<path d="M255.215 649.123C257.568 650.425 259.905 651.744 262.259 653.045C266.215 655.249 271.339 657.418 274.978 654.714" stroke="#1E1E1E" stroke-width="9.24873" stroke-miterlimit="10"/>
<path d="M321.931 269.925C341.827 259.193 344.381 227.196 365.83 220.086" stroke="#1E1E1E" stroke-width="9.24873" stroke-miterlimit="10"/>
</g>
</g>
<defs>
<filter id="filter0_d_510_2383" x="0" y="0" width="1124" height="1124" filterUnits="userSpaceOnUse" color-interpolation-filters="sRGB">
<feFlood flood-opacity="0" result="BackgroundImageFix"/>
<feColorMatrix in="SourceAlpha" type="matrix" values="0 0 0 0 0 0 0 0 0 0 0 0 0 0 0 0 0 0 127 0" result="hardAlpha"/>
<feOffset dx="4" dy="4"/>
<feGaussianBlur stdDeviation="2"/>
<feComposite in2="hardAlpha" operator="out"/>
<feColorMatrix type="matrix" values="0 0 0 0 0 0 0 0 0 0 0 0 0 0 0 0 0 0 0.25 0"/>
<feBlend mode="normal" in2="BackgroundImageFix" result="effect1_dropShadow_510_2383"/>
<feBlend mode="normal" in="SourceGraphic" in2="effect1_dropShadow_510_2383" result="shape"/>
</filter>
</defs>
</svg>
