<svg width="797" height="228" viewBox="0 0 797 228" fill="none" xmlns="http://www.w3.org/2000/svg">
<path d="M0.310525 70.8418V1.3908H39.7583C47.4539 1.3908 53.4164 3.8235 57.6458 8.68888C61.9069 13.5225 64.0375 19.946 64.0375 27.9596C64.0375 35.9414 61.9864 42.3173 57.8843 47.0873C53.8139 51.8255 47.5811 54.1945 39.1859 54.1945H28.5965V70.8418H0.310525ZM28.5965 36.164H31.8401C33.3029 36.164 34.3205 35.4485 34.8929 34.0175C35.4971 32.5547 35.7992 30.758 35.7992 28.6274C35.7992 26.3696 35.4971 24.5252 34.8929 23.0942C34.3205 21.6632 33.3029 20.9477 31.8401 20.9477H28.5965V36.164ZM67.4719 70.8418V1.3908H106.109C113.168 1.3908 118.988 3.6009 123.567 8.02108C128.178 12.4413 130.483 18.2289 130.483 25.3838C130.483 32.9204 127.955 39.0896 122.899 43.8914C117.843 48.6614 112.119 51.0464 105.727 51.0464H95.7579V70.8418H67.4719ZM95.7579 33.8744H98.286C99.5898 33.8744 100.512 33.2702 101.053 32.0618C101.625 30.8534 101.911 29.2793 101.911 27.3395C101.911 25.3997 101.625 23.7779 101.053 22.4741C100.512 21.1385 99.5898 20.4707 98.286 20.4707H95.7579V33.8744ZM103.008 70.8418L94.2793 42.6035L118.225 34.4468L133.536 70.8418H103.008ZM132.964 37.9766V34.256C132.964 22.5218 136.064 13.9518 142.265 8.54578C148.466 3.1398 156.321 0.436807 165.829 0.436807C175.401 0.436807 183.287 3.1398 189.488 8.54578C195.689 13.9518 198.79 22.5218 198.79 34.256V37.9766C198.79 49.7108 195.689 58.2808 189.488 63.6868C183.287 69.0928 175.401 71.7958 165.829 71.7958C156.321 71.7958 148.466 69.0928 142.265 63.6868C136.064 58.2808 132.964 49.7108 132.964 37.9766ZM162.49 47.7074C162.49 49.8698 162.744 51.4121 163.253 52.3343C163.794 53.2564 164.652 53.7175 165.829 53.7175C167.037 53.7175 167.896 53.2564 168.405 52.3343C168.945 51.4121 169.216 49.8698 169.216 47.7074V24.716C169.216 22.6172 168.945 21.1385 168.405 20.2799C167.896 19.4214 167.037 18.9921 165.829 18.9921C164.652 18.9921 163.794 19.4214 163.253 20.2799C162.744 21.1385 162.49 22.6172 162.49 24.716V47.7074ZM214.006 70.8418V44.8931L191.921 1.3908H222.353L229.127 15.1761C229.349 15.6531 229.556 16.0983 229.747 16.5117C229.938 16.9251 230.113 17.3544 230.272 17.7996H230.462C230.621 17.3544 230.78 16.9251 230.939 16.5117C231.13 16.0983 231.337 15.6531 231.559 15.1761L238.047 1.3908H264.711L242.721 44.7977V70.8418H214.006ZM266.094 70.8418V1.3908H320.567V23.285H292.997V26.9102H316.847V45.6086H292.997V49.8539H321.521V70.8418H266.094ZM323.382 37.9766V34.256C323.382 22.0766 326.387 13.4112 332.397 8.25958C338.407 3.0762 346.341 0.484507 356.199 0.484507C365.358 0.484507 372.608 2.4243 377.95 6.30389C383.293 10.1517 385.964 16.4481 385.964 25.193V32.3003H359.634V22.1402C359.634 21.218 359.379 20.4707 358.87 19.8983C358.393 19.326 357.71 19.0398 356.819 19.0398C355.833 19.0398 355.054 19.4373 354.482 20.2322C353.941 21.0272 353.671 22.49 353.671 24.6206V47.6597C353.671 49.9811 353.941 51.587 354.482 52.4774C355.023 53.3359 355.802 53.7652 356.819 53.7652C357.805 53.7652 358.521 53.3359 358.966 52.4774C359.411 51.587 359.634 50.0606 359.634 47.8982V40.4093H385.964V48.8045C385.964 56.2138 383.293 61.8901 377.95 65.8333C372.608 69.7765 365.358 71.7481 356.199 71.7481C346.214 71.7481 338.248 69.1087 332.302 63.8299C326.355 58.5511 323.382 49.9334 323.382 37.9766ZM387.204 23.285V1.3908H449.023V23.285H432.519V70.8418H403.804V23.285H387.204ZM449.596 37.9766V34.256C449.596 22.5218 452.696 13.9518 458.897 8.54578C465.098 3.1398 472.953 0.436807 482.461 0.436807C492.032 0.436807 499.919 3.1398 506.12 8.54578C512.321 13.9518 515.421 22.5218 515.421 34.256V37.9766C515.421 49.7108 512.321 58.2808 506.12 63.6868C499.919 69.0928 492.032 71.7958 482.461 71.7958C472.953 71.7958 465.098 69.0928 458.897 63.6868C452.696 58.2808 449.596 49.7108 449.596 37.9766ZM479.122 47.7074C479.122 49.8698 479.376 51.4121 479.885 52.3343C480.426 53.2564 481.284 53.7175 482.461 53.7175C483.669 53.7175 484.528 53.2564 485.037 52.3343C485.577 51.4121 485.847 49.8698 485.847 47.7074V24.716C485.847 22.6172 485.577 21.1385 485.037 20.2799C484.528 19.4214 483.669 18.9921 482.461 18.9921C481.284 18.9921 480.426 19.4214 479.885 20.2799C479.376 21.1385 479.122 22.6172 479.122 24.716V47.7074ZM516.661 52.2866V47.8028H541.847V49.4723C541.815 51.1259 542.197 52.3502 542.992 53.1451C543.787 53.9083 544.9 54.2899 546.331 54.2899C547.444 54.2899 548.334 54.0514 549.002 53.5744C549.67 53.0656 550.004 52.3184 550.004 51.3326C550.004 50.315 549.606 49.52 548.811 48.9476C548.048 48.3752 545.027 47.2463 539.748 45.5609C532.243 43.1759 526.583 40.3775 522.767 37.1657C518.951 33.9221 517.043 29.168 517.043 22.9034C517.043 15.6531 519.698 10.1199 525.009 6.30389C530.32 2.4561 537.157 0.532207 545.52 0.532207C553.979 0.532207 560.879 2.1381 566.222 5.34989C571.564 8.56168 574.235 13.1727 574.235 19.1829V22.9034H549.527V21.8063C549.527 20.7569 549.225 19.9778 548.62 19.4691C548.048 18.9285 547.221 18.6582 546.14 18.6582C545.027 18.6582 544.232 18.8649 543.755 19.2783C543.31 19.6598 543.087 20.1686 543.087 20.8046C543.087 21.4724 543.453 21.9971 544.184 22.3787C544.947 22.7285 548.509 23.762 554.869 25.4792C561.388 27.2282 566.524 29.804 570.276 33.2066C574.06 36.5774 575.952 41.6177 575.952 48.3275C575.952 55.864 573.218 61.6675 567.748 65.7379C562.31 69.7765 555.314 71.7958 546.76 71.7958C538.206 71.7958 531.051 70.1581 525.295 66.8827C519.539 63.6073 516.661 58.7419 516.661 52.2866ZM606.814 37.9766V34.256C606.814 22.5218 609.915 13.9518 616.116 8.54578C622.317 3.1398 630.187 0.436807 639.727 0.436807C649.267 0.436807 657.138 3.1398 663.339 8.54578C669.54 13.9518 672.64 22.5218 672.64 34.256V37.9766C672.64 49.7108 669.54 58.2808 663.339 63.6868C657.138 69.0928 649.267 71.7958 639.727 71.7958C630.187 71.7958 622.317 69.0928 616.116 63.6868C609.915 58.2808 606.814 49.7108 606.814 37.9766ZM636.34 47.6597C636.34 49.8539 636.595 51.4121 637.104 52.3343C637.644 53.2564 638.519 53.7175 639.727 53.7175C640.904 53.7175 641.746 53.2564 642.255 52.3343C642.796 51.4121 643.066 49.8539 643.066 47.6597V24.716C643.066 22.649 642.796 21.1862 642.255 20.3276C641.746 19.4373 640.904 18.9921 639.727 18.9921C638.519 18.9921 637.644 19.4373 637.104 20.3276C636.595 21.1862 636.34 22.649 636.34 24.716V47.6597ZM654.848 83.4346L634.48 63.3052L648.933 47.0396L669.444 67.1212L654.848 83.4346ZM675.979 43.796V1.3908H704.17V48.5183C704.17 50.5217 704.345 51.8732 704.694 52.5728C705.044 53.2405 705.632 53.5744 706.459 53.5744C707.286 53.5744 707.874 53.2405 708.224 52.5728C708.574 51.8732 708.749 50.5217 708.749 48.5183V1.3908H737.035V43.796C737.035 53.3359 734.364 60.3955 729.021 64.9747C723.711 69.5221 716.349 71.7958 706.936 71.7958C697.015 71.7958 689.367 69.5221 683.993 64.9747C678.65 60.3955 675.979 53.3359 675.979 43.796ZM741.185 70.8418V1.3908H795.658V23.285H768.087V26.9102H791.937V45.6086H768.087V49.8539H796.612V70.8418H741.185ZM133.25 148.842V79.3908H161.536V126.948H184.814V148.842H133.25ZM185.577 148.842L208.091 79.3908H238.428L260.036 148.842H232.513L223.355 113.973C223.005 112.669 222.719 111.541 222.496 110.587C222.306 109.601 222.194 109.012 222.163 108.822H222.067C222.035 109.012 221.908 109.585 221.686 110.539C221.463 111.493 221.209 112.622 220.922 113.926L212.718 148.842H185.577ZM202.033 141.114L205.181 123.513H239.478L243.055 141.114H202.033ZM253.692 101.285V79.3908H315.511V101.285H299.007V148.842H270.292V101.285H253.692ZM318.325 148.842V79.3908H372.799V101.285H345.228V104.91H369.078V123.609H345.228V127.854H373.753V148.842H318.325ZM376.901 148.842V79.3908H404.662L410.577 99.9494C410.863 100.967 411.197 102.16 411.579 103.527C411.96 104.894 412.262 106.103 412.485 107.152H412.771C412.708 106.071 412.692 104.942 412.724 103.765C412.755 102.589 412.771 101.46 412.771 100.379V79.3908H436.335V148.842H409.48L402.563 127.854C402.214 126.868 401.864 125.803 401.514 124.658C401.164 123.481 400.878 122.368 400.655 121.319H400.369C400.433 122.4 400.465 123.338 400.465 124.133C400.496 124.896 400.512 125.835 400.512 126.948V148.842H376.901ZM468.819 115.977V112.256C468.819 100.077 471.824 91.4112 477.834 86.2596C483.844 81.0762 491.778 78.4845 501.636 78.4845C510.794 78.4845 518.045 80.4243 523.387 84.3039C528.73 88.1517 531.401 94.4481 531.401 103.193V110.3H505.07V100.14C505.07 99.218 504.816 98.4707 504.307 97.8983C503.83 97.326 503.147 97.0398 502.256 97.0398C501.27 97.0398 500.491 97.4373 499.919 98.2322C499.378 99.0272 499.108 100.49 499.108 102.621V125.66C499.108 127.981 499.378 129.587 499.919 130.477C500.459 131.336 501.239 131.765 502.256 131.765C503.242 131.765 503.957 131.336 504.403 130.477C504.848 129.587 505.07 128.061 505.07 125.898V118.409H531.401V126.804C531.401 134.214 528.73 139.89 523.387 143.833C518.045 147.777 510.794 149.748 501.636 149.748C491.651 149.748 483.685 147.109 477.738 141.83C471.792 136.551 468.819 127.933 468.819 115.977ZM533.881 115.977V112.256C533.881 100.522 536.982 91.9518 543.183 86.5458C549.384 81.1398 557.238 78.4368 566.746 78.4368C576.318 78.4368 584.204 81.1398 590.405 86.5458C596.606 91.9518 599.707 100.522 599.707 112.256V115.977C599.707 127.711 596.606 136.281 590.405 141.687C584.204 147.093 576.318 149.796 566.746 149.796C557.238 149.796 549.384 147.093 543.183 141.687C536.982 136.281 533.881 127.711 533.881 115.977ZM563.407 125.707C563.407 127.87 563.662 129.412 564.171 130.334C564.711 131.256 565.57 131.718 566.746 131.718C567.955 131.718 568.813 131.256 569.322 130.334C569.863 129.412 570.133 127.87 570.133 125.707V102.716C570.133 100.617 569.863 99.1385 569.322 98.2799C568.813 97.4214 567.955 96.9921 566.746 96.9921C565.57 96.9921 564.711 97.4214 564.171 98.2799C563.662 99.1385 563.407 100.617 563.407 102.716V125.707ZM603.094 148.842V79.3908H630.855L636.77 99.9494C637.056 100.967 637.39 102.16 637.771 103.527C638.153 104.894 638.455 106.103 638.678 107.152H638.964C638.9 106.071 638.884 104.942 638.916 103.765C638.948 102.589 638.964 101.46 638.964 100.379V79.3908H662.528V148.842H635.673L628.756 127.854C628.406 126.868 628.057 125.803 627.707 124.658C627.357 123.481 627.071 122.368 626.848 121.319H626.562C626.626 122.4 626.657 123.338 626.657 124.133C626.689 124.896 626.705 125.835 626.705 126.948V148.842H603.094ZM104.487 226.842V157.391H143.935C151.63 157.391 157.593 159.823 161.822 164.689C166.083 169.522 168.214 175.946 168.214 183.96C168.214 191.941 166.163 198.317 162.061 203.087C157.99 207.825 151.758 210.195 143.362 210.195H132.773V226.842H104.487ZM132.773 192.164H136.017C137.479 192.164 138.497 191.449 139.069 190.018C139.674 188.555 139.976 186.758 139.976 184.627C139.976 182.37 139.674 180.525 139.069 179.094C138.497 177.663 137.479 176.948 136.017 176.948H132.773V192.164ZM171.648 226.842V157.391H210.285C217.345 157.391 223.164 159.601 227.743 164.021C232.354 168.441 234.66 174.229 234.66 181.384C234.66 188.92 232.132 195.09 227.076 199.891C222.019 204.661 216.295 207.046 209.904 207.046H199.934V226.842H171.648ZM199.934 189.874H202.463C203.766 189.874 204.689 189.27 205.229 188.062C205.802 186.853 206.088 185.279 206.088 183.34C206.088 181.4 205.802 179.778 205.229 178.474C204.689 177.139 203.766 176.471 202.463 176.471H199.934V189.874ZM207.185 226.842L198.456 198.603L222.401 190.447L237.713 226.842H207.185ZM237.14 193.977V190.256C237.14 178.522 240.241 169.952 246.442 164.546C252.643 159.14 260.497 156.437 270.006 156.437C279.577 156.437 287.464 159.14 293.665 164.546C299.866 169.952 302.966 178.522 302.966 190.256V193.977C302.966 205.711 299.866 214.281 293.665 219.687C287.464 225.093 279.577 227.796 270.006 227.796C260.497 227.796 252.643 225.093 246.442 219.687C240.241 214.281 237.14 205.711 237.14 193.977ZM266.667 203.707C266.667 205.87 266.921 207.412 267.43 208.334C267.97 209.256 268.829 209.718 270.006 209.718C271.214 209.718 272.073 209.256 272.581 208.334C273.122 207.412 273.392 205.87 273.392 203.707V180.716C273.392 178.617 273.122 177.139 272.581 176.28C272.073 175.421 271.214 174.992 270.006 174.992C268.829 174.992 267.97 175.421 267.43 176.28C266.921 177.139 266.667 178.617 266.667 180.716V203.707ZM306.353 226.842V157.391H345.801C353.496 157.391 359.459 159.823 363.688 164.689C367.949 169.522 370.08 175.946 370.08 183.96C370.08 191.941 368.029 198.317 363.927 203.087C359.856 207.825 353.623 210.195 345.228 210.195H334.639V226.842H306.353ZM334.639 192.164H337.882C339.345 192.164 340.363 191.449 340.935 190.018C341.539 188.555 341.842 186.758 341.842 184.627C341.842 182.37 341.539 180.525 340.935 179.094C340.363 177.663 339.345 176.948 337.882 176.948H334.639V192.164ZM372.703 193.977V190.256C372.703 178.522 375.804 169.952 382.005 164.546C388.206 159.14 396.06 156.437 405.569 156.437C415.14 156.437 423.027 159.14 429.228 164.546C435.429 169.952 438.529 178.522 438.529 190.256V193.977C438.529 205.711 435.429 214.281 429.228 219.687C423.027 225.093 415.14 227.796 405.569 227.796C396.06 227.796 388.206 225.093 382.005 219.687C375.804 214.281 372.703 205.711 372.703 193.977ZM402.23 203.707C402.23 205.87 402.484 207.412 402.993 208.334C403.533 209.256 404.392 209.718 405.569 209.718C406.777 209.718 407.635 209.256 408.144 208.334C408.685 207.412 408.955 205.87 408.955 203.707V180.716C408.955 178.617 408.685 177.139 408.144 176.28C407.635 175.421 406.777 174.992 405.569 174.992C404.392 174.992 403.533 175.421 402.993 176.28C402.484 177.139 402.23 178.617 402.23 180.716V203.707ZM439.769 208.287V203.803H464.955V205.472C464.923 207.126 465.305 208.35 466.1 209.145C466.895 209.908 468.008 210.29 469.439 210.29C470.552 210.29 471.442 210.051 472.11 209.574C472.778 209.066 473.112 208.318 473.112 207.333C473.112 206.315 472.714 205.52 471.919 204.948C471.156 204.375 468.135 203.246 462.856 201.561C455.351 199.176 449.691 196.377 445.875 193.166C442.059 189.922 440.151 185.168 440.151 178.903C440.151 171.653 442.806 166.12 448.117 162.304C453.427 158.456 460.264 156.532 468.628 156.532C477.087 156.532 483.987 158.138 489.329 161.35C494.672 164.562 497.343 169.173 497.343 175.183V178.903H472.635V177.806C472.635 176.757 472.332 175.978 471.728 175.469C471.156 174.928 470.329 174.658 469.248 174.658C468.135 174.658 467.34 174.865 466.863 175.278C466.418 175.66 466.195 176.169 466.195 176.805C466.195 177.472 466.561 177.997 467.292 178.379C468.055 178.729 471.617 179.762 477.977 181.479C484.496 183.228 489.632 185.804 493.384 189.207C497.168 192.577 499.06 197.618 499.06 204.327C499.06 211.864 496.325 217.668 490.856 221.738C485.418 225.777 478.422 227.796 469.868 227.796C461.314 227.796 454.159 226.158 448.403 222.883C442.647 219.607 439.769 214.742 439.769 208.287ZM502.399 226.842V157.391H531.115V226.842H502.399ZM533.643 179.285V157.391H595.462V179.285H578.958V226.842H550.242V179.285H533.643ZM596.034 193.977V190.256C596.034 178.522 599.135 169.952 605.336 164.546C611.537 159.14 619.391 156.437 628.899 156.437C638.471 156.437 646.357 159.14 652.558 164.546C658.759 169.952 661.86 178.522 661.86 190.256V193.977C661.86 205.711 658.759 214.281 652.558 219.687C646.357 225.093 638.471 227.796 628.899 227.796C619.391 227.796 611.537 225.093 605.336 219.687C599.135 214.281 596.034 205.711 596.034 193.977ZM625.56 203.707C625.56 205.87 625.815 207.412 626.323 208.334C626.864 209.256 627.723 209.718 628.899 209.718C630.108 209.718 630.966 209.256 631.475 208.334C632.016 207.412 632.286 205.87 632.286 203.707V180.716C632.286 178.617 632.016 177.139 631.475 176.28C630.966 175.421 630.108 174.992 628.899 174.992C627.723 174.992 626.864 175.421 626.323 176.28C625.815 177.139 625.56 178.617 625.56 180.716V203.707ZM662.814 214.583C662.814 210.894 664.054 207.794 666.534 205.281C669.015 202.769 672.561 201.513 677.172 201.513C681.751 201.513 685.28 202.769 687.761 205.281C690.241 207.794 691.481 210.894 691.481 214.583C691.481 218.335 690.241 221.468 687.761 223.98C685.28 226.492 681.751 227.748 677.172 227.748C672.561 227.748 669.015 226.476 666.534 223.932C664.054 221.356 662.814 218.24 662.814 214.583Z" fill="#F15025"/>
</svg>
