<svg width="888" height="255" viewBox="0 0 888 255" fill="none" xmlns="http://www.w3.org/2000/svg">
<path d="M2.46626 43.7426V40.0689H23.2049V41.4515C23.1785 42.8736 23.4945 43.9138 24.1529 44.5722C24.8376 45.2305 25.7988 45.5597 27.0366 45.5597C28.011 45.5597 28.7878 45.349 29.3672 44.9277C29.9729 44.5063 30.2757 43.8743 30.2757 43.0316C30.2757 42.1362 29.9466 41.4383 29.2882 40.938C28.6298 40.4376 26.0885 39.5027 21.6643 38.1333C15.4493 36.1845 10.7485 33.8803 7.56203 31.2204C4.40186 28.5343 2.82178 24.5841 2.82178 19.3698C2.82178 13.3918 5.00756 8.82275 9.37913 5.66259C13.777 2.47608 19.4522 0.88283 26.4045 0.88283C33.4096 0.88283 39.1242 2.2259 43.5485 4.91205C47.9727 7.59819 50.1848 11.4431 50.1848 16.4467V19.4883H29.8412V18.5403C29.8412 17.6449 29.5779 16.9602 29.0512 16.4862C28.5508 16.0121 27.8398 15.7751 26.9181 15.7751C25.9173 15.7751 25.2063 15.9463 24.785 16.2887C24.3899 16.631 24.1924 17.0919 24.1924 17.6712C24.1924 18.2769 24.5084 18.7378 25.1405 19.0538C25.7988 19.3435 28.7483 20.1994 33.9889 21.6214C39.4139 23.0698 43.6933 25.203 46.8271 28.0208C49.9873 30.8386 51.5674 35.0127 51.5674 40.5429C51.5674 46.8106 49.3158 51.6167 44.8125 54.9612C40.3093 58.3057 34.5025 59.978 27.3921 59.978C20.308 59.978 14.3827 58.6086 9.61614 55.8698C4.84955 53.1309 2.46626 49.0886 2.46626 43.7426ZM54.4115 59.1484V1.63337H99.3649V19.5278H76.4537V22.8065H96.2443V38.1333H76.4537V42.0045H100.115V59.1484H54.4115ZM102.999 59.1484V1.63337H134.64C140.539 1.63337 145.398 3.45047 149.217 7.08466C153.035 10.7189 154.944 15.5249 154.944 21.5029C154.944 27.7443 152.851 32.84 148.664 36.7902C144.476 40.7141 139.697 42.6761 134.324 42.6761H126.108V59.1484H102.999ZM126.108 28.5343H128.359C129.545 28.5343 130.374 28.0339 130.848 27.0332C131.322 26.0325 131.572 24.7026 131.599 23.0435C131.599 21.3844 131.348 20.0018 130.848 18.8958C130.374 17.7897 129.545 17.2367 128.359 17.2367H126.108V28.5343ZM132.468 59.1484L125.002 35.6052L144.753 29.1663L157.473 59.1484H132.468ZM153.009 1.63337H176.513L183.386 26.6382C183.491 26.9542 183.583 27.3097 183.662 27.7048C183.741 28.0734 183.847 28.5343 183.978 29.0873H184.176C184.308 28.5343 184.413 28.0734 184.492 27.7048C184.597 27.3097 184.689 26.9542 184.768 26.6382L191.405 1.63337H214L196.303 59.4645H170.745L153.009 1.63337ZM215.067 59.1484V1.63337H238.531V59.1484H215.067ZM241.691 31.9315V28.8503C241.691 18.7641 244.18 11.5747 249.157 7.28217C254.161 2.98961 260.744 0.843328 268.908 0.843328C276.492 0.843328 282.497 2.46291 286.921 5.70209C291.345 8.91493 293.557 14.1292 293.557 21.3449V27.0332H271.989V18.9353C271.989 18.0662 271.752 17.3815 271.278 16.8812C270.83 16.3545 270.198 16.0911 269.382 16.0911C268.46 16.0911 267.736 16.4467 267.209 17.1577C266.709 17.8687 266.459 19.1723 266.459 21.0684V39.7529C266.459 41.7807 266.709 43.1896 267.209 43.9796C267.71 44.7433 268.447 45.1252 269.421 45.1252C270.291 45.1252 270.936 44.7565 271.357 44.0191C271.778 43.2554 271.989 41.9519 271.989 40.1084V34.1041H293.557V40.8195C293.584 46.9555 291.371 51.6825 286.921 55.0007C282.497 58.2926 276.492 59.9385 268.908 59.9385C260.639 59.9385 254.029 57.7527 249.078 53.3811C244.153 48.9832 241.691 41.8333 241.691 31.9315ZM296.52 59.1484V1.63337H319.984V59.1484H296.52ZM323.144 31.9315V28.8503C323.144 19.1328 325.712 12.0356 330.847 7.55869C335.983 3.05545 342.5 0.803826 350.401 0.803826C358.301 0.803826 364.819 3.05545 369.954 7.55869C375.09 12.0356 377.657 19.1328 377.657 28.8503V31.9315C377.657 41.649 375.09 48.7594 369.954 53.2626C364.819 57.7395 358.301 59.978 350.401 59.978C342.5 59.978 335.983 57.7395 330.847 53.2626C325.712 48.7594 323.144 41.649 323.144 31.9315ZM347.32 39.7529C347.32 41.7017 347.557 43.0842 348.031 43.9006C348.531 44.6907 349.321 45.0857 350.401 45.0857C351.481 45.0857 352.257 44.6907 352.731 43.9006C353.232 43.0842 353.482 41.7017 353.482 39.7529V21.1869C353.482 19.3171 353.232 18.0004 352.731 17.2367C352.257 16.4467 351.481 16.0516 350.401 16.0516C349.321 16.0516 348.531 16.4467 348.031 17.2367C347.557 18.0004 347.32 19.3171 347.32 21.1869V39.7529ZM378.842 43.7426V40.0689H399.581V41.4515C399.555 42.8736 399.871 43.9138 400.529 44.5722C401.214 45.2305 402.175 45.5597 403.413 45.5597C404.387 45.5597 405.164 45.349 405.743 44.9277C406.349 44.5063 406.652 43.8743 406.652 43.0316C406.652 42.1362 406.323 41.4383 405.664 40.938C405.006 40.4376 402.465 39.5027 398.04 38.1333C391.825 36.1845 387.125 33.8803 383.938 31.2204C380.778 28.5343 379.198 24.5841 379.198 19.3698C379.198 13.3918 381.384 8.82275 385.755 5.66259C390.153 2.47608 395.828 0.88283 402.781 0.88283C409.786 0.88283 415.5 2.2259 419.925 4.91205C424.349 7.59819 426.561 11.4431 426.561 16.4467V19.4883H406.217V18.5403C406.217 17.6449 405.954 16.9602 405.427 16.4862C404.927 16.0121 404.216 15.7751 403.294 15.7751C402.293 15.7751 401.582 15.9463 401.161 16.2887C400.766 16.631 400.568 17.0919 400.568 17.6712C400.568 18.2769 400.885 18.7378 401.517 19.0538C402.175 19.3435 405.124 20.1994 410.365 21.6214C415.79 23.0698 420.069 25.203 423.203 28.0208C426.363 30.8386 427.943 35.0127 427.943 40.5429C427.943 46.8106 425.692 51.6167 421.189 54.9612C416.685 58.3057 410.879 59.978 403.768 59.978C396.684 59.978 390.759 58.6086 385.992 55.8698C381.226 53.1309 378.842 49.0886 378.842 43.7426ZM453.501 31.9315V28.8503C453.501 19.1328 456.069 12.0356 461.204 7.55869C466.339 3.05545 472.857 0.803826 480.758 0.803826C488.658 0.803826 495.176 3.05545 500.311 7.55869C505.447 12.0356 508.014 19.1328 508.014 28.8503V31.9315C508.014 41.649 505.447 48.7594 500.311 53.2626C495.176 57.7395 488.658 59.978 480.758 59.978C472.857 59.978 466.339 57.7395 461.204 53.2626C456.069 48.7594 453.501 41.649 453.501 31.9315ZM477.677 39.7134C477.677 41.6622 477.914 43.0447 478.388 43.8611C478.888 44.6775 479.678 45.0857 480.758 45.0857C481.837 45.0857 482.614 44.6775 483.088 43.8611C483.589 43.0447 483.839 41.6622 483.839 39.7134V21.2264C483.839 19.3303 483.589 18.0004 483.088 17.2367C482.614 16.4467 481.837 16.0516 480.758 16.0516C479.678 16.0516 478.888 16.4467 478.388 17.2367C477.914 18.0004 477.677 19.3303 477.677 21.2264V39.7134ZM493.517 69.6955L476.61 53.1441L488.461 39.7924L505.486 56.3043L493.517 69.6955ZM511.016 36.6717V1.63337H534.046V40.5034C534.046 42.2679 534.217 43.4529 534.56 44.0586C534.902 44.6643 535.442 44.9672 536.179 44.9672C536.969 44.9672 537.522 44.6643 537.838 44.0586C538.181 43.4529 538.352 42.2679 538.352 40.5034V1.63337H561.461V36.6717C561.461 44.6248 559.248 50.4975 554.824 54.2897C550.426 58.0819 544.343 59.978 536.574 59.978C528.41 59.978 522.103 58.0819 517.653 54.2897C513.229 50.4975 511.016 44.6248 511.016 36.6717ZM565.253 59.1484V1.63337H610.206V19.5278H587.295V22.8065H607.086V38.1333H587.295V42.0045H610.957V59.1484H565.253ZM2.62427 84.5278V66.6334H53.74V84.5278H39.9538V124.148H16.4895V84.5278H2.62427ZM56.2286 124.148V66.6334H87.8698C93.7688 66.6334 98.6276 68.4505 102.446 72.0847C106.265 75.7189 108.174 80.5249 108.174 86.5029C108.174 92.7443 106.08 97.84 101.893 101.79C97.7058 105.714 92.9261 107.676 87.5538 107.676H79.3374V124.148H56.2286ZM79.3374 93.5343H81.589C82.774 93.5343 83.6036 93.0339 84.0776 92.0332C84.5516 91.0325 84.8018 89.7026 84.8282 88.0435C84.8282 86.3844 84.578 85.0018 84.0776 83.8958C83.6036 82.7897 82.774 82.2367 81.589 82.2367H79.3374V93.5343ZM85.6972 124.148L78.2313 100.605L97.9824 94.1663L110.702 124.148H85.6972ZM108.332 124.148L127.135 66.6334H151.982L170.074 124.148H147.478L139.657 94.8774C139.367 93.824 139.13 92.9023 138.946 92.1122C138.788 91.2959 138.683 90.7955 138.63 90.6111H138.551C138.525 90.7955 138.419 91.2827 138.235 92.0727C138.051 92.8628 137.84 93.7845 137.603 94.8379L130.532 124.148H108.332ZM122.039 117.552L124.686 103.133H152.89L155.853 117.552H122.039ZM171.101 124.148V66.6334H193.854L199.226 84.2513C199.463 85.1204 199.74 86.1079 200.056 87.214C200.372 88.2937 200.622 89.2812 200.806 90.1766H201.043C200.991 89.2549 200.978 88.32 201.004 87.372C201.03 86.4239 201.043 85.5022 201.043 84.6068V66.6334H220.32V124.148H198.199L192.076 106.175C191.813 105.359 191.523 104.49 191.207 103.568C190.918 102.62 190.681 101.711 190.496 100.842H190.259C190.338 101.738 190.378 102.514 190.378 103.173C190.378 103.805 190.378 104.582 190.378 105.503V124.148H171.101ZM222.256 108.743V105.069H242.995V106.451C242.968 107.874 243.284 108.914 243.943 109.572C244.627 110.231 245.589 110.56 246.826 110.56C247.801 110.56 248.578 110.349 249.157 109.928C249.763 109.506 250.065 108.874 250.065 108.032C250.065 107.136 249.736 106.438 249.078 105.938C248.42 105.438 245.878 104.503 241.454 103.133C235.239 101.185 230.538 98.8803 227.352 96.2204C224.192 93.5343 222.611 89.5841 222.611 84.3698C222.611 78.3918 224.797 73.8228 229.169 70.6626C233.567 67.4761 239.242 65.8828 246.194 65.8828C253.199 65.8828 258.914 67.2259 263.338 69.912C267.762 72.5982 269.975 76.4431 269.975 81.4467V84.4883H249.631V83.5403C249.631 82.6449 249.368 81.9602 248.841 81.4862C248.341 81.0121 247.629 80.7751 246.708 80.7751C245.707 80.7751 244.996 80.9463 244.575 81.2887C244.18 81.631 243.982 82.0919 243.982 82.6712C243.982 83.2769 244.298 83.7378 244.93 84.0538C245.589 84.3435 248.538 85.1994 253.779 86.6214C259.204 88.0698 263.483 90.203 266.617 93.0208C269.777 95.8386 271.357 100.013 271.357 105.543C271.357 111.811 269.105 116.617 264.602 119.961C260.099 123.306 254.292 124.978 247.182 124.978C240.098 124.978 234.172 123.609 229.406 120.87C224.639 118.131 222.256 114.089 222.256 108.743ZM274.201 124.148V66.6334H316.073V84.4883H297.31V88.8336H313.506V104.911H297.31V124.148H274.201ZM317.772 96.9315V93.8503C317.772 84.1328 320.34 77.0356 325.475 72.5587C330.61 68.0554 337.128 65.8038 345.029 65.8038C352.929 65.8038 359.447 68.0554 364.582 72.5587C369.717 77.0356 372.285 84.1328 372.285 93.8503V96.9315C372.285 106.649 369.717 113.759 364.582 118.263C359.447 122.74 352.929 124.978 345.029 124.978C337.128 124.978 330.61 122.74 325.475 118.263C320.34 113.759 317.772 106.649 317.772 96.9315ZM341.947 104.753C341.947 106.702 342.184 108.084 342.658 108.901C343.159 109.691 343.949 110.086 345.029 110.086C346.108 110.086 346.885 109.691 347.359 108.901C347.86 108.084 348.11 106.702 348.11 104.753V86.1869C348.11 84.3171 347.86 83.0004 347.359 82.2367C346.885 81.4467 346.108 81.0516 345.029 81.0516C343.949 81.0516 343.159 81.4467 342.658 82.2367C342.184 83.0004 341.947 84.3171 341.947 86.1869V104.753ZM375.327 124.148V66.6334H406.968C412.867 66.6334 417.726 68.4505 421.544 72.0847C425.363 75.7189 427.272 80.5249 427.272 86.5029C427.272 92.7443 425.178 97.84 420.991 101.79C416.804 105.714 412.024 107.676 406.652 107.676H398.435V124.148H375.327ZM398.435 93.5343H400.687C401.872 93.5343 402.702 93.0339 403.176 92.0332C403.65 91.0325 403.9 89.7026 403.926 88.0435C403.926 86.3844 403.676 85.0018 403.176 83.8958C402.702 82.7897 401.872 82.2367 400.687 82.2367H398.435V93.5343ZM404.795 124.148L397.329 100.605L417.08 94.1663L429.8 124.148H404.795ZM430.946 124.148V66.6334H463.574L468.591 86.3449C468.802 87.2666 468.999 88.162 469.184 89.0311C469.394 89.8738 469.592 90.7823 469.776 91.7567H469.934C470.119 90.7823 470.303 89.8738 470.487 89.0311C470.698 88.162 470.909 87.2666 471.119 86.3449L476.136 66.6334H508.686V124.148H485.972V101.711C485.972 100.816 485.972 99.8151 485.972 98.7091C485.998 97.603 486.051 96.5891 486.13 95.6674H485.893C485.735 96.6155 485.551 97.6294 485.34 98.7091C485.156 99.7888 484.958 100.79 484.747 101.711L479.731 124.148H459.111L454.054 101.711C453.844 100.79 453.633 99.7888 453.422 98.7091C453.212 97.603 453.04 96.5891 452.909 95.6674H452.672C452.724 96.5891 452.764 97.603 452.79 98.7091C452.817 99.8151 452.83 100.816 452.83 101.711V124.148H430.946ZM509.752 124.148L528.555 66.6334H553.402L571.494 124.148H548.899L541.077 94.8774C540.788 93.824 540.551 92.9023 540.366 92.1122C540.208 91.2959 540.103 90.7955 540.05 90.6111H539.971C539.945 90.7955 539.84 91.2827 539.655 92.0727C539.471 92.8628 539.26 93.7845 539.023 94.8379L531.952 124.148H509.752ZM523.46 117.552L526.106 103.133H554.311L557.273 117.552H523.46ZM572.521 124.148V66.6334H595.274L600.647 84.2513C600.884 85.1204 601.16 86.1079 601.476 87.214C601.792 88.2937 602.042 89.2812 602.227 90.1766H602.464C602.411 89.2549 602.398 88.32 602.424 87.372C602.451 86.4239 602.464 85.5022 602.464 84.6068V66.6334H621.741V124.148H599.62L593.497 106.175C593.233 105.359 592.944 104.49 592.628 103.568C592.338 102.62 592.101 101.711 591.917 100.842H591.68C591.759 101.738 591.798 102.514 591.798 103.173C591.798 103.805 591.798 104.582 591.798 105.503V124.148H572.521ZM649.511 124.148V66.6334H672.975V124.148H649.511ZM676.886 124.148V66.6334H703.905C711.753 66.6334 717.836 68.9903 722.155 73.7042C726.5 78.4182 728.673 85.0677 728.673 93.6528V96.7735C728.673 105.332 726.461 112.034 722.037 116.88C717.639 121.726 711.595 124.148 703.905 124.148H676.886ZM699.283 108.98H701.18C702.523 108.98 703.563 108.361 704.3 107.123C705.038 105.885 705.406 103.686 705.406 100.526V90.3741C705.406 87.135 705.051 85.0282 704.34 84.0538C703.655 83.0531 702.602 82.5527 701.18 82.5527H699.283V108.98ZM731.715 124.148V66.6334H776.668V84.5278H753.757V87.8065H773.547V103.133H753.757V107.005H777.419V124.148H731.715ZM777.498 124.148L796.301 66.6334H821.147L839.239 124.148H816.644L808.823 94.8774C808.533 93.824 808.296 92.9023 808.112 92.1122C807.954 91.2959 807.848 90.7955 807.796 90.6111H807.717C807.69 90.7955 807.585 91.2827 807.401 92.0727C807.216 92.8628 807.006 93.7845 806.769 94.8379L799.698 124.148H777.498ZM791.205 117.552L793.851 103.133H822.056L825.019 117.552H791.205ZM838.015 108.743V105.069H858.753V106.451C858.727 107.874 859.043 108.914 859.702 109.572C860.386 110.231 861.347 110.56 862.585 110.56C863.56 110.56 864.336 110.349 864.916 109.928C865.521 109.506 865.824 108.874 865.824 108.032C865.824 107.136 865.495 106.438 864.837 105.938C864.178 105.438 861.637 104.503 857.213 103.133C850.998 101.185 846.297 98.8803 843.111 96.2204C839.95 93.5343 838.37 89.5841 838.37 84.3698C838.37 78.3918 840.556 73.8228 844.928 70.6626C849.326 67.4761 855.001 65.8828 861.953 65.8828C868.958 65.8828 874.673 67.2259 879.097 69.912C883.521 72.5982 885.733 76.4431 885.733 81.4467V84.4883H865.39V83.5403C865.39 82.6449 865.126 81.9602 864.6 81.4862C864.099 81.0121 863.388 80.7751 862.467 80.7751C861.466 80.7751 860.755 80.9463 860.334 81.2887C859.939 81.631 859.741 82.0919 859.741 82.6712C859.741 83.2769 860.057 83.7378 860.689 84.0538C861.347 84.3435 864.297 85.1994 869.538 86.6214C874.962 88.0698 879.242 90.203 882.376 93.0208C885.536 95.8386 887.116 100.013 887.116 105.543C887.116 111.811 884.864 116.617 880.361 119.961C875.858 123.306 870.051 124.978 862.941 124.978C855.857 124.978 849.931 123.609 845.165 120.87C840.398 118.131 838.015 114.089 838.015 108.743ZM4.32286 189.148V131.633H49.2763V149.528H26.365V152.806H46.1556V168.133H26.365V172.005H50.0268V189.148H4.32286ZM52.9104 189.148V131.633H75.6637L81.0359 149.251C81.273 150.12 81.5495 151.108 81.8655 152.214C82.1815 153.294 82.4317 154.281 82.616 155.177H82.853C82.8004 154.255 82.7872 153.32 82.8135 152.372C82.8399 151.424 82.853 150.502 82.853 149.607V131.633H102.13V189.148H80.0089L73.8861 171.175C73.6227 170.359 73.333 169.49 73.017 168.568C72.7273 167.62 72.4903 166.711 72.306 165.842H72.069C72.148 166.738 72.1875 167.514 72.1875 168.173C72.1875 168.805 72.1875 169.582 72.1875 170.503V189.148H52.9104ZM129.782 189.148V131.633H174.735V149.528H151.824V152.806H171.614V168.133H151.824V172.005H175.485V189.148H129.782ZM174.893 189.148L195.553 151.937H200.727L211.432 131.633H232.053L212.657 167.264H207.482L195.592 189.148H174.893ZM175.841 131.633H201.004L211.867 151.898L232.369 189.148H207.166L194.802 166.316L175.841 131.633ZM233.435 189.148V131.633H265.787C272.16 131.633 277.111 133.635 280.64 137.638C284.169 141.614 285.933 146.908 285.933 153.518C285.933 160.128 284.235 165.395 280.838 169.318C277.467 173.242 272.292 175.204 265.313 175.204H256.544V189.148H233.435ZM256.544 160.391H259.427C260.692 160.391 261.574 159.798 262.074 158.613C262.601 157.402 262.864 155.888 262.864 154.071C262.864 152.174 262.601 150.634 262.074 149.449C261.574 148.264 260.692 147.671 259.427 147.671H256.544V160.391ZM288.975 189.148V131.633H333.928V149.528H311.017V152.806H330.808V168.133H311.017V172.005H334.679V189.148H288.975ZM337.563 189.148V131.633H369.204C375.103 131.633 379.962 133.45 383.78 137.085C387.599 140.719 389.508 145.525 389.508 151.503C389.508 157.744 387.414 162.84 383.227 166.79C379.04 170.714 374.26 172.676 368.888 172.676H360.671V189.148H337.563ZM360.671 158.534H362.923C364.108 158.534 364.938 158.034 365.412 157.033C365.886 156.033 366.136 154.703 366.162 153.044C366.162 151.384 365.912 150.002 365.412 148.896C364.938 147.79 364.108 147.237 362.923 147.237H360.671V158.534ZM367.031 189.148L359.565 165.605L379.316 159.166L392.036 189.148H367.031ZM393.3 189.148V131.633H416.764V189.148H393.3ZM420.675 189.148V131.633H465.628V149.528H442.717V152.806H462.508V168.133H442.717V172.005H466.379V189.148H420.675ZM469.263 189.148V131.633H492.016L497.388 149.251C497.625 150.12 497.902 151.108 498.218 152.214C498.534 153.294 498.784 154.281 498.968 155.177H499.205C499.153 154.255 499.139 153.32 499.166 152.372C499.192 151.424 499.205 150.502 499.205 149.607V131.633H518.482V189.148H496.361L490.238 171.175C489.975 170.359 489.685 169.49 489.369 168.568C489.08 167.62 488.843 166.711 488.658 165.842H488.421C488.5 166.738 488.54 167.514 488.54 168.173C488.54 168.805 488.54 169.582 488.54 170.503V189.148H469.263ZM521.524 161.931V158.85C521.524 148.764 524.013 141.575 528.99 137.282C533.993 132.99 540.577 130.843 548.741 130.843C556.325 130.843 562.33 132.463 566.754 135.702C571.178 138.915 573.39 144.129 573.39 151.345V157.033H551.822V148.935C551.822 148.066 551.585 147.382 551.111 146.881C550.663 146.354 550.031 146.091 549.215 146.091C548.293 146.091 547.569 146.447 547.042 147.158C546.542 147.869 546.292 149.172 546.292 151.068V169.753C546.292 171.781 546.542 173.19 547.042 173.98C547.543 174.743 548.28 175.125 549.254 175.125C550.123 175.125 550.769 174.757 551.19 174.019C551.611 173.255 551.822 171.952 551.822 170.108V164.104H573.39V170.819C573.417 176.955 571.204 181.683 566.754 185.001C562.33 188.293 556.325 189.938 548.741 189.938C540.472 189.938 533.862 187.753 528.911 183.381C523.986 178.983 521.524 171.833 521.524 161.931ZM576.353 189.148V131.633H599.817V189.148H576.353ZM600.923 189.148L619.726 131.633H644.573L662.665 189.148H640.07L632.248 159.877C631.959 158.824 631.722 157.902 631.537 157.112C631.379 156.296 631.274 155.795 631.221 155.611H631.142C631.116 155.795 631.011 156.283 630.826 157.073C630.642 157.863 630.431 158.784 630.194 159.838L623.123 189.148H600.923ZM614.63 182.552L617.277 168.133H645.482L648.444 182.552H614.63ZM661.44 173.743V170.069H682.179V171.451C682.153 172.874 682.469 173.914 683.127 174.572C683.812 175.231 684.773 175.56 686.011 175.56C686.985 175.56 687.762 175.349 688.341 174.928C688.947 174.506 689.25 173.874 689.25 173.032C689.25 172.136 688.921 171.438 688.262 170.938C687.604 170.438 685.063 169.503 680.638 168.133C674.423 166.185 669.723 163.88 666.536 161.22C663.376 158.534 661.796 154.584 661.796 149.37C661.796 143.392 663.982 138.823 668.353 135.663C672.751 132.476 678.426 130.883 685.379 130.883C692.384 130.883 698.098 132.226 702.523 134.912C706.947 137.598 709.159 141.443 709.159 146.447V149.488H688.815V148.54C688.815 147.645 688.552 146.96 688.025 146.486C687.525 146.012 686.814 145.775 685.892 145.775C684.891 145.775 684.18 145.946 683.759 146.289C683.364 146.631 683.167 147.092 683.167 147.671C683.167 148.277 683.483 148.738 684.115 149.054C684.773 149.343 687.722 150.199 692.963 151.621C698.388 153.07 702.667 155.203 705.801 158.021C708.961 160.839 710.541 165.013 710.541 170.543C710.541 176.811 708.29 181.617 703.787 184.961C699.283 188.306 693.477 189.978 686.366 189.978C679.282 189.978 673.357 188.609 668.59 185.87C663.824 183.131 661.44 179.089 661.44 173.743ZM0.0566314 196.633H23.5604L30.4338 221.638C30.5391 221.954 30.6313 222.31 30.7103 222.705C30.7893 223.073 30.8946 223.534 31.0263 224.087H31.2238C31.3555 223.534 31.4608 223.073 31.5398 222.705C31.6451 222.31 31.7373 221.954 31.8163 221.638L38.4527 196.633H61.0479L43.3509 254.464H17.7931L0.0566314 196.633ZM62.1144 254.148V196.633H85.5787V254.148H62.1144ZM89.4894 254.148V196.633H120.894C127.53 196.633 132.218 198.003 134.956 200.742C137.695 203.48 139.065 206.996 139.065 211.289C139.065 214.528 138.367 217.201 136.971 219.308C135.575 221.414 133.666 222.929 131.243 223.85V224.008C134.166 224.693 136.642 226.102 138.67 228.235C140.724 230.342 141.751 233.528 141.751 237.795C141.751 242.851 139.96 246.841 136.378 249.764C132.797 252.687 127.806 254.148 121.407 254.148H89.4894ZM111.887 239.888H114.613C115.824 239.888 116.746 239.467 117.378 238.624C118.01 237.755 118.326 236.662 118.326 235.345C118.326 234.055 118.01 233.002 117.378 232.185C116.746 231.343 115.824 230.921 114.613 230.921H111.887V239.888ZM111.887 220.414H114.376C115.403 220.414 116.153 220.032 116.627 219.268C117.128 218.478 117.378 217.398 117.378 216.029C117.378 214.686 117.128 213.632 116.627 212.869C116.153 212.105 115.403 211.723 114.376 211.723H111.887V220.414ZM143.923 254.148V196.633H175.564C181.463 196.633 186.322 198.45 190.141 202.085C193.959 205.719 195.869 210.525 195.869 216.503C195.869 222.744 193.775 227.84 189.588 231.79C185.401 235.714 180.621 237.676 175.248 237.676H167.032V254.148H143.923ZM167.032 223.534H169.284C170.469 223.534 171.298 223.034 171.772 222.033C172.246 221.033 172.496 219.703 172.523 218.044C172.523 216.384 172.273 215.002 171.772 213.896C171.298 212.79 170.469 212.237 169.284 212.237H167.032V223.534ZM173.392 254.148L165.926 230.605L185.677 224.166L198.397 254.148H173.392ZM196.027 254.148L214.83 196.633H239.676L257.768 254.148H235.173L227.352 224.877C227.062 223.824 226.825 222.902 226.641 222.112C226.483 221.296 226.377 220.795 226.325 220.611H226.246C226.219 220.795 226.114 221.283 225.93 222.073C225.745 222.863 225.535 223.784 225.298 224.838L218.227 254.148H196.027ZM209.734 247.552L212.38 233.133H240.585L243.548 247.552H209.734ZM258.795 254.148V196.633H281.549L286.921 214.251C287.158 215.12 287.434 216.108 287.75 217.214C288.066 218.294 288.317 219.281 288.501 220.177H288.738C288.685 219.255 288.672 218.32 288.699 217.372C288.725 216.424 288.738 215.502 288.738 214.607V196.633H308.015V254.148H285.894L279.771 236.175C279.508 235.359 279.218 234.49 278.902 233.568C278.612 232.62 278.375 231.711 278.191 230.842H277.954C278.033 231.738 278.072 232.514 278.072 233.173C278.072 233.805 278.072 234.582 278.072 235.503V254.148H258.795ZM310.109 214.528V196.633H361.224V214.528H347.438V254.148H323.974V214.528H310.109ZM363.713 254.148V196.633H408.666V214.528H385.755V217.806H405.546V233.133H385.755V237.005H409.417V254.148H363.713ZM411.155 238.743V235.069H431.894V236.451C431.867 237.874 432.183 238.914 432.842 239.572C433.526 240.231 434.488 240.56 435.725 240.56C436.7 240.56 437.477 240.349 438.056 239.928C438.662 239.506 438.965 238.874 438.965 238.032C438.965 237.136 438.635 236.438 437.977 235.938C437.319 235.438 434.777 234.503 430.353 233.133C424.138 231.185 419.437 228.88 416.251 226.22C413.091 223.534 411.511 219.584 411.511 214.37C411.511 208.392 413.696 203.823 418.068 200.663C422.466 197.476 428.141 195.883 435.093 195.883C442.098 195.883 447.813 197.226 452.237 199.912C456.661 202.598 458.874 206.443 458.874 211.447V214.488H438.53V213.54C438.53 212.645 438.267 211.96 437.74 211.486C437.24 211.012 436.529 210.775 435.607 210.775C434.606 210.775 433.895 210.946 433.474 211.289C433.079 211.631 432.881 212.092 432.881 212.671C432.881 213.277 433.197 213.738 433.829 214.054C434.488 214.343 437.437 215.199 442.678 216.621C448.103 218.07 452.382 220.203 455.516 223.021C458.676 225.839 460.256 230.013 460.256 235.543C460.256 241.811 458.005 246.617 453.501 249.961C448.998 253.306 443.191 254.978 436.081 254.978C428.997 254.978 423.072 253.609 418.305 250.87C413.538 248.131 411.155 244.089 411.155 238.743Z" fill="#F15025"/>
</svg>
