<svg width="629" height="462" viewBox="0 0 629 462" fill="none" xmlns="http://www.w3.org/2000/svg">
<path d="M3.92905 33.0585L3.21355 12.0228V1.33807H27.3974V12.0228L26.6819 33.0585H3.92905ZM30.6887 33.0585L30.0209 12.0228V1.33807H54.157V12.0228L53.3938 33.0585H30.6887ZM59.1178 70.7891V1.33807H87.4038V48.8948H110.681V70.7891H59.1178ZM111.445 70.7891L133.959 1.33807H164.296L185.904 70.7891H158.381L149.223 35.9205C148.873 34.6167 148.587 33.4878 148.364 32.5338C148.173 31.548 148.062 30.9597 148.03 30.7689H147.935C147.903 30.9597 147.776 31.5321 147.553 32.4861C147.331 33.4401 147.076 34.569 146.79 35.8728L138.586 70.7891H111.445ZM127.901 63.0617L131.049 45.4604H165.345L168.923 63.0617H127.901ZM184.425 52.2338V47.75H209.611V49.4195C209.579 51.0731 209.961 52.2974 210.756 53.0924C211.551 53.8556 212.664 54.2372 214.095 54.2372C215.208 54.2372 216.098 53.9987 216.766 53.5217C217.434 53.0129 217.768 52.2656 217.768 51.2798C217.768 50.2622 217.37 49.4672 216.575 48.8948C215.812 48.3224 212.791 47.1935 207.512 45.5081C200.007 43.1231 194.347 40.3248 190.531 37.113C186.715 33.8694 184.807 29.1153 184.807 22.8507C184.807 15.6003 187.462 10.0671 192.773 6.25116C198.083 2.40337 204.92 0.479473 213.284 0.479473C221.743 0.479473 228.643 2.08537 233.985 5.29716C239.328 8.50895 241.999 13.1199 241.999 19.1301V22.8507H217.291V21.7536C217.291 20.7042 216.988 19.9251 216.384 19.4163C215.812 18.8757 214.985 18.6054 213.904 18.6054C212.791 18.6054 211.996 18.8121 211.519 19.2255C211.074 19.6071 210.851 20.1159 210.851 20.7519C210.851 21.4197 211.217 21.9444 211.948 22.326C212.711 22.6758 216.273 23.7093 222.633 25.4265C229.152 27.1755 234.288 29.7513 238.04 33.1539C241.824 36.5247 243.716 41.5649 243.716 48.2747C243.716 55.8113 240.981 61.6148 235.512 65.6852C230.074 69.7238 223.078 71.7431 214.524 71.7431C205.97 71.7431 198.815 70.1054 193.059 66.83C187.303 63.5546 184.425 58.6892 184.425 52.2338ZM2.45036 148.789V79.3381H42.4705L48.1945 102.473C48.4489 103.585 48.6874 104.667 48.91 105.716C49.1644 106.765 49.4029 107.878 49.6255 109.055H49.8163C50.0389 107.878 50.2615 106.765 50.4841 105.716C50.7385 104.667 50.9929 103.585 51.2473 102.473L57.0667 79.3381H96.9438V148.789H69.1825V122.22C69.1825 121.139 69.1825 119.931 69.1825 118.595C69.1825 117.259 69.2302 116.051 69.3256 114.97H69.0394C68.8486 116.115 68.626 117.339 68.3716 118.643C68.149 119.915 67.9264 121.107 67.7038 122.22L61.9798 148.789H36.6512L30.8318 122.22C30.6092 121.107 30.3707 119.899 30.1163 118.595C29.8619 117.259 29.6552 116.051 29.4962 114.97H29.1623C29.2577 116.051 29.3213 117.259 29.3531 118.595C29.3849 119.931 29.4008 121.139 29.4008 122.22V148.789H2.45036ZM98.0886 148.789L120.603 79.3381H150.94L172.548 148.789H145.025L135.867 113.92C135.517 112.617 135.231 111.488 135.008 110.534C134.817 109.548 134.706 108.96 134.674 108.769H134.579C134.547 108.96 134.42 109.532 134.197 110.486C133.975 111.44 133.72 112.569 133.434 113.873L125.23 148.789H98.0886ZM114.545 141.062L117.693 123.46H151.989L155.567 141.062H114.545ZM173.693 148.789V79.3381H212.33C219.389 79.3381 225.209 81.5482 229.788 85.9684C234.399 90.3885 236.704 96.1761 236.704 103.331C236.704 110.868 234.176 117.037 229.12 121.839C224.064 126.609 218.34 128.994 211.948 128.994H201.979V148.789H173.693ZM201.979 111.822H204.507C205.811 111.822 206.733 111.217 207.274 110.009C207.846 108.801 208.132 107.227 208.132 105.287C208.132 103.347 207.846 101.725 207.274 100.421C206.733 99.0858 205.811 98.418 204.507 98.418H201.979V111.822ZM209.229 148.789L200.5 120.551L224.445 112.394L239.757 148.789H209.229ZM239.185 115.924V112.203C239.185 100.024 242.19 91.3584 248.2 86.2068C254.21 81.0235 262.144 78.4318 272.002 78.4318C281.161 78.4318 288.411 80.3716 293.753 84.2512C299.096 88.0989 301.767 94.3953 301.767 103.14V110.248H275.437V100.088C275.437 99.1653 275.182 98.418 274.673 97.8456C274.196 97.2732 273.513 96.987 272.622 96.987C271.637 96.987 270.857 97.3845 270.285 98.1795C269.744 98.9745 269.474 100.437 269.474 102.568V125.607C269.474 127.928 269.744 129.534 270.285 130.425C270.826 131.283 271.605 131.713 272.622 131.713C273.608 131.713 274.324 131.283 274.769 130.425C275.214 129.534 275.437 128.008 275.437 125.845V118.357H301.767V126.752C301.767 134.161 299.096 139.837 293.753 143.781C288.411 147.724 281.161 149.695 272.002 149.695C262.017 149.695 254.051 147.056 248.105 141.777C242.158 136.498 239.185 127.881 239.185 115.924ZM299.191 148.789L321.706 79.3381H352.043L373.651 148.789H346.128L336.969 113.92C336.62 112.617 336.333 111.488 336.111 110.534C335.92 109.548 335.809 108.96 335.777 108.769H335.682C335.65 108.96 335.523 109.532 335.3 110.486C335.077 111.44 334.823 112.569 334.537 113.873L326.332 148.789H299.191ZM315.648 141.062L318.796 123.46H353.092L356.67 141.062H315.648ZM372.172 130.234V125.75H397.357V127.42C397.326 129.073 397.707 130.297 398.502 131.092C399.297 131.856 400.41 132.237 401.841 132.237C402.954 132.237 403.845 131.999 404.512 131.522C405.18 131.013 405.514 130.266 405.514 129.28C405.514 128.262 405.117 127.467 404.322 126.895C403.558 126.322 400.537 125.194 395.259 123.508C387.754 121.123 382.094 118.325 378.278 115.113C374.462 111.869 372.554 107.115 372.554 100.851C372.554 93.6003 375.209 88.0671 380.519 84.2512C385.83 80.4034 392.667 78.4795 401.03 78.4795C409.489 78.4795 416.39 80.0854 421.732 83.2972C427.075 86.5089 429.746 91.1199 429.746 97.1301V100.851H405.037V99.7536C405.037 98.7042 404.735 97.9251 404.131 97.4163C403.558 96.8757 402.732 96.6054 401.65 96.6054C400.537 96.6054 399.742 96.8121 399.265 97.2255C398.82 97.6071 398.598 98.1159 398.598 98.7519C398.598 99.4197 398.963 99.9444 399.695 100.326C400.458 100.676 404.02 101.709 410.38 103.426C416.899 105.175 422.034 107.751 425.787 111.154C429.571 114.525 431.463 119.565 431.463 126.275C431.463 133.811 428.728 139.615 423.259 143.685C417.821 147.724 410.825 149.743 402.271 149.743C393.716 149.743 386.561 148.105 380.806 144.83C375.05 141.555 372.172 136.689 372.172 130.234ZM1.63946 193.924V190.203C1.63946 178.469 4.73995 169.899 10.9409 164.493C17.1419 159.087 25.0124 156.384 34.5524 156.384C44.0923 156.384 51.9628 159.087 58.1638 164.493C64.3648 169.899 67.4653 178.469 67.4653 190.203V193.924C67.4653 205.658 64.3648 214.228 58.1638 219.634C51.9628 225.04 44.0923 227.743 34.5524 227.743C25.0124 227.743 17.1419 225.04 10.9409 219.634C4.73995 214.228 1.63946 205.658 1.63946 193.924ZM31.1657 203.607C31.1657 205.801 31.4201 207.359 31.9289 208.282C32.4695 209.204 33.344 209.665 34.5524 209.665C35.729 209.665 36.5717 209.204 37.0805 208.282C37.6211 207.359 37.8914 205.801 37.8914 203.607V180.663C37.8914 178.596 37.6211 177.134 37.0805 176.275C36.5717 175.385 35.729 174.939 34.5524 174.939C33.344 174.939 32.4695 175.385 31.9289 176.275C31.4201 177.134 31.1657 178.596 31.1657 180.663V203.607ZM49.6732 239.382L29.3054 219.252L43.7584 202.987L64.2694 223.068L49.6732 239.382ZM70.8043 199.743V157.338H98.9949V204.466C98.9949 206.469 99.1698 207.82 99.5196 208.52C99.8694 209.188 100.458 209.522 101.284 209.522C102.111 209.522 102.7 209.188 103.049 208.52C103.399 207.82 103.574 206.469 103.574 204.466V157.338H131.86V199.743C131.86 209.283 129.189 216.343 123.846 220.922C118.536 225.469 111.174 227.743 101.761 227.743C91.8399 227.743 84.192 225.469 78.8178 220.922C73.4754 216.343 70.8043 209.283 70.8043 199.743ZM136.01 226.789V157.338H190.483V179.232H162.913V182.857H186.763V201.556H162.913V205.801H191.437V226.789H136.01ZM221.44 208.234V203.75H246.626V205.42C246.594 207.073 246.976 208.297 247.771 209.092C248.566 209.856 249.679 210.237 251.11 210.237C252.223 210.237 253.113 209.999 253.781 209.522C254.449 209.013 254.783 208.266 254.783 207.28C254.783 206.262 254.385 205.467 253.59 204.895C252.827 204.322 249.806 203.194 244.527 201.508C237.022 199.123 231.362 196.325 227.546 193.113C223.73 189.869 221.822 185.115 221.822 178.851C221.822 171.6 224.477 166.067 229.788 162.251C235.098 158.403 241.935 156.479 250.299 156.479C258.758 156.479 265.658 158.085 271.001 161.297C276.343 164.509 279.014 169.12 279.014 175.13V178.851H254.306V177.754C254.306 176.704 254.004 175.925 253.399 175.416C252.827 174.876 252 174.605 250.919 174.605C249.806 174.605 249.011 174.812 248.534 175.226C248.089 175.607 247.866 176.116 247.866 176.752C247.866 177.42 248.232 177.944 248.963 178.326C249.726 178.676 253.288 179.709 259.648 181.426C266.167 183.175 271.303 185.751 275.055 189.154C278.839 192.525 280.731 197.565 280.731 204.275C280.731 211.811 277.997 217.615 272.527 221.685C267.089 225.724 260.093 227.743 251.539 227.743C242.985 227.743 235.83 226.105 230.074 222.83C224.318 219.555 221.44 214.689 221.44 208.234ZM283.88 226.789V157.338H338.353V179.232H310.782V182.857H334.632V201.556H310.782V205.801H339.307V226.789H283.88ZM0.303863 286.234V281.75H25.4894V283.42C25.4576 285.073 25.8392 286.297 26.6342 287.092C27.4292 287.856 28.5422 288.237 29.9732 288.237C31.0862 288.237 31.9766 287.999 32.6444 287.522C33.3122 287.013 33.6461 286.266 33.6461 285.28C33.6461 284.262 33.2486 283.467 32.4536 282.895C31.6904 282.322 28.6694 281.194 23.3906 279.508C15.8858 277.123 10.2254 274.325 6.40944 271.113C2.59346 267.869 0.685462 263.115 0.685462 256.851C0.685462 249.6 3.34075 244.067 8.65134 240.251C13.9619 236.403 20.7989 234.479 29.1623 234.479C37.6211 234.479 44.5216 236.085 49.864 239.297C55.2064 242.509 57.8776 247.12 57.8776 253.13V256.851H33.1691V255.754C33.1691 254.704 32.867 253.925 32.2628 253.416C31.6904 252.876 30.8636 252.605 29.7824 252.605C28.6694 252.605 27.8744 252.812 27.3974 253.226C26.9522 253.607 26.7296 254.116 26.7296 254.752C26.7296 255.42 27.0953 255.944 27.8267 256.326C28.5899 256.676 32.1515 257.709 38.5114 259.426C45.0304 261.175 50.1661 263.751 53.9185 267.154C57.7027 270.525 59.5948 275.565 59.5948 282.275C59.5948 289.811 56.86 295.615 51.3904 299.685C45.9526 303.724 38.9566 305.743 30.4025 305.743C21.8483 305.743 14.6933 304.105 8.93754 300.83C3.18175 297.555 0.303863 292.689 0.303863 286.234ZM62.9338 304.789V235.338H91.6491V304.789H62.9338ZM96.0375 304.789V235.338H150.511V257.232H122.94V260.857H146.79V279.556H122.94V283.801H151.465V304.789H96.0375ZM154.613 304.789V235.338H182.374L188.289 255.897C188.575 256.914 188.909 258.107 189.291 259.474C189.672 260.842 189.974 262.05 190.197 263.099H190.483C190.42 262.018 190.404 260.889 190.436 259.713C190.467 258.536 190.483 257.407 190.483 256.326V235.338H214.047V304.789H187.192L180.275 283.801C179.926 282.815 179.576 281.75 179.226 280.605C178.876 279.429 178.59 278.316 178.367 277.266H178.081C178.145 278.347 178.177 279.286 178.177 280.081C178.208 280.844 178.224 281.782 178.224 282.895V304.789H154.613ZM216.48 257.232V235.338H278.299V257.232H261.794V304.789H233.079V257.232H216.48ZM281.113 304.789V235.338H335.586V257.232H308.016V260.857H331.866V279.556H308.016V283.801H336.54V304.789H281.113ZM339.688 304.789V235.338H367.45L373.364 255.897C373.651 256.914 373.985 258.107 374.366 259.474C374.748 260.842 375.05 262.05 375.272 263.099H375.559C375.495 262.018 375.479 260.889 375.511 259.713C375.543 258.536 375.559 257.407 375.559 256.326V235.338H399.122V304.789H372.267L365.351 283.801C365.001 282.815 364.651 281.75 364.301 280.605C363.952 279.429 363.665 278.316 363.443 277.266H363.157C363.22 278.347 363.252 279.286 363.252 280.081C363.284 280.844 363.3 281.782 363.3 282.895V304.789H339.688ZM0.303863 364.234V359.75H25.4894V361.42C25.4576 363.073 25.8392 364.297 26.6342 365.092C27.4292 365.856 28.5422 366.237 29.9732 366.237C31.0862 366.237 31.9766 365.999 32.6444 365.522C33.3122 365.013 33.6461 364.266 33.6461 363.28C33.6461 362.262 33.2486 361.467 32.4536 360.895C31.6904 360.322 28.6694 359.194 23.3906 357.508C15.8858 355.123 10.2254 352.325 6.40944 349.113C2.59346 345.869 0.685462 341.115 0.685462 334.851C0.685462 327.6 3.34075 322.067 8.65134 318.251C13.9619 314.403 20.7989 312.479 29.1623 312.479C37.6211 312.479 44.5216 314.085 49.864 317.297C55.2064 320.509 57.8776 325.12 57.8776 331.13V334.851H33.1691V333.754C33.1691 332.704 32.867 331.925 32.2628 331.416C31.6904 330.876 30.8636 330.605 29.7824 330.605C28.6694 330.605 27.8744 330.812 27.3974 331.226C26.9522 331.607 26.7296 332.116 26.7296 332.752C26.7296 333.42 27.0953 333.944 27.8267 334.326C28.5899 334.676 32.1515 335.709 38.5114 337.426C45.0304 339.175 50.1661 341.751 53.9185 345.154C57.7027 348.525 59.5948 353.565 59.5948 360.275C59.5948 367.811 56.86 373.615 51.3904 377.685C45.9526 381.724 38.9566 383.743 30.4025 383.743C21.8483 383.743 14.6933 382.105 8.93754 378.83C3.18175 375.555 0.303863 370.689 0.303863 364.234ZM61.4551 349.924V346.203C61.4551 334.469 64.5556 325.899 70.7566 320.493C76.9575 315.087 84.8121 312.384 94.3203 312.384C103.892 312.384 111.778 315.087 117.979 320.493C124.18 325.899 127.281 334.469 127.281 346.203V349.924C127.281 361.658 124.18 370.228 117.979 375.634C111.778 381.04 103.892 383.743 94.3203 383.743C84.8121 383.743 76.9575 381.04 70.7566 375.634C64.5556 370.228 61.4551 361.658 61.4551 349.924ZM90.9813 359.655C90.9813 361.817 91.2357 363.359 91.7445 364.282C92.2851 365.204 93.1437 365.665 94.3203 365.665C95.5287 365.665 96.3873 365.204 96.8961 364.282C97.4367 363.359 97.707 361.817 97.707 359.655V336.663C97.707 334.565 97.4367 333.086 96.8961 332.227C96.3873 331.369 95.5287 330.939 94.3203 330.939C93.1437 330.939 92.2851 331.369 91.7445 332.227C91.2357 333.086 90.9813 334.565 90.9813 336.663V359.655ZM130.668 382.789V313.338H158.429L164.344 333.897C164.63 334.914 164.964 336.107 165.345 337.474C165.727 338.842 166.029 340.05 166.252 341.099H166.538C166.474 340.018 166.458 338.889 166.49 337.713C166.522 336.536 166.538 335.407 166.538 334.326V313.338H190.102V382.789H163.247L156.33 361.801C155.98 360.815 155.631 359.75 155.281 358.605C154.931 357.429 154.645 356.316 154.422 355.266H154.136C154.2 356.347 154.231 357.286 154.231 358.081C154.263 358.844 154.279 359.782 154.279 360.895V382.789H130.668ZM223.396 382.789V313.338H251.682V360.895H274.96V382.789H223.396ZM275.723 382.789L298.237 313.338H328.574L350.182 382.789H322.66L313.501 347.92C313.151 346.617 312.865 345.488 312.643 344.534C312.452 343.548 312.34 342.96 312.309 342.769H312.213C312.181 342.96 312.054 343.532 311.832 344.486C311.609 345.44 311.355 346.569 311.068 347.873L302.864 382.789H275.723ZM292.179 375.062L295.327 357.46H329.624L333.201 375.062H292.179ZM348.704 364.234V359.75H373.889V361.42C373.857 363.073 374.239 364.297 375.034 365.092C375.829 365.856 376.942 366.237 378.373 366.237C379.486 366.237 380.376 365.999 381.044 365.522C381.712 365.013 382.046 364.266 382.046 363.28C382.046 362.262 381.648 361.467 380.853 360.895C380.09 360.322 377.069 359.194 371.79 357.508C364.286 355.123 358.625 352.325 354.809 349.113C350.993 345.869 349.085 341.115 349.085 334.851C349.085 327.6 351.741 322.067 357.051 318.251C362.362 314.403 369.199 312.479 377.562 312.479C386.021 312.479 392.921 314.085 398.264 317.297C403.606 320.509 406.277 325.12 406.277 331.13V334.851H381.569V333.754C381.569 332.704 381.267 331.925 380.663 331.416C380.09 330.876 379.263 330.605 378.182 330.605C377.069 330.605 376.274 330.812 375.797 331.226C375.352 331.607 375.129 332.116 375.129 332.752C375.129 333.42 375.495 333.944 376.226 334.326C376.99 334.676 380.551 335.709 386.911 337.426C393.43 339.175 398.566 341.751 402.318 345.154C406.102 348.525 407.995 353.565 407.995 360.275C407.995 367.811 405.26 373.615 399.79 377.685C394.352 381.724 387.356 383.743 378.802 383.743C370.248 383.743 363.093 382.105 357.337 378.83C351.582 375.555 348.704 370.689 348.704 364.234ZM438.856 349.924V346.203C438.856 334.469 441.957 325.899 448.158 320.493C454.359 315.087 462.229 312.384 471.769 312.384C481.309 312.384 489.18 315.087 495.381 320.493C501.582 325.899 504.682 334.469 504.682 346.203V349.924C504.682 361.658 501.582 370.228 495.381 375.634C489.18 381.04 481.309 383.743 471.769 383.743C462.229 383.743 454.359 381.04 448.158 375.634C441.957 370.228 438.856 361.658 438.856 349.924ZM468.383 359.607C468.383 361.801 468.637 363.359 469.146 364.282C469.686 365.204 470.561 365.665 471.769 365.665C472.946 365.665 473.789 365.204 474.297 364.282C474.838 363.359 475.108 361.801 475.108 359.607V336.663C475.108 334.596 474.838 333.134 474.297 332.275C473.789 331.385 472.946 330.939 471.769 330.939C470.561 330.939 469.686 331.385 469.146 332.275C468.637 333.134 468.383 334.596 468.383 336.663V359.607ZM486.89 395.382L466.522 375.252L480.975 358.987L501.486 379.068L486.89 395.382ZM508.021 355.743V313.338H536.212V360.466C536.212 362.469 536.387 363.82 536.736 364.52C537.086 365.188 537.675 365.522 538.501 365.522C539.328 365.522 539.916 365.188 540.266 364.52C540.616 363.82 540.791 362.469 540.791 360.466V313.338H569.077V355.743C569.077 365.283 566.406 372.343 561.063 376.922C555.753 381.469 548.391 383.743 538.978 383.743C529.057 383.743 521.409 381.469 516.035 376.922C510.692 372.343 508.021 365.283 508.021 355.743ZM573.227 382.789V313.338H627.7V335.232H600.13V338.857H623.979V357.556H600.13V361.801H628.654V382.789H573.227ZM1.63946 427.924V424.203C1.63946 412.024 4.64455 403.358 10.6547 398.207C16.6649 393.023 24.599 390.432 34.457 390.432C43.6153 390.432 50.8657 392.372 56.2081 396.251C61.5505 400.099 64.2217 406.395 64.2217 415.14V422.248H37.8914V412.088C37.8914 411.165 37.637 410.418 37.1282 409.846C36.6512 409.273 35.9675 408.987 35.0771 408.987C34.0913 408.987 33.3122 409.385 32.7398 410.18C32.1992 410.975 31.9289 412.437 31.9289 414.568V437.607C31.9289 439.928 32.1992 441.534 32.7398 442.425C33.2804 443.283 34.0595 443.713 35.0771 443.713C36.0629 443.713 36.7784 443.283 37.2236 442.425C37.6688 441.534 37.8914 440.008 37.8914 437.845V430.357H64.2217V438.752C64.2217 446.161 61.5505 451.837 56.2081 455.781C50.8657 459.724 43.6153 461.695 34.457 461.695C24.4718 461.695 16.5059 459.056 10.5593 453.777C4.61275 448.498 1.63946 439.881 1.63946 427.924ZM66.7021 427.924V424.203C66.7021 412.469 69.8026 403.899 76.0035 398.493C82.2045 393.087 90.0591 390.384 99.5673 390.384C109.139 390.384 117.025 393.087 123.226 398.493C129.427 403.899 132.528 412.469 132.528 424.203V427.924C132.528 439.658 129.427 448.228 123.226 453.634C117.025 459.04 109.139 461.743 99.5673 461.743C90.0591 461.743 82.2045 459.04 76.0035 453.634C69.8026 448.228 66.7021 439.658 66.7021 427.924ZM96.2283 437.655C96.2283 439.817 96.4827 441.359 96.9915 442.282C97.5321 443.204 98.3907 443.665 99.5673 443.665C100.776 443.665 101.634 443.204 102.143 442.282C102.684 441.359 102.954 439.817 102.954 437.655V414.663C102.954 412.565 102.684 411.086 102.143 410.227C101.634 409.369 100.776 408.939 99.5673 408.939C98.3907 408.939 97.5321 409.369 96.9915 410.227C96.4827 411.086 96.2283 412.565 96.2283 414.663V437.655ZM135.915 460.789V391.338H163.676L169.591 411.897C169.877 412.914 170.211 414.107 170.592 415.474C170.974 416.842 171.276 418.05 171.499 419.099H171.785C171.721 418.018 171.705 416.889 171.737 415.713C171.769 414.536 171.785 413.407 171.785 412.326V391.338H195.349V460.789H168.494L161.577 439.801C161.227 438.815 160.877 437.75 160.528 436.605C160.178 435.429 159.892 434.316 159.669 433.266H159.383C159.446 434.347 159.478 435.286 159.478 436.081C159.51 436.844 159.526 437.782 159.526 438.895V460.789H135.915ZM199.642 460.789V391.338H254.115V413.232H226.544V416.857H250.394V435.556H226.544V439.801H255.069V460.789H199.642ZM256.929 427.924V424.203C256.929 412.024 259.934 403.358 265.944 398.207C271.955 393.023 279.889 390.432 289.747 390.432C298.905 390.432 306.155 392.372 311.498 396.251C316.84 400.099 319.511 406.395 319.511 415.14V422.248H293.181V412.088C293.181 411.165 292.927 410.418 292.418 409.846C291.941 409.273 291.257 408.987 290.367 408.987C289.381 408.987 288.602 409.385 288.029 410.18C287.489 410.975 287.219 412.437 287.219 414.568V437.607C287.219 439.928 287.489 441.534 288.029 442.425C288.57 443.283 289.349 443.713 290.367 443.713C291.352 443.713 292.068 443.283 292.513 442.425C292.958 441.534 293.181 440.008 293.181 437.845V430.357H319.511V438.752C319.511 446.161 316.84 451.837 311.498 455.781C306.155 459.724 298.905 461.695 289.747 461.695C279.761 461.695 271.796 459.056 265.849 453.777C259.902 448.498 256.929 439.881 256.929 427.924ZM320.751 413.232V391.338H382.571V413.232H366.066V460.789H337.351V413.232H320.751ZM375.225 460.789L397.739 391.338H428.076L449.684 460.789H422.161L413.003 425.92C412.653 424.617 412.367 423.488 412.144 422.534C411.954 421.548 411.842 420.96 411.811 420.769H411.715C411.683 420.96 411.556 421.532 411.334 422.486C411.111 423.44 410.857 424.569 410.57 425.873L402.366 460.789H375.225ZM391.681 453.062L394.829 435.46H429.126L432.703 453.062H391.681ZM450.829 460.789V391.338H478.59L484.505 411.897C484.791 412.914 485.125 414.107 485.507 415.474C485.888 416.842 486.191 418.05 486.413 419.099H486.699C486.636 418.018 486.62 416.889 486.652 415.713C486.683 414.536 486.699 413.407 486.699 412.326V391.338H510.263V460.789H483.408L476.492 439.801C476.142 438.815 475.792 437.75 475.442 436.605C475.092 435.429 474.806 434.316 474.584 433.266H474.297C474.361 434.347 474.393 435.286 474.393 436.081C474.425 436.844 474.44 437.782 474.44 438.895V460.789H450.829ZM542.985 391.243V399.352C542.985 404.249 541.745 408.605 539.265 412.421C536.784 416.237 532.777 419.958 527.244 423.583L511.646 412.755C512.759 411.356 513.57 409.607 514.079 407.508C514.588 405.378 514.842 402.643 514.842 399.304V391.243H542.985ZM574.324 391.243V399.352C574.324 404.249 573.068 408.605 570.556 412.421C568.075 416.237 564.068 419.958 558.535 423.583L542.937 412.755C544.05 411.356 544.861 409.607 545.37 407.508C545.879 405.378 546.133 402.643 546.133 399.304V391.243H574.324Z" fill="#F15025"/>
</svg>
