<svg width="840" height="381" viewBox="0 0 840 381" fill="none" xmlns="http://www.w3.org/2000/svg">
<path d="M0.369321 29.5141V2.01118H77.5321V29.5141H57.0385V88.5H20.9817V29.5141H0.369321ZM80.324 54.8193V2.01118H115.609V60.8188C115.609 63.1949 115.807 64.7987 116.203 65.6304C116.599 66.462 117.272 66.8778 118.222 66.8778C119.252 66.8778 119.945 66.462 120.301 65.6304C120.697 64.7987 120.895 63.1949 120.895 60.8188V2.01118H156.417V54.8193C156.417 66.6996 153.091 75.491 146.438 81.1936C139.825 86.8566 130.637 89.688 118.876 89.688C106.48 89.688 96.9564 86.8566 90.3034 81.1936C83.6505 75.491 80.324 66.6996 80.324 54.8193ZM197.583 88.5V2.01118H247.005C256.509 2.01118 263.895 5.06046 269.162 11.159C274.468 17.218 277.122 25.2174 277.122 35.1573C277.122 45.0972 274.587 53.057 269.518 59.0368C264.449 64.9769 256.688 67.947 246.233 67.947H232.986V88.5H197.583ZM232.986 45.315H236.966C238.748 45.315 239.976 44.424 240.649 42.6419C241.362 40.8203 241.718 38.6224 241.718 36.0483C241.718 33.2763 241.362 30.9992 240.649 29.2171C239.976 27.4351 238.748 26.5441 236.966 26.5441H232.986V45.315ZM281.22 88.5V2.01118H329.633C338.345 2.01118 345.552 4.76345 351.255 10.268C356.997 15.7726 359.868 22.9998 359.868 31.9496C359.868 41.2955 356.72 48.9583 350.423 54.9381C344.127 60.9178 337.018 63.9077 329.098 63.9077H316.624V88.5H281.22ZM316.624 42.4043H319.653C321.277 42.4043 322.406 41.6717 323.039 40.2064C323.712 38.7016 324.049 36.7611 324.049 34.3851C324.049 32.009 323.712 30.0092 323.039 28.3855C322.406 26.7223 321.277 25.8906 319.653 25.8906H316.624V42.4043ZM325.415 88.5L314.723 53.3936L344.602 43.0577L363.67 88.5H325.415ZM362.898 47.5723V42.9389C362.898 28.3261 366.759 17.6536 374.481 10.9214C382.243 4.18924 392.044 0.823143 403.885 0.823143C415.765 0.823143 425.566 4.18924 433.289 10.9214C441.011 17.6536 444.872 28.3261 444.872 42.9389V47.5723C444.872 62.1851 441.011 72.8576 433.289 79.5898C425.566 86.3219 415.765 89.688 403.885 89.688C392.044 89.688 382.243 86.3219 374.481 79.5898C366.759 72.8576 362.898 62.1851 362.898 47.5723ZM399.964 59.8684C399.964 62.4821 400.261 64.3433 400.855 65.4522C401.449 66.5214 402.459 67.056 403.885 67.056C405.31 67.056 406.32 66.5214 406.914 65.4522C407.508 64.3433 407.805 62.4821 407.805 59.8684V30.8804C407.805 28.3855 407.508 26.6233 406.914 25.5936C406.32 24.564 405.31 24.0492 403.885 24.0492C402.459 24.0492 401.449 24.564 400.855 25.5936C400.261 26.6233 399.964 28.3855 399.964 30.8804V59.8684ZM463.524 88.5V56.0667L436.081 2.01118H474.157L482.473 18.9407C482.79 19.5347 483.067 20.0891 483.305 20.6039C483.542 21.0791 483.76 21.5939 483.958 22.1483H484.136C484.334 21.5939 484.532 21.0791 484.73 20.6039C484.968 20.0891 485.226 19.5347 485.503 18.9407L493.403 2.01118H526.906L499.522 56.0667V88.5H463.524ZM528.569 88.5V2.01118H596.524V29.5141H562.25V33.7317H591.891V57.1953H562.25V62.1851H597.712V88.5H528.569ZM599.91 47.5723V42.9389C599.91 27.7321 603.653 16.921 611.137 10.5056C618.661 4.09023 628.542 0.882544 640.779 0.882544C652.184 0.882544 661.213 3.27841 667.866 8.07015C674.519 12.8619 677.845 20.7029 677.845 31.5932V40.6223H644.877V27.7321C644.877 26.6629 644.58 25.7916 643.986 25.1184C643.432 24.4452 642.64 24.1086 641.61 24.1086C640.462 24.1086 639.551 24.5838 638.878 25.5342C638.244 26.4847 637.927 28.2271 637.927 30.7616V59.809C637.927 62.6207 638.244 64.5413 638.878 65.571C639.511 66.6006 640.422 67.1154 641.61 67.1154C642.759 67.1154 643.59 66.5808 644.105 65.5116C644.62 64.4423 644.877 62.5811 644.877 59.9278V50.4829H677.845V61.1158C677.885 70.3033 674.558 77.3523 667.866 82.2628C661.213 87.1734 652.184 89.6286 640.779 89.6286C628.384 89.6286 618.463 86.3615 611.018 79.8274C603.613 73.2536 599.91 62.5019 599.91 47.5723ZM679.449 29.5141V2.01118H756.612V29.5141H736.118V88.5H700.062V29.5141H679.449ZM757.206 47.5723V42.9389C757.206 28.3261 761.067 17.6536 768.789 10.9214C776.551 4.18924 786.352 0.823143 798.193 0.823143C810.073 0.823143 819.875 4.18924 827.597 10.9214C835.319 17.6536 839.18 28.3261 839.18 42.9389V47.5723C839.18 62.1851 835.319 72.8576 827.597 79.5898C819.875 86.3219 810.073 89.688 798.193 89.688C786.352 89.688 776.551 86.3219 768.789 79.5898C761.067 72.8576 757.206 62.1851 757.206 47.5723ZM794.273 59.8684C794.273 62.4821 794.57 64.3433 795.164 65.4522C795.758 66.5214 796.767 67.056 798.193 67.056C799.619 67.056 800.629 66.5214 801.223 65.4522C801.817 64.3433 802.114 62.4821 802.114 59.8684V30.8804C802.114 28.3855 801.817 26.6233 801.223 25.5936C800.629 24.564 799.619 24.0492 798.193 24.0492C796.767 24.0492 795.758 24.564 795.164 25.5936C794.57 26.6233 794.273 28.3855 794.273 30.8804V59.8684ZM127.489 185.5V99.0112H162.179L169.248 124.079C169.605 125.386 170.02 126.91 170.496 128.653C170.971 130.355 171.347 131.86 171.624 133.167H171.981C171.902 131.821 171.882 130.415 171.921 128.95C171.961 127.445 171.981 126.019 171.981 124.673V99.0112H201.563V185.5H167.941L159.625 159.779C159.229 158.551 158.794 157.225 158.318 155.799C157.883 154.334 157.526 152.948 157.249 151.641H156.893C157.012 152.987 157.071 154.156 157.071 155.146C157.071 156.096 157.071 157.264 157.071 158.65V185.5H127.489ZM206.612 151.819V99.0112H241.896V157.819C241.896 160.195 242.094 161.799 242.491 162.63C242.887 163.462 243.56 163.878 244.51 163.878C245.54 163.878 246.233 163.462 246.589 162.63C246.985 161.799 247.183 160.195 247.183 157.819V99.0112H282.705V151.819C282.705 163.7 279.379 172.491 272.726 178.194C266.113 183.857 256.925 186.688 245.164 186.688C232.768 186.688 223.244 183.857 216.591 178.194C209.938 172.491 206.612 163.7 206.612 151.819ZM287.636 185.5V99.0112H355.591V126.514H321.317V130.732H350.958V154.195H321.317V159.185H356.779V185.5H287.636ZM359.096 162.452V156.75H390.638V158.829C390.599 160.888 391.054 162.413 392.004 163.403C392.955 164.353 394.301 164.828 396.044 164.828C397.39 164.828 398.459 164.531 399.251 163.937C400.083 163.304 400.499 162.373 400.499 161.145C400.499 159.957 400.024 159.007 399.073 158.294C398.162 157.581 394.42 156.175 387.846 154.077C378.461 151.106 371.392 147.622 366.64 143.622C361.927 139.583 359.571 133.642 359.571 125.801C359.571 116.812 362.878 109.921 369.491 105.13C376.105 100.338 384.619 97.9419 395.034 97.9419C405.568 97.9419 414.161 99.9418 420.814 103.942C427.507 107.941 430.853 113.664 430.853 121.109V125.801H399.905V124.435C399.905 123.168 399.548 122.217 398.836 121.584C398.123 120.95 397.133 120.633 395.866 120.633C394.519 120.633 393.569 120.871 393.014 121.346C392.46 121.821 392.183 122.435 392.183 123.188C392.183 124.019 392.638 124.673 393.549 125.148C394.46 125.584 398.875 126.851 406.796 128.95C414.914 131.128 421.309 134.335 425.982 138.573C430.655 142.81 432.992 149.087 432.992 157.403C432.992 166.828 429.586 174.075 422.775 179.144C416.003 184.173 407.291 186.688 396.638 186.688C385.985 186.688 377.055 184.649 369.848 180.57C362.68 176.491 359.096 170.452 359.096 162.452ZM433.883 126.514V99.0112H511.045V126.514H490.552V185.5H454.495V126.514H433.883ZM514.431 185.5V99.0112H562.844C571.556 99.0112 578.763 101.763 584.466 107.268C590.208 112.773 593.079 120 593.079 128.95C593.079 138.295 589.931 145.958 583.634 151.938C577.338 157.918 570.229 160.908 562.309 160.908H549.835V185.5H514.431ZM549.835 139.404H552.864C554.488 139.404 555.616 138.672 556.25 137.206C556.923 135.702 557.26 133.761 557.26 131.385C557.26 129.009 556.923 127.009 556.25 125.386C555.616 123.722 554.488 122.891 552.864 122.891H549.835V139.404ZM558.626 185.5L547.934 150.394L577.813 140.058L596.881 185.5H558.626ZM596.109 144.572V139.939C596.109 125.326 599.97 114.654 607.692 107.921C615.454 101.189 625.255 97.8231 637.096 97.8231C648.976 97.8231 658.777 101.189 666.5 107.921C674.222 114.654 678.083 125.326 678.083 139.939V144.572C678.083 159.185 674.222 169.858 666.5 176.59C658.777 183.322 648.976 186.688 637.096 186.688C625.255 186.688 615.454 183.322 607.692 176.59C599.97 169.858 596.109 159.185 596.109 144.572ZM633.175 156.868C633.175 159.482 633.472 161.343 634.066 162.452C634.66 163.521 635.67 164.056 637.096 164.056C638.521 164.056 639.531 163.521 640.125 162.452C640.719 161.343 641.016 159.482 641.016 156.868V127.88C641.016 125.386 640.719 123.623 640.125 122.594C639.531 121.564 638.521 121.049 637.096 121.049C635.67 121.049 634.66 121.564 634.066 122.594C633.472 123.623 633.175 125.386 633.175 127.88V156.868ZM135.152 282.5V196.011H184.574C194.078 196.011 201.464 199.06 206.731 205.159C212.037 211.218 214.691 219.217 214.691 229.157C214.691 239.097 212.156 247.057 207.087 253.037C202.018 258.977 194.256 261.947 183.802 261.947H170.555V282.5H135.152ZM170.555 239.315H174.535C176.317 239.315 177.545 238.424 178.218 236.642C178.931 234.82 179.287 232.622 179.287 230.048C179.287 227.276 178.931 224.999 178.218 223.217C177.545 221.435 176.317 220.544 174.535 220.544H170.555V239.315ZM218.789 282.5V196.011H267.202C275.914 196.011 283.121 198.763 288.824 204.268C294.566 209.773 297.437 217 297.437 225.95C297.437 235.295 294.289 242.958 287.992 248.938C281.696 254.918 274.587 257.908 266.667 257.908H254.193V282.5H218.789ZM254.193 236.404H257.222C258.846 236.404 259.974 235.672 260.608 234.206C261.281 232.702 261.618 230.761 261.618 228.385C261.618 226.009 261.281 224.009 260.608 222.386C259.974 220.722 258.846 219.891 257.222 219.891H254.193V236.404ZM262.984 282.5L252.292 247.394L282.171 237.058L301.239 282.5H262.984ZM300.467 241.572V236.939C300.467 222.326 304.328 211.654 312.05 204.921C319.812 198.189 329.613 194.823 341.454 194.823C353.334 194.823 363.135 198.189 370.858 204.921C378.58 211.654 382.441 222.326 382.441 236.939V241.572C382.441 256.185 378.58 266.858 370.858 273.59C363.135 280.322 353.334 283.688 341.454 283.688C329.613 283.688 319.812 280.322 312.05 273.59C304.328 266.858 300.467 256.185 300.467 241.572ZM337.533 253.868C337.533 256.482 337.83 258.343 338.424 259.452C339.018 260.521 340.028 261.056 341.454 261.056C342.879 261.056 343.889 260.521 344.483 259.452C345.077 258.343 345.374 256.482 345.374 253.868V224.88C345.374 222.386 345.077 220.623 344.483 219.594C343.889 218.564 342.879 218.049 341.454 218.049C340.028 218.049 339.018 218.564 338.424 219.594C337.83 220.623 337.533 222.386 337.533 224.88V253.868ZM373.352 282.5L404.36 226.068H412.32L428.002 196.011H459.544L430.378 250.007H422.418L404.895 282.5H373.352ZM374.778 196.011H413.211L429.131 226.068L459.841 282.5H421.349L403.113 248.403H403.053L374.778 196.011ZM461.386 282.5V196.011H497.383V282.5H461.386ZM502.61 282.5V196.011H552.864L559.814 224.405C560.131 225.791 560.428 227.138 560.705 228.444C561.022 229.751 561.319 231.137 561.596 232.603H561.834C562.111 231.137 562.388 229.751 562.665 228.444C562.982 227.138 563.299 225.791 563.616 224.405L570.625 196.011H620.701V282.5H585.891V249.77C585.891 248.423 585.891 246.918 585.891 245.255C585.891 243.592 585.951 242.087 586.07 240.741H585.713C585.476 242.166 585.198 243.691 584.882 245.315C584.604 246.899 584.327 248.384 584.05 249.77L577.1 282.5H545.32L538.251 249.77C537.974 248.384 537.677 246.879 537.36 245.255C537.044 243.592 536.786 242.087 536.588 240.741H536.232C536.311 242.087 536.37 243.592 536.41 245.255C536.449 246.918 536.469 248.423 536.469 249.77V282.5H502.61ZM624.681 241.572V236.939C624.681 222.326 628.542 211.654 636.264 204.921C644.026 198.189 653.827 194.823 665.668 194.823C677.548 194.823 687.35 198.189 695.072 204.921C702.794 211.654 706.655 222.326 706.655 236.939V241.572C706.655 256.185 702.794 266.858 695.072 273.59C687.35 280.322 677.548 283.688 665.668 283.688C653.827 283.688 644.026 280.322 636.264 273.59C628.542 266.858 624.681 256.185 624.681 241.572ZM661.747 253.868C661.747 256.482 662.044 258.343 662.639 259.452C663.233 260.521 664.242 261.056 665.668 261.056C667.094 261.056 668.103 260.521 668.697 259.452C669.291 258.343 669.589 256.482 669.589 253.868V224.88C669.589 222.386 669.291 220.623 668.697 219.594C668.103 218.564 667.094 218.049 665.668 218.049C664.242 218.049 663.233 218.564 662.639 219.594C662.044 220.623 661.747 222.386 661.747 224.88V253.868ZM203.404 379.5V293.011H238.808V351.997H267.677V379.5H203.404ZM268.687 379.5L296.665 293.011H334.682L361.413 379.5H326.96L315.792 336.374C315.357 334.751 315 333.345 314.723 332.157C314.485 330.929 314.347 330.216 314.307 330.018H314.188C314.149 330.216 313.99 330.909 313.713 332.097C313.436 333.286 313.119 334.691 312.763 336.315L302.783 379.5H268.687ZM289.121 369.996L293.101 347.958H335.929L340.325 369.996H289.121ZM353.453 320.514V293.011H430.616V320.514H410.122V379.5H374.065V320.514H353.453ZM434.239 379.5V293.011H470.236V379.5H434.239ZM475.464 379.5V293.011H516.629C528.391 293.011 537.459 296.575 543.835 303.703C550.251 310.792 553.458 320.772 553.458 333.642V338.275C553.458 351.106 550.191 361.184 543.657 368.511C537.162 375.837 528.153 379.5 516.629 379.5H475.464ZM509.739 356.333H512.293C514.115 356.333 515.501 355.462 516.451 353.72C517.401 351.977 517.877 348.829 517.877 344.275V328.474C517.877 323.761 517.421 320.732 516.51 319.386C515.639 318.039 514.233 317.366 512.293 317.366H509.739V356.333ZM556.428 338.572V333.939C556.428 319.326 560.289 308.654 568.012 301.921C575.773 295.189 585.575 291.823 597.415 291.823C609.296 291.823 619.097 295.189 626.819 301.921C634.542 308.654 638.403 319.326 638.403 333.939V338.572C638.403 353.185 634.542 363.858 626.819 370.59C619.097 377.322 609.296 380.688 597.415 380.688C585.575 380.688 575.773 377.322 568.012 370.59C560.289 363.858 556.428 353.185 556.428 338.572ZM593.495 350.868C593.495 353.482 593.792 355.343 594.386 356.452C594.98 357.521 595.99 358.056 597.415 358.056C598.841 358.056 599.851 357.521 600.445 356.452C601.039 355.343 601.336 353.482 601.336 350.868V321.88C601.336 319.386 601.039 317.623 600.445 316.594C599.851 315.564 598.841 315.049 597.415 315.049C595.99 315.049 594.98 315.564 594.386 316.594C593.792 317.623 593.495 319.386 593.495 321.88V350.868Z" fill="#F15025"/>
</svg>
