<?xml version="1.0" encoding="UTF-8"?>
<svg id="Layer_1" xmlns="http://www.w3.org/2000/svg" version="1.1" viewBox="0 0 155 238">
  <!-- Generator: Adobe Illustrator 29.3.1, SVG Export Plug-In . SVG Version: 2.1.0 Build 151)  -->
  <defs>
    <style>
      .st0 {
        fill: #f15025;
      }
    </style>
  </defs>
  <path class="st0" d="M15.8,119.6c0-.2-.1-.4-.2-.6,0-.2-.2-.5-.2-.7v-.4c0,0,.3,0,.3,0,0,0,0,0,.2-.2l.4-.4v.5c.2.2.2.4.3.6,0,.2.2.5.2.7v.4c0,0-.3,0-.3,0,0,0,0,0-.2.2l-.4.4v-.5Z"/>
  <path id="Vector" class="st0" d="M16.5,119.2c-.1,0-.3.2-.4.3-.1-.4-.3-.9-.4-1.3.1,0,.3-.2.4-.3.1.4.3.9.4,1.3Z"/>
  <path class="st0" d="M14.8,116.8v-.3c0-.2,0-.4-.2-.6,0,0,0-.2-.1-.3v-.4c-.1,0,.9,0,.9,0l.3.3h0c0,.2,0,.3,0,.5,0,.2.1.3.1.5v.3h-1.1Z"/>
  <path id="Vector_2" class="st0" d="M15.4,115.6c0,.3.2.6.2.9h-.5c0-.3-.2-.7-.3-1h.6Z"/>
  <path class="st0" d="M14,113.4v-.3c0-.2,0-.3,0-.5,0-.2-.1-.4-.1-.7v-.3h1.1v.4c0,.3,0,.6.2,1v.4c.1,0-1.1,0-1.1,0Z"/>
  <path id="Vector_3" class="st0" d="M14.6,112c0,.4.1.8.2,1.1h-.5c0-.4-.2-.8-.2-1.2h.5Z"/>
  <path id="Vector_4" class="st0" d="M14,98.4v.9c-.1,0-.3.2-.4.3v-.9h.2s.1,0,.2,0v-.2Z"/>
  <path id="Vector_5" class="st0" d="M14.1,97.3v.5c-.1,0-.3.2-.4.3v-.5c.1,0,.3-.2.4-.3Z"/>
  <path id="Vector_6" class="st0" d="M14.3,96.1v.4h-.4v-.4h.4Z"/>
  <path id="Vector_7" class="st0" d="M14.5,94.5v.5c-.1,0-.3,0-.4,0v-.5c.1,0,.3,0,.4,0Z"/>
  <path class="st0" d="M63.4,154.8h-1.4c-.9,0-1.9,0-3-.2-1,0-1.9-.2-2.8-.3-2-.3-3.9-.7-5.7-1.2-2.1-.6-4.1-1.2-6-2-1.8-.7-3.6-1.6-5.3-2.6-1.5-.9-3.1-1.8-4.6-2.9-.8-.5-1.6-1.1-2.4-1.7-.4-.3-.7-.6-1-.8l-.3-.3-.4-3.4,1.9,1.4c1.7,1.4,3.4,2.6,5,3.7.8.5,1.6,1,2.5,1.5.8.5,1.8.9,2.7,1.4.9.4,1.9.9,2.9,1.3,1,.4,2.1.8,3.2,1.2,1.1.3,2.2.7,3.3.9,1,.2,2,.5,3.2.7,1.1.2,2.1.3,3.1.4,1,.1,2.1.2,3.2.2h3.1c1.1,0,2.2,0,3.3-.2,1,0,2-.2,3.1-.4,1-.2,2.1-.4,3.2-.6,1.1-.3,2.2-.6,3.2-.9,1-.3,2-.6,3-1,1.1-.4,2.1-.8,3-1.3,1-.5,2-1,3.1-1.5.9-.5,1.7-1,2.6-1.5s1.8-1.1,2.8-1.9c1.7-1.3,3.4-2.7,5-4.2.8-.8,1.6-1.6,2.3-2.4.7-.8,1.5-1.6,2.1-2.4.6-.7,1.1-1.4,1.7-2.2.5-.7,1-1.4,1.5-2.2.5-.9,1.1-1.8,1.6-2.7.5-.9,1-1.8,1.5-2.9.5-1,.9-2,1.3-3s.7-2,1.1-3.1c.6-2.1,1.2-4.2,1.5-6.3v-.2c.2-1,.4-2.1.5-3.1,0-1.1.2-2.1.2-3.2,0-2,0-4,0-5.8h0c0-1.1-.2-2.1-.4-3.2-.2-1.1-.4-2.2-.6-3.4h0c-.3-1.2-.6-2.3-.9-3.4-.3-.9-.6-1.9-1-3.1-.4-1.1-.9-2.2-1.3-3.2-.5-1-1-2.1-1.6-3.2-.5-.9-1-1.8-1.5-2.6-.5-.8-1.1-1.7-1.6-2.5-.6-.9-1.3-1.8-2-2.6-.7-.8-1.4-1.7-2.1-2.5-.7-.7-1.4-1.5-2.1-2.2-.7-.6-1.4-1.3-2.2-2-.9-.7-1.7-1.4-2.6-2s-1.8-1.3-2.7-1.8c-.8-.5-1.6-1-2.4-1.5s-1.8-.9-2.8-1.4-2.1-.9-3.2-1.4c-.8-.3-1.6-.6-2.6-.9-1-.3-1.9-.6-2.8-.8-1.2-.3-2.3-.6-3.5-.8h-.2v-.4c0,0,0-.6,0-.6l-.2,1c-1.2-.2-2.3-.4-3.4-.5-1,0-2.1-.2-3.1-.2h-1.9c-1.6,0-3.2,0-4.9.2-.6,0-1.1,0-1.7.2-.3,0-.6,0-.8,0h-1.1c-.8.2-1.6.3-2.5.5-1.1.3-2.1.5-3.1.8-.9.3-1.9.6-3,1s-2.1.8-3,1.2c-.5.2-1,.5-1.5.7s-1,.5-1.5.8c-1,.6-1.9,1.1-2.8,1.6-.9.5-1.8,1.1-2.6,1.8-.9.7-1.8,1.3-2.5,2-.8.6-1.6,1.3-2.4,2.1-.4.4-.8.8-1.2,1.2-.4.4-.7.7-1.1,1.1-.6.7-1.3,1.5-2,2.3s-1.2,1.6-1.8,2.3c-.6.8-1.1,1.6-1.7,2.5-1.2,1.9-2.2,3.7-3,5.6v.2c-.9,1.9-1.7,3.9-2.3,5.9-.5,1.7-1,3.4-1.3,5.2v.5c-.1,0-1,.4-1,.4l-1.7.8.5-2.5c.4-1.9.9-3.8,1.5-5.8.6-1.8,1.3-3.6,2.1-5.4.8-1.8,1.8-3.6,2.8-5.3.5-.8,1-1.6,1.6-2.5.6-.8,1.1-1.6,1.7-2.4.7-.9,1.3-1.7,2-2.4.7-.7,1.3-1.5,2-2.2,1.4-1.4,3-2.8,4.6-4.2.7-.6,1.5-1.2,2.4-1.8.7-.5,1.6-1.1,2.6-1.7.8-.5,1.7-1,2.7-1.6.9-.5,1.8-.9,2.9-1.4,1.8-.8,3.8-1.6,5.9-2.2.9-.3,1.9-.6,3.1-.8,1-.2,2-.4,3-.6h0c.2,0,.5-.2.7-.2l1.3-.2c.6,0,1.2-.2,1.9-.2,1.6-.2,3.2-.2,4.9-.2h.4c1.8,0,3.6,0,5.4.3,2,.2,4,.6,5.8,1,3.6.9,7.1,2.1,10.5,3.8,1.7.8,3.4,1.8,5,2.8.8.5,1.6,1,2.3,1.5.9.6,1.7,1.2,2.4,1.8.8.6,1.6,1.3,2.3,1.9.9.8,1.6,1.5,2.3,2.2,1.4,1.5,2.8,3,4,4.6s2.3,3.2,3.3,4.8c1.1,1.8,2,3.4,2.7,5.1.5,1.2,1,2.4,1.5,3.6.3.8.6,1.6.8,2.5.3,1,.6,2,.8,3,.4,1.8.8,3.7,1.1,5.7.2,1.7.4,3.5.4,5.5s0,3.8,0,5.8c0,1.9-.4,3.9-.8,5.8-.2,1.1-.4,2.1-.7,3.1-.3,1.1-.5,2-.8,2.9s-.6,1.9-1,2.8c-.3.9-.7,1.8-1.2,2.8-.8,1.7-1.7,3.4-2.7,5.1-.9,1.5-2,3.1-3.1,4.7-1.2,1.6-2.5,3.1-3.7,4.5-1.5,1.6-3,3-4.5,4.2-.8.7-1.7,1.3-2.5,2-.9.7-1.8,1.2-2.6,1.8-3.3,2.1-6.9,3.8-10.4,5-.9.3-1.9.6-2.8.9-.9.3-1.9.5-3.1.8-1,.2-2,.4-3.1.6-1,.2-2,.3-3,.4-1.1.1-2.1.2-3.1.2h-1.7,0Z"/>
  <path id="Vector_8" class="st0" d="M113.5,101.6c0,1.9,0,3.8,0,5.7,0,1.9-.4,3.8-.8,5.7-.2,1-.4,2-.7,3-.2.9-.5,1.9-.8,2.8s-.6,1.9-1,2.8-.8,1.8-1.2,2.7c-.8,1.7-1.7,3.4-2.6,5-1,1.6-2,3.1-3.1,4.6s-2.3,3-3.6,4.4c-1.4,1.5-2.9,2.9-4.4,4.2-.8.7-1.6,1.3-2.5,1.9-.8.6-1.7,1.2-2.6,1.7-3.2,2-6.6,3.7-10.2,4.9-.9.3-1.9.6-2.8.9-1,.3-2,.5-3,.7s-2,.4-3.1.6c-1,.2-2,.3-2.9.4-1,0-2,.2-3.1.2h-3c-1,0-2,0-3-.2-.9,0-1.9-.2-2.8-.3-1.9-.3-3.7-.7-5.6-1.1-2-.5-4-1.2-5.9-2-1.8-.7-3.5-1.6-5.2-2.5-1.6-.9-3.1-1.8-4.5-2.8-.8-.5-1.6-1.1-2.3-1.7-.3-.3-.7-.5-1-.8v-.7c1.6,1.4,3.3,2.6,5.1,3.8.8.5,1.7,1,2.5,1.5.9.5,1.9,1,2.8,1.4,1,.5,2,.9,3,1.3,1.1.4,2.2.8,3.3,1.2s2.2.7,3.4,1c1.1.3,2.2.5,3.3.7s2.1.3,3.2.5c1.1.1,2.2.2,3.3.3h3.2c1.1,0,2.3,0,3.4-.2,1.1-.1,2.1-.2,3.1-.4,1.1-.2,2.2-.4,3.3-.6,1.1-.3,2.2-.5,3.3-.9,1-.3,2-.7,3-1,1-.4,2.1-.8,3.1-1.3,1.1-.5,2.1-1,3.1-1.6.9-.5,1.8-1,2.6-1.5,1-.6,1.9-1.2,2.8-1.9,1.8-1.3,3.5-2.7,5.1-4.2.8-.8,1.6-1.6,2.4-2.4.8-.8,1.5-1.7,2.2-2.5.6-.7,1.2-1.5,1.7-2.2s1.1-1.5,1.5-2.3c.6-.9,1.1-1.8,1.6-2.8s1-1.9,1.5-2.9.9-2.1,1.3-3.1c.4-1.1.8-2.1,1.1-3.2.7-2.1,1.2-4.3,1.6-6.5h0c.2-1.2.3-2.2.4-3.3s.2-2.2.2-3.3c0-2,0-4,0-6h0c0-1.1-.2-2.2-.4-3.2-.2-1.2-.4-2.3-.7-3.4h0c-.3-1.2-.6-2.3-.9-3.4s-.7-2.1-1.1-3.1c-.4-1.1-.9-2.2-1.3-3.3-.5-1.1-1-2.2-1.6-3.2-.5-.9-1-1.8-1.5-2.6-.5-.9-1.1-1.7-1.7-2.5-.6-.9-1.3-1.8-2-2.6-.7-.9-1.4-1.7-2.2-2.5-.7-.8-1.4-1.5-2.2-2.2-.7-.7-1.5-1.4-2.3-2.1-.9-.7-1.7-1.4-2.6-2.1-.9-.7-1.8-1.3-2.7-1.9-.8-.5-1.6-1-2.5-1.5s-1.9-1-2.8-1.4c-1.1-.5-2.1-1-3.2-1.4-.9-.3-1.8-.6-2.6-.9-1-.3-1.9-.6-2.9-.8-1.2-.3-2.4-.6-3.6-.8h0c-1.2-.2-2.3-.4-3.5-.5-1.1,0-2.1-.2-3.2-.2-2.3,0-4.6,0-6.9.2-.6,0-1.1,0-1.7.2-.3,0-.6,0-.9,0h-.8c-.9.2-1.8.4-2.8.6-1.1.3-2.1.5-3.1.8s-2,.7-3,1h0c-1,.4-2.1.8-3.1,1.3-.5.2-1,.5-1.6.7-.5.3-1,.5-1.5.8-1,.5-1.9,1.1-2.8,1.6-.9.6-1.8,1.2-2.7,1.8h0c-.9.6-1.7,1.3-2.6,2-.8.7-1.7,1.4-2.5,2.2-.4.4-.8.8-1.2,1.2-.4.4-.7.7-1.1,1.1-.7.8-1.4,1.6-2.1,2.4-.6.8-1.2,1.6-1.8,2.4-.6.8-1.2,1.7-1.7,2.5-1.1,1.8-2.2,3.7-3.1,5.7h0v.2c-.9,2-1.7,4-2.3,6-.5,1.7-1,3.5-1.3,5.3-.2,0-.3,0-.5.2,0-.2,0-.4.1-.6.4-1.9.9-3.8,1.5-5.7.6-1.8,1.3-3.6,2.1-5.3.8-1.8,1.7-3.5,2.7-5.2.5-.8,1-1.7,1.6-2.5.5-.8,1.1-1.6,1.7-2.3.6-.8,1.3-1.6,1.9-2.3.6-.7,1.3-1.5,2-2.2,1.4-1.5,3-2.8,4.6-4.1.8-.6,1.6-1.2,2.4-1.8.8-.6,1.7-1.1,2.6-1.7.9-.5,1.8-1,2.7-1.5s1.9-1,2.8-1.4c1.9-.9,3.8-1.6,5.8-2.2,1-.3,2-.6,3-.8s1.9-.4,2.9-.6h.3s.2-.2.3,0h.5c.3,0,.6,0,.9,0,.6,0,1.2-.2,1.8-.2,1.7-.2,3.5-.3,5.2-.2,1.8,0,3.5,0,5.2.3,1.9.2,3.8.6,5.7,1,3.5.8,7,2.1,10.3,3.7,1.7.8,3.3,1.7,4.9,2.7.8.5,1.5,1,2.3,1.5.8.6,1.6,1.1,2.3,1.8.8.6,1.5,1.2,2.2,1.9.8.7,1.5,1.4,2.3,2.1,1.4,1.4,2.7,2.9,3.9,4.5,1.2,1.5,2.2,3.1,3.2,4.7s1.9,3.3,2.7,5c.5,1.2,1,2.3,1.5,3.5.3.8.6,1.6.8,2.5.3,1,.6,1.9.8,2.9.5,1.9.8,3.7,1,5.6.2,1.8.4,3.6.4,5.4l.3-.7Z"/>
  <path class="st0" d="M63.5,119.4c-1,0-2.1,0-3.1-.3-.2,0-.4,0-.6,0-.4,0-.8-.2-1.2-.3-.4,0-.7-.2-1.1-.3-.4,0-.7-.3-1.1-.4-.4,0-.7-.3-1.1-.4-.6-.3-1.3-.6-2-1.1-.6-.4-1.3-.8-1.9-1.3-.6-.5-1.2-1-1.7-1.5-.3-.3-.6-.6-.8-.9-.3-.3-.5-.6-.8-1-.9-1.2-1.7-2.5-2.3-3.8-.3-.7-.6-1.4-.8-2.1s-.4-1.4-.6-2.1c-.2-.9-.3-1.8-.4-2.6v-2.1c0-.8,0-1.5.2-2.3v-.9h.5-.5c.2-.9.3-1.6.6-2.3.2-.7.5-1.5.8-2.2.3-.8.7-1.4,1.1-2.1.8-1.4,1.8-2.6,2.9-3.7.6-.6,1.2-1.1,1.8-1.6s1.2-.9,1.9-1.3,1.4-.8,2.1-1.1c.6-.3,1.3-.5,2.1-.8.2,0,.4,0,.7-.2.6-.2,1.1-.4,1.7-.5.7,0,1.5-.2,2.3-.2h.6c0,0,.2,0,.4,0h0c.2,0,.4,0,.5,0h1.4c.6,0,1.2.2,1.8.3h0c1.5.3,2.9.8,4.4,1.5s2.8,1.6,4.1,2.6c.6.5,1.2,1,1.7,1.6.6.6,1.1,1.2,1.5,1.8.2.3.5.7.7,1s.4.6.6,1c.4.7.7,1.3,1,2.1.3.7.5,1.4.8,2.2.2.7.4,1.4.5,2.2,0,.3,0,.7,0,1v.2c0,.3,0,.6,0,1v2.1c0,.7,0,1.5-.2,2.2,0,.3,0,.7-.2,1,0,.4,0,.7-.2,1.1,0,.4-.2.8-.3,1.2,0,.3-.2.7-.4,1-.2.6-.5,1.3-.9,2.1-.3.5-.6,1.1-1,1.7-.2.3-.4.6-.6.9s-.4.6-.7.8c-.5.6-1.1,1.2-1.6,1.7s-1.1,1-1.8,1.5c-.3.2-.6.5-.9.7s-.7.4-1,.6c-.6.4-1.3.7-2.1,1-.4.2-.7.3-1.1.4-.3,0-.7.2-1,.3-.3,0-.6.2-1,.3-.3,0-.7.2-1,.2-.7,0-1.4.2-2,.3h-1.4.3ZM46.1,93.7c0,.4-.2.7-.3,1.1,0,.4-.2.7-.3,1.1-.2.8-.3,1.7-.3,2.5v2.4c0,.9.2,1.9.4,2.7,0,.7.3,1.4.6,2.1s.6,1.5,1,2.3c.4.7.8,1.4,1.2,2,.2.4.5.6.7.9.3.3.5.6.8.9s.6.6.9.9c.3.3.6.5.8.8.6.5,1.2.9,1.7,1.3.4.3.7.5,1,.7s.7.4,1.1.6c.3.2.7.3,1,.5.3,0,.7.3,1,.4s.7.2,1,.3c.3,0,.7.2,1,.2.8,0,1.7.3,2.7.4h2.6c1.1,0,1.9-.2,2.6-.3.4,0,.9-.2,1.3-.3.4,0,.7-.2,1.1-.4h.2c.6-.3,1.3-.6,1.9-.9.7-.4,1.5-.8,2.2-1.3.6-.4,1.2-.9,1.8-1.4l1.3-1.3h0c.3-.4.5-.7.8-1s.5-.7.7-1c.5-.7.9-1.5,1.4-2.4.2-.5.4-1,.6-1.5l.3-.9c0-.2,0-.4.2-.6,0-.3,0-.5.2-.8,0-.2,0-.5.2-.7,0-.8.2-1.5.3-2.2v-2.3c0-.4,0-.8,0-1.3,0-.4,0-.8-.2-1.2-.2-.8-.4-1.5-.6-2.3-.3-.8-.6-1.6-1-2.3-.4-.7-.8-1.4-1.2-2-.5-.7-.9-1.3-1.5-1.9s-.5-.6-.8-.8l-.8-.8c-.7-.6-1.3-1.1-2-1.6-.6-.4-1.3-.8-2-1.2-.3-.2-.7-.3-1-.5-.3,0-.7-.3-1.1-.4-.8-.3-1.6-.5-2.4-.6-.8-.2-1.6-.3-2.3-.3h-1.7c-.2,0-.3,0-.4,0h-.2c-.9,0-1.8.2-2.7.4-.8.2-1.5.4-2.1.6-.8.3-1.6.6-2.4,1-.4.2-.7.4-1.1.6-.3.2-.7.4-1,.7-.7.5-1.3,1-1.9,1.5-.5.5-1.1,1-1.6,1.6s-1,1.3-1.4,1.9-.8,1.3-1.1,2-.7,1.5-.9,2.2h-.5.5c0,0-.2,0-.2,0Z"/>
  <path id="Vector_9" class="st0" d="M60.4,118.7h-.6c-.4,0-.8-.2-1.1-.3-.4,0-.7-.2-1.1-.3-.4,0-.7-.2-1.1-.4-.4,0-.7-.3-1-.4-.7-.3-1.3-.7-2-1.1-.6-.4-1.2-.8-1.8-1.3s-1.1-.9-1.7-1.5c-.3-.3-.6-.6-.8-.9-.3-.3-.5-.6-.8-.9-.9-1.2-1.7-2.4-2.3-3.7-.3-.7-.6-1.4-.8-2.1s-.4-1.3-.6-2c-.2-.8-.3-1.7-.4-2.6v-2.1c0-.7,0-1.5.2-2.2v-.7h0v-.3c0-.7.3-1.4.5-2.1s.5-1.4.8-2.1.7-1.4,1.1-2c.8-1.3,1.8-2.5,2.9-3.6.5-.5,1.1-1.1,1.7-1.5.6-.5,1.2-.9,1.9-1.3s1.3-.7,2-1.1c.7-.3,1.4-.5,2.1-.8.8-.2,1.5-.5,2.3-.7.7,0,1.5-.2,2.2-.2h.8c0-.2.2,0,.4,0h1.8c.6,0,1.2.2,1.8.3h0c1.5.3,2.9.8,4.2,1.4,1.4.7,2.8,1.5,4,2.5s1.1,1,1.6,1.6,1,1.2,1.5,1.8c.2.3.5.6.7,1,.2.3.4.6.6,1,.4.7.7,1.3,1,2s.6,1.4.8,2.1c.2.7.4,1.4.5,2.1,0,.3,0,.7,0,1s0,.7,0,1.1v2.1c0,.7,0,1.5-.2,2.2,0,.3,0,.7-.2,1,0,.4,0,.7-.2,1,0,.4-.2.8-.3,1.1,0,.3-.2.6-.4.9-.3.7-.6,1.4-.9,2s-.6,1.1-1,1.7c-.2.3-.4.6-.6.9s-.4.5-.6.8c-.5.6-1,1.1-1.6,1.7s-1.1,1-1.7,1.5c-.3.2-.6.4-.9.6s-.6.4-1,.6c-.7.4-1.3.7-2,1-.3.2-.7.3-1,.4s-.7.2-1,.3c-.3,0-.6.2-.9.3-.3,0-.6.2-1,.2-.6,0-1.3.2-2,.3h-1.4c-1,0-2,0-3-.2h.3ZM64.8,118.4h0c.9,0,1.8-.2,2.6-.3.4,0,.9-.2,1.3-.3.4,0,.9-.3,1.3-.4.7-.2,1.3-.5,1.9-.8.8-.4,1.5-.9,2.2-1.4s1.3-1,1.9-1.5c.5-.4.9-.9,1.3-1.3h0c.3-.3.5-.7.8-1s.5-.7.7-1.1c.5-.8,1-1.6,1.4-2.4.3-.5.5-1.1.7-1.6,0-.2.2-.5.2-.7,0-.3.2-.6.3-.8,0-.3,0-.5.2-.8,0-.2,0-.5.2-.7h0c0-.7.2-1.5.3-2.2v-2.3c0-.4,0-.9,0-1.3,0-.4,0-.8-.2-1.2-.2-.8-.4-1.6-.7-2.3-.3-.8-.6-1.6-1-2.4-.4-.7-.8-1.4-1.2-2.1h0c-.5-.7-1-1.3-1.5-1.9-.3-.3-.5-.6-.8-.8-.3-.3-.6-.5-.8-.8-.7-.6-1.4-1.1-2.1-1.6-.7-.4-1.4-.8-2.1-1.2-.3-.2-.7-.3-1-.5-.4,0-.7-.3-1.1-.4-.8-.3-1.6-.5-2.5-.7-.8-.2-1.6-.3-2.4-.3h-1c-.2,0-.3.2-.4,0-.3,0-.6-.2-.9-.2-.9,0-1.8.2-2.7.4-.7.2-1.5.4-2.2.6-.8.3-1.6.7-2.4,1.1h0c-.4.2-.7.4-1.1.6-.4.2-.7.4-1,.7h0c-.7.5-1.3,1-1.9,1.5-.6.5-1.1,1.1-1.6,1.6-.5.6-1,1.3-1.5,2-.4.7-.8,1.3-1.2,2.1-.4.7-.7,1.5-.9,2.2h0c0,.4-.2.7-.3,1.1s-.2.7-.3,1.1c-.2.8-.3,1.7-.3,2.5v2.5c0,.9.2,1.9.4,2.8.2.7.4,1.5.6,2.2.3.8.6,1.6,1,2.3.4.7.8,1.4,1.2,2.1h0c.2.3.4.6.6.9.3.3.5.7.8,1s.6.6.9.9c.3.3.6.6.9.8.6.5,1.2,1,1.8,1.4h0c.3.2.7.4,1,.6.4.2.7.4,1.1.6.3.2.7.3,1,.5.4.2.7.3,1.1.4.3,0,.7.2,1,.3.4,0,.7.2,1.1.3h0c.9.2,1.8.3,2.7.4h2.6v-.2Z"/>
  <path class="st0" d="M63.7,107.4c-.5,0-1,0-1.4,0-.3,0-.6,0-.9-.3-.3,0-.6-.2-.8-.4-.3,0-.5-.3-.7-.4-.3-.2-.5-.4-.7-.6s-.5-.5-.7-.7c-.3-.4-.6-.9-.9-1.4-.3-.6-.5-1.2-.6-1.8,0-.3,0-.6,0-1v-1c0-.3,0-.5,0-.7,0-.6.3-1.2.6-1.8.3-.6.7-1.1,1.2-1.6h0c0-.3,0-.4.3-.5l.2-.2c0,0,.2-.2.3-.3.3-.2.5-.4.8-.5.6-.3,1.2-.5,1.9-.7.4,0,.9,0,1.3,0h.7c.6,0,1.3.2,2,.5.3,0,.6.3.9.5s.6.4.8.6l.2.2c.2.2.5.4.6.7.2.2.4.5.6.8.3.6.6,1.2.8,1.8.2.7.3,1.3.3,1.9v.4c0,.3,0,.7,0,1,0,.7-.3,1.3-.6,1.8-.2.3-.3.6-.5.9s-.4.5-.6.7c-.4.5-1,.9-1.6,1.2-.4.2-.8.4-1.3.6s-1.1.3-1.7.3h-.5v.2ZM59.6,96.5c0,.2-.3.4-.4.6,0,.2-.3.4-.4.7,0,.2-.2.5-.3.7,0,.2,0,.5-.2.7,0,.3,0,.5,0,.8v.8c0,.3,0,.6,0,.9,0,.2,0,.5.2.7,0,.2.2.4.2.6,0,.2.2.4.4.6s.3.4.5.6c0,.2.3.3.4.4.2.2.4.3.6.5.2,0,.4.3.7.4.2,0,.4.2.6.3.3,0,.5.2.8.2s.5,0,.8,0h1.3c.2,0,.5,0,.7-.2.3,0,.5-.2.7-.3.2,0,.4-.2.6-.3.2,0,.4-.3.6-.4l.6-.6c.2-.2.3-.4.5-.6s.3-.5.4-.7c0-.2.2-.4.3-.6,0-.2,0-.5.2-.7v-2.2c0-.2,0-.4-.2-.7,0-.2-.2-.5-.3-.7,0-.2-.2-.4-.4-.6,0-.2-.3-.4-.5-.6s-.3-.4-.5-.5c-.2-.2-.4-.3-.6-.5-.2,0-.4-.3-.6-.4s-.4-.2-.6-.3c-.2,0-.4,0-.7-.2h-2.2c-.3,0-.5,0-.7.2-.2,0-.4.2-.6.3-.2,0-.5.2-.7.4,0,0-.2,0-.3.2,0,0-.2,0-.2.2h0c0,.2-.2.3-.4.3h0c0,0-.2-.1-.2-.1Z"/>
  <path id="Vector_10" class="st0" d="M62.4,106.7c-.3,0-.6,0-.8-.2-.3,0-.5-.2-.8-.3-.2,0-.5-.3-.7-.4-.2-.2-.5-.3-.7-.5s-.4-.4-.6-.6c-.3-.4-.6-.8-.8-1.3-.3-.5-.5-1.1-.6-1.7,0-.3,0-.6,0-.9v-.9c0-.2,0-.5,0-.7,0-.6.3-1.1.6-1.6.3-.6.6-1.1,1.1-1.5,0,0,0,0,.2-.2,0,0,0-.2,0-.2h0s0,0,.2,0c0,0,.2-.2.3-.2.2-.2.5-.3.8-.5.5-.3,1.1-.5,1.7-.6.6,0,1.3-.2,1.9,0,.6,0,1.2.2,1.8.5.3,0,.6.3.9.4.3.2.5.3.8.5l.2.2h0l.6.6c.2.2.4.5.5.8.3.5.6,1.1.7,1.7.2.6.2,1.2.2,1.8v.4c0,.3,0,.6,0,.9,0,.6-.3,1.2-.6,1.7,0,.3-.3.6-.5.8-.2.2-.4.5-.6.7-.4.4-.9.8-1.4,1.1-.4.2-.8.4-1.2.5-.5.2-1,.3-1.6.3h-.5c-.4,0-.9,0-1.3,0l.2-.4ZM64.1,106.6c.3,0,.5,0,.8,0,.3,0,.5,0,.8-.2h0c.2,0,.5-.2.7-.3.2,0,.4-.2.7-.4h0c.2-.2.4-.3.6-.5l.6-.6h0c.2-.2.3-.4.5-.6h0c.2-.2.3-.5.4-.7s.2-.4.3-.7h0c0-.2,0-.5.2-.7h0c0-.3,0-.5,0-.8v-.9c0-.3,0-.5,0-.8,0-.2,0-.5-.2-.7,0-.3-.2-.5-.3-.8,0-.2-.3-.5-.4-.7-.2-.2-.3-.5-.5-.7h0l-.6-.6c-.2-.2-.4-.3-.6-.5h0c-.2,0-.4-.3-.7-.4-.2,0-.5-.2-.7-.3-.2,0-.5-.2-.7-.2-.3,0-.5,0-.8,0h-.8c-.3,0-.5,0-.8,0h0c-.3,0-.5,0-.8.2-.2,0-.5.2-.7.3h0c-.2,0-.5.3-.7.4,0,0-.2,0-.3.2,0,0-.2,0-.3.2h0s0,0-.2,0c0,0-.2.2-.3.3-.2.2-.3.4-.5.6h0c-.2.2-.3.5-.4.7,0,.2-.2.5-.3.8,0,.3-.2.5-.2.8h0c0,.3,0,.6,0,.8h0v.8c0,.3,0,.6,0,.9,0,.3,0,.5.2.8h0c0,.2.2.5.3.6,0,.2.2.5.4.7h0c.2.2.3.5.5.7s.3.3.5.5.4.4.7.5c.2.2.5.3.7.4h0c.2,0,.4.2.6.3.3,0,.6.2.8.2.3,0,.6,0,.9,0h.7v.4Z"/>
  <path class="st0" d="M116.9,216.6c-.4,0-.7-.3-.7-.7v-.4h.3c0-1.7,0-3.6-.2-5.5-.2-3.9-.3-7.9-.3-11.7v-26.1c0-2,0-4,0-6,0-1.9.1-3.9.1-5.9s.2-5.3.3-7.9c.1-2.1.2-4.2.3-6.3.3-6.2.2-12.4,0-17.7,0-1.1-.1-2.1-.2-3.2,0-1.1-.2-2.1-.2-3.2l-.3-8.7c-.2-5.7-.3-12.4,0-19.2,0-3.5.2-7.1.3-10.6.1-3.5.3-7,.3-10.6,0-2.7-.2-6.1-1.6-9.5-.5-1.3-1.2-2.5-2-3.4-.4-.5-.7-.8-1.2-1.1h-.1c-.2,0-.3-.1-.4-.3,0-.1,0-.2,0-.3v-.2h.1c.1-.2.3-.2.4-.2,1.2,0,3.1,2.7,3.1,2.7,2.8,4.3,3,9.8,2.8,15,0,2.1,0,4.2-.2,6.2,0,1,0,2.1-.1,3.1,0,1.1,0,2.1,0,3.2,0,2.1,0,4.3-.2,6.3,0,1.5,0,2.9-.2,4.5v.2c-.1,7.8.2,15.6.5,23.2.8,12,.3,24-.2,33,0,2.3,0,4.8,0,7.1s0,4.8,0,7.1c0,1.5,0,3.1,0,4.7,0,3.1,0,6.4,0,9.5v14.4c0,1.6,0,3.3,0,4.9,0,1.6,0,3.3,0,5s0,2.6,0,3.9c0,1.3.1,2.6.1,3.9s-.3.7-.7.7Z"/>
  <path id="Vector_11" class="st0" d="M116.8,216c0-2,0-4-.2-6-.2-3.9-.3-7.8-.3-11.7v-26.1c0-4,.2-7.9.2-11.9s.5-9.5.6-14.2c.3-5.9.2-11.8,0-17.7,0-2.2-.3-4.2-.4-6.4,0-2.9-.2-5.8-.3-8.7-.2-6.4-.3-12.7,0-19.1,0-7.1.6-14.1.7-21.2,0-3.2-.3-6.5-1.6-9.6-.5-1.3-1.2-2.5-2.1-3.5-.4-.5-.8-.9-1.4-1.2h-.2c0,0-.2,0,0-.2h0c.8-.6,2.7,1.8,3.1,2.4,2.8,4.3,2.9,9.7,2.8,14.8,0,3.1-.2,6.2-.3,9.3,0,3.2,0,6.4-.3,9.5,0,1.6,0,3.1-.2,4.7,0,7.7.2,15.5.5,23.2.7,11,.4,22-.2,33-.2,4.7,0,9.5-.2,14.2,0,4.7.2,9.5,0,14.2v14.4c0,3.3.2,6.6.2,9.9s.2,5.2.2,7.8-.2.4-.4.4-.4-.2-.4-.4h.3Z"/>
  <path class="st0" d="M136.7,75.9c-.2-.1-.4-.3-.4-.6.1-.5.2-1,.3-1.4,0-.5.2-.9.3-1.4,0-.4.2-.9.2-1.3,0-.5.2-.9.3-1.4.2-.8.5-1.5.9-2.3l.4-.6c.8-1.3,1.7-2.9,3-3.7h0s0,0,0,0c.2,0,.4.1.4.3,0,0,0,.3-.3.5-.1.1-.3.3-.5.6-.6.7-1.1,1.5-1.6,2.3-.6,1.1-1.3,2.3-1.6,3.7,0,.5-.2,1-.2,1.5,0,.5-.2,1-.3,1.5-.1.7-.2,1.3-.4,2,0,.3-.3.5-.7.5h0Z"/>
  <path id="Vector_12" class="st0" d="M136.9,75.6c-.2,0-.3-.2-.3-.4.2-.9.3-1.8.5-2.7.2-.9.3-1.8.5-2.7.2-.8.5-1.5.9-2.2.9-1.5,1.8-3.3,3.3-4.2.1,0,.2,0,0,.2-.2.2-.4.4-.6.7h0c-.6.7-1.1,1.5-1.6,2.3-.7,1.2-1.3,2.4-1.6,3.8-.2,1-.3,2-.5,3-.1.7-.2,1.3-.4,2,0,.2-.2.3-.4.3h.2Z"/>
  <path class="st0" d="M130.2,214.5c-.4,0-.7-.3-.7-.7v-.4h.4c0-1.1.2-2.3.2-3.4s0-1.5,0-2.3c0-1.6,0-3.2,0-4.7.2-3.5.3-7.1.3-10.5,0-1.2,0-2.3,0-3.5,0-1.9,0-3.8.2-5.6,0-.9,0-1.9.1-2.8,0-1.5.1-3,.2-4.5.1-2.9.2-5.9.4-8.8,0-1.5,0-2.9.2-4.4,0-.7,0-1.5.1-2.2,0-4.2,0-8.6.3-12.9,0-1.6,0-3.1.3-4.7,0-.3,0-.7.1-1.1,0-.4,0-.7,0-1.1,0-1.3.1-2.6.2-3.9.2-2.6.4-5,.7-7.6v-1.1c.6-5.1,1.1-9.8,1.2-14.8,0-1.5.1-2.9.2-4.4,0-1.5.1-2.9.2-4.4.1-1.6.3-3.2.5-4.8.2-1.6.3-3.2.4-4.8.3-4.2.6-9,1.1-13.7,0-1.3.3-2.6.4-4v-.4c.3-1.6.6-3.4,1-5.2v-.8c0,0,.7,0,.7,0v.8c-.3,1.8-.5,3.7-.8,5.5-.4,3.9-.7,7.8-.9,11.6-.2,2.9-.4,5.8-.7,8.7,0,.7-.1,1.5-.2,2.2-.2,1.6-.3,3.2-.4,4.7-.1,2.2-.3,4.4-.3,6.5,0,2.1-.2,4.4-.4,6.6-.4,5.1-.9,10.3-1.4,15.3-.2,1.6-.3,3.4-.4,5,0,.9-.1,1.7-.2,2.6-.3,3.4-.5,6.9-.7,10.2,0,2.1,0,4.2,0,6.3s0,4.2-.1,6.3c0,2.6-.2,5.2-.3,7.8-.1,2.6-.2,5.2-.3,7.8,0,1.1-.1,2.3-.2,3.4-.1,1.6-.2,3.3-.2,5,0,4.8,0,9.8-.3,14.7-.1,1.8,0,3.7,0,5.5,0,1.4,0,2.8,0,4.2,0,.7,0,1.3-.2,2.1,0,.3-.3.5-.7.5Z"/>
  <path id="Vector_13" class="st0" d="M130.2,213.9c.1-1.3.2-2.6.2-3.9,0-2.3-.1-4.7,0-7,.3-4.7.3-9.3.4-14,0-2.8.2-5.6.3-8.4.2-4.4.3-8.9.6-13.3,0-2.2.2-4.4.3-6.6,0-4.3,0-8.6.3-12.9,0-1.6.1-3.1.3-4.7,0-.7.2-1.5.2-2.2,0-1.3.1-2.6.2-3.9.2-2.8.5-5.5.8-8.3.5-5.1,1-10.1,1.1-15.2.1-2.9.3-5.9.4-8.8.2-3.2.7-6.4.9-9.6.3-4.6.6-9.1,1.1-13.7.1-1.5.3-2.9.5-4.4.3-1.9.6-3.7,1-5.6v-.4h0c-.2,2.1-.5,4.2-.8,6.3-.7,6.8-1,13.6-1.6,20.4-.2,2.3-.5,4.7-.6,7-.3,4.4-.4,8.7-.7,13.1-.4,5.1-.9,10.2-1.4,15.3-.3,2.5-.4,5.1-.6,7.6-.3,3.4-.5,6.8-.7,10.2-.2,4.2,0,8.4-.2,12.6-.1,5.2-.5,10.4-.6,15.6-.1,2.8-.4,5.6-.4,8.4,0,4.9,0,9.8-.3,14.7-.2,3.2,0,6.5-.1,9.7,0,.7,0,1.3-.2,2,0,.2-.2.3-.4.3s-.4-.2-.4-.4h.4Z"/>
  <path class="st0" d="M120.6,218.2l.3-.2c-.3,0-.6,0-.9-.2,0,0,0,0,0,0-.4,0-.8-.1-1.2-.2-.1,0-.3,0-.4,0-.4-.1-.9-.3-1.4-.5-.2-.1-.4-.2-.7-.5h-.1c-.2-.2-.3-.3-.4-.4,0-.1-.1-.3-.1-.4,0-.3.2-.6.5-.8h0s0,0,0,0c.2,0,.7,0,.9.4h0v.4s0,0,.1.1c0,0,.1,0,.2.1.1,0,.2,0,.3.1h.2c.1.1.3.2.5.2.2,0,.4.1.5.2.2,0,1.1.2,1.3.3,0,0,0,0,0,0,.6,0,1.3,0,2,.2h1.6c.5,0,1,0,1.4,0,.8,0,1.5-.2,2.3-.4.4,0,.6-.2,1-.4.1,0,.2-.1.4-.2.1,0,.2,0,.3-.1,0,0,.2,0,.2-.1,0,0,.2-.1.3-.2h.1c0-.1,0-.2,0-.2,0,0,0-.1,0-.2,0-.2.2-.4.4-.4h.2l.2.2v.2c0,0,0,.1,0,.1v.4h0c0,.2-.3.6-.6.8-.3.3-.9.6-1.3.7h-.2c0,0-.4.2-.4.2-.5.2-.9.3-1.4.4-.6.1-1.2.2-1.7.3-.7,0-1.2.1-1.7.2h0s-2.8,0-2.8,0Z"/>
  <path id="Vector_14" class="st0" d="M121.9,217.7c-.6,0-1.2,0-1.8-.2-.6,0-1.2-.2-1.7-.3-.4-.1-.9-.3-1.3-.5-.2-.1-.4-.2-.6-.4,0,0,0-.1-.2-.2h0s-.2,0-.2-.1c0,0,0-.2,0-.3,0-.2,0-.4.3-.5.2,0,.5,0,.6.2v.3h0c0,.1.2.2.2.3,0,0,.2.1.3.2.2,0,.3.2.5.2.3.1.7.2,1,.3.4.1.9.2,1.3.3.7,0,1.4.1,2.1.2h1.6c.5,0,1,0,1.5-.1h0c.8-.1,1.5-.2,2.3-.4h0c.4-.1.7-.2,1.1-.4.2-.1.5-.2.7-.3s.3-.2.5-.3l.2-.2h.1c0-.1,0-.2.1-.3h0c0-.1,0-.2.1-.2s.1,0,0,.1h0v.4c-.1.2-.3.5-.5.6-.4.4-1,.6-1.5.8-.6.2-1.1.4-1.7.5s-1.2.2-1.7.3c-.6,0-1.2.1-1.7.2h-1.8l.3-.2Z"/>
  <path class="st0" d="M125.3,237.1c-.2,0-.3,0-.4-.2l-.2-.2.2-.3h0c0-1.7.2-3.1.4-4.6v-.3c.4-2.8.9-5.3,1.6-7.7.5-1.4,1.3-2.8,2-4.1l.5-.9c.4-.7,1-1.6,1.2-2.5,0-.1,0-.3,0-.4,0-.1,0-.3,0-.4v-.8c0-.2.1-.4.5-.4s.3,0,.4.2h0v1.1c0,.8-.2,1.7-.7,2.5l-1.5,3.3c-.6,1.5-1.2,3-1.6,4.5-.5,1.8-.8,3.6-1.1,5.4,0,.9-.2,1.9-.4,2.9,0,.2,0,.3,0,.5,0,.6-.1,1.1-.3,1.7,0,.3-.4.5-.7.5Z"/>
  <path id="Vector_15" class="st0" d="M125.2,236.5v-.2h0c0-1.6.2-3.1.4-4.7.3-2.6.8-5.1,1.6-7.6.6-1.7,1.6-3.3,2.5-4.9.5-.8,1-1.7,1.2-2.6,0-.3.1-.6.1-.9v-.8s0-.1.2-.1c0,0,.1,0,.2.1v.9c0,.9-.3,1.7-.7,2.4-.5,1.1-1,2.2-1.5,3.3-.6,1.5-1.2,3-1.6,4.6-.5,1.8-.8,3.6-1.1,5.4,0,1-.2,1.9-.4,2.9,0,.7,0,1.5-.4,2.2,0,.2-.4.4-.6.2v-.2Z"/>
  <path class="st0" d="M125.3,237.4c-.3,0-.4-.1-.5-.3h-.3v-.7c0-.4,0-.8,0-1,0-.4,0-.7-.2-1.1,0-.4-.1-.7-.2-.8h0c0-.2,0-.3,0-.4,0-.1-.1-.3-.1-.5,0-.3-.2-.6-.3-.9-.1-.3-.3-.7-.4-1-.1-.5-.4-1-.6-1.5l-.2-.5c0-.2-.1-.3-.2-.4,0-.2-.2-.3-.2-.5,0-.2-.2-.5-.3-.7-.1-.3-.3-.5-.4-.8,0-.2-.2-.4-.3-.6-.2-.3-.3-.6-.4-1-.1-.3-.3-.5-.5-.8-.2-.3-.4-.6-.5-.9-.2-.3-.4-.6-.5-.8-.2-.3-.3-.5-.5-.8-.2-.3-.4-.7-.6-1.1s0-.2-.1-.2c0,0-.1-.2-.2-.3h0c0-.2,0-.2,0-.2,0,0-.1-.2-.2-.3,0-.2-.3-.3-.3-.4h0v-.2s0,0,0,0c0,0,0,0-.1,0h0v-.2s0,0,0,0c0,0,0,0,0,0,0,0,0-.1-.1-.2h0v-.6h.8v.2s0,0,0,0c0,0,.1,0,.2.1h0c0,.2.1.3.2.4.2.2.4.4.6.7,0,0,.2.2.3.3,0,.1.2.2.3.3.2.3.4.5.7.8.1.2.2.3.3.4.1.1.2.3.3.4.2.3.4.6.6.8l.7,1h0c0,0,0,0,0,0,0,0,0,0,.2.2h0v.2s0,0,0,.1c0,0,.1.2.2.3.1.2.2.4.3.6,0,.2.1.3.2.5,0,.2.1.3.2.4,0,.2.2.4.2.6,0,.2.2.3.2.5,0,.2.1.3.2.5.1.2.2.4.3.7,0,.1.1.2.2.4,0,.2.1.3.2.5,0,.2.2.4.2.5.3.6.5,1.3.7,2v.2c.1.3.2.5.4.7h0s0,0,0,0c0,.2,0,.4.1.5,0,.2.1.4.2.6,0,.2,0,.3,0,.5,0,.2.1.4.1.6,0,.3,0,.6,0,.9v1.7c0,.3-.3.8-.7.8Z"/>
  <path id="Vector_16" class="st0" d="M124.8,236.8v-.4c0-.4,0-.8,0-1.1,0-.4,0-.8-.2-1.1,0-.3,0-.6-.2-.8,0-.3-.2-.5-.2-.8-.2-.7-.5-1.3-.7-2s-.5-1.3-.8-2c0-.3-.3-.6-.4-.9-.2-.5-.5-1-.7-1.5s-.5-1-.7-1.6c-.3-.6-.7-1.2-1-1.8-.4-.6-.7-1.1-1.1-1.7-.2-.3-.4-.7-.6-1.1,0-.2-.2-.3-.3-.5,0-.2-.2-.3-.3-.5,0-.2-.3-.4-.4-.5,0-.1,0-.2-.2-.3,0-.1,0-.2-.2-.4v-.2h.2c0,.1.2.2.3.3,0,.1.2.2.2.3.2.2.4.4.6.7.2.2.4.5.6.7.2.3.4.5.7.8.2.3.4.5.6.8s.4.6.6.8c.2.3.4.6.6.9,0,.1.2.3.3.4,0,.2.2.3.3.5.2.4.3.7.5,1.1,0,.3.3.6.4,1,.2.3.3.7.5,1s.3.6.5,1c0,.3.3.7.4,1,.3.6.5,1.3.7,2,0,.3.2.7.4,1,0,.4.2.7.3,1.1,0,.3.2.7.2,1s0,.6,0,1v1.6c0,.2-.2.5-.4.5h0c0,0-.2,0-.2-.2h-.3Z"/>
  <path class="st0" d="M115.6,216.6v-.2c-.2-.1-.2-.3,0-.4,0-.2.2-.4.4-.4h.3v.5c0,.3-.2.5-.4.5h-.2Z"/>
  <path id="Vector_17" class="st0" d="M115.8,216.3c0,0,0-.1,0-.2,0,0,0-.2,0-.2v.2s0,.2,0,.2Z"/>
  <path class="st0" d="M116.2,218c-.3,0-.5-.2-.5-.4v-.2c0-.3,0-1,.5-1s.3,0,.3.1c.1.2.1.4.1.5,0,0,0,.1,0,.1h0c0,0,0,.1,0,.1v.4h0c0,.1-.2.3-.4.3Z"/>
  <path id="Vector_18" class="st0" d="M116.2,217.7s-.2,0-.2-.1v-.2c0-.2,0-.7.2-.7.3,0,0,.4.2.6v.3s0,.1-.2.1h0Z"/>
  <path class="st0" d="M123.3,219.1c-.1,0-.2,0-.3-.1h0v-.4c-.2-.2-.2-.5-.2-.7,0-1-.2-2-.3-2.9-.3-3.2-.6-6.4-.2-9.6,0-.6.2-1.2.4-1.8.1-.3.2-.7.3-1v-.2c.2-.9.4-1.7.4-2.6,0-.9,0-1.9,0-2.9,0-.5,0-1,0-1.4,0-1,0-2-.2-3.1,0-.5,0-1.1-.1-1.6,0-.9,0-1.8-.2-2.7v-.2c0-.5.3-.5.5-.5.5,0,.5.3.5.5,0,.7,0,1.3,0,2v.9c.1,1.7.2,3.4.3,5.1,0,1.7.2,3.4,0,5.2-.1,1-.4,2-.6,2.9-.1.5-.2.9-.3,1.4-.2.8-.2,1.5-.2,2.2,0,2,.1,4.1.3,6.1.1.8.2,1.6.2,2.4,0,.8,0,1.6.2,2.4v.2c0,.3-.2.5-.5.5Z"/>
  <path id="Vector_19" class="st0" d="M123.2,218.5c-.2-.1-.2-.4-.2-.6,0-1-.2-2-.3-2.9-.3-3.2-.6-6.4-.2-9.5,0-1,.5-1.9.7-2.8.2-1,.4-1.9.4-2.9,0-1.4,0-2.9,0-4.3s-.2-3.1-.3-4.7c0-1,0-1.9-.2-2.9,0-.1,0-.2.2-.2s.2,0,.2.2c0,.7,0,1.3,0,2,0,2,.2,4,.3,5.9,0,1.7.2,3.4,0,5.2-.2,1.5-.6,2.8-.9,4.2-.2.8-.2,1.5-.2,2.3,0,2,0,4.1.3,6.1.2,1.6.2,3.2.4,4.8h0v.2c0,.2-.2.3-.3.2v-.3Z"/>
  <path class="st0" d="M124.1,177.9c-.1,0-.3,0-.3-.5h0c0,0,0-.2,0-.2v-4.1c0-1.8,0-3.6,0-5.3,0-2.2,0-4.4,0-6.6-.1-1.8-.2-3.6-.2-5.4,0-.9,0-1.8,0-2.7-.2-4.1-.3-7.6-.2-10.9v-1.4c0-.5.3-.5.5-.5.2,0,.5.2.5.5v2.4c0,3,0,6.2.2,9.3,0,1.5,0,3,.2,4.6v.3c0,1.1,0,2.2.1,3.3,0,1.1.1,2.2.1,3.3s0,2.8,0,4.2c0,1.4,0,2.8,0,4.2v5.2h-.3v.3h-.3Z"/>
  <path id="Vector_20" class="st0" d="M124.1,177.6c0,0,0-.3,0-.4v-4.1c0-4,.2-7.9,0-11.9-.2-2.7-.2-5.4-.3-8.1-.2-3.6-.3-7.3-.2-10.9v-1.4c0-.1,0-.2.2-.2,0,0,.2,0,.2.2v2.4c0,3.1,0,6.2.2,9.3,0,1.6,0,3.2.2,4.9,0,2.2.2,4.4.2,6.6s0,5.6,0,8.4v5.2s0,.1,0,0h-.3Z"/>
  <path class="st0" d="M124.2,131.6c-.1,0-.3,0-.4-.2l-.5-.5h.5c0-.2,0-.5,0-.7,0-.1,0-.2,0-.4v-2.6c0-1,0-1.9.1-2.8,0-.9,0-1.8,0-2.8s.2-.4.4-.4.5.2.5.4v2.7c0,1.9-.1,3.8-.2,5.7v.9c0,.1,0,.3,0,.4,0,.2-.3.3-.5.3Z"/>
  <path id="Vector_21" class="st0" d="M124.2,131.2c-.2-.4,0-.9,0-1.4v-2.6c0-1.9.2-3.7.2-5.6s.3-.2.3,0v2.7c0,1.9,0,3.8-.2,5.7v1c0,.2-.2.4-.4.2h.2Z"/>
  <path class="st0" d="M125.7,108.6v-.3c-.2-1-.2-2-.2-2.9,0-.3,0-.6,0-.9s.2-.5.4-.5.4.2.4.5v4.1h-.7Z"/>
  <path id="Vector_22" class="st0" d="M126,108.3c-.2-1.3,0-2.6,0-3.8s.2-.2.2,0v3.8h0Z"/>
  <path class="st0" d="M126.3,99.1c0,0-.1,0-.2,0h-.2v-.4c0-.5,0-.9.1-1.4,0-.3,0-.5,0-.8,0-1.1.1-2.2.2-3.3.2-2.7.4-5.2.4-7.6.2-4.2.2-8.4.2-12.5s0-3.8,0-5.7c0-1.9.1-3.8.1-5.7v-1.4c0-.3.2-.5.5-.5s.5.2.5.5v1.3c0,1.9,0,3.8,0,5.7,0,1.8-.1,3.7-.1,5.6,0,4.1,0,8.4-.3,12.5,0,1.9-.2,4-.4,5.9,0,1-.2,1.9-.2,2.9,0,.5,0,1-.1,1.5,0,.9-.2,1.8-.2,2.7h.1v.3c-.1,0,0,.3,0,.3h-.1s0,0,0,0h-.3Z"/>
  <path id="Vector_23" class="st0" d="M126.4,98.8c0-.7,0-1.4,0-2.2s0-2.2.2-3.3c.2-2.5.4-5.1.4-7.6.2-4.2.2-8.4.2-12.5s.2-7.6.2-11.4v-1.4c0,0,0-.2.2-.2s.2,0,.2.2v1.3c0,3.8-.2,7.5-.2,11.3s0,8.4-.3,12.5c0,2.9-.4,5.9-.6,8.8,0,1.5-.3,2.9-.3,4.4s0,.2-.2,0h.2Z"/>
  <path class="st0" d="M141.1,64.5c-.4-.3-.8-.6-1.2-.8-.9-.6-1.8-1.1-2.7-1.6-.9-.4-1.8-.8-2.7-1.1-.5-.2-.9-.3-1.4-.4-.3,0-.5-.1-.8-.2-.2,0-.5-.1-.7-.2,0,0,0,0,0,0-.2,0-.4,0-.6-.1-.2,0-.4,0-.6,0s-.4,0-.7,0c-.2,0-.4,0-.6,0h-2.8c-.6,0-1.2,0-1.9.2-.3,0-.6,0-.9.1h-.4c-.8.3-1.6.4-2.3.7-.2,0-.5.2-.8.3-.2,0-.5.1-.7.2-.5.2-1,.4-1.4.6-.8.4-1.6.8-2.3,1.3l-.5.3v-.6s0-.2-.1-.2c0,0-.1-.2-.1-.2v-.3c-.1,0,.1-.1.1-.1,0,0,.2,0,.2-.1,0,0,.2-.1.3-.2,1.3-.9,2.9-1.6,5-2.3,1.6-.6,3.4-.9,5.5-1h3.4c1.6,0,3.3.4,5.5,1,2.1.7,3.7,1.4,5.2,2.3.8.5,1.5,1,2.2,1.5l-.2.5h-.2c-.2,0-.3.3-.4.5l-.2.3-.3-.2Z"/>
  <path id="Vector_24" class="st0" d="M141.9,63.6h0c-.2.2-.4.4-.6.7h0c-.4-.3-.8-.6-1.2-.8-.9-.6-1.8-1.1-2.7-1.6-.9-.4-1.8-.8-2.7-1.1-.5-.2-.9-.3-1.4-.4-.5,0-1-.3-1.5-.4-.4,0-.9-.2-1.3-.2s-.9,0-1.3,0h-2.8c-.9,0-1.9.2-2.8.3-.9.2-1.9.4-2.8.7-.5.2-1,.3-1.5.5s-1,.4-1.4.6c-.8.4-1.6.8-2.3,1.3,0-.2-.2-.4-.3-.6.2,0,.3-.2.5-.3,1.5-1,3.2-1.7,5-2.3,1.7-.6,3.5-.9,5.4-1h3.4c1.8,0,3.6.5,5.4,1,1.8.6,3.5,1.3,5.1,2.3s1.5,1,2.2,1.5h-.4Z"/>
  <path class="st0" d="M141,63.6h0s0-.1,0-.1h0s0,0,0,0h0c0-.2.2-.3.3-.4,0,0,0,0,0,0,.6-.8,1.2-1.5,1.8-2.3.6-.8,1.2-1.5,1.8-2.3,1-1.3,1.7-2.5,2.4-3.7,1-1.7,2.2-3.6,3.1-5.7.9-2,1.6-4,2.1-6,.9-3.5,1.2-6.8,1-9.9,0-1.5-.1-3-.3-4.5-.3-1.7-.7-3.4-1.4-5.4-.4-1.3-1.1-2.5-1.7-3.8l-.3-.6c-.2-.5-.5-1-.8-1.5h0v-.8h.8v.2c.1,0,.2.2.3.3,0,.1.2.2.2.3.3.4.5.8.7,1.2.7,1.4,1.5,2.9,2,4.6.5,1.3.7,2.6,1,3.9v.4c.3,1,.4,2.1.4,3.1.2,3.5.1,6.4-.3,9-.3,2.1-.7,3.9-1.3,5.5-.9,2.8-1.8,5-2.9,6.9-1.2,2.2-2.4,4.4-3.9,6.5-.5.6-.9,1.2-1.4,1.8-.5.6-.9,1.2-1.4,1.8-.2.2-.3.4-.5.6-.1.2-.3.3-.4.5,0,0-.1.2-.2.2,0,.1-.2.2-.3.3,0,0-.2.2-.4.2s-.1,0-.2,0h-.2s0,0,0,0Z"/>
  <path id="Vector_25" class="st0" d="M141.3,63.6v-.2c0,0,.2-.2.3-.3,1.2-1.6,2.5-3.1,3.7-4.7.9-1.2,1.7-2.4,2.4-3.7,1.1-1.8,2.2-3.7,3.1-5.7.9-2,1.6-4,2.1-6.1.8-3.3,1.2-6.6,1-10,0-1.5-.1-3-.3-4.5-.3-1.9-.8-3.7-1.4-5.5-.5-1.5-1.3-3-2-4.4-.2-.5-.5-1-.8-1.5v-.3h.3c.1.2.3.4.4.6.3.4.5.8.7,1.2.8,1.5,1.5,2.9,2,4.5.5,1.4.8,2.9,1.1,4.3.2,1,.3,2,.3,3,.2,3,.2,6-.3,8.9-.3,1.9-.7,3.7-1.3,5.5-.8,2.4-1.7,4.7-2.9,6.9s-2.4,4.4-3.9,6.5c-.9,1.2-1.9,2.4-2.8,3.6-.3.4-.6.7-.9,1.1-.2.2-.3.4-.5.5,0,0-.3,0-.4,0v.3Z"/>
  <path class="st0" d="M148.2,14.9c-1.3-.9-2.5-2.1-3.4-3-.8-.9-1.6-2-2.3-2.9-.1-.2,0-.4,0-.5,0-.1.2-.2.4-.2s.2,0,.4.2c1.2,1.7,2.6,3.2,4,4.7.5.5,1,.9,1.5,1.3h0s0,0,0,0c0,0,.1.3,0,.4h0c0,.1-.1.1-.1.1v.2l-.5-.3Z"/>
  <path id="Vector_26" class="st0" d="M148.4,14.7c-1.2-.8-2.3-1.9-3.3-3-.8-.9-1.6-1.9-2.3-2.9-.1-.2.1-.4.3-.2,1.2,1.7,2.6,3.2,4,4.7.5.5,1,.9,1.5,1.3.1.2,0,.2-.2,0h0Z"/>
  <path class="st0" d="M87.1,28.4c-.1,0-.3,0-.4-.2h0v-.3c0-.3.2-.5.5-.5.5,0,1-.2,1.6-.3.3,0,.6-.2,1-.2.7-.3,1.5-.7,2.3-1,.8-.4,1.6-.8,2.4-1.1.9-.3,1.5-.6,2.2-1,.8-.5,1.5-1.1,2.1-1.7,1.1-.9,2.2-1.9,3.4-3.3,1.1-1.3,2.1-2.7,3-4,.8-1.2,1.7-2.4,2.7-3.6,1.2-1.5,2.5-2.8,3.6-3.8,1.8-1.7,3.9-3.1,6.6-4.4,1.1-.6,2.2-1,3.3-1.4l.7-.3.5-.2c1.5-.5,3-1,4.6-1,.2,0,.4,0,.7,0,2.6,0,5.2.5,7.4,1.5,1.3.6,2.4,1.3,3.5,2.1.4.3.9.6,1.3.8.3.2.5.3.7.5.2.2.4.3.7.5.2,0,.5.3.5.6,0,.1,0,.3-.3.5h0c0,0-.5,0-.5,0h0c-.2-.2-.3-.3-.4-.4-.1,0-.2-.2-.4-.3l-2.4-1.5c-1.3-.8-2.6-1.6-3.9-2.1-1.9-.7-3.9-1.1-5.8-1.1s-3.2.3-4.7.8l-3.6,1.2c-2.2,1-4.4,2.3-6.4,4-1.5,1.3-2.9,2.8-4.3,4.5-.7.9-1.5,1.9-2.2,2.9-1,1.3-2.1,2.7-3.1,4-1.4,1.9-3.2,3.6-5.8,5.4-.9.6-1.9,1-2.9,1.5-.4.2-.7.3-1.1.5l-.4.2c-1.4.7-2.9,1.4-4.5,1.6-.7.2-1.2.3-2,.4h0s0,0,0,0Z"/>
  <path id="Vector_27" class="st0" d="M86.9,27.9c0-.1,0-.2.2-.2.9-.1,1.7-.4,2.6-.6,1.6-.6,3.1-1.5,4.7-2.1.8-.3,1.5-.6,2.2-1,.8-.5,1.5-1.1,2.2-1.7,1.2-1,2.3-2.1,3.4-3.3,2-2.4,3.7-5.1,5.7-7.6,1.1-1.4,2.3-2.6,3.6-3.8,1.9-1.8,4.1-3.2,6.5-4.4,1.3-.7,2.6-1.1,4-1.6,1.6-.5,3.3-1.1,5-1.1,2.7,0,5.5.4,8,1.5,1.7.8,3.2,1.9,4.8,2.9.5.3.9.7,1.4,1,.2,0,.5.4.2.6h-.3c-.3-.2-.5-.4-.8-.6-.8-.5-1.6-1-2.4-1.5-1.3-.8-2.6-1.6-4-2.1-3.5-1.3-7.2-1.5-10.7-.3-1.2.4-2.4.8-3.6,1.2-2.3,1-4.5,2.4-6.5,4.1-1.6,1.4-3,2.9-4.3,4.5-1.8,2.3-3.5,4.7-5.3,6.9-1.6,2.1-3.6,3.8-5.7,5.3-1.2.8-2.6,1.3-3.9,1.9-1.5.7-3.1,1.5-4.8,1.8-.7.2-1.3.3-2,.4,0,0,0,0-.2-.1h0Z"/>
  <path class="st0" d="M106.9,45.5h0s-.2,0-.2,0h0c0,0-.3-.2-.3-.4v-.2s0,0,0,0c0-.2.1-.5.2-.7,0-.2.1-.5.2-.7.4-1.4,1-2.9,1.6-4.3.4-.8.5-1.6.6-2.7,0-1.2-.2-2.5-.7-4.2-.4-1.1-.9-2.2-1.8-3.3-.6-.7-1.2-1.4-1.9-1.9-1.5-1.5-3.1-2.4-4.7-2.6-.2,0-.5,0-.7,0-.8,0-1.6.2-2.4.5-.4.1-.9.3-1.3.5-.4.2-.9.4-1.4.6-.4.1-.9.3-1.4.4-.5.2-1,.3-1.4.5-.5.1-1,.4-1.5.5-.5.2-1,.4-1.5.6l-1.2.3h-.3s-.2,0-.2,0v-.2c-.2-.2-.2-.5,0-.7h0c0,0,.1,0,.1,0,.1,0,.3,0,.4-.1.1,0,.3-.1.5-.2.9-.3,1.7-.7,2.6-1l.8-.3c.4-.1.7-.2,1.1-.3.9-.3,1.8-.5,2.6-1,1.4-.7,2.9-1.1,4.4-1.1s2,.3,3.1.8c1.2.6,2.4,1.6,3.7,2.9.9.9,1.5,1.7,2,2.5.7,1.2,1.3,2.7,1.6,4.4.2,1,.4,2.1.2,3.1,0,.6-.2,1.5-.5,2.3-.5,1.1-.9,2.3-1.3,3.4-.3.9-.6,1.8-.8,2.7,0,.1-.2.4-.4.4h-.1Z"/>
  <path id="Vector_28" class="st0" d="M106.8,45.2s-.2,0,0-.2c0-.5.3-1,.4-1.5.4-1.4,1-2.8,1.6-4.2.4-.9.5-1.8.6-2.8h0c0-1.5-.3-2.9-.7-4.3-.4-1.2-1-2.3-1.8-3.4-.6-.7-1.2-1.4-1.9-2-1.3-1.3-2.9-2.4-4.8-2.7-1.1-.2-2.2.1-3.2.4-.9.3-1.8.8-2.7,1.1-.9.3-1.9.6-2.8.9-1,.3-2,.8-3,1.1l-1.2.3h-.2c0,0,0-.3,0-.4.3,0,.6-.2,1-.3,1.2-.4,2.3-.9,3.5-1.4,1.2-.4,2.5-.7,3.7-1.3,1.3-.7,2.8-1.1,4.3-1.1s2,.3,3,.8c1.3.7,2.5,1.7,3.6,2.8.7.7,1.4,1.5,1.9,2.4.8,1.3,1.3,2.8,1.6,4.3s.4,2,.2,3c0,.7-.2,1.5-.5,2.2-.5,1.1-.9,2.3-1.3,3.5-.3.9-.6,1.8-.8,2.7,0,0,0,.2-.2,0h-.2Z"/>
  <path class="st0" d="M113.5,60.6c-.7-.9-1.5-1.6-2.3-2.4-1-.9-1.9-1.8-2.7-2.9-1-1.3-1.5-2.8-1.8-4-.4-1.2-.7-2.6-.6-4.1,0-.3.3-.5.5-.5s.3,0,.4.2c0,.1.1.3,0,.4,0,.6,0,1.3.2,1.8.4,1.8.8,3.1,1.3,4.2.3.7.8,1.3,1.2,1.9l.3.4c.5.7,1.2,1.2,1.8,1.8.4.4.8.7,1.2,1.1l1,1c0,0,.1.2.1.2.1.1.3.3.2.5,0,0,0,.2-.2.4h0c0,0,0,0,0,0v.7l-.5-.7Z"/>
  <path id="Vector_29" class="st0" d="M113.7,60.4c-1.5-1.9-3.6-3.3-5-5.3-.9-1.2-1.4-2.5-1.8-3.9-.4-1.3-.7-2.6-.6-4h0c0-.3.5-.3.4,0,0,.7,0,1.4.2,2,.3,1.4.7,2.9,1.3,4.2.4.9,1,1.6,1.6,2.4.9,1.1,2,1.9,3,2.9.3.3.7.7,1,1,0,.2.5.4.2.6h-.3,0Z"/>
  <path class="st0" d="M149.5,45.8c-.2,0-.3-.1-.4-.3,0-.2,0-.3,0-.5.3-.8.6-1.6.8-2.3.4-1.6.6-3.3.8-4.9v-.3c0-1.8,0-3.7-.3-5.5v-.8s0,0,0,0c.1-.1.2-.1.3-.1.5,0,.7.8,1,4.2,0,.4,0,.8,0,.9,0,1.7-.2,3.2-.4,4.9v.2c-.2,1.1-.4,2.1-.8,3.2,0,.2-.1.4-.2.6,0,.2-.1.3-.2.5h0c0,.1-.1.2-.1.2,0,0-.3.1-.4.1h-.2Z"/>
  <path id="Vector_30" class="st0" d="M149.5,45.5c-.1,0-.2-.2-.1-.3.3-.8.6-1.6.8-2.4.4-1.7.6-3.5.8-5.2,0-1.9,0-3.8-.3-5.6v-.6c.6-.6.8,4.4.9,4.8,0,1.7-.2,3.3-.4,5-.2,1.1-.4,2.1-.8,3.1-.1.4-.3.7-.4,1.1,0,0-.2,0-.3,0h-.2Z"/>
  <path class="st0" d="M141.9,58.3h0c.5-.6.9-1.1,1.3-1.7.4-.6.8-1.2,1.2-1.8.4-.6.8-1.2,1.2-1.8l.3-.4c.5-.8,1-1.6,1.3-2.4,0-.2.2-.3.4-.3s.4.1.4.4v.3h-.1c-.4,1-.9,2-1.4,2.9-.2.4-.4.7-.6,1.1-.7,1.2-1.4,2.3-2.1,3.2,0,.1-.2.3-.3.4,0,.1-.2.2-.3.4h0c-.1.2-.3.4-.6.5l-.5.5v-1.2Z"/>
  <path id="Vector_31" class="st0" d="M142.2,58.7v-.3c.5-.5.9-1.1,1.3-1.7.8-1.1,1.5-2.4,2.3-3.5.6-1,1.2-1.9,1.6-3,0-.2.3,0,.2,0-.5,1.5-1.4,2.8-2.1,4.1-.6,1.1-1.3,2.2-2.1,3.2-.2.3-.4.5-.6.8-.1,0-.3.4-.5.3h0Z"/>
  <path class="st0" d="M148.8,22c-.1-.1-.2-.2-.2-.3l-.3-.6.5-.3c.1.2.2.3.3.5,0,.1.1.3.2.4l-.5.4h0Z"/>
  <path id="Vector_32" class="st0" d="M149.1,21.9c-.2-.3-.3-.6-.5-.9h0c.1.2.2.4.3.6,0,0,0,.1.1.2h0Z"/>
  <path class="st0" d="M143.5,13.7c-.3-.4-.6-.8-1-1.2-.2-.2-.4-.4-.5-.6-.9-.9-1.7-1.6-2.8-2.5h-.1v-.2c0-.3.2-.5.4-.5h.2c1.5,1.3,2.6,2.4,3.7,3.6.2.3.5.6.7.8h0v.5h-.2c0,0-.2.5-.2.5l-.3-.4Z"/>
  <path id="Vector_33" class="st0" d="M143.8,13.5c-.4-.6-1-1.2-1.5-1.8-.9-.9-1.8-1.7-2.8-2.5,0,0,0-.2.1-.2,1.3,1.1,2.5,2.2,3.7,3.5.2.3.5.6.7.8,0,0,0,.2-.1,0v.2Z"/>
  <path class="st0" d="M137.6,59h-.2c0,0-.3-.3-.3-.3l.4-.4c.2-.1.3-.3.3-.4.4-.6.8-1.1,1.2-1.6.4-.5.8-1,1.1-1.5,0-.2.2-.4.5-.4s.3,0,.4.2c0,0,0,.2,0,.4,0,.1-.1.2-.2.3,0,0-.1.1-.1.2-.3.4-.6.8-.9,1.2-.3.4-.6.8-.9,1.2,0,0-.1.2-.2.3-.4.5-.7.9-1,.9h0Z"/>
  <path id="Vector_34" class="st0" d="M137.7,58.6h0c.2,0,.3-.3.4-.5.7-1.1,1.6-2.1,2.3-3.2,0,0,0-.2.2-.2,0,0,.2,0,.1.2,0,0-.2.2-.3.4-.6.8-1.1,1.6-1.7,2.4-.2.2-.8,1.2-1.1,1h.1Z"/>
  <path class="st0" d="M142,52.4c0,0-.2,0-.2,0v-.3c0,0,0,0,0,0v-.3h0c.2-.4.4-.7.5-1,.2-.3.4-.6.6-.9.2-.3.4-.6.5-.9.2-.3.4-.7.6-1h0c0-.1.5-.1.5-.1v.3c0,0,0,0,0,0v.2s0,.1,0,.1c0,.2-.2.4-.4.6,0,.1-.2.3-.3.5,0,.2-.2.3-.3.5-.4.7-.8,1.3-1.2,1.9,0,.2-.2.3-.4.3Z"/>
  <path id="Vector_35" class="st0" d="M142,52.1v-.2c.4-.6.7-1.2,1.1-1.8.4-.6.7-1.3,1.1-1.9h.1c-.1.3-.2.6-.4.8-.2.4-.4.7-.6,1.1-.4.7-.8,1.3-1.2,1.9,0,0,0,.2-.2,0h0Z"/>
  <path class="st0" d="M145.7,43.6h-.1c0-.1,0-.2,0-.3h0s0-.1,0-.1l-.4-.7.5.3v-.4c.1,0,.1,0,.1,0,.4-1.2.7-2.1.9-3,.7-3.7.6-7.4-.3-10.5-.2-.7-.4-1.4-.6-2,0-.2,0-.2,0-.3,0,0-.1-.2-.1-.2v-.6h.7v.2c.2.4.3.7.4,1.1,0,.4.2.7.3,1.1.8,2.8,1.1,5.4.9,7.7,0,1.8-.4,3.4-.7,4.7-.2.7-.4,1.5-.8,2.3,0,.1,0,.3,0,.4v.2h0s.1.2.1.2h-.4v.3c0,0-.3-.3-.3-.3Z"/>
  <path id="Vector_36" class="st0" d="M145.9,43.3c-.2,0,0-.3,0-.4.4-1.1.8-2.3,1.1-3.5.7-3.5.7-7.3-.3-10.7-.2-.7-.4-1.4-.6-2,0-.2-.1-.3-.2-.5v-.2h.2c.2.7.4,1.5.6,2.2.7,2.5,1.1,5.1.9,7.6,0,1.6-.3,3.1-.7,4.6-.2.8-.5,1.6-.8,2.3,0,0,0,.3-.1.4,0,0,0,0-.2,0v.2Z"/>
  <path class="st0" d="M144.6,24v-.4c-.6-1.8-1.3-3.4-2.1-4.9-.5-1-1.1-2-2-2.9-1.3-1.6-2.8-3-4.3-4.4-.7-.7-1.4-1.3-2.2-1.9-.2-.2-.2-.4-.2-.6,0-.2.3-.3.5-.3s.2,0,.4.1c.5.4.9.8,1.3,1.1,2.4,2.1,5,4.3,6.6,7.3.7,1.3,1.2,2.7,1.8,4.1.1.4.3.7.4,1.1,0,.2.1.4.2.6,0,.2.2.4.2.6v.2s0,.3,0,.3h-.7Z"/>
  <path id="Vector_37" class="st0" d="M144.9,23.5c-.6-1.7-1.3-3.4-2.1-5-.6-1.1-1.2-2.1-2-3h0c-1.3-1.6-2.8-3-4.3-4.4-.7-.7-1.4-1.3-2.2-1.9-.2-.2,0-.5.3-.3,2.8,2.5,5.9,4.9,7.8,8.3.9,1.6,1.5,3.4,2.2,5.2.1.4.3.8.4,1.2h0q0,.1-.1.1v-.2Z"/>
  <path class="st0" d="M130.6,57.9c-.2-.6-.2-1.1-.2-1.6-.2-1.3,0-2.8.3-4.7.4-2.2,1-4.2,1.9-6.6,0-.2.2-.3.4-.3s.3,0,.4.1h.2c0,.1,0,.3,0,.3-.2.5-.3,1.1-.5,1.6-.3,1-.7,2.1-1,3.2-.3,1.5-.6,3-.7,4.4v3.3l-.4.9-.2-.6Z"/>
  <path id="Vector_38" class="st0" d="M130.9,57.8c-.2-.5-.2-1-.2-1.5-.2-1.5,0-3.1.3-4.6.4-2.3,1.1-4.4,1.9-6.6,0-.2.3,0,.3,0-.5,1.6-1.1,3.2-1.5,4.8-.3,1.5-.6,3-.7,4.5v3.2h0v.2Z"/>
  <path class="st0" d="M134.3,38.7c-.2,0-.4-.1-.4-.5v-1.5c0-1.6,0-3.3-.3-4.8v-.3c-.3-1.6-.6-3.3-1.2-4.9v-.4c-.5-1-.9-2-1.4-2.9-.2-.3-.5-.7-.7-1.1s-.5-.7-.7-1.1c-.1-.2-.1-.4,0-.6.1-.2.3-.3.5-.3s.3,0,.4.2c1.4,1.6,2.4,3.6,3.1,5.8.5,1.5.7,3.2.9,4.7.2,1.3.3,2.6.3,3.8s0,1.8-.1,2.7v.6c0,0,0,.2,0,.3v.2h-.3Z"/>
  <path id="Vector_39" class="st0" d="M134.3,38.4s-.1,0-.1-.2v-1.5c0-1.6,0-3.3-.3-4.9h0c-.3-1.7-.6-3.5-1.2-5.2h0c-.4-1.1-.8-2.3-1.4-3.3-.5-.7-1-1.5-1.5-2.2-.2-.3.2-.7.5-.4,1.4,1.6,2.4,3.6,3,5.7.5,1.5.7,3.1.9,4.7.2,1.3.3,2.6.3,3.8s0,1.8-.1,2.7v.6s0,0-.1,0h0Z"/>
  <path class="st0" d="M128.8,20c-.2,0-.4-.2-.5-.4-.1-.2-.3-.4-.5-.6,0,0-.2-.1-.2-.2-.2-.2-.4-.4-.6-.5-.2-.2-.4-.4-.6-.6-.6-.5-1.2-1-1.8-1.4-1-.5-2.1-.9-3.1-1.3-.3-.1-.6-.2-.9-.3-.2,0-.5-.1-.7-.2,0,0,0,0,0,0-.1,0-.3,0-.5-.1,0,0-.2,0-.2,0-.3,0-.5-.4-.5-.6,0-.3.4-.5.6-.5.3,0,.5.1.7.2.3,0,.6.2.9.2.3,0,.6.2.9.3,1,.3,2.1.6,3.1,1.2.9.5,1.7,1.2,2.5,1.9l.2.2c1.4,1.4,1.9,2,1.7,2.4,0,.1-.1.3-.5.3h0s0,0,0,0Z"/>
  <path id="Vector_40" class="st0" d="M128.8,19.7c-.1,0-.2-.1-.2-.2-.2-.4-.5-.6-.8-.9-.4-.4-.8-.7-1.2-1.1-.6-.5-1.2-1-1.9-1.4-1-.5-2.1-.9-3.2-1.3-.5-.2-1-.3-1.6-.5-.3,0-.6-.2-.8-.2s-.2-.2-.2-.3.2-.2.3-.2c.5.1,1,.3,1.6.4,1.3.4,2.7.7,3.9,1.4.9.5,1.7,1.2,2.5,1.9.3.3,2.5,2.3,1.6,2.4h0Z"/>
  <path class="st0" d="M114.5,6.6c-.1,0-.3,0-.4-.1h0s0,0,0,0h0c0,0,0-.1,0-.1-.2-.3-.1-.5,0-.7.3-.6,1.3-.7,2.5-.8.2,0,.4,0,.5,0,.5,0,.9,0,1.3,0,.4,0,.7,0,1.1,0s1,0,1,.7-.3.7-.7.7c-1,0-1.9,0-2.9,0-.5,0-1.1,0-1.6.2-.1,0-.2,0-.3,0,0,0-.2,0-.4,0Z"/>
  <path id="Vector_41" class="st0" d="M114.3,6.3c-.7-1,2.1-1,2.7-1.1.8,0,1.6,0,2.3,0s.7,0,.7.4-.2.4-.4.4c-1,0-1.9,0-2.9,0-.5,0-1.1,0-1.7.2-.3,0-.5.3-.8,0h.1Z"/>
  <path class="st0" d="M126.5,6.5h0c-.4,0-.8-.2-1.2-.2-.4,0-.8-.1-1.2-.2h-.3v-.4h.3v-.3c.6,0,1.2,0,1.8.2.3,0,.5,0,.8.1h.1s.2.1.2.1h0c0,0,0,.3,0,.3,0,.2-.2.4-.4.4h-.1Z"/>
  <path id="Vector_42" class="st0" d="M126.6,6.2c-.8,0-1.7-.3-2.5-.4,0,0,0-.2,0,0,.8,0,1.7.2,2.5.3.2,0,0,.3,0,.2Z"/>
  <path class="st0" d="M116.7,57.4v-.5c0,0-.1,0-.1,0,0,0,0,0,0,0,0,0,0,0,0,0v-.3h.3s.2,0,.2,0v.3c.1,0,.2.2.2.2,0,0-.2.1-.2.1,0,0-.1.3-.1.3h-.3Z"/>
  <path id="Vector_43" class="st0" d="M116.8,57.1s0-.2,0-.3c0,0,.2,0,0,0h0s0,.2-.2.2h0Z"/>
  <path class="st0" d="M117,56.7h-.1c0-.1,0-.2,0-.2h0c-1.1-1.2-2.1-2.5-3.3-4.4l-.2-.3c-.8-1.3-1.6-2.5-2-4-.7-2.1-.7-4.3-.6-6.4,0-.4,0-.8,0-1.3s.3-.7.7-.7.7.3.7.7v3.6c0,1.5.2,2.9.7,4.2.7,1.8,1.7,3.5,2.7,5,.1.2.3.5.5.7.2.3.4.5.5.8.1.2.3.5.5.7.2.2.4.5.5.7h0v.2c0,.2,0,.6-.4.6h-.1Z"/>
  <path id="Vector_44" class="st0" d="M117.1,56.4h0c-1.3-1.4-2.3-2.8-3.3-4.4-.8-1.3-1.7-2.7-2.2-4.2-.8-2.4-.6-5.1-.6-7.6s.2-.4.4-.4.4.2.4.4v3.6c0,1.4.2,2.9.7,4.3.7,1.8,1.7,3.5,2.7,5.1.3.5.7,1,1,1.5s.7.9,1,1.4c0,0,0,.4,0,.3Z"/>
  <path class="st0" d="M112.8,36.4c-.3,0-.5-.4-.5-.6v-3.8c0-.1,0-.4.4-.6h0s0,0,0,0c.1,0,.4,0,.6.4h0v1.5c0,.2,0,.5,0,.7,0,.4,0,.9,0,1.4v.5c0,.2,0,.4-.3.4v.2h-.3Z"/>
  <path id="Vector_45" class="st0" d="M112.8,36.1c0,0-.2-.2-.2-.3v-3.8c0-.1,0-.2.2-.3,0,0,.2,0,.3.2v1.4c0,.7,0,1.3,0,2v.5c0,0,0,.2-.3.2h0Z"/>
  <path class="st0" d="M111.1,29.6c-.4-.7-.9-1.3-1.5-1.9-.9-.8-1.8-1.6-2.8-2.3h-.1v-.4h.3l.2-.2c.3.2.5.4.8.6,1.4,1,2.8,2.1,3.7,3.6,0,0,.2.3.1.5,0,.1-.1.2-.2.3l-.4.2v-.5Z"/>
  <path id="Vector_46" class="st0" d="M111.4,29.5c-.4-.8-1-1.4-1.6-2-.9-.8-1.8-1.6-2.8-2.3,0,0,0-.2,0-.1,1.6,1.2,3.4,2.3,4.4,4.1,0,0,.2.3,0,.4h0Z"/>
  <path id="Vector_47" class="st0" d="M105.8,24.6h0,0Z"/>
  <path id="Vector_48" class="st0" d="M102.1,23.7h0Z"/>
  <path id="Vector_49" class="st0" d="M102.2,23.5c0,0-.2,0-.3-.1,0-.1,0-.3.2-.3,0,0,.2,0,.3.1.2.1,0,.4-.2.3Z"/>
  <path class="st0" d="M68.7,36.1c-.3,0-.4,0-.5-.2h-.3v-.3c0-.1,0-.5.4-.7h0s0,0,0,0c0,0,.2,0,.3,0,.2,0,.4-.1.7-.1,1.1-.3,2.3-.4,3.5-.5h.1c.6,0,1.2-.2,1.8-.3.2,0,.5-.1.7-.2.2,0,.3,0,.5-.1.1,0,.3-.1.5-.2.2,0,.4,0,.5-.2.1,0,.2,0,.3-.1,0,0,0,0,0,0,.6,0,.7.4.7.5,0,.6-.5.6-.7.6s-.3,0-.5.2c-.1,0-.2,0-.3.1-1.4.5-2.9.8-4.6,1-.9,0-1.8.2-2.6.4-.3,0-.4,0-.6.1h-.2c0,0,0,0,0,0Z"/>
  <path id="Vector_50" class="st0" d="M68.2,35.6c0,0,0-.3.2-.4.3,0,.6-.2,1-.2,1.2-.3,2.5-.4,3.7-.5.9,0,1.7-.3,2.6-.5.3,0,.6-.2,1-.3.3,0,.6-.2.9-.3,0,0,.3,0,.3.2,0,.3-.2.3-.4.3-.3,0-.6.2-.9.3-1.5.5-3,.8-4.5,1-.9,0-1.8.2-2.6.4-.3,0-.5,0-.8.2,0,0-.3,0-.3-.2h-.2Z"/>
  <path class="st0" d="M68.5,44.3c0,0-.2,0-.3,0h0c-.9,0-1.8-.6-2.6-1.7-.9-1.1-1.3-2.6-1-3.9,0-.3.2-1.1.7-1.6.1-.1.3-.3.5-.3s.4.1.4.4-.1.4-.2.6c0,0,0,.1-.1.2-.2.6-.4,1.1-.4,1.8,0,.9.5,2,1.3,2.8.5.6.9.8,1.4.8s.4,0,.6-.1c1-.2,1.9-.9,2.9-2.1.3-.4.6-.8.9-1.2.4-.6.9-1.1,1.3-1.8.8-1.1,1.6-2.2,2.5-3.2.5-.6,1-1.1,1.6-1.6.2-.2.5-.5.6-.7,0,0,.1-.1.1-.2.1-.2.3-.5.7-.5s.1,0,.2,0h0s0,0,0,0c.2.1.2.3.3.4,0,.5-.5,1.1-1.4,1.9,0,0-.2.1-.2.2-.1.1-.3.3-.4.4-.3.2-.5.5-.7.7-.7.8-1.2,1.6-1.7,2.4-.2.4-.4.7-.7,1.1l-.4.6c-1.4,2-3,4.5-5.8,4.5Z"/>
  <path id="Vector_51" class="st0" d="M68.1,44c-1,0-1.8-.8-2.4-1.6-.8-1-1.2-2.4-.9-3.7,0-.5.3-1.1.6-1.5,0,0,.3-.3.3,0s-.2.4-.3.6c-.2.6-.4,1.2-.4,1.9,0,1.1.6,2.2,1.4,3,.7.8,1.3,1.1,2.3.8,1.2-.3,2.2-1.2,3-2.2.7-1,1.5-1.9,2.2-3,.8-1.1,1.6-2.2,2.5-3.2.5-.6,1-1.1,1.6-1.6.2-.2.5-.5.7-.8.2-.2.3-.6.7-.5.6.4-1.1,1.8-1.4,2.1-.4.4-.9.7-1.2,1.2-1,1.1-1.6,2.3-2.4,3.5-1.5,2.2-3.2,5.2-6.2,5h0Z"/>
  <path class="st0" d="M4.5,103.8c-.2,0-.4,0-.6,0h-.3v-.2c-.9-.1-1.3-.6-1.5-1-.3-.7-.1-1.8.6-2.7.7-.9,1.4-1.6,2.2-2.1,2.6-2,5.6-3.7,9-5.1.8-.3,1.6-.6,2.4-.8.2,0,.3,0,.5,0,.2,0,.4-.1.6-.1s.3.1.4.3c0,.2,0,.3,0,.4,0,0-.2.2-.4.2s-.3,0-.5.2c-3.3,1.3-6.1,2.7-8.6,4.3-.3.2-.7.5-1,.7-.3.2-.7.4-1,.7l-.4.3c-.8.6-1.6,1.2-2.1,1.9-.3.5-.6,1.1-.5,1.4,0,0,0,.2.5.3.2,0,.4,0,.5,0s.3,0,.5,0c.2,0,.4,0,.6,0,1.6-.5,3.1-1.1,4.7-1.9-.7.3-1.2.5-1.2.5-.9.4-2.5,1.1-3.6,1.1s-.5,0-.6-.1c-.2,0-.3-.2-.4-.4,0-.2,0-.4,0-.6.3-.4.6-.7.9-1,0,0,.2-.2.3-.3.4-.4,1-.8,1.5-1.1.9-.7,1.8-1.3,2.7-1.9.3-.2.6-.3.8-.5.7-.5,1.4-.9,2.2-1.2l.4-.2c.7-.3,1.5-.6,2.3-.7.2,0,.5,0,.8,0,.7,0,1.2.2,1.5.5.2.2.3.5.2.9-.4.9-.9,1.5-1.5,2.1l-.3.4c-.6.6-1.2,1.2-1.9,1.7-1,.7-2,1.2-3,1.7l-.7.4c-1,.5-2.2,1-3.1,1.4l-.5.2c-.7.3-1.5.6-2.4.6ZM16.1,95c-1,0-2.1.5-3.1.9-.3.1-.7.3-1,.5-.1,0-.3.2-.4.2-1.2.7-2.5,1.6-3.8,2.6-.6.4-1.2.9-1.8,1.4,0,0-.2.2-.3.3-.1,0-.2.2-.3.3.6,0,1.7-.5,2.4-.8,0,0,0,0,0,0-.1,0-.3-.1-.3-.2,0-.2-.1-.3,0-.5.3-.3.6-.5.8-.6.2-.2.5-.3.8-.5.5-.4,1.1-.7,1.6-1,.8-.5,1.9-1.1,3.3-1.4.1,0,.2,0,.3,0,.2,0,.4,0,.6,0,.4,0,.6.2.7.4,0,.1,0,.2,0,.4.5-.5.9-1.1,1.2-1.5,0,0-.2,0-.4,0-.1,0-.3,0-.4,0ZM14.1,96.9c-.9.2-1.6.6-2.3,1.1-.8.4-1.5.9-2.3,1.4l-1,.7c1.3-.5,2.7-1.3,4.1-2.1.2-.2.5-.3.7-.4.4-.2.7-.4,1-.6,0,0,0,0,0,0,0,0-.3,0-.3,0Z"/>
  <path id="Vector_52" class="st0" d="M3.9,103.3c-2,0-2-1.9-1-3.2.6-.8,1.3-1.5,2.1-2,2.7-2.1,5.8-3.8,9-5.1.8-.3,1.6-.6,2.4-.8.3,0,.7-.2,1-.2s.2,0,.1.2c0,0-.1,0-.2,0-.2,0-.4,0-.6.2-3,1.2-5.9,2.6-8.6,4.3-.7.5-1.4.9-2.1,1.4-.9.7-1.9,1.4-2.6,2.3-.5.7-1.1,2,.2,2.2.6,0,1.1,0,1.7,0,2.9-.9,5.5-2.2,8-3.8,1.3-.7,3.3-2.5,3.9-3.8h0c-.1-.4-.7-.3-1-.4-1.1,0-2.2.4-3.3.9-.5.2-1,.5-1.4.7-1.3.8-2.6,1.7-3.8,2.6-.6.4-1.2.9-1.8,1.4-.3.3-.7.6-1,1,.5.5,3-.7,3.6-.9,1.5-.6,3-1.4,4.3-2.2.6-.4,1.2-.7,1.7-1.1.2-.2.5-.3.6-.6-.4,0-.7,0-1.1,0-.9.2-1.6.6-2.4,1.1-.8.4-1.6.9-2.3,1.4-.4.3-.8.6-1.2.9-.2,0-.4,0-.3-.3.2-.2.5-.4.7-.5.8-.5,1.6-1.1,2.4-1.5,1-.6,2-1.1,3.2-1.4.3,0,1.1-.3,1.3,0,.4,1.1-5.7,3.9-6.7,4.3-.9.4-3.1,1.4-4,1-.2,0-.3-.4-.2-.6.3-.5.7-.8,1.1-1.2.4-.4.9-.8,1.4-1.1.9-.7,1.8-1.3,2.7-1.9,1-.6,1.9-1.3,3-1.7.8-.3,1.7-.7,2.6-.8.8,0,2.4-.2,2.2,1-.4.9-1.1,1.6-1.7,2.3-.6.6-1.2,1.2-1.8,1.6-1.2.8-2.4,1.4-3.7,2.1-1,.5-2.1,1-3.1,1.4-1.1.4-2.1.9-3.3.7v-.2Z"/>
  <path class="st0" d="M19.6,175.1c-.2,0-.5-.2-.5-.6v-.3c0-.7,0-1.4,0-2-.2-1.8-.2-3.7,0-5.5v-5.1c0-1-.2-2.1-.4-3.1-.1-.6-.2-1.2-.3-1.8-.1-.6-.2-1.1-.2-1.7,0-.5,0-1.1-.2-1.7l-.9-4.8c-.7-3.1-1.2-6.3-1.7-9.4-.3-1.9-.6-3.7-.9-5.6-.3-1.4-.6-2.7-1.2-4.4l-.2-.6c-.4-1.4-.9-2.9-1.5-4.3-.4-.9-.7-1.8-1-2.7-.4-1.1-.8-2.3-1.3-3.3-.2-.5-.5-1-.7-1.5-.2-.5-.4-1-.7-1.5-.1-.3-.3-.5-.4-.8-.1-.2-.4-.7-.4-.7-.4-.7-.7-1.5-.9-2.2-.3-.8-.6-1.7-1.1-2.5-.3-.5-.6-1.1-1-1.6l-1.6-2.2c-.3-.4-.7-.8-1-1-.4-.2-.8-.6-.9-1.2,0-.2,0-.6.3-.9.5-.5,1.1-.5,1.7-.5.2,0,.3,0,.5,0h.3s0,.3,0,.3c0,.1.2.2.5.3.2,0,.3,0,.5,0s.3,0,.5,0c.2,0,.4,0,.6,0,2.6-.8,5.2-2,7.8-3.8,0,0,.2-.1.2-.2h0c0,0,.1,0,.1,0,0,0,0,0,.1-.1v-.2h.1c.5-.4,1-.7,1.5-1.1.8-.6,1.8-1.4,2.2-2.5.2-.6.3-1.2,0-1.6-.3-.4-.8-.4-1.3-.4h-.4v-.2c-.1-.2,0-.3,0-.4.1-.2.4-.2.4-.2s.3,0,.3,0c.2,0,.5,0,.6.1.5.2.9.5,1.1.9.5.9.1,2,0,2.4-.3,1-1.2,1.9-1.9,2.4-1.1,1.1-2.5,1.9-3.7,2.5l-2.1,1.2c-1.7.9-3.3,1.6-4.9,2-1,.3-2.2.4-3.5.4s-.4,0-.6,0c.1.2.3.5.5.7.2.2.3.4.5.6.6.8,1.1,1.5,1.5,2.2l.2.2c.5.8,1,1.6,1.4,2.6.2.4.3.7.4,1.1.1.3.2.7.4,1,.2.6.4,1.2.7,1.6,1.1,2,2.2,4.3,3.3,7.2.3.7.6,1.4.9,2.1.3.7.6,1.5.9,2.2.4,1.2.8,2.4,1.1,3.6l.2.8c.3,1,.6,2.1.9,3.1v.6c.4,1.2.5,2.5.7,3.7.2,1.7.5,3.5.8,5.2.3,2,.7,4,1.1,5.9.2,1.1.4,2.2.7,3.3.2,1.1.4,2.2.6,3.4v.7c.2.4.2.8.3,1.2,0,.4.2.9.2,1.3.3,1.6.5,3.4.6,5.2.2,2.1.1,4.3,0,6.3h0v.2c0,.6,0,1.3,0,1.9,0,1,0,2,0,3,0,.2-.2.5-.6.5Z"/>
  <path id="Vector_53" class="st0" d="M19.8,169.7c0,1.6.2,3.3.1,4.9,0,.1-.1.2-.3.2s-.2-.1-.2-.3v-.3c0-.7,0-1.4-.1-2-.2-1.8-.2-3.6,0-5.4v-5.1c0-1.7-.5-3.3-.7-4.9-.2-1.1-.2-2.2-.4-3.4-.3-1.6-.6-3.2-.9-4.8-1.1-4.9-1.7-10-2.6-15-.3-1.5-.7-2.9-1.2-4.4-.5-1.6-1-3.3-1.7-4.9-.8-2-1.5-4.1-2.3-6-.5-1-.9-2.1-1.4-3.1s-1.1-1.9-1.4-3c-.3-.7-.5-1.4-.8-2.1-.4-.9-.9-1.7-1.4-2.5-.6-.8-1.2-1.6-1.8-2.4s-.7-.8-1.1-1.1c-.5-.3-1.1-1-.5-1.6.6-.5,1.3-.4,2-.5h0c0,.3.3.5.7.6.6,0,1.1,0,1.7,0,2.9-.9,5.5-2.2,8-3.8,0,0,.2,0,.3-.2.1,0,.3-.2.4-.3v-.2c.5-.3,1-.6,1.5-1,.9-.7,1.9-1.5,2.3-2.6.2-.6.4-1.3,0-1.9-.4-.5-1-.5-1.5-.5h-.2c-.1-.3.3-.2.5-.2s.4,0,.5,0c1.4.4,1.4,1.9,1,3-.3.9-1.1,1.7-1.8,2.3-1,1-2.3,1.8-3.6,2.5-.7.4-1.4.8-2.1,1.2-1.5.8-3.1,1.5-4.8,2-1.4.4-3,.5-4.4.4.2.7.8,1.2,1.2,1.8.9,1.2,1.8,2.5,2.5,3.8.9,1.5,1.2,3.2,2,4.7,1.3,2.3,2.4,4.8,3.4,7.3.6,1.4,1.2,2.9,1.8,4.3.5,1.4.9,2.9,1.3,4.3.4,1.2.7,2.5,1,3.7.5,2.9.8,5.9,1.4,8.9.5,3.1,1.2,6.1,1.8,9.2.3,1.3.5,2.8.7,4.1.1.8.3,1.7.4,2.5.3,1.7.5,3.5.6,5.2.2,2.1.1,4.3,0,6.4h.1Z"/>
  <path id="Vector_54" class="st0" d="M17.5,92.2h-1.1v-.2h.8c.1,0,.2,0,.1.2h.2Z"/>
  <path id="Vector_55" class="st0" d="M19.1,92.4s.1.2,0,.3c0,0-.2,0-.3,0-.2,0-.4-.2-.6-.3,0,0,.1-.2.2-.3h0c.2,0,.4.2.5.3h.2Z"/>
  <path id="Vector_56" class="st0" d="M18.2,92.7v.2c0,0-.1.2-.2.3h0v-.2c0,0,0-.2.1-.3h.1Z"/>
  <path id="Vector_57" class="st0" d="M33.9,162.6v4.5h0v1.6c0,.5,0,1,0,1.5v2.4h0c0,.2,0,.4,0,.5,0,.1,0,.2-.3.2s0,0,0,0c0,0-.2-.2-.2-.4v-.2h0v-.2c0-.2,0-.3,0-.5v-.6c0-.3,0-.5,0-.8,0-.3,0-.7,0-1,0-.8,0-1.6,0-2.3h0v-9.6c0-.8,0-1.5-.2-2.3,0-.7,0-1.4-.2-2.1,0-.7,0-1.5-.2-2.2,0-.8,0-1.5-.2-2.3,0-.8-.2-1.6-.2-2.3s0-.8,0-1.2c0-.4,0-.7,0-1.1,0-.7-.2-1.5-.3-2.2l-.3-2.4c-.2-1.5-.4-3-.6-4.5-.1-.7-.2-1.5-.3-2.2-.1-.8-.2-1.6-.4-2.3-.2-1.4-.5-2.8-.7-4.3-.3-1.5-.5-3-.8-4.5-.3-1.4-.6-2.9-.9-4.3-.3-1.3-.5-2.6-.8-3.8-.1-.5-.2-1-.3-1.5-.2-.7-.3-1.5-.5-2.2s-.4-1.5-.5-2.2c-.2-.8-.4-1.5-.6-2.3s-.4-1.5-.6-2.3c-.4-1.5-.9-3-1.5-4.5-.2-.6-.5-1.3-.7-1.9-.3-.7-.6-1.4-.9-2-.1-.2-.2-.4-.3-.6-.1-.2-.2-.4-.3-.5,0,0-.1-.2-.2-.3,0,0-.1-.2-.2-.2l-.2-.2-.2-.2h-.5c0,0-.1,0-.2,0,0,0,.1-.2.2-.3,0,0,.2,0,.3-.2h.4c.2,0,.4,0,.6.2.1,0,.3.2.4.3.1,0,.2.3.3.4.2.3.4.5.6.8s.3.6.5.9c.3.7.7,1.4,1,2.1s.5,1.4.8,2.1c.5,1.5,1,3.1,1.5,4.6.4,1.5.8,3,1.2,4.5.2.7.4,1.5.6,2.3.2.7.4,1.5.5,2.2.3,1.4.6,2.9.9,4.3.2.8.3,1.7.5,2.5s.3,1.6.5,2.5c.3,1.5.6,3,.8,4.5.2,1.4.5,2.8.7,4.3.1.8.2,1.6.4,2.3,0,.7.2,1.5.3,2.2.2,1.5.4,3,.6,4.6s.2,1.6.3,2.4c0,.7.2,1.5.3,2.2,0,.4,0,.8,0,1.2,0,.4,0,.8,0,1.2,0,.8.2,1.6.3,2.3.2,1.5.3,3.1.4,4.6,0,.7,0,1.4.2,2.2,0,.8,0,1.6,0,2.4s0,1.5,0,2.3v2.3l-1.2-.5Z"/>
  <path class="st0" d="M25.6,178c-.4,0-.8,0-1.3-.1l-.4-.2h-.4c-.2,0-.3,0-.6-.1-.1,0-.3,0-.4-.1-.2,0-.4-.1-.5-.2,0,0-.1,0-.2,0,0,0,0,0-.1,0h0c-.2,0-.3,0-.5-.2-.2,0-.4-.1-.5-.2h0c-.2,0-.3-.2-.4-.3,0,0,0,0-.1,0-.1,0-.2-.1-.3-.2s-.1-.1-.2-.1h-.2v-1h1v.3h.1c0,.1.1.2.2.3,0,0,.2.1.3.2,0,0,0,0,0,0,0,0,.2,0,.3.2.1,0,.3.1.5.3h0c0,0,.2,0,.3,0,0,0,0,0,.1,0h0c0,0,.2,0,.3,0,0,0,0,0,.1,0h0c.2,0,.3,0,.5,0h3.7c.3,0,.5,0,.7,0,.3,0,.4,0,.6-.1h.2c.2,0,.2,0,.4-.1h0s0,0,0,0h0c0,0,.2-.1.2-.1,0,0,.1,0,.2,0,0,0,.2-.1.3-.1,0,0,0,0,.1,0,0,0,.2-.1.3-.2h0s0,0,0,0h0c0,0,.1,0,.1,0,0,0,0,0,0,0,0,0,.1,0,.2-.1h0c0-.1.2-.2.3-.2.1,0,.3-.2.3-.3l.3-.3c0-.1.2-.2.3-.3,0,0,0,0,0,0,.2-.2.2-.3.3-.5,0-.2.2-.3.3-.4,0,0,0,0,0,0,0,0,0-.2.2-.3h0c0,0,.4,0,.4,0v.3c0,0,0,.1,0,.1,0,.1,0,.2-.1.3,0,0,0,.1,0,.2,0,.2-.1.4-.2.5,0,0,0,0-.1.1-.1.2-.2.4-.5.7,0,0,0,0,0,0,0,0,0,.2-.2.3l-.5.5h-.4c0-.1.3,0,.3,0v.2h-.1c-.1.2-.3.3-.5.4-.2.1-.4.3-.5.4h0c0,0,0,0,0,0,0,0,0,0-.1,0,0,0-.2.1-.3.2h0s0,0,0,0c0,0-.1,0-.2,0-.1,0-.3.1-.4.1h-.5c0,.1-.6.3-.6.3-.4,0-.8.1-1.2.2h0s-1.4,0-1.4,0Z"/>
  <path id="Vector_58" class="st0" d="M24,177.4h-.5c-.2,0-.3,0-.5-.1-.1,0-.3,0-.4-.1-.2,0-.4-.1-.5-.2h0c-.1,0-.3-.1-.4-.1-.2,0-.4-.2-.5-.2-.2,0-.3-.1-.5-.2-.2,0-.3-.2-.5-.3-.1,0-.2-.2-.4-.3h0v-.4h.4c0,.1.1.2.2.3,0,0,.2.1.2.2,0,0,.2.1.3.2,0,0,.2.1.3.2.2.1.4.2.6.4h.2c.1,0,.3.1.4.1s.3.1.4.1c.2,0,.3,0,.5.1h3.8c.3,0,.5,0,.8-.1.3,0,.5-.1.8-.2.1,0,.2,0,.4-.1.1,0,.2,0,.3-.1.2,0,.4-.2.5-.2.2,0,.3-.2.5-.3,0,0,.1,0,.2-.1.1,0,.2-.1.4-.2.1,0,.2-.2.3-.2.2-.1.4-.3.5-.5,0,0,.2-.2.3-.3,0-.1.2-.2.3-.3.2-.2.3-.4.4-.6,0-.1,0-.2.2-.3,0,0,0-.2.2-.3h0c0,.2-.2.4-.2.6s-.2.3-.3.5h0c0,.2-.2.4-.4.6,0,0,0,.2-.2.3,0,0-.2.2-.3.3,0,0-.1.1-.2.2,0,0-.2.1-.2.2-.3.2-.7.5-1,.7-.2,0-.3.2-.5.3-.2,0-.4.2-.6.2-.4.1-.8.2-1.2.3-.4,0-.8.1-1.2.2h-1.4c-.4,0-.8,0-1.2-.1l-.4-.2Z"/>
  <path id="Vector_59" class="st0" d="M20.9,107.1c-.6-1.6-1.1-3.1-1.7-4.6,0,0,0-.2-.1-.3v-.2c0-.2.2-.3.4-.2.3.2.4.6.6.9.6,1.4,1.1,2.8,1.6,4.2.2.5-.5.7-.7.3h0Z"/>
  <path class="st0" d="M26.3,123.5c-.2,0-.4,0-.4-.2h-.1v-.3c-.3-2.1-.8-4.2-1.3-6.3,0-.4.2-.7.5-.7s.4.1.5.4c.4,1.5.7,3,1,4.5.1.6.2,1.1.3,1.6,0,0,0,.1,0,.2,0,.2,0,.4,0,.5h0c0,0-.2.1-.2.1Z"/>
  <path id="Vector_60" class="st0" d="M26,123c-.3-2.1-.8-4.2-1.3-6.3,0-.3.3-.4.4,0,.6,2,.9,4.1,1.3,6.1,0,.2.1.5-.1.5s-.2,0-.2-.2h0Z"/>
  <path class="st0" d="M28,132.1c-.2,0-.3,0-.4-.3h0v-.2c-.1,0-.7-3.6-.7-3.6,0-.2,0-.3.1-.5.1-.1.3-.2.4-.2.3,0,.6.2.6.6,0,.4.1.8.2,1.2.1.8.2,1.6.4,2.4,0,.4-.2.6-.5.6Z"/>
  <path id="Vector_61" class="st0" d="M27.7,131.5c-.2-1.2-.4-2.4-.6-3.6-.1-.4.5-.5.5,0,.2,1.2.3,2.4.6,3.6,0,.3-.4.4-.4,0h-.1Z"/>
  <path class="st0" d="M8.2,112.6c-.1,0-.3,0-.3-.1h-.1l-.3-.8c-.6-1.4-1.1-2.8-2-4.2-.2-.2-.2-.4-.2-.5,0-.2.3-.3.5-.3s.3,0,.4.1c.4.4.6.8.8,1.2.5.9.9,1.8,1.2,2.6.2.4.4.9.6,1.3,0,.2,0,.4,0,.5-.1.1-.3.2-.4.2Z"/>
  <path id="Vector_62" class="st0" d="M7.9,112.2c-.7-1.7-1.3-3.3-2.3-4.9-.3-.2,0-.5.3-.3.3.3.5.7.7,1.1.7,1.3,1.2,2.6,1.8,3.9.1.3-.3.5-.4.2h-.1Z"/>
  <path class="st0" d="M13.1,125.4c-.1,0-.3,0-.5-.2h0c0,0,0-.2,0-.2,0-.5-.2-1-.4-1.4,0-.1-.1-.3,0-.5,0-.2.2-.3.4-.3s.4.1.5.4c0,.2.2.5.3.8,0,.2.1.5.2.7h0c0,.2,0,.4-.2.6h0c0,0-.1,0-.1,0Z"/>
  <path id="Vector_63" class="st0" d="M12.8,125c-.1-.5-.2-1-.4-1.5-.2-.3.2-.5.3-.2.2.5.3,1,.5,1.5,0,0,0,.2-.1.3-.1,0-.2,0-.3-.1Z"/>
  <path class="st0" d="M21.3,163.2c-.1,0-.2,0-.3-.1l-.5-.5h.5c0-.6-.1-1.2-.2-1.7,0-1.3-.3-2.4-.4-3.6v-.5c-.1-.8-.3-1.5-.5-2.1,0-.3-.1-.6-.2-.9,0-.3-.1-.5-.2-.8,0-.3-.1-.6-.2-1h0v-.4s0,0,0,0v-.2c0,0,.2-.2.2-.2h.2c0,0,.1,0,.1,0h.1c.2.3.3.6.3.8,0,0,0,.2,0,.2l.3,1.5c.5,1.9.9,4,1.1,6.7,0,.6.1,1.2.2,1.8v.5c0,.3-.3.4-.5.4Z"/>
  <path id="Vector_64" class="st0" d="M21.3,162.9h0c0-.7-.1-1.4-.2-2-.1-1.4-.3-2.7-.5-4.1-.1-1.1-.4-2.1-.6-3.1-.2-.7-.2-1.3-.5-2-.1,0,0-.3.1-.2.2.2.2.5.3.8.1.5.2,1,.3,1.5h0c.6,2.2.9,4.4,1.1,6.7,0,.6.1,1.2.2,1.8v.5c0,.1-.2.2-.3.1h.1Z"/>
  <path class="st0" d="M21.7,175c-.2,0-.4-.1-.5-.4,0-1.2,0-2.3-.2-3.4h0c0-.3,0-.5.1-.7.1-.1.3-.2.4-.2.3,0,.5.3.5.6.2,1.2.2,2.4.2,3.6s-.2.5-.5.5Z"/>
  <path id="Vector_65" class="st0" d="M21.5,174.5c0-1.2,0-2.3-.2-3.5-.1,0-.1-.2,0-.3.2-.2.4,0,.4.2.2,1.2.2,2.4.2,3.6s-.3.3-.4,0Z"/>
  <path id="Vector_66" class="st0" d="M31.1,158.8c-.2-2-.4-4.1-.5-6.1,0-.4,0-.8-.1-1.1v-.2c0-.1.3-.1.3,0,.1.7.2,1.4.2,2.1,0,1.5.2,2.9.3,4.4h0v.9s0,.1-.1.1c0,0-.1,0-.1-.1h0Z"/>
  <path class="st0" d="M30.8,170.8v-.2h0c-.1-.2,0-.4,0-.5v-1.4s0-1.4,0-1.4c0-1.1,0-2.2.1-3.3,0-.3.2-.4.4-.4s.4.2.4.5c0,1.5,0,2.9-.2,4.4v.3s0,1.4,0,1.4c0,.3,0,.8-.4.8h-.3Z"/>
  <path id="Vector_67" class="st0" d="M31.1,170.4c-.2,0,0-.3,0-.4v-2.8h0c0-1.1,0-2.2.1-3.3,0-.2.2-.2.2,0,0,1.6-.1,3.1-.2,4.7v1.4c0,.1,0,.5-.1.5h0Z"/>
  <path class="st0" d="M14.1,117.1c-.2,0-.3,0-.5,0h-.3c0,0,0,0,0,0-2.3,0-3.2-1.1-3.2-2.1-.1-1.2,1-2.6,3.2-3h.3c.7,0,1.8-.2,2.8-.2s2.2.2,2.6.6c.1.2.2.4,0,.6-.1.2-.4.4-.7.4s-.2,0-.3,0c-1,0-2,0-3,.2-.3,0-.5.1-.8.1-.6,0-1.3.2-1.9.5-.4.2-.7.5-.7.7,0,.1.1.2.3.3.7.3,1.5.3,2.3.3,1.6,0,3.2-.2,4.7-.6,0,0,.1,0,.2,0,.3,0,.5.2.6.4.1.3,0,.6-.1.8-.1.1-.3.2-.4.2s-.1,0-.2,0h0s-.1,0-.1,0c-1.5.5-3.1.9-4.8.9Z"/>
  <path id="Vector_68" class="st0" d="M13.6,116.7c-4.4.2-4.2-3.8-.3-4.5,1.1,0,4.7-.5,5.4.3.2.3-.3.7-.6.5-1,0-2.1,0-3.1.2-.9.2-1.9.2-2.8.7-.6.3-1.3,1-.4,1.5.8.3,1.6.3,2.4.3,1.6,0,3.2-.2,4.8-.6.4-.2.7.4.4.7s-.4,0-.6,0c-1.7.5-3.4,1-5.2.9h0Z"/>
  <path class="st0" d="M13,121.9c-.2,0-.4,0-.6-.2-.2-.2-.3-.5-.3-.8,0-.4.4-.8.7-.9,0,0,.2-.2.3-.2.3-.2.5-.4.8-.6.4-.3.7-.6,1.1-.8.4-.3.7-.5,1.1-.8.4-.3.8-.5,1.2-.8.4-.3.8-.6,1.2-.8.1,0,.2-.1.3-.2.2-.1.5-.3.8-.3s.3,0,.5.2c.2.2.5.5.3,1.1-.1.4-.6.6-.9.7-.5.4-1.1.8-1.6,1.1-.8.6-1.6,1.2-2.4,1.8-.3.2-.7.5-1,.7-.1,0-.2.2-.4.3-.3.3-.7.5-1.1.5Z"/>
  <path id="Vector_69" class="st0" d="M12.6,121.4c-.4-.4,0-1,.4-1.2.4-.3.7-.6,1.1-.8.8-.6,1.5-1.1,2.3-1.7.8-.5,1.5-1.1,2.3-1.6.4-.2.8-.6,1.2-.3.3.2.3.5.2.8-.1.3-.4.4-.7.5-.6.4-1.2.8-1.7,1.2-1.1.9-2.3,1.7-3.4,2.5-.5.3-1.1,1.1-1.7.6Z"/>
  <path class="st0" d="M21.2,120.7c-.5,0-.9-.2-1.4-.4h-.4c-.3-.2-.6-.3-.9-.4-.5-.1-1-.3-1.5-.5-.3-.1-.4-.5-.4-.8,0-.3.3-.5.6-.5h.2s0,0,0,0c.3,0,.8.1,1,.2,1.1.4,2.2.8,3.3,1.1h0s0,0,0,0c.2.2.3.5.3.8,0,.2-.3.4-.5.5h0c0,0-.3,0-.3,0Z"/>
  <path id="Vector_70" class="st0" d="M21.3,120.4c-.6,0-1.1-.3-1.7-.5-.8-.3-1.6-.4-2.4-.8-.4-.2-.2-.8.2-.7.3,0,.7,0,1,.2,1.1.4,2.2.8,3.3,1.1.4.3,0,.9-.4.6h0Z"/>
  <path class="st0" d="M14.3,118.2h-.1s0,0,0,0c-.8,0-1.5-.2-2.2-.4,0,0,0,0,0,0,0,0-.2,0-.3-.2,0-.1-.1-.2-.1-.4,0-.4.3-.6.6-.6h.1s0,0,0,0c.3,0,.6.1.9.2.2,0,.4.1.7.2.2,0,.4.1.6.2,0,0,0,0,0,0,.3,0,.5.3.5.5s-.2.5-.5.5h0Z"/>
  <path id="Vector_71" class="st0" d="M14.2,117.9c-.8,0-1.5-.2-2.2-.4-.4,0-.3-.7.1-.6.3,0,.6,0,.9.2.5,0,.8.3,1.3.4.3,0,.3.5,0,.4h-.1Z"/>
  <path class="st0" d="M24,168.4c-.8,0-2.2-.2-3-1-.5-.8-.5-1.8.1-2.4,1.2-1,2.9-1.1,4.4-1.1h.7c.9,0,2.1,0,2.1.8s-.2.5-.5.5-.2,0-.2,0c-.3,0-.7,0-1.2,0-1.5,0-3.3.3-4,.7-.4.2-.5.5-.3.9.2.1.5.2.7.3h.1c.6.2,1.3.3,2.1.3s2-.1,2.9-.2h0c.3,0,.6.2.6.5,0,.2-.1.5-.5.6-1.3.2-2.5.3-3.8.3h0s-.2,0-.2,0Z"/>
  <path id="Vector_72" class="st0" d="M24.2,168.1c-1,0-2.3-.2-3-.9-.4-.6-.4-1.5.1-2,1.3-1.1,3.4-1,4.9-1s1.8,0,1.8.5-.2.3-.3.2c-1.3-.3-4.3,0-5.5.6-.5.3-.7.7-.4,1.3.3.3.7.4,1,.5,1.7.4,3.4.2,5.1,0,.3,0,.4.4,0,.5-1.3.2-2.6.3-3.9.3h.2Z"/>
  <path class="st0" d="M28.4,173c-.2,0-.4,0-.5-.2h-.2c-.2-.4-.2-.7-.2-.9,0-.1,0-.3,0-.4,0-.3,0-.6,0-.9,0-.4-.1-.9,0-1.3,0-.3,0-.5.1-.9,0-.2.4-.4.6-.4.6,0,.6.8.7,1.6,0,.2,0,.4,0,.5,0,.5,0,.9.2,1.4v.3s0,.8,0,.8h0c-.2.3-.4.4-.6.4Z"/>
  <path id="Vector_73" class="st0" d="M27.9,172.5c-.2-.3-.1-.7-.2-1.1,0-.7-.2-1.4-.1-2.1,0-.3,0-.5.1-.8,0-.1.2-.2.3-.2.4,0,.4,1.5.5,1.9,0,.5.1,1,.2,1.6v.7c-.2.3-.5.3-.7,0h0Z"/>
  <path class="st0" d="M21.6,171.3h0c0,0-.3,0-.3,0-.4,0-.6-.3-.6-.6,0-.3.2-.7.5-.8,0,0,0,0,.1,0,.4,0,.7,0,.9.1h.2c.6.1,1.3.1,2,.2,1.2,0,2.5,0,3.7.4h0c.1,0,.3.2.3.4s-.2.4-.4.4h-6.5Z"/>
  <path id="Vector_74" class="st0" d="M21.9,170.9h-.6c-.4-.1-.3-.7,0-.8.4,0,.7.1,1.1.2,1.9.2,3.8,0,5.7.5.1,0,.1.2,0,.2h-6.2,0Z"/>
  <path class="st0" d="M21.2,172.7c-.2,0-.3,0-.4-.2l-.5-.5h.4c0-.1,0-.2,0-.3,0-.1,0-.2,0-.3v-1.9c0-.2,0-.4,0-.7,0-.2.2-.3.4-.3s.3,0,.4.2c.1.2.2.4.2.5,0,.3,0,.6.1.9,0,.3,0,.6.1.9v.9c0,.5-.4.8-.8.8Z"/>
  <path id="Vector_75" class="st0" d="M21.2,172.3c-.3-.2-.2-.7-.3-1v-1.8c0-.2,0-.4.1-.6,0-.1.2-.1.3,0,0,0,.1.2.1.3.1.6.2,1.3.3,1.9v.8c0,.4-.5.6-.7.4h.2Z"/>
  <path id="Vector_76" class="st0" d="M29.7,144.8c.6.3,9.3,3.5,6.4,4-5.8-2.8-12-4.8-18.3-5.7-1.9-.3-3.9-.6-5.9-.6s-2,.3-2.6-.5c-.5-.8,2.4-4.6,2.9-5.7.8-1.6,1.5-3.2,2.1-4.8.2.7.4,1.4.5,2v.2c-1.1,2.6-2.3,5.1-3.9,7.5,6.4,0,12.8,1.4,18.8,3.7h0Z"/>
  <path id="Vector_77" class="st0" d="M37.6,174c0-.1,0-.3,0-.4h0c0-.4,0-.9,0-1.3,0-.2,0-.4.2-.6,0-.4.3-.8.4-1.2.3-.9.7-1.7.9-2.4v-.2h0c.2-.4.3-.8.5-1.2.9-2.2,1.8-4.5,2.7-6.7s1.8-4.4,2.7-6.6c.9-2.2,1.8-4.3,2.7-6.5,0-.1,0-.2,0-.4.2-.4.3-.8.4-1.2.2-.5.4-1,.6-1.5,0-.1,0-.2,0-.3.2-.4.4-.7.7-.9.2-.2.4-.3.6-.5,0,0,.3-.2.4-.2.8-.4,1.8-.4,2.6.1.7.5,1.1,1.2,1.2,2.1v.9c0,.5-.2.9-.4,1.4,0,.2-.2.5-.4.7-.2.5-.5.9-.7,1.3l-1.5,3c-1,2.1-2,4.2-3,6.3-1.1,2.2-2.1,4.3-3.2,6.5-1,2.2-2.1,4.3-3.1,6.4-.3.6-.6,1.2-.9,1.8-.2.4-.4.8-.6,1.1-.3.5-.6.9-1.1,1.2-.2.1-.5.2-.8.2-.6,0-1.2-.3-1.5-.9h.4Z"/>
  <path id="Vector_78" class="st0" d="M71,218c-.2-.1-.4-.3-.5-.5h0c-.2-.3-.3-.5-.5-.8-.3-.4-.7-.9-1-1.3-.7-.9-1.3-1.8-2-2.8-1.4-1.9-2.8-3.8-4.2-5.7-1.4-1.9-2.8-3.8-4.2-5.6-1.5-1.9-2.9-3.8-4.3-5.8-1.4-1.9-2.8-3.8-4.1-5.7-1.4-1.9-2.8-3.8-4.2-5.7-.7-.9-1.4-1.9-2.1-2.8-.7-.9-1.3-1.8-1.9-2.8-.5-.6-.9-1.3-1.4-1.9-.2-.3-.4-.6-.6-.8-.2,0-.5-.1-.7-.2-.9-.4-1.5-1.3-1.7-2.4v-.9c0-.6.4-1.2.9-1.6h0c.2-.2.4-.3.6-.4.6-.3,1.2-.4,1.8-.3h.4c0,0,.3,0,.4.2.5.2.8.5,1.1.9s.5.9.5,1.4v.8s0,.1,0,.2c.3.4.6.9.9,1.3.6.9,1.3,1.9,1.9,2.8,1.3,1.9,2.6,3.8,3.9,5.7,1.3,2,2.6,3.9,3.9,5.9,1.3,2,2.7,3.9,4,5.9,1.3,1.9,2.5,3.9,3.8,5.9s2.6,4,3.9,6c1.3,1.9,2.6,3.9,3.9,5.8.5.7.9,1.3,1.3,2,.2.3.5.7.7,1,0,.1,0,.2.2.3h0v.2c0,.2.2.4.2.6h0v.3c0,.3-.4.6-.8.6s-.2,0-.3,0l.2.2Z"/>
  <path id="Vector_79" class="st0" d="M58.6,220.6h0c-.4-.4-.4-1.1-.3-1.6v-1.1c0-.8,0-1.6,0-2.4,0-1.6.2-3.3.3-4.9.2-3.2.4-6.5.7-9.7.2-3.3.5-6.6.8-9.9.3-3.3.5-6.5.8-9.8.3-3.2.5-6.5.8-9.7s.5-6.4.7-9.6c.2-3.2.4-6.4.7-9.6,0-1.2.2-2.4.3-3.6v-2.5c0-.3,0-.7,0-1s0-.6,0-.9c0-.3.2-.6.4-.8.5-.9,1.5-1.4,2.5-1.4s2.3.8,2.6,1.9c0,.1,0,.3.2.5,0,.4,0,.9,0,1.3,0,.3-.2.7-.3,1h0c0,.4,0,.7-.2,1.1,0,.7-.2,1.5-.3,2.2-.2,1.6-.3,3.1-.5,4.7-.3,3.2-.7,6.3-1.1,9.5s-.7,6.5-1.1,9.7c-.3,3.2-.7,6.5-1,9.7-.3,3.3-.7,6.6-1.1,9.8-.4,3.2-.7,6.5-1.1,9.7-.4,3.2-.8,6.4-1.2,9.7-.2,1.3-.3,2.5-.5,3.8,0,.6-.2,1.3-.3,1.9,0,.3,0,.6,0,.9,0,.5-.2,1-.6,1.3-.2.1-.4.2-.7.2s-.6-.1-.8-.3h.3Z"/>
  <path id="Vector_80" class="st0" d="M120.1,130v.5h0v.3c-.2,1.3-1.4,2.4-2.7,2.4s-.3,0-.4,0c-.7-.1-1.3-.4-1.8-1-.3-.3-.5-.7-.8-1-.2-.4-.4-.7-.6-1.1,0,0,0-.2,0-.3v-.2c-.2-.5-.4-1-.6-1.5-.4-1.1-.8-2.2-1.2-3.3-.6-1.6-1.1-3.2-1.5-4.8.2-.7.5-1.3.7-2,.7-2.1,1.2-4.3,1.6-6.5h0c0-.5,0-1,.2-1.4.5,1.9,1,3.7,1.6,5.5.2.6.4,1.3.6,1.9.3,1,.7,2,1.1,3,.4,1.1.8,2.2,1.2,3.3.2.5.4,1,.7,1.5.3.6.6,1.2,1,1.8.2.3.4.7.5,1,0,.2.2.3.3.5.2.4.4.8.4,1.2l-.2.2Z"/>
  <path id="Vector_81" class="st0" d="M90.9,165v-.4h0c0-.3.3-.5.4-.7.2-.2.3-.5.5-.7.3-.5.7-.9,1-1.4.7-1,1.4-2,2.1-2.9,1.4-1.9,2.8-3.9,4.2-5.8,1.4-1.9,2.8-3.8,4.2-5.7,1.4-1.9,2.8-3.7,4.2-5.6,1.4-1.9,2.8-3.8,4.2-5.7.5-.7,1-1.4,1.5-2.1.3-.4.6-.9.9-1.3v-.3c0-.7,0-1.4.4-2s1-1,1.6-1.1c.7-.1,1.4,0,2,.4s1,1,1.1,1.7,0,1.4-.4,2-1,1-1.6,1.1h-.7c-.5.6-1,1.2-1.5,1.8-.8.9-1.5,1.8-2.2,2.8-1.4,1.8-2.8,3.6-4.3,5.5-1.4,1.9-2.9,3.7-4.4,5.6-1.5,1.9-3,3.8-4.5,5.7-1.5,1.8-2.9,3.7-4.4,5.5-.6.7-1.1,1.4-1.7,2.1-.3.4-.6.7-.9,1.1,0,.2-.3.4-.4.5,0,.2-.3.4-.5.5,0,0-.2.1-.4.1-.3,0-.6-.2-.7-.5l.3-.2Z"/>
</svg>