<svg width="323" height="367" viewBox="0 0 323 367" fill="none" xmlns="http://www.w3.org/2000/svg">
<path d="M265.391 215.505C283.02 176.64 305.176 128.386 322.805 89.7581L299.458 76.8031C284.807 68.6021 245.975 46.9708 230.847 38.5321C232.277 23.5566 235.016 10.4826 239.424 0.855469H79.5703C84.2159 10.958 87.0746 24.7451 88.2658 40.6715C62.8941 54.934 25.3727 75.8522 0.239258 89.877C17.2728 127.554 38.8328 174.025 55.8663 211.821C47.4091 227.272 37.4034 238.563 26.2065 243.317V313.798C42.168 301.318 61.703 290.859 82.6674 283.728C85.5261 282.777 88.504 281.588 91.601 280.875C103.87 296.564 123.762 321.999 135.912 337.449L159.854 366.331L183.082 337.449C195.351 321.88 215.362 296.088 227.75 280.519C243.116 285.154 268.131 296.207 292.668 312.371V243.436C282.424 239.039 273.372 229.174 265.272 215.743L265.391 215.505ZM69.0882 181.394C60.0354 161.427 40.0239 118.283 31.0902 98.3156L89.2187 65.8685C88.504 98.0779 83.9776 131.119 75.1631 162.259C73.3763 168.796 71.3514 175.214 69.0882 181.276V181.394ZM159.497 336.974C159.497 336.974 124.358 288.125 114.114 275.17C142.94 269.584 173.434 269.465 202.498 274.338L159.497 336.974ZM239.543 248.309C194.279 232.145 142.106 230.481 95.8892 243.198H96.1274C96.1274 243.198 95.8892 243.198 95.7701 243.198C95.7701 243.198 94.9363 243.436 94.4598 243.674C89.4569 244.981 84.5732 246.526 79.8086 248.19C120.308 199.579 126.383 124.582 132.696 63.1349H143.059V178.78H176.888V63.2537H187.013C193.326 124.701 199.282 199.341 239.781 248.071L239.543 248.309ZM229.894 65.5119C230.728 65.9874 288.023 97.959 288.857 98.4345L280.876 115.906C275.873 126.722 254.79 172.718 250.263 182.702C237.16 145.501 230.609 104.853 229.775 65.5119H229.894Z" fill="white"/>
</svg>
